<?xml version="1.0" standalone="no"?>
 <!DOCTYPE svg PUBLIC "-//W3C//DTD SVG 1.1//EN" 
 "http://www.w3.org/Graphics/SVG/1.1/DTD/svg11.dtd"> 
<svg xmlns="http://www.w3.org/2000/svg" version="1.1" 
    width="29.7002cm" height="21.0007cm" viewBox="0 0 116930 82680 ">
<title>SVG Picture created as ICD_BOARD-F_SilkS.svg date 2016/02/10 23:22:39 </title>
  <desc>Picture generated by PCBNEW </desc>
<g style="fill:#000000; fill-opacity:1;stroke:#000000; stroke-opacity:1;
stroke-linecap:round; stroke-linejoin:round; "
 transform="translate(0 0) scale(1 1)">
</g>
<g style="fill:#000000; fill-opacity:0.0; 
stroke:#000000; stroke-width:-0.000393701; stroke-opacity:1; 
stroke-linecap:round; stroke-linejoin:round;">
</g>
<g style="fill:#000000; fill-opacity:0.0; 
stroke:#000000; stroke-width:19.685; stroke-opacity:1; 
stroke-linecap:round; stroke-linejoin:round;">
</g>
<g style="fill:#000000; fill-opacity:0.0; 
stroke:#000000; stroke-width:59.0551; stroke-opacity:1; 
stroke-linecap:round; stroke-linejoin:round;">
<rect x="69685.9" y="65357.2" width="42519.7" height="12598.4" rx="0" />
</g>
<g style="fill:#000000; fill-opacity:0.0; 
stroke:#000000; stroke-width:19.685; stroke-opacity:1; 
stroke-linecap:round; stroke-linejoin:round;">
</g>
<g style="fill:#000000; fill-opacity:0.0; 
stroke:#000000; stroke-width:59.0551; stroke-opacity:1; 
stroke-linecap:round; stroke-linejoin:round;">
<rect x="3937.01" y="3937.01" width="109056" height="74806" rx="0" />
</g>
<g style="fill:#000000; fill-opacity:0.0; 
stroke:#000000; stroke-width:19.685; stroke-opacity:1; 
stroke-linecap:round; stroke-linejoin:round;">
</g>
<g style="fill:#000000; fill-opacity:0.0; 
stroke:#000000; stroke-width:59.0551; stroke-opacity:1; 
stroke-linecap:round; stroke-linejoin:round;">
<rect x="4724.41" y="4724.41" width="107481" height="73231.2" rx="0" />
</g>
<g style="fill:#000000; fill-opacity:0.0; 
stroke:#000000; stroke-width:19.685; stroke-opacity:1; 
stroke-linecap:round; stroke-linejoin:round;">
</g>
<g style="fill:#000000; fill-opacity:0.0; 
stroke:#000000; stroke-width:59.0551; stroke-opacity:1; 
stroke-linecap:round; stroke-linejoin:round;">
<path d="M23622 4724
L23622 3937
" />
</g>
<g style="fill:#000000; fill-opacity:0.0; 
stroke:#000000; stroke-width:19.685; stroke-opacity:1; 
stroke-linecap:round; stroke-linejoin:round;">
</g>
<g style="fill:#000000; fill-opacity:0.0; 
stroke:#000000; stroke-width:59.0551; stroke-opacity:1; 
stroke-linecap:round; stroke-linejoin:round;">
<path d="M43307 4724
L43307 3937
" />
</g>
<g style="fill:#000000; fill-opacity:0.0; 
stroke:#000000; stroke-width:19.685; stroke-opacity:1; 
stroke-linecap:round; stroke-linejoin:round;">
</g>
<g style="fill:#000000; fill-opacity:0.0; 
stroke:#000000; stroke-width:59.0551; stroke-opacity:1; 
stroke-linecap:round; stroke-linejoin:round;">
<path d="M62992 4724
L62992 3937
" />
</g>
<g style="fill:#000000; fill-opacity:0.0; 
stroke:#000000; stroke-width:19.685; stroke-opacity:1; 
stroke-linecap:round; stroke-linejoin:round;">
</g>
<g style="fill:#000000; fill-opacity:0.0; 
stroke:#000000; stroke-width:59.0551; stroke-opacity:1; 
stroke-linecap:round; stroke-linejoin:round;">
<path d="M82677 4724
L82677 3937
" />
</g>
<g style="fill:#000000; fill-opacity:0.0; 
stroke:#000000; stroke-width:19.685; stroke-opacity:1; 
stroke-linecap:round; stroke-linejoin:round;">
</g>
<g style="fill:#000000; fill-opacity:0.0; 
stroke:#000000; stroke-width:59.0551; stroke-opacity:1; 
stroke-linecap:round; stroke-linejoin:round;">
<path d="M102362 4724
L102362 3937
" />
</g>
<g style="fill:#000000; fill-opacity:0.0; 
stroke:#000000; stroke-width:19.685; stroke-opacity:1; 
stroke-linecap:round; stroke-linejoin:round;">
</g>
<g style="fill:#000000; fill-opacity:0.0; 
stroke:#000000; stroke-width:59.0551; stroke-opacity:1; 
stroke-linecap:round; stroke-linejoin:round;">
<path d="M14169 4562
L13877 4562
" />
<path d="M14023 4562
L14023 4050
L13974 4123
L13925 4172
L13877 4196
" />
</g>
<g style="fill:#000000; fill-opacity:0.0; 
stroke:#000000; stroke-width:19.685; stroke-opacity:1; 
stroke-linecap:round; stroke-linejoin:round;">
</g>
<g style="fill:#000000; fill-opacity:0.0; 
stroke:#000000; stroke-width:59.0551; stroke-opacity:1; 
stroke-linecap:round; stroke-linejoin:round;">
<path d="M33562 4099
L33586 4074
L33635 4050
L33757 4050
L33805 4074
L33830 4099
L33854 4147
L33854 4196
L33830 4269
L33537 4562
L33854 4562
" />
</g>
<g style="fill:#000000; fill-opacity:0.0; 
stroke:#000000; stroke-width:19.685; stroke-opacity:1; 
stroke-linecap:round; stroke-linejoin:round;">
</g>
<g style="fill:#000000; fill-opacity:0.0; 
stroke:#000000; stroke-width:59.0551; stroke-opacity:1; 
stroke-linecap:round; stroke-linejoin:round;">
<path d="M53222 4050
L53539 4050
L53368 4245
L53442 4245
L53490 4269
L53515 4294
L53539 4342
L53539 4464
L53515 4513
L53490 4537
L53442 4562
L53295 4562
L53247 4537
L53222 4513
" />
</g>
<g style="fill:#000000; fill-opacity:0.0; 
stroke:#000000; stroke-width:19.685; stroke-opacity:1; 
stroke-linecap:round; stroke-linejoin:round;">
</g>
<g style="fill:#000000; fill-opacity:0.0; 
stroke:#000000; stroke-width:59.0551; stroke-opacity:1; 
stroke-linecap:round; stroke-linejoin:round;">
<path d="M73175 4221
L73175 4562
" />
<path d="M73053 4026
L72932 4391
L73248 4391
" />
</g>
<g style="fill:#000000; fill-opacity:0.0; 
stroke:#000000; stroke-width:19.685; stroke-opacity:1; 
stroke-linecap:round; stroke-linejoin:round;">
</g>
<g style="fill:#000000; fill-opacity:0.0; 
stroke:#000000; stroke-width:59.0551; stroke-opacity:1; 
stroke-linecap:round; stroke-linejoin:round;">
<path d="M92885 4050
L92641 4050
L92617 4294
L92641 4269
L92690 4245
L92812 4245
L92860 4269
L92885 4294
L92909 4342
L92909 4464
L92885 4513
L92860 4537
L92812 4562
L92690 4562
L92641 4537
L92617 4513
" />
</g>
<g style="fill:#000000; fill-opacity:0.0; 
stroke:#000000; stroke-width:19.685; stroke-opacity:1; 
stroke-linecap:round; stroke-linejoin:round;">
</g>
<g style="fill:#000000; fill-opacity:0.0; 
stroke:#000000; stroke-width:59.0551; stroke-opacity:1; 
stroke-linecap:round; stroke-linejoin:round;">
<path d="M112545 4050
L112448 4050
L112399 4074
L112375 4099
L112326 4172
L112302 4269
L112302 4464
L112326 4513
L112350 4537
L112399 4562
L112497 4562
L112545 4537
L112570 4513
L112594 4464
L112594 4342
L112570 4294
L112545 4269
L112497 4245
L112399 4245
L112350 4269
L112326 4294
L112302 4342
" />
</g>
<g style="fill:#000000; fill-opacity:0.0; 
stroke:#000000; stroke-width:19.685; stroke-opacity:1; 
stroke-linecap:round; stroke-linejoin:round;">
</g>
<g style="fill:#000000; fill-opacity:0.0; 
stroke:#000000; stroke-width:59.0551; stroke-opacity:1; 
stroke-linecap:round; stroke-linejoin:round;">
<path d="M23622 77955
L23622 78742
" />
</g>
<g style="fill:#000000; fill-opacity:0.0; 
stroke:#000000; stroke-width:19.685; stroke-opacity:1; 
stroke-linecap:round; stroke-linejoin:round;">
</g>
<g style="fill:#000000; fill-opacity:0.0; 
stroke:#000000; stroke-width:59.0551; stroke-opacity:1; 
stroke-linecap:round; stroke-linejoin:round;">
<path d="M43307 77955
L43307 78742
" />
</g>
<g style="fill:#000000; fill-opacity:0.0; 
stroke:#000000; stroke-width:19.685; stroke-opacity:1; 
stroke-linecap:round; stroke-linejoin:round;">
</g>
<g style="fill:#000000; fill-opacity:0.0; 
stroke:#000000; stroke-width:59.0551; stroke-opacity:1; 
stroke-linecap:round; stroke-linejoin:round;">
<path d="M62992 77955
L62992 78742
" />
</g>
<g style="fill:#000000; fill-opacity:0.0; 
stroke:#000000; stroke-width:19.685; stroke-opacity:1; 
stroke-linecap:round; stroke-linejoin:round;">
</g>
<g style="fill:#000000; fill-opacity:0.0; 
stroke:#000000; stroke-width:59.0551; stroke-opacity:1; 
stroke-linecap:round; stroke-linejoin:round;">
<path d="M82677 77955
L82677 78742
" />
</g>
<g style="fill:#000000; fill-opacity:0.0; 
stroke:#000000; stroke-width:19.685; stroke-opacity:1; 
stroke-linecap:round; stroke-linejoin:round;">
</g>
<g style="fill:#000000; fill-opacity:0.0; 
stroke:#000000; stroke-width:59.0551; stroke-opacity:1; 
stroke-linecap:round; stroke-linejoin:round;">
<path d="M102362 77955
L102362 78742
" />
</g>
<g style="fill:#000000; fill-opacity:0.0; 
stroke:#000000; stroke-width:19.685; stroke-opacity:1; 
stroke-linecap:round; stroke-linejoin:round;">
</g>
<g style="fill:#000000; fill-opacity:0.0; 
stroke:#000000; stroke-width:59.0551; stroke-opacity:1; 
stroke-linecap:round; stroke-linejoin:round;">
<path d="M14169 78580
L13877 78580
" />
<path d="M14023 78580
L14023 78069
L13974 78142
L13925 78190
L13877 78215
" />
</g>
<g style="fill:#000000; fill-opacity:0.0; 
stroke:#000000; stroke-width:19.685; stroke-opacity:1; 
stroke-linecap:round; stroke-linejoin:round;">
</g>
<g style="fill:#000000; fill-opacity:0.0; 
stroke:#000000; stroke-width:59.0551; stroke-opacity:1; 
stroke-linecap:round; stroke-linejoin:round;">
<path d="M33562 78117
L33586 78093
L33635 78069
L33757 78069
L33805 78093
L33830 78117
L33854 78166
L33854 78215
L33830 78288
L33537 78580
L33854 78580
" />
</g>
<g style="fill:#000000; fill-opacity:0.0; 
stroke:#000000; stroke-width:19.685; stroke-opacity:1; 
stroke-linecap:round; stroke-linejoin:round;">
</g>
<g style="fill:#000000; fill-opacity:0.0; 
stroke:#000000; stroke-width:59.0551; stroke-opacity:1; 
stroke-linecap:round; stroke-linejoin:round;">
<path d="M53222 78069
L53539 78069
L53368 78263
L53442 78263
L53490 78288
L53515 78312
L53539 78361
L53539 78483
L53515 78532
L53490 78556
L53442 78580
L53295 78580
L53247 78556
L53222 78532
" />
</g>
<g style="fill:#000000; fill-opacity:0.0; 
stroke:#000000; stroke-width:19.685; stroke-opacity:1; 
stroke-linecap:round; stroke-linejoin:round;">
</g>
<g style="fill:#000000; fill-opacity:0.0; 
stroke:#000000; stroke-width:59.0551; stroke-opacity:1; 
stroke-linecap:round; stroke-linejoin:round;">
<path d="M73175 78239
L73175 78580
" />
<path d="M73053 78044
L72932 78410
L73248 78410
" />
</g>
<g style="fill:#000000; fill-opacity:0.0; 
stroke:#000000; stroke-width:19.685; stroke-opacity:1; 
stroke-linecap:round; stroke-linejoin:round;">
</g>
<g style="fill:#000000; fill-opacity:0.0; 
stroke:#000000; stroke-width:59.0551; stroke-opacity:1; 
stroke-linecap:round; stroke-linejoin:round;">
<path d="M92885 78069
L92641 78069
L92617 78312
L92641 78288
L92690 78263
L92812 78263
L92860 78288
L92885 78312
L92909 78361
L92909 78483
L92885 78532
L92860 78556
L92812 78580
L92690 78580
L92641 78556
L92617 78532
" />
</g>
<g style="fill:#000000; fill-opacity:0.0; 
stroke:#000000; stroke-width:19.685; stroke-opacity:1; 
stroke-linecap:round; stroke-linejoin:round;">
</g>
<g style="fill:#000000; fill-opacity:0.0; 
stroke:#000000; stroke-width:59.0551; stroke-opacity:1; 
stroke-linecap:round; stroke-linejoin:round;">
<path d="M112545 78069
L112448 78069
L112399 78093
L112375 78117
L112326 78190
L112302 78288
L112302 78483
L112326 78532
L112350 78556
L112399 78580
L112497 78580
L112545 78556
L112570 78532
L112594 78483
L112594 78361
L112570 78312
L112545 78288
L112497 78263
L112399 78263
L112350 78288
L112326 78312
L112302 78361
" />
</g>
<g style="fill:#000000; fill-opacity:0.0; 
stroke:#000000; stroke-width:19.685; stroke-opacity:1; 
stroke-linecap:round; stroke-linejoin:round;">
</g>
<g style="fill:#000000; fill-opacity:0.0; 
stroke:#000000; stroke-width:59.0551; stroke-opacity:1; 
stroke-linecap:round; stroke-linejoin:round;">
<path d="M3937 23622
L4724 23622
" />
</g>
<g style="fill:#000000; fill-opacity:0.0; 
stroke:#000000; stroke-width:19.685; stroke-opacity:1; 
stroke-linecap:round; stroke-linejoin:round;">
</g>
<g style="fill:#000000; fill-opacity:0.0; 
stroke:#000000; stroke-width:59.0551; stroke-opacity:1; 
stroke-linecap:round; stroke-linejoin:round;">
<path d="M3937 43307
L4724 43307
" />
</g>
<g style="fill:#000000; fill-opacity:0.0; 
stroke:#000000; stroke-width:19.685; stroke-opacity:1; 
stroke-linecap:round; stroke-linejoin:round;">
</g>
<g style="fill:#000000; fill-opacity:0.0; 
stroke:#000000; stroke-width:59.0551; stroke-opacity:1; 
stroke-linecap:round; stroke-linejoin:round;">
<path d="M3937 62992
L4724 62992
" />
</g>
<g style="fill:#000000; fill-opacity:0.0; 
stroke:#000000; stroke-width:19.685; stroke-opacity:1; 
stroke-linecap:round; stroke-linejoin:round;">
</g>
<g style="fill:#000000; fill-opacity:0.0; 
stroke:#000000; stroke-width:59.0551; stroke-opacity:1; 
stroke-linecap:round; stroke-linejoin:round;">
<path d="M4208 13864
L4452 13864
" />
<path d="M4160 14011
L4330 13499
L4501 14011
" />
</g>
<g style="fill:#000000; fill-opacity:0.0; 
stroke:#000000; stroke-width:19.685; stroke-opacity:1; 
stroke-linecap:round; stroke-linejoin:round;">
</g>
<g style="fill:#000000; fill-opacity:0.0; 
stroke:#000000; stroke-width:59.0551; stroke-opacity:1; 
stroke-linecap:round; stroke-linejoin:round;">
<path d="M4367 33428
L4440 33452
L4464 33476
L4489 33525
L4489 33598
L4464 33647
L4440 33671
L4391 33696
L4196 33696
L4196 33184
L4367 33184
L4416 33208
L4440 33233
L4464 33281
L4464 33330
L4440 33379
L4416 33403
L4367 33428
L4196 33428
" />
</g>
<g style="fill:#000000; fill-opacity:0.0; 
stroke:#000000; stroke-width:19.685; stroke-opacity:1; 
stroke-linecap:round; stroke-linejoin:round;">
</g>
<g style="fill:#000000; fill-opacity:0.0; 
stroke:#000000; stroke-width:59.0551; stroke-opacity:1; 
stroke-linecap:round; stroke-linejoin:round;">
<path d="M4489 53332
L4464 53356
L4391 53381
L4342 53381
L4269 53356
L4221 53308
L4196 53259
L4172 53161
L4172 53088
L4196 52991
L4221 52942
L4269 52893
L4342 52869
L4391 52869
L4464 52893
L4489 52918
" />
</g>
<g style="fill:#000000; fill-opacity:0.0; 
stroke:#000000; stroke-width:19.685; stroke-opacity:1; 
stroke-linecap:round; stroke-linejoin:round;">
</g>
<g style="fill:#000000; fill-opacity:0.0; 
stroke:#000000; stroke-width:59.0551; stroke-opacity:1; 
stroke-linecap:round; stroke-linejoin:round;">
<path d="M4196 73066
L4196 72554
L4318 72554
L4391 72578
L4440 72627
L4464 72676
L4489 72773
L4489 72846
L4464 72944
L4440 72993
L4391 73041
L4318 73066
L4196 73066
" />
</g>
<g style="fill:#000000; fill-opacity:0.0; 
stroke:#000000; stroke-width:19.685; stroke-opacity:1; 
stroke-linecap:round; stroke-linejoin:round;">
</g>
<g style="fill:#000000; fill-opacity:0.0; 
stroke:#000000; stroke-width:59.0551; stroke-opacity:1; 
stroke-linecap:round; stroke-linejoin:round;">
<path d="M112992 23622
L112205 23622
" />
</g>
<g style="fill:#000000; fill-opacity:0.0; 
stroke:#000000; stroke-width:19.685; stroke-opacity:1; 
stroke-linecap:round; stroke-linejoin:round;">
</g>
<g style="fill:#000000; fill-opacity:0.0; 
stroke:#000000; stroke-width:59.0551; stroke-opacity:1; 
stroke-linecap:round; stroke-linejoin:round;">
<path d="M112992 43307
L112205 43307
" />
</g>
<g style="fill:#000000; fill-opacity:0.0; 
stroke:#000000; stroke-width:19.685; stroke-opacity:1; 
stroke-linecap:round; stroke-linejoin:round;">
</g>
<g style="fill:#000000; fill-opacity:0.0; 
stroke:#000000; stroke-width:59.0551; stroke-opacity:1; 
stroke-linecap:round; stroke-linejoin:round;">
<path d="M112992 62992
L112205 62992
" />
</g>
<g style="fill:#000000; fill-opacity:0.0; 
stroke:#000000; stroke-width:19.685; stroke-opacity:1; 
stroke-linecap:round; stroke-linejoin:round;">
</g>
<g style="fill:#000000; fill-opacity:0.0; 
stroke:#000000; stroke-width:59.0551; stroke-opacity:1; 
stroke-linecap:round; stroke-linejoin:round;">
<path d="M112477 13864
L112721 13864
" />
<path d="M112428 14011
L112599 13499
L112769 14011
" />
</g>
<g style="fill:#000000; fill-opacity:0.0; 
stroke:#000000; stroke-width:19.685; stroke-opacity:1; 
stroke-linecap:round; stroke-linejoin:round;">
</g>
<g style="fill:#000000; fill-opacity:0.0; 
stroke:#000000; stroke-width:59.0551; stroke-opacity:1; 
stroke-linecap:round; stroke-linejoin:round;">
<path d="M112635 33428
L112708 33452
L112733 33476
L112757 33525
L112757 33598
L112733 33647
L112708 33671
L112660 33696
L112465 33696
L112465 33184
L112635 33184
L112684 33208
L112708 33233
L112733 33281
L112733 33330
L112708 33379
L112684 33403
L112635 33428
L112465 33428
" />
</g>
<g style="fill:#000000; fill-opacity:0.0; 
stroke:#000000; stroke-width:19.685; stroke-opacity:1; 
stroke-linecap:round; stroke-linejoin:round;">
</g>
<g style="fill:#000000; fill-opacity:0.0; 
stroke:#000000; stroke-width:59.0551; stroke-opacity:1; 
stroke-linecap:round; stroke-linejoin:round;">
<path d="M112757 53332
L112733 53356
L112660 53381
L112611 53381
L112538 53356
L112489 53308
L112465 53259
L112440 53161
L112440 53088
L112465 52991
L112489 52942
L112538 52893
L112611 52869
L112660 52869
L112733 52893
L112757 52918
" />
</g>
<g style="fill:#000000; fill-opacity:0.0; 
stroke:#000000; stroke-width:19.685; stroke-opacity:1; 
stroke-linecap:round; stroke-linejoin:round;">
</g>
<g style="fill:#000000; fill-opacity:0.0; 
stroke:#000000; stroke-width:59.0551; stroke-opacity:1; 
stroke-linecap:round; stroke-linejoin:round;">
<path d="M112465 73066
L112465 72554
L112587 72554
L112660 72578
L112708 72627
L112733 72676
L112757 72773
L112757 72846
L112733 72944
L112708 72993
L112660 73041
L112587 73066
L112465 73066
" />
</g>
<g style="fill:#000000; fill-opacity:0.0; 
stroke:#000000; stroke-width:19.685; stroke-opacity:1; 
stroke-linecap:round; stroke-linejoin:round;">
</g>
<g style="fill:#000000; fill-opacity:0.0; 
stroke:#000000; stroke-width:59.0551; stroke-opacity:1; 
stroke-linecap:round; stroke-linejoin:round;">
<path d="M78881 76293
L78881 75703
L79022 75703
L79106 75731
L79162 75787
L79190 75843
L79219 75956
L79219 76040
L79190 76153
L79162 76209
L79106 76265
L79022 76293
L78881 76293
" />
<path d="M79725 76293
L79725 75984
L79697 75928
L79640 75899
L79528 75899
L79472 75928
" />
<path d="M79725 76265
L79669 76293
L79528 76293
L79472 76265
L79444 76209
L79444 76153
L79472 76096
L79528 76068
L79669 76068
L79725 76040
" />
<path d="M79922 75899
L80147 75899
" />
<path d="M80006 75703
L80006 76209
L80034 76265
L80090 76293
L80147 76293
" />
<path d="M80568 76265
L80512 76293
L80400 76293
L80343 76265
L80315 76209
L80315 75984
L80343 75928
L80400 75899
L80512 75899
L80568 75928
L80597 75984
L80597 76040
L80315 76096
" />
<path d="M80850 76237
L80878 76265
L80850 76293
L80822 76265
L80850 76237
L80850 76293
" />
<path d="M80850 75928
L80878 75956
L80850 75984
L80822 75956
L80850 75928
L80850 75984
" />
<path d="M81553 75759
L81581 75731
L81637 75703
L81778 75703
L81834 75731
L81862 75759
L81890 75815
L81890 75871
L81862 75956
L81525 76293
L81890 76293
" />
<path d="M82256 75703
L82312 75703
L82368 75731
L82396 75759
L82424 75815
L82453 75928
L82453 76068
L82424 76181
L82396 76237
L82368 76265
L82312 76293
L82256 76293
L82199 76265
L82171 76237
L82143 76181
L82115 76068
L82115 75928
L82143 75815
L82171 75759
L82199 75731
L82256 75703
" />
<path d="M83015 76293
L82678 76293
" />
<path d="M82846 76293
L82846 75703
L82790 75787
L82734 75843
L82678 75871
" />
<path d="M83521 75703
L83409 75703
L83352 75731
L83324 75759
L83268 75843
L83240 75956
L83240 76181
L83268 76237
L83296 76265
L83352 76293
L83465 76293
L83521 76265
L83549 76237
L83577 76181
L83577 76040
L83549 75984
L83521 75956
L83465 75928
L83352 75928
L83296 75956
L83268 75984
L83240 76040
" />
<path d="M83831 76068
L84280 76068
" />
<path d="M84674 75703
L84730 75703
L84787 75731
L84815 75759
L84843 75815
L84871 75928
L84871 76068
L84843 76181
L84815 76237
L84787 76265
L84730 76293
L84674 76293
L84618 76265
L84590 76237
L84562 76181
L84534 76068
L84534 75928
L84562 75815
L84590 75759
L84618 75731
L84674 75703
" />
<path d="M85096 75759
L85124 75731
L85180 75703
L85321 75703
L85377 75731
L85405 75759
L85433 75815
L85433 75871
L85405 75956
L85068 76293
L85433 76293
" />
<path d="M85687 76068
L86136 76068
" />
<path d="M86727 76293
L86390 76293
" />
<path d="M86558 76293
L86558 75703
L86502 75787
L86446 75843
L86390 75871
" />
<path d="M87093 75703
L87149 75703
L87205 75731
L87233 75759
L87261 75815
L87289 75928
L87289 76068
L87261 76181
L87233 76237
L87205 76265
L87149 76293
L87093 76293
L87036 76265
L87008 76237
L86980 76181
L86952 76068
L86952 75928
L86980 75815
L87008 75759
L87036 75731
L87093 75703
" />
</g>
<g style="fill:#000000; fill-opacity:0.0; 
stroke:#000000; stroke-width:19.685; stroke-opacity:1; 
stroke-linecap:round; stroke-linejoin:round;">
</g>
<g style="fill:#000000; fill-opacity:0.0; 
stroke:#000000; stroke-width:59.0551; stroke-opacity:1; 
stroke-linecap:round; stroke-linejoin:round;">
<path d="M69685 76577
L112205 76577
" />
</g>
<g style="fill:#000000; fill-opacity:0.0; 
stroke:#000000; stroke-width:19.685; stroke-opacity:1; 
stroke-linecap:round; stroke-linejoin:round;">
</g>
<g style="fill:#000000; fill-opacity:0.0; 
stroke:#000000; stroke-width:59.0551; stroke-opacity:1; 
stroke-linecap:round; stroke-linejoin:round;">
<path d="M70220 77395
L70220 76805
" />
<path d="M70557 77395
L70304 77058
" />
<path d="M70557 76805
L70220 77142
" />
<path d="M70810 77395
L70810 77002
" />
<path d="M70810 76805
L70782 76833
L70810 76861
L70838 76833
L70810 76805
L70810 76861
" />
<path d="M71429 77339
L71401 77367
L71316 77395
L71260 77395
L71176 77367
L71120 77311
L71091 77255
L71063 77142
L71063 77058
L71091 76946
L71120 76889
L71176 76833
L71260 76805
L71316 76805
L71401 76833
L71429 76861
" />
<path d="M71935 77395
L71935 77086
L71907 77030
L71851 77002
L71738 77002
L71682 77030
" />
<path d="M71935 77367
L71879 77395
L71738 77395
L71682 77367
L71654 77311
L71654 77255
L71682 77199
L71738 77171
L71879 77171
L71935 77142
" />
<path d="M72469 77395
L72469 76805
" />
<path d="M72469 77367
L72413 77395
L72301 77395
L72244 77367
L72216 77339
L72188 77283
L72188 77114
L72216 77058
L72244 77030
L72301 77002
L72413 77002
L72469 77030
" />
<path d="M73201 77086
L73397 77086
" />
<path d="M73482 77395
L73201 77395
L73201 76805
L73482 76805
" />
<path d="M73735 77339
L73763 77367
L73735 77395
L73707 77367
L73735 77339
L73735 77395
" />
<path d="M74016 77395
L74016 76805
L74157 76805
L74241 76833
L74297 76889
L74325 76946
L74354 77058
L74354 77142
L74325 77255
L74297 77311
L74241 77367
L74157 77395
L74016 77395
" />
<path d="M74607 77339
L74635 77367
L74607 77395
L74579 77367
L74607 77339
L74607 77395
" />
<path d="M74860 77227
L75141 77227
" />
<path d="M74804 77395
L75000 76805
L75197 77395
" />
<path d="M75394 77339
L75422 77367
L75394 77395
L75366 77367
L75394 77339
L75394 77395
" />
<path d="M76575 77395
L76575 76805
" />
<path d="M76631 77171
L76800 77395
" />
<path d="M76800 77002
L76575 77227
" />
<path d="M77053 77395
L77053 77002
" />
<path d="M77053 76805
L77025 76833
L77053 76861
L77081 76833
L77053 76805
L77053 76861
" />
<path d="M77588 77367
L77531 77395
L77419 77395
L77363 77367
L77334 77339
L77306 77283
L77306 77114
L77334 77058
L77363 77030
L77419 77002
L77531 77002
L77588 77030
" />
<path d="M78094 77395
L78094 77086
L78066 77030
L78009 77002
L77897 77002
L77841 77030
" />
<path d="M78094 77367
L78037 77395
L77897 77395
L77841 77367
L77813 77311
L77813 77255
L77841 77199
L77897 77171
L78037 77171
L78094 77142
" />
<path d="M78628 77395
L78628 76805
" />
<path d="M78628 77367
L78572 77395
L78459 77395
L78403 77367
L78375 77339
L78347 77283
L78347 77114
L78375 77058
L78403 77030
L78459 77002
L78572 77002
L78628 77030
" />
<path d="M79612 77002
L79612 77395
" />
<path d="M79472 76777
L79331 77199
L79697 77199
" />
<path d="M79922 77339
L79950 77367
L79922 77395
L79894 77367
L79922 77339
L79922 77395
" />
<path d="M80315 76805
L80372 76805
L80428 76833
L80456 76861
L80484 76917
L80512 77030
L80512 77171
L80484 77283
L80456 77339
L80428 77367
L80372 77395
L80315 77395
L80259 77367
L80231 77339
L80203 77283
L80175 77171
L80175 77030
L80203 76917
L80231 76861
L80259 76833
L80315 76805
" />
<path d="M80765 77339
L80793 77367
L80765 77395
L80737 77367
L80765 77339
L80765 77395
" />
<path d="M81159 76805
L81215 76805
L81271 76833
L81300 76861
L81328 76917
L81356 77030
L81356 77171
L81328 77283
L81300 77339
L81271 77367
L81215 77395
L81159 77395
L81103 77367
L81075 77339
L81046 77283
L81018 77171
L81018 77030
L81046 76917
L81075 76861
L81103 76833
L81159 76805
" />
<path d="M81609 77171
L82059 77171
" />
<path d="M82340 77395
L82340 77002
" />
<path d="M82340 77114
L82368 77058
L82396 77030
L82453 77002
L82509 77002
" />
<path d="M82959 77367
L82903 77395
L82790 77395
L82734 77367
L82706 77339
L82678 77283
L82678 77114
L82706 77058
L82734 77030
L82790 77002
L82903 77002
L82959 77030
" />
<path d="M83521 77395
L83184 77395
" />
<path d="M83352 77395
L83352 76805
L83296 76889
L83240 76946
L83184 76974
" />
<path d="M83774 77171
L84224 77171
" />
<path d="M84477 77367
L84534 77395
L84646 77395
L84702 77367
L84730 77311
L84730 77283
L84702 77227
L84646 77199
L84562 77199
L84505 77171
L84477 77114
L84477 77086
L84505 77030
L84562 77002
L84646 77002
L84702 77030
" />
<path d="M84899 77002
L85124 77002
" />
<path d="M84983 76805
L84983 77311
L85012 77367
L85068 77395
L85124 77395
" />
<path d="M85574 77395
L85574 77086
L85546 77030
L85490 77002
L85377 77002
L85321 77030
" />
<path d="M85574 77367
L85518 77395
L85377 77395
L85321 77367
L85293 77311
L85293 77255
L85321 77199
L85377 77171
L85518 77171
L85574 77142
" />
<path d="M85855 77395
L85855 76805
" />
<path d="M85855 77030
L85912 77002
L86024 77002
L86080 77030
L86108 77058
L86136 77114
L86136 77283
L86108 77339
L86080 77367
L86024 77395
L85912 77395
L85855 77367
" />
<path d="M86474 77395
L86418 77367
L86390 77311
L86390 76805
" />
<path d="M86924 77367
L86868 77395
L86755 77395
L86699 77367
L86671 77311
L86671 77086
L86699 77030
L86755 77002
L86868 77002
L86924 77030
L86952 77086
L86952 77142
L86671 77199
" />
</g>
<g style="fill:#000000; fill-opacity:0.0; 
stroke:#000000; stroke-width:19.685; stroke-opacity:1; 
stroke-linecap:round; stroke-linejoin:round;">
</g>
<g style="fill:#000000; fill-opacity:0.0; 
stroke:#000000; stroke-width:59.0551; stroke-opacity:1; 
stroke-linecap:round; stroke-linejoin:round;">
<path d="M69685 75396
L112205 75396
" />
</g>
<g style="fill:#000000; fill-opacity:0.0; 
stroke:#000000; stroke-width:19.685; stroke-opacity:1; 
stroke-linecap:round; stroke-linejoin:round;">
</g>
<g style="fill:#000000; fill-opacity:0.0; 
stroke:#000000; stroke-width:118.11; stroke-opacity:1; 
stroke-linecap:round; stroke-linejoin:round;">
<path d="M104022 76293
L103825 76012
" />
<path d="M103684 76293
L103684 75703
L103909 75703
L103965 75731
L103994 75759
L104022 75815
L104022 75899
L103994 75956
L103965 75984
L103909 76012
L103684 76012
" />
<path d="M104500 76265
L104444 76293
L104331 76293
L104275 76265
L104247 76209
L104247 75984
L104275 75928
L104331 75899
L104444 75899
L104500 75928
L104528 75984
L104528 76040
L104247 76096
" />
<path d="M104725 75899
L104865 76293
L105006 75899
" />
<path d="M105231 76237
L105259 76265
L105231 76293
L105203 76265
L105231 76237
L105231 76293
" />
<path d="M105231 75928
L105259 75956
L105231 75984
L105203 75956
L105231 75928
L105231 75984
" />
<path d="M105878 75703
L106075 76293
L106271 75703
" />
<path d="M106581 75703
L106637 75703
L106693 75731
L106721 75759
L106750 75815
L106778 75928
L106778 76068
L106750 76181
L106721 76237
L106693 76265
L106637 76293
L106581 76293
L106525 76265
L106496 76237
L106468 76181
L106440 76068
L106440 75928
L106468 75815
L106496 75759
L106525 75731
L106581 75703
" />
<path d="M107031 76068
L107481 76068
" />
<path d="M108071 76293
L107734 76293
" />
<path d="M107903 76293
L107903 75703
L107846 75787
L107790 75843
L107734 75871
" />
<path d="M108437 75703
L108493 75703
L108549 75731
L108577 75759
L108606 75815
L108634 75928
L108634 76068
L108606 76181
L108577 76237
L108549 76265
L108493 76293
L108437 76293
L108381 76265
L108352 76237
L108324 76181
L108296 76068
L108296 75928
L108324 75815
L108352 75759
L108381 75731
L108437 75703
" />
</g>
<g style="fill:#000000; fill-opacity:0.0; 
stroke:#000000; stroke-width:19.685; stroke-opacity:1; 
stroke-linecap:round; stroke-linejoin:round;">
</g>
<g style="fill:#000000; fill-opacity:0.0; 
stroke:#000000; stroke-width:59.0551; stroke-opacity:1; 
stroke-linecap:round; stroke-linejoin:round;">
<path d="M70192 76265
L70276 76293
L70417 76293
L70473 76265
L70501 76237
L70529 76181
L70529 76124
L70501 76068
L70473 76040
L70417 76012
L70304 75984
L70248 75956
L70220 75928
L70192 75871
L70192 75815
L70220 75759
L70248 75731
L70304 75703
L70445 75703
L70529 75731
" />
<path d="M70782 76293
L70782 75899
" />
<path d="M70782 75703
L70754 75731
L70782 75759
L70810 75731
L70782 75703
L70782 75759
" />
<path d="M71007 75899
L71316 75899
L71007 76293
L71316 76293
" />
<path d="M71766 76265
L71710 76293
L71598 76293
L71541 76265
L71513 76209
L71513 75984
L71541 75928
L71598 75899
L71710 75899
L71766 75928
L71795 75984
L71795 76040
L71513 76096
" />
<path d="M72048 76237
L72076 76265
L72048 76293
L72019 76265
L72048 76237
L72048 76293
" />
<path d="M72048 75928
L72076 75956
L72048 75984
L72019 75956
L72048 75928
L72048 75984
" />
<path d="M72751 76124
L73032 76124
" />
<path d="M72694 76293
L72891 75703
L73088 76293
" />
<path d="M73538 75899
L73538 76293
" />
<path d="M73397 75674
L73257 76096
L73622 76096
" />
</g>
<g style="fill:#000000; fill-opacity:0.0; 
stroke:#000000; stroke-width:19.685; stroke-opacity:1; 
stroke-linecap:round; stroke-linejoin:round;">
</g>
<g style="fill:#000000; fill-opacity:0.0; 
stroke:#000000; stroke-width:59.0551; stroke-opacity:1; 
stroke-linecap:round; stroke-linejoin:round;">
<path d="M103684 77395
L103684 76805
" />
<path d="M104219 77395
L104219 76805
" />
<path d="M104219 77367
L104162 77395
L104050 77395
L103994 77367
L103965 77339
L103937 77283
L103937 77114
L103965 77058
L103994 77030
L104050 77002
L104162 77002
L104219 77030
" />
<path d="M104500 77339
L104528 77367
L104500 77395
L104472 77367
L104500 77339
L104500 77395
" />
<path d="M104500 77030
L104528 77058
L104500 77086
L104472 77058
L104500 77030
L104500 77086
" />
<path d="M105540 77395
L105203 77395
" />
<path d="M105372 77395
L105372 76805
L105315 76889
L105259 76946
L105203 76974
" />
<path d="M106215 76777
L105709 77536
" />
<path d="M106721 77395
L106384 77395
" />
<path d="M106553 77395
L106553 76805
L106496 76889
L106440 76946
L106384 76974
" />
</g>
<g style="fill:#000000; fill-opacity:0.0; 
stroke:#000000; stroke-width:19.685; stroke-opacity:1; 
stroke-linecap:round; stroke-linejoin:round;">
</g>
<g style="fill:#000000; fill-opacity:0.0; 
stroke:#000000; stroke-width:59.0551; stroke-opacity:1; 
stroke-linecap:round; stroke-linejoin:round;">
<path d="M69685 73821
L112205 73821
" />
</g>
<g style="fill:#000000; fill-opacity:0.0; 
stroke:#000000; stroke-width:19.685; stroke-opacity:1; 
stroke-linecap:round; stroke-linejoin:round;">
</g>
<g style="fill:#000000; fill-opacity:0.0; 
stroke:#000000; stroke-width:157.48; stroke-opacity:1; 
stroke-linecap:round; stroke-linejoin:round;">
<path d="M70257 74099
L70707 74099
" />
<path d="M70384 74886
L70482 74099
" />
<path d="M70871 74886
L70937 74361
" />
<path d="M70970 74099
L70927 74136
L70960 74174
L71002 74136
L70970 74099
L70960 74174
" />
<path d="M71199 74361
L71499 74361
" />
<path d="M71345 74099
L71260 74774
L71288 74849
L71359 74886
L71434 74886
" />
<path d="M71809 74886
L71738 74849
L71710 74774
L71795 74099
" />
<path d="M72413 74849
L72334 74886
L72184 74886
L72113 74849
L72085 74774
L72123 74474
L72169 74399
L72249 74361
L72399 74361
L72469 74399
L72498 74474
L72488 74549
L72104 74624
" />
<path d="M72793 74811
L72826 74849
L72783 74886
L72751 74849
L72793 74811
L72783 74886
" />
<path d="M72844 74399
L72877 74436
L72835 74474
L72802 74436
L72844 74399
L72835 74474
" />
<path d="M73758 74886
L73857 74099
" />
<path d="M74593 74811
L74550 74849
L74433 74886
L74358 74886
L74250 74849
L74185 74774
L74157 74699
L74138 74549
L74152 74436
L74208 74286
L74255 74211
L74340 74136
L74457 74099
L74532 74099
L74639 74136
L74672 74174
" />
<path d="M74921 74886
L75019 74099
L75207 74099
L75314 74136
L75380 74211
L75408 74286
L75427 74436
L75413 74549
L75357 74699
L75310 74774
L75225 74849
L75108 74886
L74921 74886
" />
<path d="M75511 74961
L76111 74961
" />
<path d="M76622 74474
L76730 74511
L76763 74549
L76791 74624
L76777 74736
L76730 74811
L76688 74849
L76608 74886
L76308 74886
L76406 74099
L76669 74099
L76739 74136
L76772 74174
L76800 74249
L76791 74324
L76744 74399
L76702 74436
L76622 74474
L76360 74474
" />
<path d="M77344 74099
L77494 74099
L77564 74136
L77630 74211
L77648 74361
L77616 74624
L77559 74774
L77475 74849
L77395 74886
L77245 74886
L77175 74849
L77109 74774
L77091 74624
L77124 74361
L77180 74211
L77264 74136
L77344 74099
" />
<path d="M77911 74661
L78286 74661
" />
<path d="M77808 74886
L78169 74099
L78333 74886
" />
<path d="M79045 74886
L78830 74511
" />
<path d="M78595 74886
L78694 74099
L78994 74099
L79064 74136
L79097 74174
L79125 74249
L79111 74361
L79064 74436
L79022 74474
L78942 74511
L78642 74511
" />
<path d="M79383 74886
L79481 74099
L79669 74099
L79776 74136
L79842 74211
L79870 74286
L79889 74436
L79875 74549
L79819 74699
L79772 74774
L79687 74849
L79570 74886
L79383 74886
" />
</g>
<g style="fill:#000000; fill-opacity:0.0; 
stroke:#000000; stroke-width:19.685; stroke-opacity:1; 
stroke-linecap:round; stroke-linejoin:round;">
</g>
<g style="fill:#000000; fill-opacity:0.0; 
stroke:#000000; stroke-width:59.0551; stroke-opacity:1; 
stroke-linecap:round; stroke-linejoin:round;">
<path d="M70417 73070
L70220 73070
" />
<path d="M70220 73380
L70220 72789
L70501 72789
" />
<path d="M70726 73380
L70726 72986
" />
<path d="M70726 72789
L70698 72817
L70726 72845
L70754 72817
L70726 72789
L70726 72845
" />
<path d="M71091 73380
L71035 73352
L71007 73295
L71007 72789
" />
<path d="M71541 73352
L71485 73380
L71373 73380
L71316 73352
L71288 73295
L71288 73070
L71316 73014
L71373 72986
L71485 72986
L71541 73014
L71570 73070
L71570 73127
L71288 73183
" />
<path d="M71823 73323
L71851 73352
L71823 73380
L71795 73352
L71823 73323
L71823 73380
" />
<path d="M71823 73014
L71851 73042
L71823 73070
L71795 73042
L71823 73014
L71823 73070
" />
<path d="M72554 73380
L72554 72789
" />
<path d="M73172 73323
L73144 73352
L73060 73380
L73004 73380
L72919 73352
L72863 73295
L72835 73239
L72807 73127
L72807 73042
L72835 72930
L72863 72874
L72919 72817
L73004 72789
L73060 72789
L73144 72817
L73172 72845
" />
<path d="M73426 73380
L73426 72789
L73566 72789
L73651 72817
L73707 72874
L73735 72930
L73763 73042
L73763 73127
L73735 73239
L73707 73295
L73651 73352
L73566 73380
L73426 73380
" />
<path d="M73876 73436
L74325 73436
" />
<path d="M74663 73070
L74747 73099
L74775 73127
L74804 73183
L74804 73267
L74775 73323
L74747 73352
L74691 73380
L74466 73380
L74466 72789
L74663 72789
L74719 72817
L74747 72845
L74775 72902
L74775 72958
L74747 73014
L74719 73042
L74663 73070
L74466 73070
" />
<path d="M75169 72789
L75282 72789
L75338 72817
L75394 72874
L75422 72986
L75422 73183
L75394 73295
L75338 73352
L75282 73380
L75169 73380
L75113 73352
L75057 73295
L75028 73183
L75028 72986
L75057 72874
L75113 72817
L75169 72789
" />
<path d="M75647 73211
L75928 73211
" />
<path d="M75591 73380
L75788 72789
L75985 73380
" />
<path d="M76519 73380
L76322 73099
" />
<path d="M76181 73380
L76181 72789
L76406 72789
L76463 72817
L76491 72845
L76519 72902
L76519 72986
L76491 73042
L76463 73070
L76406 73099
L76181 73099
" />
<path d="M76772 73380
L76772 72789
L76913 72789
L76997 72817
L77053 72874
L77081 72930
L77109 73042
L77109 73127
L77081 73239
L77053 73295
L76997 73352
L76913 73380
L76772 73380
" />
<path d="M77363 73323
L77391 73352
L77363 73380
L77334 73352
L77363 73323
L77363 73380
" />
<path d="M77644 73380
L77644 72789
" />
<path d="M77700 73155
L77869 73380
" />
<path d="M77869 72986
L77644 73211
" />
<path d="M78122 73380
L78122 72986
" />
<path d="M78122 72789
L78094 72817
L78122 72845
L78150 72817
L78122 72789
L78122 72845
" />
<path d="M78656 73352
L78600 73380
L78487 73380
L78431 73352
L78403 73323
L78375 73267
L78375 73099
L78403 73042
L78431 73014
L78487 72986
L78600 72986
L78656 73014
" />
<path d="M79162 73380
L79162 73070
L79134 73014
L79078 72986
L78965 72986
L78909 73014
" />
<path d="M79162 73352
L79106 73380
L78965 73380
L78909 73352
L78881 73295
L78881 73239
L78909 73183
L78965 73155
L79106 73155
L79162 73127
" />
<path d="M79697 73380
L79697 72789
" />
<path d="M79697 73352
L79640 73380
L79528 73380
L79472 73352
L79444 73323
L79415 73267
L79415 73099
L79444 73042
L79472 73014
L79528 72986
L79640 72986
L79697 73014
" />
<path d="M79837 73436
L80287 73436
" />
<path d="M80428 72986
L80428 73577
" />
<path d="M80428 73014
L80484 72986
L80597 72986
L80653 73014
L80681 73042
L80709 73099
L80709 73267
L80681 73323
L80653 73352
L80597 73380
L80484 73380
L80428 73352
" />
<path d="M81215 73352
L81159 73380
L81046 73380
L80990 73352
L80962 73323
L80934 73267
L80934 73099
L80962 73042
L80990 73014
L81046 72986
L81159 72986
L81215 73014
" />
<path d="M81468 73380
L81468 72789
" />
<path d="M81468 73014
L81525 72986
L81637 72986
L81693 73014
L81721 73042
L81750 73099
L81750 73267
L81721 73323
L81693 73352
L81637 73380
L81525 73380
L81468 73352
" />
</g>
<g style="fill:#000000; fill-opacity:0.0; 
stroke:#000000; stroke-width:19.685; stroke-opacity:1; 
stroke-linecap:round; stroke-linejoin:round;">
</g>
<g style="fill:#000000; fill-opacity:0.0; 
stroke:#000000; stroke-width:59.0551; stroke-opacity:1; 
stroke-linecap:round; stroke-linejoin:round;">
<path d="M69685 71459
L112205 71459
" />
</g>
<g style="fill:#000000; fill-opacity:0.0; 
stroke:#000000; stroke-width:19.685; stroke-opacity:1; 
stroke-linecap:round; stroke-linejoin:round;">
</g>
<g style="fill:#000000; fill-opacity:0.0; 
stroke:#000000; stroke-width:59.0551; stroke-opacity:1; 
stroke-linecap:round; stroke-linejoin:round;">
<path d="M70192 72289
L70276 72317
L70417 72317
L70473 72289
L70501 72260
L70529 72204
L70529 72148
L70501 72092
L70473 72064
L70417 72036
L70304 72007
L70248 71979
L70220 71951
L70192 71895
L70192 71839
L70220 71782
L70248 71754
L70304 71726
L70445 71726
L70529 71754
" />
<path d="M70782 72317
L70782 71726
" />
<path d="M71035 72317
L71035 72007
L71007 71951
L70951 71923
L70867 71923
L70810 71951
L70782 71979
" />
<path d="M71541 72289
L71485 72317
L71373 72317
L71316 72289
L71288 72232
L71288 72007
L71316 71951
L71373 71923
L71485 71923
L71541 71951
L71570 72007
L71570 72064
L71288 72120
" />
<path d="M72048 72289
L71991 72317
L71879 72317
L71823 72289
L71795 72232
L71795 72007
L71823 71951
L71879 71923
L71991 71923
L72048 71951
L72076 72007
L72076 72064
L71795 72120
" />
<path d="M72244 71923
L72469 71923
" />
<path d="M72329 71726
L72329 72232
L72357 72289
L72413 72317
L72469 72317
" />
<path d="M72666 72260
L72694 72289
L72666 72317
L72638 72289
L72666 72260
L72666 72317
" />
<path d="M72666 71951
L72694 71979
L72666 72007
L72638 71979
L72666 71951
L72666 72007
" />
</g>
<g style="fill:#000000; fill-opacity:0.0; 
stroke:#000000; stroke-width:19.685; stroke-opacity:1; 
stroke-linecap:round; stroke-linejoin:round;">
</g>
<g style="fill:#000000; fill-opacity:0.0; 
stroke:#000000; stroke-width:118.11; stroke-opacity:1; 
stroke-linecap:round; stroke-linejoin:round;">
<path d="M70417 70826
L70220 70826
" />
<path d="M70220 71136
L70220 70545
L70501 70545
" />
<path d="M70979 70742
L70979 71136
" />
<path d="M70838 70517
L70698 70939
L71063 70939
" />
<path d="M71288 71136
L71288 70545
L71429 70545
L71513 70573
L71570 70629
L71598 70686
L71626 70798
L71626 70883
L71598 70995
L71570 71051
L71513 71108
L71429 71136
L71288 71136
" />
<path d="M71879 70826
L72076 70826
" />
<path d="M72160 71136
L71879 71136
L71879 70545
L72160 70545
" />
<path d="M72610 70826
L72694 70854
L72723 70883
L72751 70939
L72751 71023
L72723 71079
L72694 71108
L72638 71136
L72413 71136
L72413 70545
L72610 70545
L72666 70573
L72694 70601
L72723 70658
L72723 70714
L72694 70770
L72666 70798
L72610 70826
L72413 70826
" />
</g>
<g style="fill:#000000; fill-opacity:0.0; 
stroke:#000000; stroke-width:19.685; stroke-opacity:1; 
stroke-linecap:round; stroke-linejoin:round;">
</g>
<g style="fill:#000000; fill-opacity:0.0; 
stroke:#000000; stroke-width:59.0551; stroke-opacity:1; 
stroke-linecap:round; stroke-linejoin:round;">
<path d="M77559 75396
L77559 76577
" />
</g>
<g style="fill:#000000; fill-opacity:0.0; 
stroke:#000000; stroke-width:19.685; stroke-opacity:1; 
stroke-linecap:round; stroke-linejoin:round;">
</g>
<g style="fill:#000000; fill-opacity:0.0; 
stroke:#000000; stroke-width:59.0551; stroke-opacity:1; 
stroke-linecap:round; stroke-linejoin:round;">
<path d="M102756 75396
L102756 77955
" />
<path d="M42000 14500
L74000 14500
" />
<path d="M74000 14500
L74000 25500
" />
<path d="M74000 25500
L42000 25500
" />
<path d="M42000 25500
L42000 14500
" />
<path d="M41500 50000
L41500 61000
" />
<path d="M73500 50000
L41500 50000
" />
<path d="M73500 61000
L73500 50000
" />
<path d="M41500 61000
L73500 61000
" />
</g>
<g style="fill:#000000; fill-opacity:0.0; 
stroke:#000000; stroke-width:120; stroke-opacity:1; 
stroke-linecap:round; stroke-linejoin:round;">
<path d="M65942 13671
L65942 14100
L65914 14185
L65857 14242
L65771 14271
L65714 14271
" />
<path d="M66542 14271
L66200 14271
" />
<path d="M66371 14271
L66371 13671
L66314 13757
L66257 13814
L66200 13842
" />
<path d="M66914 13671
L66971 13671
L67028 13700
L67057 13728
L67085 13785
L67114 13900
L67114 14042
L67085 14157
L67057 14214
L67028 14242
L66971 14271
L66914 14271
L66857 14242
L66828 14214
L66800 14157
L66771 14042
L66771 13900
L66800 13785
L66828 13728
L66857 13700
L66914 13671
" />
<path d="M67485 13671
L67542 13671
L67600 13700
L67628 13728
L67657 13785
L67685 13900
L67685 14042
L67657 14157
L67628 14214
L67600 14242
L67542 14271
L67485 14271
L67428 14242
L67400 14214
L67371 14157
L67342 14042
L67342 13900
L67371 13785
L67400 13728
L67428 13700
L67485 13671
" />
<path d="M68028 13928
L67971 13900
L67942 13871
L67914 13814
L67914 13785
L67942 13728
L67971 13700
L68028 13671
L68142 13671
L68200 13700
L68228 13728
L68257 13785
L68257 13814
L68228 13871
L68200 13900
L68142 13928
L68028 13928
L67971 13957
L67942 13985
L67914 14042
L67914 14157
L67942 14214
L67971 14242
L68028 14271
L68142 14271
L68200 14242
L68228 14214
L68257 14157
L68257 14042
L68228 13985
L68200 13957
L68142 13928
" />
<path d="M66385 20271
L66185 19985
" />
<path d="M66042 20271
L66042 19671
L66271 19671
L66328 19700
L66357 19728
L66385 19785
L66385 19871
L66357 19928
L66328 19957
L66271 19985
L66042 19985
" />
<path d="M66814 19671
L66814 20100
L66785 20185
L66728 20242
L66642 20271
L66585 20271
" />
<path d="M67414 20271
L67071 20271
" />
<path d="M67242 20271
L67242 19671
L67185 19757
L67128 19814
L67071 19842
" />
<path d="M67642 19728
L67671 19700
L67728 19671
L67871 19671
L67928 19700
L67957 19728
L67985 19785
L67985 19842
L67957 19928
L67614 20271
L67985 20271
" />
<path d="M65942 25671
L65942 26100
L65914 26185
L65857 26242
L65771 26271
L65714 26271
" />
<path d="M66542 26271
L66200 26271
" />
<path d="M66371 26271
L66371 25671
L66314 25757
L66257 25814
L66200 25842
" />
<path d="M66914 25671
L66971 25671
L67028 25700
L67057 25728
L67085 25785
L67114 25900
L67114 26042
L67085 26157
L67057 26214
L67028 26242
L66971 26271
L66914 26271
L66857 26242
L66828 26214
L66800 26157
L66771 26042
L66771 25900
L66800 25785
L66828 25728
L66857 25700
L66914 25671
" />
<path d="M67485 25671
L67542 25671
L67600 25700
L67628 25728
L67657 25785
L67685 25900
L67685 26042
L67657 26157
L67628 26214
L67600 26242
L67542 26271
L67485 26271
L67428 26242
L67400 26214
L67371 26157
L67342 26042
L67342 25900
L67371 25785
L67400 25728
L67428 25700
L67485 25671
" />
<path d="M67885 25671
L68285 25671
L68028 26271
" />
<path d="M66385 20271
L66185 19985
" />
<path d="M66042 20271
L66042 19671
L66271 19671
L66328 19700
L66357 19728
L66385 19785
L66385 19871
L66357 19928
L66328 19957
L66271 19985
L66042 19985
" />
<path d="M66814 19671
L66814 20100
L66785 20185
L66728 20242
L66642 20271
L66585 20271
" />
<path d="M67414 20271
L67071 20271
" />
<path d="M67242 20271
L67242 19671
L67185 19757
L67128 19814
L67071 19842
" />
<path d="M67642 19728
L67671 19700
L67728 19671
L67871 19671
L67928 19700
L67957 19728
L67985 19785
L67985 19842
L67957 19928
L67614 20271
L67985 20271
" />
<path d="M59942 13671
L59942 14100
L59914 14185
L59857 14242
L59771 14271
L59714 14271
" />
<path d="M60542 14271
L60200 14271
" />
<path d="M60371 14271
L60371 13671
L60314 13757
L60257 13814
L60200 13842
" />
<path d="M60914 13671
L60971 13671
L61028 13700
L61057 13728
L61085 13785
L61114 13900
L61114 14042
L61085 14157
L61057 14214
L61028 14242
L60971 14271
L60914 14271
L60857 14242
L60828 14214
L60800 14157
L60771 14042
L60771 13900
L60800 13785
L60828 13728
L60857 13700
L60914 13671
" />
<path d="M61485 13671
L61542 13671
L61600 13700
L61628 13728
L61657 13785
L61685 13900
L61685 14042
L61657 14157
L61628 14214
L61600 14242
L61542 14271
L61485 14271
L61428 14242
L61400 14214
L61371 14157
L61342 14042
L61342 13900
L61371 13785
L61400 13728
L61428 13700
L61485 13671
" />
<path d="M62200 13671
L62085 13671
L62028 13700
L62000 13728
L61942 13814
L61914 13928
L61914 14157
L61942 14214
L61971 14242
L62028 14271
L62142 14271
L62200 14242
L62228 14214
L62257 14157
L62257 14014
L62228 13957
L62200 13928
L62142 13900
L62028 13900
L61971 13928
L61942 13957
L61914 14014
" />
<path d="M60385 20271
L60185 19985
" />
<path d="M60042 20271
L60042 19671
L60271 19671
L60328 19700
L60357 19728
L60385 19785
L60385 19871
L60357 19928
L60328 19957
L60271 19985
L60042 19985
" />
<path d="M60814 19671
L60814 20100
L60785 20185
L60728 20242
L60642 20271
L60585 20271
" />
<path d="M61414 20271
L61071 20271
" />
<path d="M61242 20271
L61242 19671
L61185 19757
L61128 19814
L61071 19842
" />
<path d="M61642 19728
L61671 19700
L61728 19671
L61871 19671
L61928 19700
L61957 19728
L61985 19785
L61985 19842
L61957 19928
L61614 20271
L61985 20271
" />
<path d="M59942 25671
L59942 26100
L59914 26185
L59857 26242
L59771 26271
L59714 26271
" />
<path d="M60542 26271
L60200 26271
" />
<path d="M60371 26271
L60371 25671
L60314 25757
L60257 25814
L60200 25842
" />
<path d="M60914 25671
L60971 25671
L61028 25700
L61057 25728
L61085 25785
L61114 25900
L61114 26042
L61085 26157
L61057 26214
L61028 26242
L60971 26271
L60914 26271
L60857 26242
L60828 26214
L60800 26157
L60771 26042
L60771 25900
L60800 25785
L60828 25728
L60857 25700
L60914 25671
" />
<path d="M61485 25671
L61542 25671
L61600 25700
L61628 25728
L61657 25785
L61685 25900
L61685 26042
L61657 26157
L61628 26214
L61600 26242
L61542 26271
L61485 26271
L61428 26242
L61400 26214
L61371 26157
L61342 26042
L61342 25900
L61371 25785
L61400 25728
L61428 25700
L61485 25671
" />
<path d="M62228 25671
L61942 25671
L61914 25957
L61942 25928
L62000 25900
L62142 25900
L62200 25928
L62228 25957
L62257 26014
L62257 26157
L62228 26214
L62200 26242
L62142 26271
L62000 26271
L61942 26242
L61914 26214
" />
<path d="M60385 20271
L60185 19985
" />
<path d="M60042 20271
L60042 19671
L60271 19671
L60328 19700
L60357 19728
L60385 19785
L60385 19871
L60357 19928
L60328 19957
L60271 19985
L60042 19985
" />
<path d="M60814 19671
L60814 20100
L60785 20185
L60728 20242
L60642 20271
L60585 20271
" />
<path d="M61414 20271
L61071 20271
" />
<path d="M61242 20271
L61242 19671
L61185 19757
L61128 19814
L61071 19842
" />
<path d="M61642 19728
L61671 19700
L61728 19671
L61871 19671
L61928 19700
L61957 19728
L61985 19785
L61985 19842
L61957 19928
L61614 20271
L61985 20271
" />
<path d="M53942 13671
L53942 14100
L53914 14185
L53857 14242
L53771 14271
L53714 14271
" />
<path d="M54542 14271
L54200 14271
" />
<path d="M54371 14271
L54371 13671
L54314 13757
L54257 13814
L54200 13842
" />
<path d="M54914 13671
L54971 13671
L55028 13700
L55057 13728
L55085 13785
L55114 13900
L55114 14042
L55085 14157
L55057 14214
L55028 14242
L54971 14271
L54914 14271
L54857 14242
L54828 14214
L54800 14157
L54771 14042
L54771 13900
L54800 13785
L54828 13728
L54857 13700
L54914 13671
" />
<path d="M55485 13671
L55542 13671
L55600 13700
L55628 13728
L55657 13785
L55685 13900
L55685 14042
L55657 14157
L55628 14214
L55600 14242
L55542 14271
L55485 14271
L55428 14242
L55400 14214
L55371 14157
L55342 14042
L55342 13900
L55371 13785
L55400 13728
L55428 13700
L55485 13671
" />
<path d="M56200 13871
L56200 14271
" />
<path d="M56057 13642
L55914 14071
L56285 14071
" />
<path d="M54385 20271
L54185 19985
" />
<path d="M54042 20271
L54042 19671
L54271 19671
L54328 19700
L54357 19728
L54385 19785
L54385 19871
L54357 19928
L54328 19957
L54271 19985
L54042 19985
" />
<path d="M54814 19671
L54814 20100
L54785 20185
L54728 20242
L54642 20271
L54585 20271
" />
<path d="M55414 20271
L55071 20271
" />
<path d="M55242 20271
L55242 19671
L55185 19757
L55128 19814
L55071 19842
" />
<path d="M55642 19728
L55671 19700
L55728 19671
L55871 19671
L55928 19700
L55957 19728
L55985 19785
L55985 19842
L55957 19928
L55614 20271
L55985 20271
" />
<path d="M53942 25671
L53942 26100
L53914 26185
L53857 26242
L53771 26271
L53714 26271
" />
<path d="M54542 26271
L54200 26271
" />
<path d="M54371 26271
L54371 25671
L54314 25757
L54257 25814
L54200 25842
" />
<path d="M54914 25671
L54971 25671
L55028 25700
L55057 25728
L55085 25785
L55114 25900
L55114 26042
L55085 26157
L55057 26214
L55028 26242
L54971 26271
L54914 26271
L54857 26242
L54828 26214
L54800 26157
L54771 26042
L54771 25900
L54800 25785
L54828 25728
L54857 25700
L54914 25671
" />
<path d="M55485 25671
L55542 25671
L55600 25700
L55628 25728
L55657 25785
L55685 25900
L55685 26042
L55657 26157
L55628 26214
L55600 26242
L55542 26271
L55485 26271
L55428 26242
L55400 26214
L55371 26157
L55342 26042
L55342 25900
L55371 25785
L55400 25728
L55428 25700
L55485 25671
" />
<path d="M55885 25671
L56257 25671
L56057 25900
L56142 25900
L56200 25928
L56228 25957
L56257 26014
L56257 26157
L56228 26214
L56200 26242
L56142 26271
L55971 26271
L55914 26242
L55885 26214
" />
<path d="M54385 20271
L54185 19985
" />
<path d="M54042 20271
L54042 19671
L54271 19671
L54328 19700
L54357 19728
L54385 19785
L54385 19871
L54357 19928
L54328 19957
L54271 19985
L54042 19985
" />
<path d="M54814 19671
L54814 20100
L54785 20185
L54728 20242
L54642 20271
L54585 20271
" />
<path d="M55414 20271
L55071 20271
" />
<path d="M55242 20271
L55242 19671
L55185 19757
L55128 19814
L55071 19842
" />
<path d="M55642 19728
L55671 19700
L55728 19671
L55871 19671
L55928 19700
L55957 19728
L55985 19785
L55985 19842
L55957 19928
L55614 20271
L55985 20271
" />
<path d="M47942 13671
L47942 14100
L47914 14185
L47857 14242
L47771 14271
L47714 14271
" />
<path d="M48542 14271
L48200 14271
" />
<path d="M48371 14271
L48371 13671
L48314 13757
L48257 13814
L48200 13842
" />
<path d="M48914 13671
L48971 13671
L49028 13700
L49057 13728
L49085 13785
L49114 13900
L49114 14042
L49085 14157
L49057 14214
L49028 14242
L48971 14271
L48914 14271
L48857 14242
L48828 14214
L48800 14157
L48771 14042
L48771 13900
L48800 13785
L48828 13728
L48857 13700
L48914 13671
" />
<path d="M49485 13671
L49542 13671
L49600 13700
L49628 13728
L49657 13785
L49685 13900
L49685 14042
L49657 14157
L49628 14214
L49600 14242
L49542 14271
L49485 14271
L49428 14242
L49400 14214
L49371 14157
L49342 14042
L49342 13900
L49371 13785
L49400 13728
L49428 13700
L49485 13671
" />
<path d="M49914 13728
L49942 13700
L50000 13671
L50142 13671
L50200 13700
L50228 13728
L50257 13785
L50257 13842
L50228 13928
L49885 14271
L50257 14271
" />
<path d="M48385 20271
L48185 19985
" />
<path d="M48042 20271
L48042 19671
L48271 19671
L48328 19700
L48357 19728
L48385 19785
L48385 19871
L48357 19928
L48328 19957
L48271 19985
L48042 19985
" />
<path d="M48814 19671
L48814 20100
L48785 20185
L48728 20242
L48642 20271
L48585 20271
" />
<path d="M49414 20271
L49071 20271
" />
<path d="M49242 20271
L49242 19671
L49185 19757
L49128 19814
L49071 19842
" />
<path d="M49642 19728
L49671 19700
L49728 19671
L49871 19671
L49928 19700
L49957 19728
L49985 19785
L49985 19842
L49957 19928
L49614 20271
L49985 20271
" />
<path d="M47942 25671
L47942 26100
L47914 26185
L47857 26242
L47771 26271
L47714 26271
" />
<path d="M48542 26271
L48200 26271
" />
<path d="M48371 26271
L48371 25671
L48314 25757
L48257 25814
L48200 25842
" />
<path d="M48914 25671
L48971 25671
L49028 25700
L49057 25728
L49085 25785
L49114 25900
L49114 26042
L49085 26157
L49057 26214
L49028 26242
L48971 26271
L48914 26271
L48857 26242
L48828 26214
L48800 26157
L48771 26042
L48771 25900
L48800 25785
L48828 25728
L48857 25700
L48914 25671
" />
<path d="M49485 25671
L49542 25671
L49600 25700
L49628 25728
L49657 25785
L49685 25900
L49685 26042
L49657 26157
L49628 26214
L49600 26242
L49542 26271
L49485 26271
L49428 26242
L49400 26214
L49371 26157
L49342 26042
L49342 25900
L49371 25785
L49400 25728
L49428 25700
L49485 25671
" />
<path d="M50257 26271
L49914 26271
" />
<path d="M50085 26271
L50085 25671
L50028 25757
L49971 25814
L49914 25842
" />
<path d="M48385 20271
L48185 19985
" />
<path d="M48042 20271
L48042 19671
L48271 19671
L48328 19700
L48357 19728
L48385 19785
L48385 19871
L48357 19928
L48328 19957
L48271 19985
L48042 19985
" />
<path d="M48814 19671
L48814 20100
L48785 20185
L48728 20242
L48642 20271
L48585 20271
" />
<path d="M49414 20271
L49071 20271
" />
<path d="M49242 20271
L49242 19671
L49185 19757
L49128 19814
L49071 19842
" />
<path d="M49642 19728
L49671 19700
L49728 19671
L49871 19671
L49928 19700
L49957 19728
L49985 19785
L49985 19842
L49957 19928
L49614 20271
L49985 20271
" />
<path d="M42699 16771
L42699 16171
" />
<path d="M43042 16771
L42785 16428
" />
<path d="M43042 16171
L42699 16514
" />
<path d="M43614 16771
L43271 16771
" />
<path d="M43442 16771
L43442 16171
L43385 16257
L43328 16314
L43271 16342
" />
<path d="M43985 16171
L44042 16171
L44100 16200
L44128 16228
L44157 16285
L44185 16400
L44185 16542
L44157 16657
L44128 16714
L44100 16742
L44042 16771
L43985 16771
L43928 16742
L43900 16714
L43871 16657
L43842 16542
L43842 16400
L43871 16285
L43900 16228
L43928 16200
L43985 16171
" />
<path d="M44557 16171
L44614 16171
L44671 16200
L44700 16228
L44728 16285
L44757 16400
L44757 16542
L44728 16657
L44700 16714
L44671 16742
L44614 16771
L44557 16771
L44500 16742
L44471 16714
L44442 16657
L44414 16542
L44414 16400
L44442 16285
L44471 16228
L44500 16200
L44557 16171
" />
<path d="M45328 16771
L44985 16771
" />
<path d="M45157 16771
L45157 16171
L45100 16257
L45042 16314
L44985 16342
" />
<path d="M41650 14114
L41621 14142
L41535 14171
L41478 14171
L41392 14142
L41335 14085
L41307 14028
L41278 13914
L41278 13828
L41307 13714
L41335 13657
L41392 13600
L41478 13571
L41535 13571
L41621 13600
L41650 13628
" />
<path d="M42021 13571
L42135 13571
L42192 13600
L42250 13657
L42278 13771
L42278 13971
L42250 14085
L42192 14142
L42135 14171
L42021 14171
L41964 14142
L41907 14085
L41878 13971
L41878 13771
L41907 13657
L41964 13600
L42021 13571
" />
<path d="M42821 14171
L42535 14171
L42535 13571
" />
<path d="M43135 13571
L43250 13571
L43307 13600
L43364 13657
L43392 13771
L43392 13971
L43364 14085
L43307 14142
L43250 14171
L43135 14171
L43078 14142
L43021 14085
L42992 13971
L42992 13771
L43021 13657
L43078 13600
L43135 13571
" />
<path d="M43650 14171
L43650 13571
L43992 14171
L43992 13571
" />
<path d="M44278 13857
L44478 13857
" />
<path d="M44564 14171
L44278 14171
L44278 13571
L44564 13571
" />
<path d="M44735 13571
L45078 13571
" />
<path d="M44907 14171
L44907 13571
" />
<path d="M45192 13571
L45535 13571
" />
<path d="M45364 14171
L45364 13571
" />
<path d="M45735 13857
L45935 13857
" />
<path d="M46021 14171
L45735 14171
L45735 13571
L46021 13571
" />
<path d="M70699 23771
L70699 23171
" />
<path d="M71042 23771
L70785 23428
" />
<path d="M71042 23171
L70699 23514
" />
<path d="M71614 23771
L71271 23771
" />
<path d="M71442 23771
L71442 23171
L71385 23257
L71328 23314
L71271 23342
" />
<path d="M71985 23171
L72042 23171
L72100 23200
L72128 23228
L72157 23285
L72185 23400
L72185 23542
L72157 23657
L72128 23714
L72100 23742
L72042 23771
L71985 23771
L71928 23742
L71900 23714
L71871 23657
L71842 23542
L71842 23400
L71871 23285
L71900 23228
L71928 23200
L71985 23171
" />
<path d="M72557 23171
L72614 23171
L72671 23200
L72700 23228
L72728 23285
L72757 23400
L72757 23542
L72728 23657
L72700 23714
L72671 23742
L72614 23771
L72557 23771
L72500 23742
L72471 23714
L72442 23657
L72414 23542
L72414 23400
L72442 23285
L72471 23228
L72500 23200
L72557 23171
" />
<path d="M72985 23228
L73014 23200
L73071 23171
L73214 23171
L73271 23200
L73300 23228
L73328 23285
L73328 23342
L73300 23428
L72957 23771
L73328 23771
" />
<path d="M70600 26814
L70571 26842
L70485 26871
L70428 26871
L70342 26842
L70285 26785
L70257 26728
L70228 26614
L70228 26528
L70257 26414
L70285 26357
L70342 26300
L70428 26271
L70485 26271
L70571 26300
L70600 26328
" />
<path d="M70971 26271
L71085 26271
L71142 26300
L71200 26357
L71228 26471
L71228 26671
L71200 26785
L71142 26842
L71085 26871
L70971 26871
L70914 26842
L70857 26785
L70828 26671
L70828 26471
L70857 26357
L70914 26300
L70971 26271
" />
<path d="M71771 26871
L71485 26871
L71485 26271
" />
<path d="M72085 26271
L72200 26271
L72257 26300
L72314 26357
L72342 26471
L72342 26671
L72314 26785
L72257 26842
L72200 26871
L72085 26871
L72028 26842
L71971 26785
L71942 26671
L71942 26471
L71971 26357
L72028 26300
L72085 26271
" />
<path d="M72600 26871
L72600 26271
L72942 26871
L72942 26271
" />
<path d="M73228 26557
L73428 26557
" />
<path d="M73514 26871
L73228 26871
L73228 26271
L73514 26271
" />
<path d="M73685 26271
L74028 26271
" />
<path d="M73857 26871
L73857 26271
" />
<path d="M74142 26271
L74485 26271
" />
<path d="M74314 26871
L74314 26271
" />
<path d="M74685 26557
L74885 26557
" />
<path d="M74971 26871
L74685 26871
L74685 26271
L74971 26271
" />
<path d="M42699 23771
L42699 23171
" />
<path d="M43042 23771
L42785 23428
" />
<path d="M43042 23171
L42699 23514
" />
<path d="M43614 23771
L43271 23771
" />
<path d="M43442 23771
L43442 23171
L43385 23257
L43328 23314
L43271 23342
" />
<path d="M43985 23171
L44042 23171
L44100 23200
L44128 23228
L44157 23285
L44185 23400
L44185 23542
L44157 23657
L44128 23714
L44100 23742
L44042 23771
L43985 23771
L43928 23742
L43900 23714
L43871 23657
L43842 23542
L43842 23400
L43871 23285
L43900 23228
L43928 23200
L43985 23171
" />
<path d="M44557 23171
L44614 23171
L44671 23200
L44700 23228
L44728 23285
L44757 23400
L44757 23542
L44728 23657
L44700 23714
L44671 23742
L44614 23771
L44557 23771
L44500 23742
L44471 23714
L44442 23657
L44414 23542
L44414 23400
L44442 23285
L44471 23228
L44500 23200
L44557 23171
" />
<path d="M44957 23171
L45328 23171
L45128 23400
L45214 23400
L45271 23428
L45300 23457
L45328 23514
L45328 23657
L45300 23714
L45271 23742
L45214 23771
L45042 23771
L44985 23742
L44957 23714
" />
<path d="M41650 26814
L41621 26842
L41535 26871
L41478 26871
L41392 26842
L41335 26785
L41307 26728
L41278 26614
L41278 26528
L41307 26414
L41335 26357
L41392 26300
L41478 26271
L41535 26271
L41621 26300
L41650 26328
" />
<path d="M42021 26271
L42135 26271
L42192 26300
L42250 26357
L42278 26471
L42278 26671
L42250 26785
L42192 26842
L42135 26871
L42021 26871
L41964 26842
L41907 26785
L41878 26671
L41878 26471
L41907 26357
L41964 26300
L42021 26271
" />
<path d="M42821 26871
L42535 26871
L42535 26271
" />
<path d="M43135 26271
L43250 26271
L43307 26300
L43364 26357
L43392 26471
L43392 26671
L43364 26785
L43307 26842
L43250 26871
L43135 26871
L43078 26842
L43021 26785
L42992 26671
L42992 26471
L43021 26357
L43078 26300
L43135 26271
" />
<path d="M43650 26871
L43650 26271
L43992 26871
L43992 26271
" />
<path d="M44278 26557
L44478 26557
" />
<path d="M44564 26871
L44278 26871
L44278 26271
L44564 26271
" />
<path d="M44735 26271
L45078 26271
" />
<path d="M44907 26871
L44907 26271
" />
<path d="M45192 26271
L45535 26271
" />
<path d="M45364 26871
L45364 26271
" />
<path d="M45735 26557
L45935 26557
" />
<path d="M46021 26871
L45735 26871
L45735 26271
L46021 26271
" />
<path d="M70699 16771
L70699 16171
" />
<path d="M71042 16771
L70785 16428
" />
<path d="M71042 16171
L70699 16514
" />
<path d="M71614 16771
L71271 16771
" />
<path d="M71442 16771
L71442 16171
L71385 16257
L71328 16314
L71271 16342
" />
<path d="M71985 16171
L72042 16171
L72100 16200
L72128 16228
L72157 16285
L72185 16400
L72185 16542
L72157 16657
L72128 16714
L72100 16742
L72042 16771
L71985 16771
L71928 16742
L71900 16714
L71871 16657
L71842 16542
L71842 16400
L71871 16285
L71900 16228
L71928 16200
L71985 16171
" />
<path d="M72557 16171
L72614 16171
L72671 16200
L72700 16228
L72728 16285
L72757 16400
L72757 16542
L72728 16657
L72700 16714
L72671 16742
L72614 16771
L72557 16771
L72500 16742
L72471 16714
L72442 16657
L72414 16542
L72414 16400
L72442 16285
L72471 16228
L72500 16200
L72557 16171
" />
<path d="M73271 16371
L73271 16771
" />
<path d="M73128 16142
L72985 16571
L73357 16571
" />
<path d="M70550 13914
L70521 13942
L70435 13971
L70378 13971
L70292 13942
L70235 13885
L70207 13828
L70178 13714
L70178 13628
L70207 13514
L70235 13457
L70292 13400
L70378 13371
L70435 13371
L70521 13400
L70550 13428
" />
<path d="M70921 13371
L71035 13371
L71092 13400
L71150 13457
L71178 13571
L71178 13771
L71150 13885
L71092 13942
L71035 13971
L70921 13971
L70864 13942
L70807 13885
L70778 13771
L70778 13571
L70807 13457
L70864 13400
L70921 13371
" />
<path d="M71721 13971
L71435 13971
L71435 13371
" />
<path d="M72035 13371
L72150 13371
L72207 13400
L72264 13457
L72292 13571
L72292 13771
L72264 13885
L72207 13942
L72150 13971
L72035 13971
L71978 13942
L71921 13885
L71892 13771
L71892 13571
L71921 13457
L71978 13400
L72035 13371
" />
<path d="M72550 13971
L72550 13371
L72892 13971
L72892 13371
" />
<path d="M73178 13657
L73378 13657
" />
<path d="M73464 13971
L73178 13971
L73178 13371
L73464 13371
" />
<path d="M73635 13371
L73978 13371
" />
<path d="M73807 13971
L73807 13371
" />
<path d="M74092 13371
L74435 13371
" />
<path d="M74264 13971
L74264 13371
" />
<path d="M74635 13657
L74835 13657
" />
<path d="M74921 13971
L74635 13971
L74635 13371
L74921 13371
" />
</g>
<g style="fill:#000000; fill-opacity:0.0; 
stroke:#000000; stroke-width:150; stroke-opacity:1; 
stroke-linecap:round; stroke-linejoin:round;">
<path d="M64250 19250
L64250 13000
" />
<path d="M64250 13000
L69750 13000
" />
<path d="M69750 13000
L69750 19250
" />
<path d="M69750 19250
L64250 19250
" />
<path d="M69750 20750
L69750 27000
" />
<path d="M69750 27000
L64250 27000
" />
<path d="M64250 27000
L64250 20750
" />
<path d="M64250 20750
L69750 20750
" />
<path d="M58250 19250
L58250 13000
" />
<path d="M58250 13000
L63750 13000
" />
<path d="M63750 13000
L63750 19250
" />
<path d="M63750 19250
L58250 19250
" />
<path d="M63750 20750
L63750 27000
" />
<path d="M63750 27000
L58250 27000
" />
<path d="M58250 27000
L58250 20750
" />
<path d="M58250 20750
L63750 20750
" />
<path d="M52250 19250
L52250 13000
" />
<path d="M52250 13000
L57750 13000
" />
<path d="M57750 13000
L57750 19250
" />
<path d="M57750 19250
L52250 19250
" />
<path d="M57750 20750
L57750 27000
" />
<path d="M57750 27000
L52250 27000
" />
<path d="M52250 27000
L52250 20750
" />
<path d="M52250 20750
L57750 20750
" />
<path d="M46250 19250
L46250 13000
" />
<path d="M46250 13000
L51750 13000
" />
<path d="M51750 13000
L51750 19250
" />
<path d="M51750 19250
L46250 19250
" />
<path d="M51750 20750
L51750 27000
" />
<path d="M51750 27000
L46250 27000
" />
<path d="M46250 27000
L46250 20750
" />
<path d="M46250 20750
L51750 20750
" />
</g>
<g style="fill:#000000; fill-opacity:1.0; 
stroke:#000000; stroke-width:0; stroke-opacity:1; 
stroke-linecap:round; stroke-linejoin:round;">
<circle cx="67750" cy="18000" r="354.5" /> 
</g>
<g style="fill:#000000; fill-opacity:1.0; 
stroke:#000000; stroke-width:19.685; stroke-opacity:1; 
stroke-linecap:round; stroke-linejoin:round;">
</g>
<g style="fill:#000000; fill-opacity:1.0; 
stroke:#000000; stroke-width:0; stroke-opacity:1; 
stroke-linecap:round; stroke-linejoin:round;">
<circle cx="65750" cy="18000" r="354.5" /> 
</g>
<g style="fill:#000000; fill-opacity:1.0; 
stroke:#000000; stroke-width:19.685; stroke-opacity:1; 
stroke-linecap:round; stroke-linejoin:round;">
</g>
<g style="fill:#000000; fill-opacity:1.0; 
stroke:#000000; stroke-width:0; stroke-opacity:1; 
stroke-linecap:round; stroke-linejoin:round;">
<circle cx="68250" cy="19000" r="354.5" /> 
</g>
<g style="fill:#000000; fill-opacity:1.0; 
stroke:#000000; stroke-width:19.685; stroke-opacity:1; 
stroke-linecap:round; stroke-linejoin:round;">
</g>
<g style="fill:#000000; fill-opacity:1.0; 
stroke:#000000; stroke-width:0; stroke-opacity:1; 
stroke-linecap:round; stroke-linejoin:round;">
<circle cx="67250" cy="19000" r="354.5" /> 
</g>
<g style="fill:#000000; fill-opacity:1.0; 
stroke:#000000; stroke-width:19.685; stroke-opacity:1; 
stroke-linecap:round; stroke-linejoin:round;">
</g>
<g style="fill:#000000; fill-opacity:1.0; 
stroke:#000000; stroke-width:0; stroke-opacity:1; 
stroke-linecap:round; stroke-linejoin:round;">
<circle cx="66250" cy="19000" r="354.5" /> 
</g>
<g style="fill:#000000; fill-opacity:1.0; 
stroke:#000000; stroke-width:19.685; stroke-opacity:1; 
stroke-linecap:round; stroke-linejoin:round;">
</g>
<g style="fill:#000000; fill-opacity:1.0; 
stroke:#000000; stroke-width:0; stroke-opacity:1; 
stroke-linecap:round; stroke-linejoin:round;">
<circle cx="65000" cy="15500" r="984.252" /> 
</g>
<g style="fill:#000000; fill-opacity:1.0; 
stroke:#000000; stroke-width:19.685; stroke-opacity:1; 
stroke-linecap:round; stroke-linejoin:round;">
</g>
<g style="fill:#000000; fill-opacity:1.0; 
stroke:#000000; stroke-width:0; stroke-opacity:1; 
stroke-linecap:round; stroke-linejoin:round;">
<circle cx="69000" cy="15500" r="984.252" /> 
</g>
<g style="fill:#000000; fill-opacity:1.0; 
stroke:#000000; stroke-width:19.685; stroke-opacity:1; 
stroke-linecap:round; stroke-linejoin:round;">
</g>
<g style="fill:#000000; fill-opacity:1.0; 
stroke:#000000; stroke-width:0; stroke-opacity:1; 
stroke-linecap:round; stroke-linejoin:round;">
<circle cx="66250" cy="22000" r="354.5" /> 
</g>
<g style="fill:#000000; fill-opacity:1.0; 
stroke:#000000; stroke-width:19.685; stroke-opacity:1; 
stroke-linecap:round; stroke-linejoin:round;">
</g>
<g style="fill:#000000; fill-opacity:1.0; 
stroke:#000000; stroke-width:0; stroke-opacity:1; 
stroke-linecap:round; stroke-linejoin:round;">
<circle cx="68250" cy="22000" r="354.5" /> 
</g>
<g style="fill:#000000; fill-opacity:1.0; 
stroke:#000000; stroke-width:19.685; stroke-opacity:1; 
stroke-linecap:round; stroke-linejoin:round;">
</g>
<g style="fill:#000000; fill-opacity:1.0; 
stroke:#000000; stroke-width:0; stroke-opacity:1; 
stroke-linecap:round; stroke-linejoin:round;">
<circle cx="65750" cy="21000" r="354.5" /> 
</g>
<g style="fill:#000000; fill-opacity:1.0; 
stroke:#000000; stroke-width:19.685; stroke-opacity:1; 
stroke-linecap:round; stroke-linejoin:round;">
</g>
<g style="fill:#000000; fill-opacity:1.0; 
stroke:#000000; stroke-width:0; stroke-opacity:1; 
stroke-linecap:round; stroke-linejoin:round;">
<circle cx="66750" cy="21000" r="354.5" /> 
</g>
<g style="fill:#000000; fill-opacity:1.0; 
stroke:#000000; stroke-width:19.685; stroke-opacity:1; 
stroke-linecap:round; stroke-linejoin:round;">
</g>
<g style="fill:#000000; fill-opacity:1.0; 
stroke:#000000; stroke-width:0; stroke-opacity:1; 
stroke-linecap:round; stroke-linejoin:round;">
<circle cx="67750" cy="21000" r="354.5" /> 
</g>
<g style="fill:#000000; fill-opacity:1.0; 
stroke:#000000; stroke-width:19.685; stroke-opacity:1; 
stroke-linecap:round; stroke-linejoin:round;">
</g>
<g style="fill:#000000; fill-opacity:1.0; 
stroke:#000000; stroke-width:0; stroke-opacity:1; 
stroke-linecap:round; stroke-linejoin:round;">
<circle cx="69000" cy="24500" r="984.252" /> 
</g>
<g style="fill:#000000; fill-opacity:1.0; 
stroke:#000000; stroke-width:19.685; stroke-opacity:1; 
stroke-linecap:round; stroke-linejoin:round;">
</g>
<g style="fill:#000000; fill-opacity:1.0; 
stroke:#000000; stroke-width:0; stroke-opacity:1; 
stroke-linecap:round; stroke-linejoin:round;">
<circle cx="65000" cy="24500" r="984.252" /> 
</g>
<g style="fill:#000000; fill-opacity:1.0; 
stroke:#000000; stroke-width:19.685; stroke-opacity:1; 
stroke-linecap:round; stroke-linejoin:round;">
</g>
<g style="fill:#000000; fill-opacity:1.0; 
stroke:#000000; stroke-width:0; stroke-opacity:1; 
stroke-linecap:round; stroke-linejoin:round;">
<circle cx="61750" cy="18000" r="354.5" /> 
</g>
<g style="fill:#000000; fill-opacity:1.0; 
stroke:#000000; stroke-width:19.685; stroke-opacity:1; 
stroke-linecap:round; stroke-linejoin:round;">
</g>
<g style="fill:#000000; fill-opacity:1.0; 
stroke:#000000; stroke-width:0; stroke-opacity:1; 
stroke-linecap:round; stroke-linejoin:round;">
<circle cx="59750" cy="18000" r="354.5" /> 
</g>
<g style="fill:#000000; fill-opacity:1.0; 
stroke:#000000; stroke-width:19.685; stroke-opacity:1; 
stroke-linecap:round; stroke-linejoin:round;">
</g>
<g style="fill:#000000; fill-opacity:1.0; 
stroke:#000000; stroke-width:0; stroke-opacity:1; 
stroke-linecap:round; stroke-linejoin:round;">
<circle cx="62250" cy="19000" r="354.5" /> 
</g>
<g style="fill:#000000; fill-opacity:1.0; 
stroke:#000000; stroke-width:19.685; stroke-opacity:1; 
stroke-linecap:round; stroke-linejoin:round;">
</g>
<g style="fill:#000000; fill-opacity:1.0; 
stroke:#000000; stroke-width:0; stroke-opacity:1; 
stroke-linecap:round; stroke-linejoin:round;">
<circle cx="61250" cy="19000" r="354.5" /> 
</g>
<g style="fill:#000000; fill-opacity:1.0; 
stroke:#000000; stroke-width:19.685; stroke-opacity:1; 
stroke-linecap:round; stroke-linejoin:round;">
</g>
<g style="fill:#000000; fill-opacity:1.0; 
stroke:#000000; stroke-width:0; stroke-opacity:1; 
stroke-linecap:round; stroke-linejoin:round;">
<circle cx="60250" cy="19000" r="354.5" /> 
</g>
<g style="fill:#000000; fill-opacity:1.0; 
stroke:#000000; stroke-width:19.685; stroke-opacity:1; 
stroke-linecap:round; stroke-linejoin:round;">
</g>
<g style="fill:#000000; fill-opacity:1.0; 
stroke:#000000; stroke-width:0; stroke-opacity:1; 
stroke-linecap:round; stroke-linejoin:round;">
<circle cx="59000" cy="15500" r="984.252" /> 
</g>
<g style="fill:#000000; fill-opacity:1.0; 
stroke:#000000; stroke-width:19.685; stroke-opacity:1; 
stroke-linecap:round; stroke-linejoin:round;">
</g>
<g style="fill:#000000; fill-opacity:1.0; 
stroke:#000000; stroke-width:0; stroke-opacity:1; 
stroke-linecap:round; stroke-linejoin:round;">
<circle cx="63000" cy="15500" r="984.252" /> 
</g>
<g style="fill:#000000; fill-opacity:1.0; 
stroke:#000000; stroke-width:19.685; stroke-opacity:1; 
stroke-linecap:round; stroke-linejoin:round;">
</g>
<g style="fill:#000000; fill-opacity:1.0; 
stroke:#000000; stroke-width:0; stroke-opacity:1; 
stroke-linecap:round; stroke-linejoin:round;">
<circle cx="60250" cy="22000" r="354.5" /> 
</g>
<g style="fill:#000000; fill-opacity:1.0; 
stroke:#000000; stroke-width:19.685; stroke-opacity:1; 
stroke-linecap:round; stroke-linejoin:round;">
</g>
<g style="fill:#000000; fill-opacity:1.0; 
stroke:#000000; stroke-width:0; stroke-opacity:1; 
stroke-linecap:round; stroke-linejoin:round;">
<circle cx="62250" cy="22000" r="354.5" /> 
</g>
<g style="fill:#000000; fill-opacity:1.0; 
stroke:#000000; stroke-width:19.685; stroke-opacity:1; 
stroke-linecap:round; stroke-linejoin:round;">
</g>
<g style="fill:#000000; fill-opacity:1.0; 
stroke:#000000; stroke-width:0; stroke-opacity:1; 
stroke-linecap:round; stroke-linejoin:round;">
<circle cx="59750" cy="21000" r="354.5" /> 
</g>
<g style="fill:#000000; fill-opacity:1.0; 
stroke:#000000; stroke-width:19.685; stroke-opacity:1; 
stroke-linecap:round; stroke-linejoin:round;">
</g>
<g style="fill:#000000; fill-opacity:1.0; 
stroke:#000000; stroke-width:0; stroke-opacity:1; 
stroke-linecap:round; stroke-linejoin:round;">
<circle cx="60750" cy="21000" r="354.5" /> 
</g>
<g style="fill:#000000; fill-opacity:1.0; 
stroke:#000000; stroke-width:19.685; stroke-opacity:1; 
stroke-linecap:round; stroke-linejoin:round;">
</g>
<g style="fill:#000000; fill-opacity:1.0; 
stroke:#000000; stroke-width:0; stroke-opacity:1; 
stroke-linecap:round; stroke-linejoin:round;">
<circle cx="61750" cy="21000" r="354.5" /> 
</g>
<g style="fill:#000000; fill-opacity:1.0; 
stroke:#000000; stroke-width:19.685; stroke-opacity:1; 
stroke-linecap:round; stroke-linejoin:round;">
</g>
<g style="fill:#000000; fill-opacity:1.0; 
stroke:#000000; stroke-width:0; stroke-opacity:1; 
stroke-linecap:round; stroke-linejoin:round;">
<circle cx="63000" cy="24500" r="984.252" /> 
</g>
<g style="fill:#000000; fill-opacity:1.0; 
stroke:#000000; stroke-width:19.685; stroke-opacity:1; 
stroke-linecap:round; stroke-linejoin:round;">
</g>
<g style="fill:#000000; fill-opacity:1.0; 
stroke:#000000; stroke-width:0; stroke-opacity:1; 
stroke-linecap:round; stroke-linejoin:round;">
<circle cx="59000" cy="24500" r="984.252" /> 
</g>
<g style="fill:#000000; fill-opacity:1.0; 
stroke:#000000; stroke-width:19.685; stroke-opacity:1; 
stroke-linecap:round; stroke-linejoin:round;">
</g>
<g style="fill:#000000; fill-opacity:1.0; 
stroke:#000000; stroke-width:0; stroke-opacity:1; 
stroke-linecap:round; stroke-linejoin:round;">
<circle cx="55750" cy="18000" r="354.5" /> 
</g>
<g style="fill:#000000; fill-opacity:1.0; 
stroke:#000000; stroke-width:19.685; stroke-opacity:1; 
stroke-linecap:round; stroke-linejoin:round;">
</g>
<g style="fill:#000000; fill-opacity:1.0; 
stroke:#000000; stroke-width:0; stroke-opacity:1; 
stroke-linecap:round; stroke-linejoin:round;">
<circle cx="53750" cy="18000" r="354.5" /> 
</g>
<g style="fill:#000000; fill-opacity:1.0; 
stroke:#000000; stroke-width:19.685; stroke-opacity:1; 
stroke-linecap:round; stroke-linejoin:round;">
</g>
<g style="fill:#000000; fill-opacity:1.0; 
stroke:#000000; stroke-width:0; stroke-opacity:1; 
stroke-linecap:round; stroke-linejoin:round;">
<circle cx="56250" cy="19000" r="354.5" /> 
</g>
<g style="fill:#000000; fill-opacity:1.0; 
stroke:#000000; stroke-width:19.685; stroke-opacity:1; 
stroke-linecap:round; stroke-linejoin:round;">
</g>
<g style="fill:#000000; fill-opacity:1.0; 
stroke:#000000; stroke-width:0; stroke-opacity:1; 
stroke-linecap:round; stroke-linejoin:round;">
<circle cx="55250" cy="19000" r="354.5" /> 
</g>
<g style="fill:#000000; fill-opacity:1.0; 
stroke:#000000; stroke-width:19.685; stroke-opacity:1; 
stroke-linecap:round; stroke-linejoin:round;">
</g>
<g style="fill:#000000; fill-opacity:1.0; 
stroke:#000000; stroke-width:0; stroke-opacity:1; 
stroke-linecap:round; stroke-linejoin:round;">
<circle cx="54250" cy="19000" r="354.5" /> 
</g>
<g style="fill:#000000; fill-opacity:1.0; 
stroke:#000000; stroke-width:19.685; stroke-opacity:1; 
stroke-linecap:round; stroke-linejoin:round;">
</g>
<g style="fill:#000000; fill-opacity:1.0; 
stroke:#000000; stroke-width:0; stroke-opacity:1; 
stroke-linecap:round; stroke-linejoin:round;">
<circle cx="53000" cy="15500" r="984.252" /> 
</g>
<g style="fill:#000000; fill-opacity:1.0; 
stroke:#000000; stroke-width:19.685; stroke-opacity:1; 
stroke-linecap:round; stroke-linejoin:round;">
</g>
<g style="fill:#000000; fill-opacity:1.0; 
stroke:#000000; stroke-width:0; stroke-opacity:1; 
stroke-linecap:round; stroke-linejoin:round;">
<circle cx="57000" cy="15500" r="984.252" /> 
</g>
<g style="fill:#000000; fill-opacity:1.0; 
stroke:#000000; stroke-width:19.685; stroke-opacity:1; 
stroke-linecap:round; stroke-linejoin:round;">
</g>
<g style="fill:#000000; fill-opacity:1.0; 
stroke:#000000; stroke-width:0; stroke-opacity:1; 
stroke-linecap:round; stroke-linejoin:round;">
<circle cx="54250" cy="22000" r="354.5" /> 
</g>
<g style="fill:#000000; fill-opacity:1.0; 
stroke:#000000; stroke-width:19.685; stroke-opacity:1; 
stroke-linecap:round; stroke-linejoin:round;">
</g>
<g style="fill:#000000; fill-opacity:1.0; 
stroke:#000000; stroke-width:0; stroke-opacity:1; 
stroke-linecap:round; stroke-linejoin:round;">
<circle cx="56250" cy="22000" r="354.5" /> 
</g>
<g style="fill:#000000; fill-opacity:1.0; 
stroke:#000000; stroke-width:19.685; stroke-opacity:1; 
stroke-linecap:round; stroke-linejoin:round;">
</g>
<g style="fill:#000000; fill-opacity:1.0; 
stroke:#000000; stroke-width:0; stroke-opacity:1; 
stroke-linecap:round; stroke-linejoin:round;">
<circle cx="53750" cy="21000" r="354.5" /> 
</g>
<g style="fill:#000000; fill-opacity:1.0; 
stroke:#000000; stroke-width:19.685; stroke-opacity:1; 
stroke-linecap:round; stroke-linejoin:round;">
</g>
<g style="fill:#000000; fill-opacity:1.0; 
stroke:#000000; stroke-width:0; stroke-opacity:1; 
stroke-linecap:round; stroke-linejoin:round;">
<circle cx="54750" cy="21000" r="354.5" /> 
</g>
<g style="fill:#000000; fill-opacity:1.0; 
stroke:#000000; stroke-width:19.685; stroke-opacity:1; 
stroke-linecap:round; stroke-linejoin:round;">
</g>
<g style="fill:#000000; fill-opacity:1.0; 
stroke:#000000; stroke-width:0; stroke-opacity:1; 
stroke-linecap:round; stroke-linejoin:round;">
<circle cx="55750" cy="21000" r="354.5" /> 
</g>
<g style="fill:#000000; fill-opacity:1.0; 
stroke:#000000; stroke-width:19.685; stroke-opacity:1; 
stroke-linecap:round; stroke-linejoin:round;">
</g>
<g style="fill:#000000; fill-opacity:1.0; 
stroke:#000000; stroke-width:0; stroke-opacity:1; 
stroke-linecap:round; stroke-linejoin:round;">
<circle cx="57000" cy="24500" r="984.252" /> 
</g>
<g style="fill:#000000; fill-opacity:1.0; 
stroke:#000000; stroke-width:19.685; stroke-opacity:1; 
stroke-linecap:round; stroke-linejoin:round;">
</g>
<g style="fill:#000000; fill-opacity:1.0; 
stroke:#000000; stroke-width:0; stroke-opacity:1; 
stroke-linecap:round; stroke-linejoin:round;">
<circle cx="53000" cy="24500" r="984.252" /> 
</g>
<g style="fill:#000000; fill-opacity:1.0; 
stroke:#000000; stroke-width:19.685; stroke-opacity:1; 
stroke-linecap:round; stroke-linejoin:round;">
</g>
<g style="fill:#000000; fill-opacity:1.0; 
stroke:#000000; stroke-width:0; stroke-opacity:1; 
stroke-linecap:round; stroke-linejoin:round;">
<circle cx="49750" cy="18000" r="354.5" /> 
</g>
<g style="fill:#000000; fill-opacity:1.0; 
stroke:#000000; stroke-width:19.685; stroke-opacity:1; 
stroke-linecap:round; stroke-linejoin:round;">
</g>
<g style="fill:#000000; fill-opacity:1.0; 
stroke:#000000; stroke-width:0; stroke-opacity:1; 
stroke-linecap:round; stroke-linejoin:round;">
<circle cx="47750" cy="18000" r="354.5" /> 
</g>
<g style="fill:#000000; fill-opacity:1.0; 
stroke:#000000; stroke-width:19.685; stroke-opacity:1; 
stroke-linecap:round; stroke-linejoin:round;">
</g>
<g style="fill:#000000; fill-opacity:1.0; 
stroke:#000000; stroke-width:0; stroke-opacity:1; 
stroke-linecap:round; stroke-linejoin:round;">
<circle cx="50250" cy="19000" r="354.5" /> 
</g>
<g style="fill:#000000; fill-opacity:1.0; 
stroke:#000000; stroke-width:19.685; stroke-opacity:1; 
stroke-linecap:round; stroke-linejoin:round;">
</g>
<g style="fill:#000000; fill-opacity:1.0; 
stroke:#000000; stroke-width:0; stroke-opacity:1; 
stroke-linecap:round; stroke-linejoin:round;">
<circle cx="49250" cy="19000" r="354.5" /> 
</g>
<g style="fill:#000000; fill-opacity:1.0; 
stroke:#000000; stroke-width:19.685; stroke-opacity:1; 
stroke-linecap:round; stroke-linejoin:round;">
</g>
<g style="fill:#000000; fill-opacity:1.0; 
stroke:#000000; stroke-width:0; stroke-opacity:1; 
stroke-linecap:round; stroke-linejoin:round;">
<circle cx="48250" cy="19000" r="354.5" /> 
</g>
<g style="fill:#000000; fill-opacity:1.0; 
stroke:#000000; stroke-width:19.685; stroke-opacity:1; 
stroke-linecap:round; stroke-linejoin:round;">
</g>
<g style="fill:#000000; fill-opacity:1.0; 
stroke:#000000; stroke-width:0; stroke-opacity:1; 
stroke-linecap:round; stroke-linejoin:round;">
<circle cx="47000" cy="15500" r="984.252" /> 
</g>
<g style="fill:#000000; fill-opacity:1.0; 
stroke:#000000; stroke-width:19.685; stroke-opacity:1; 
stroke-linecap:round; stroke-linejoin:round;">
</g>
<g style="fill:#000000; fill-opacity:1.0; 
stroke:#000000; stroke-width:0; stroke-opacity:1; 
stroke-linecap:round; stroke-linejoin:round;">
<circle cx="51000" cy="15500" r="984.252" /> 
</g>
<g style="fill:#000000; fill-opacity:1.0; 
stroke:#000000; stroke-width:19.685; stroke-opacity:1; 
stroke-linecap:round; stroke-linejoin:round;">
</g>
<g style="fill:#000000; fill-opacity:1.0; 
stroke:#000000; stroke-width:0; stroke-opacity:1; 
stroke-linecap:round; stroke-linejoin:round;">
<circle cx="48250" cy="22000" r="354.5" /> 
</g>
<g style="fill:#000000; fill-opacity:1.0; 
stroke:#000000; stroke-width:19.685; stroke-opacity:1; 
stroke-linecap:round; stroke-linejoin:round;">
</g>
<g style="fill:#000000; fill-opacity:1.0; 
stroke:#000000; stroke-width:0; stroke-opacity:1; 
stroke-linecap:round; stroke-linejoin:round;">
<circle cx="50250" cy="22000" r="354.5" /> 
</g>
<g style="fill:#000000; fill-opacity:1.0; 
stroke:#000000; stroke-width:19.685; stroke-opacity:1; 
stroke-linecap:round; stroke-linejoin:round;">
</g>
<g style="fill:#000000; fill-opacity:1.0; 
stroke:#000000; stroke-width:0; stroke-opacity:1; 
stroke-linecap:round; stroke-linejoin:round;">
<circle cx="47750" cy="21000" r="354.5" /> 
</g>
<g style="fill:#000000; fill-opacity:1.0; 
stroke:#000000; stroke-width:19.685; stroke-opacity:1; 
stroke-linecap:round; stroke-linejoin:round;">
</g>
<g style="fill:#000000; fill-opacity:1.0; 
stroke:#000000; stroke-width:0; stroke-opacity:1; 
stroke-linecap:round; stroke-linejoin:round;">
<circle cx="48750" cy="21000" r="354.5" /> 
</g>
<g style="fill:#000000; fill-opacity:1.0; 
stroke:#000000; stroke-width:19.685; stroke-opacity:1; 
stroke-linecap:round; stroke-linejoin:round;">
</g>
<g style="fill:#000000; fill-opacity:1.0; 
stroke:#000000; stroke-width:0; stroke-opacity:1; 
stroke-linecap:round; stroke-linejoin:round;">
<circle cx="49750" cy="21000" r="354.5" /> 
</g>
<g style="fill:#000000; fill-opacity:1.0; 
stroke:#000000; stroke-width:19.685; stroke-opacity:1; 
stroke-linecap:round; stroke-linejoin:round;">
</g>
<g style="fill:#000000; fill-opacity:1.0; 
stroke:#000000; stroke-width:0; stroke-opacity:1; 
stroke-linecap:round; stroke-linejoin:round;">
<circle cx="51000" cy="24500" r="984.252" /> 
</g>
<g style="fill:#000000; fill-opacity:1.0; 
stroke:#000000; stroke-width:19.685; stroke-opacity:1; 
stroke-linecap:round; stroke-linejoin:round;">
</g>
<g style="fill:#000000; fill-opacity:1.0; 
stroke:#000000; stroke-width:0; stroke-opacity:1; 
stroke-linecap:round; stroke-linejoin:round;">
<circle cx="47000" cy="24500" r="984.252" /> 
</g>
<g style="fill:#000000; fill-opacity:1.0; 
stroke:#000000; stroke-width:19.685; stroke-opacity:1; 
stroke-linecap:round; stroke-linejoin:round;">
</g>
<g style="fill:#000000; fill-opacity:1.0; 
stroke:#000000; stroke-width:0; stroke-opacity:1; 
stroke-linecap:round; stroke-linejoin:round;">
<circle cx="44000" cy="16500" r="393.701" /> 
</g>
<g style="fill:#000000; fill-opacity:1.0; 
stroke:#000000; stroke-width:19.685; stroke-opacity:1; 
stroke-linecap:round; stroke-linejoin:round;">
</g>
<g style="fill:#000000; fill-opacity:1.0; 
stroke:#000000; stroke-width:0; stroke-opacity:1; 
stroke-linecap:round; stroke-linejoin:round;">
<circle cx="72000" cy="23500" r="393.701" /> 
</g>
<g style="fill:#000000; fill-opacity:1.0; 
stroke:#000000; stroke-width:19.685; stroke-opacity:1; 
stroke-linecap:round; stroke-linejoin:round;">
</g>
<g style="fill:#000000; fill-opacity:1.0; 
stroke:#000000; stroke-width:0; stroke-opacity:1; 
stroke-linecap:round; stroke-linejoin:round;">
<circle cx="44000" cy="23500" r="393.701" /> 
</g>
<g style="fill:#000000; fill-opacity:1.0; 
stroke:#000000; stroke-width:19.685; stroke-opacity:1; 
stroke-linecap:round; stroke-linejoin:round;">
</g>
<g style="fill:#000000; fill-opacity:1.0; 
stroke:#000000; stroke-width:0; stroke-opacity:1; 
stroke-linecap:round; stroke-linejoin:round;">
<circle cx="72000" cy="16500" r="393.701" /> 
</g>
<g style="fill:#000000; fill-opacity:1.0; 
stroke:#000000; stroke-width:19.685; stroke-opacity:1; 
stroke-linecap:round; stroke-linejoin:round;">
</g>
<g style="fill:#000000; fill-opacity:1.0; 
stroke:#000000; stroke-width:0; stroke-opacity:1; 
stroke-linecap:round; stroke-linejoin:round;">
<circle cx="48750" cy="53500" r="354.5" /> 
</g>
<g style="fill:#000000; fill-opacity:1.0; 
stroke:#000000; stroke-width:19.685; stroke-opacity:1; 
stroke-linecap:round; stroke-linejoin:round;">
</g>
<g style="fill:#000000; fill-opacity:1.0; 
stroke:#000000; stroke-width:0; stroke-opacity:1; 
stroke-linecap:round; stroke-linejoin:round;">
<circle cx="48250" cy="57500" r="354.5" /> 
</g>
<g style="fill:#000000; fill-opacity:1.0; 
stroke:#000000; stroke-width:19.685; stroke-opacity:1; 
stroke-linecap:round; stroke-linejoin:round;">
</g>
<g style="fill:#000000; fill-opacity:1.0; 
stroke:#000000; stroke-width:0; stroke-opacity:1; 
stroke-linecap:round; stroke-linejoin:round;">
<circle cx="54750" cy="53500" r="354.5" /> 
</g>
<g style="fill:#000000; fill-opacity:1.0; 
stroke:#000000; stroke-width:19.685; stroke-opacity:1; 
stroke-linecap:round; stroke-linejoin:round;">
</g>
<g style="fill:#000000; fill-opacity:1.0; 
stroke:#000000; stroke-width:0; stroke-opacity:1; 
stroke-linecap:round; stroke-linejoin:round;">
<circle cx="54250" cy="57500" r="354.5" /> 
</g>
<g style="fill:#000000; fill-opacity:1.0; 
stroke:#000000; stroke-width:19.685; stroke-opacity:1; 
stroke-linecap:round; stroke-linejoin:round;">
</g>
<g style="fill:#000000; fill-opacity:1.0; 
stroke:#000000; stroke-width:0; stroke-opacity:1; 
stroke-linecap:round; stroke-linejoin:round;">
<circle cx="60750" cy="53500" r="354.5" /> 
</g>
<g style="fill:#000000; fill-opacity:1.0; 
stroke:#000000; stroke-width:19.685; stroke-opacity:1; 
stroke-linecap:round; stroke-linejoin:round;">
</g>
<g style="fill:#000000; fill-opacity:1.0; 
stroke:#000000; stroke-width:0; stroke-opacity:1; 
stroke-linecap:round; stroke-linejoin:round;">
<circle cx="60250" cy="57500" r="354.5" /> 
</g>
<g style="fill:#000000; fill-opacity:1.0; 
stroke:#000000; stroke-width:19.685; stroke-opacity:1; 
stroke-linecap:round; stroke-linejoin:round;">
</g>
<g style="fill:#000000; fill-opacity:1.0; 
stroke:#000000; stroke-width:0; stroke-opacity:1; 
stroke-linecap:round; stroke-linejoin:round;">
<circle cx="66750" cy="53500" r="354.5" /> 
</g>
<g style="fill:#000000; fill-opacity:1.0; 
stroke:#000000; stroke-width:19.685; stroke-opacity:1; 
stroke-linecap:round; stroke-linejoin:round;">
</g>
<g style="fill:#000000; fill-opacity:1.0; 
stroke:#000000; stroke-width:0; stroke-opacity:1; 
stroke-linecap:round; stroke-linejoin:round;">
<circle cx="66250" cy="57500" r="354.5" /> 
</g>
<g style="fill:#000000; fill-opacity:1.0; 
stroke:#000000; stroke-width:19.685; stroke-opacity:1; 
stroke-linecap:round; stroke-linejoin:round;">
</g> 
</svg>
