<?xml version="1.0" standalone="no"?>
 <!DOCTYPE svg PUBLIC "-//W3C//DTD SVG 1.1//EN" 
 "http://www.w3.org/Graphics/SVG/1.1/DTD/svg11.dtd"> 
<svg xmlns="http://www.w3.org/2000/svg" version="1.1" 
    width="29.7002cm" height="21.0007cm" viewBox="0 0 116930 82680 ">
<title>SVG Picture created as USB_TO_4UART_BOARD-F_SilkS.svg date 2015/05/16 23:26:14 </title>
  <desc>Picture generated by PCBNEW </desc>
<g style="fill:#000000; fill-opacity:1;stroke:#000000; stroke-opacity:1;
stroke-linecap:round; stroke-linejoin:round; "
 transform="translate(0 0) scale(1 1)">
</g>
<g style="fill:#000000; fill-opacity:0.0; 
stroke:#000000; stroke-width:98.4252; stroke-opacity:1; 
stroke-linecap:round; stroke-linejoin:round;">
<path d="M91256 40908
L91181 40908
L91143 40889
L91125 40870
L91087 40814
L91068 40739
L91068 40589
L91087 40551
L91106 40533
L91143 40514
L91218 40514
L91256 40533
L91275 40551
L91293 40589
L91293 40683
L91275 40720
L91256 40739
L91218 40758
L91143 40758
L91106 40739
L91087 40720
L91068 40683
" />
<path d="M91650 40908
L91462 40908
L91443 40720
L91462 40739
L91500 40758
L91593 40758
L91631 40739
L91650 40720
L91668 40683
L91668 40589
L91650 40551
L91631 40533
L91593 40514
L91500 40514
L91462 40533
L91443 40551
" />
<path d="M91856 40533
L91856 40514
L91837 40476
L91818 40458
" />
<path d="M92100 40908
L92137 40908
L92175 40889
L92193 40870
L92212 40833
L92231 40758
L92231 40664
L92212 40589
L92193 40551
L92175 40533
L92137 40514
L92100 40514
L92062 40533
L92043 40551
L92025 40589
L92006 40664
L92006 40758
L92025 40833
L92043 40870
L92062 40889
L92100 40908
" />
<path d="M92381 40870
L92400 40889
L92437 40908
L92531 40908
L92568 40889
L92587 40870
L92606 40833
L92606 40795
L92587 40739
L92362 40514
L92606 40514
" />
<path d="M92943 40776
L92943 40514
" />
<path d="M92849 40926
L92756 40645
L92999 40645
" />
<path d="M93449 40514
L93449 40776
" />
<path d="M93449 40739
L93468 40758
L93506 40776
L93562 40776
L93599 40758
L93618 40720
L93618 40514
" />
<path d="M93618 40720
L93637 40758
L93674 40776
L93731 40776
L93768 40758
L93787 40720
L93787 40514
" />
<path d="M93974 40514
L93974 40776
" />
<path d="M93974 40739
L93993 40758
L94031 40776
L94087 40776
L94124 40758
L94143 40720
L94143 40514
" />
<path d="M94143 40720
L94162 40758
L94199 40776
L94256 40776
L94293 40758
L94312 40720
L94312 40514
" />
<path d="M105499 40279
L79899 40279
" />
<path d="M105500 13880
L105499 41067
" />
<path d="M79900 13880
L79899 41067
" />
<path d="M79899 40279
L80343 40049
" />
<path d="M79899 40279
L80343 40510
" />
<path d="M105499 40279
L105056 40049
" />
<path d="M105499 40279
L105056 40510
" />
<path d="M73853 23036
L74115 23036
" />
<path d="M73703 22942
L73984 22848
L73984 23092
" />
<path d="M73721 23411
L73721 23336
L73740 23298
L73759 23280
L73815 23242
L73890 23223
L74040 23223
L74078 23242
L74096 23261
L74115 23298
L74115 23373
L74096 23411
L74078 23430
L74040 23448
L73946 23448
L73909 23430
L73890 23411
L73871 23373
L73871 23298
L73890 23261
L73909 23242
L73946 23223
" />
<path d="M74096 23636
L74115 23636
L74153 23617
L74171 23598
" />
<path d="M73853 23973
L74115 23973
" />
<path d="M73703 23880
L73984 23786
L73984 24030
" />
<path d="M73890 24236
L73871 24198
L73853 24180
L73815 24161
L73796 24161
L73759 24180
L73740 24198
L73721 24236
L73721 24311
L73740 24348
L73759 24367
L73796 24386
L73815 24386
L73853 24367
L73871 24348
L73890 24311
L73890 24236
L73909 24198
L73928 24180
L73965 24161
L74040 24161
L74078 24180
L74096 24198
L74115 24236
L74115 24311
L74096 24348
L74078 24367
L74040 24386
L73965 24386
L73928 24367
L73909 24348
L73890 24311
" />
<path d="M73759 24536
L73740 24554
L73721 24592
L73721 24686
L73740 24723
L73759 24742
L73796 24761
L73834 24761
L73890 24742
L74115 24517
L74115 24761
" />
<path d="M74115 25229
L73853 25229
" />
<path d="M73890 25229
L73871 25248
L73853 25286
L73853 25342
L73871 25379
L73909 25398
L74115 25398
" />
<path d="M73909 25398
L73871 25417
L73853 25454
L73853 25511
L73871 25548
L73909 25567
L74115 25567
" />
<path d="M74115 25754
L73853 25754
" />
<path d="M73890 25754
L73871 25773
L73853 25811
L73853 25867
L73871 25904
L73909 25923
L74115 25923
" />
<path d="M73909 25923
L73871 25942
L73853 25979
L73853 26036
L73871 26073
L73909 26092
L74115 26092
" />
<path d="M74350 15329
L74350 33629
" />
<path d="M105950 15330
L73562 15329
" />
<path d="M105950 33630
L73562 33629
" />
<path d="M74350 33629
L74119 33186
" />
<path d="M74350 33629
L74580 33186
" />
<path d="M74350 15329
L74119 15773
" />
<path d="M74350 15329
L74580 15773
" />
<path d="M74003 61036
L74265 61036
" />
<path d="M73853 60942
L74134 60848
L74134 61092
" />
<path d="M73871 61411
L73871 61336
L73890 61298
L73909 61280
L73965 61242
L74040 61223
L74190 61223
L74228 61242
L74246 61261
L74265 61298
L74265 61373
L74246 61411
L74228 61430
L74190 61448
L74096 61448
L74059 61430
L74040 61411
L74021 61373
L74021 61298
L74040 61261
L74059 61242
L74096 61223
" />
<path d="M74246 61636
L74265 61636
L74303 61617
L74321 61598
" />
<path d="M74003 61973
L74265 61973
" />
<path d="M73853 61880
L74134 61786
L74134 62030
" />
<path d="M74040 62236
L74021 62198
L74003 62180
L73965 62161
L73946 62161
L73909 62180
L73890 62198
L73871 62236
L73871 62311
L73890 62348
L73909 62367
L73946 62386
L73965 62386
L74003 62367
L74021 62348
L74040 62311
L74040 62236
L74059 62198
L74078 62180
L74115 62161
L74190 62161
L74228 62180
L74246 62198
L74265 62236
L74265 62311
L74246 62348
L74228 62367
L74190 62386
L74115 62386
L74078 62367
L74059 62348
L74040 62311
" />
<path d="M73909 62536
L73890 62554
L73871 62592
L73871 62686
L73890 62723
L73909 62742
L73946 62761
L73984 62761
L74040 62742
L74265 62517
L74265 62761
" />
<path d="M74265 63229
L74003 63229
" />
<path d="M74040 63229
L74021 63248
L74003 63286
L74003 63342
L74021 63379
L74059 63398
L74265 63398
" />
<path d="M74059 63398
L74021 63417
L74003 63454
L74003 63511
L74021 63548
L74059 63567
L74265 63567
" />
<path d="M74265 63754
L74003 63754
" />
<path d="M74040 63754
L74021 63773
L74003 63811
L74003 63867
L74021 63904
L74059 63923
L74265 63923
" />
<path d="M74059 63923
L74021 63942
L74003 63979
L74003 64036
L74021 64073
L74059 64092
L74265 64092
" />
<path d="M74500 71630
L74500 53330
" />
<path d="M106100 71630
L73712 71630
" />
<path d="M106100 53330
L73712 53330
" />
<path d="M74500 53330
L74269 53773
" />
<path d="M74500 53330
L74730 53773
" />
<path d="M74500 71630
L74269 71186
" />
<path d="M74500 71630
L74730 71186
" />
<path d="M91406 46520
L91331 46520
L91293 46501
L91275 46483
L91237 46426
L91218 46351
L91218 46201
L91237 46164
L91256 46145
L91293 46126
L91368 46126
L91406 46145
L91425 46164
L91443 46201
L91443 46295
L91425 46333
L91406 46351
L91368 46370
L91293 46370
L91256 46351
L91237 46333
L91218 46295
" />
<path d="M91800 46520
L91612 46520
L91593 46333
L91612 46351
L91650 46370
L91743 46370
L91781 46351
L91800 46333
L91818 46295
L91818 46201
L91800 46164
L91781 46145
L91743 46126
L91650 46126
L91612 46145
L91593 46164
" />
<path d="M92006 46145
L92006 46126
L91987 46089
L91968 46070
" />
<path d="M92250 46520
L92287 46520
L92325 46501
L92343 46483
L92362 46445
L92381 46370
L92381 46276
L92362 46201
L92343 46164
L92325 46145
L92287 46126
L92250 46126
L92212 46145
L92193 46164
L92175 46201
L92156 46276
L92156 46370
L92175 46445
L92193 46483
L92212 46501
L92250 46520
" />
<path d="M92531 46483
L92550 46501
L92587 46520
L92681 46520
L92718 46501
L92737 46483
L92756 46445
L92756 46408
L92737 46351
L92512 46126
L92756 46126
" />
<path d="M93093 46389
L93093 46126
" />
<path d="M92999 46539
L92906 46258
L93149 46258
" />
<path d="M93599 46126
L93599 46389
" />
<path d="M93599 46351
L93618 46370
L93656 46389
L93712 46389
L93749 46370
L93768 46333
L93768 46126
" />
<path d="M93768 46333
L93787 46370
L93824 46389
L93881 46389
L93918 46370
L93937 46333
L93937 46126
" />
<path d="M94124 46126
L94124 46389
" />
<path d="M94124 46351
L94143 46370
L94181 46389
L94237 46389
L94274 46370
L94293 46333
L94293 46126
" />
<path d="M94293 46333
L94312 46370
L94349 46389
L94406 46389
L94443 46370
L94462 46333
L94462 46126
" />
<path d="M105649 46680
L80049 46680
" />
<path d="M105650 73080
L105649 45892
" />
<path d="M80050 73080
L80049 45892
" />
<path d="M80049 46680
L80493 46910
" />
<path d="M80049 46680
L80493 46449
" />
<path d="M105649 46680
L105206 46910
" />
<path d="M105649 46680
L105206 46449
" />
</g>
<g style="fill:#000000; fill-opacity:0.0; 
stroke:#000000; stroke-width:50; stroke-opacity:1; 
stroke-linecap:round; stroke-linejoin:round;">
<path d="M99507 24608
L99407 24751
" />
<path d="M99335 24608
L99335 24908
L99450 24908
L99478 24894
L99492 24880
L99507 24851
L99507 24808
L99492 24780
L99478 24765
L99450 24751
L99335 24751
" />
<path d="M99792 24608
L99621 24608
" />
<path d="M99707 24608
L99707 24908
L99678 24865
L99650 24837
L99621 24822
" />
<path d="M99892 24908
L100078 24908
L99978 24794
L100021 24794
L100050 24780
L100064 24765
L100078 24737
L100078 24665
L100064 24637
L100050 24622
L100021 24608
L99935 24608
L99907 24622
L99892 24637
" />
</g>
<g style="fill:#000000; fill-opacity:0.0; 
stroke:#000000; stroke-width:47; stroke-opacity:1; 
stroke-linecap:round; stroke-linejoin:round;">
<path d="M87879 26597
L87879 26503
L87682 26503
" />
<path d="M87879 26766
L87879 26653
" />
<path d="M87879 26709
L87682 26709
L87710 26690
L87729 26672
L87739 26653
" />
</g>
<g style="fill:#000000; fill-opacity:0.0; 
stroke:#000000; stroke-width:50; stroke-opacity:1; 
stroke-linecap:round; stroke-linejoin:round;">
<path d="M100730 30482
L100530 30482
L100530 30530
L100540 30558
L100559 30577
L100578 30587
L100616 30596
L100645 30596
L100683 30587
L100702 30577
L100721 30558
L100730 30530
L100730 30482
" />
<path d="M100530 30777
L100530 30682
L100626 30672
L100616 30682
L100607 30701
L100607 30749
L100616 30768
L100626 30777
L100645 30787
L100692 30787
L100711 30777
L100721 30768
L100730 30749
L100730 30701
L100721 30682
L100711 30672
" />
<path d="M101330 30296
L101530 30363
L101330 30430
" />
<path d="M101426 30496
L101426 30563
" />
<path d="M101530 30591
L101530 30496
L101330 30496
L101330 30591
" />
<path d="M101530 30791
L101435 30725
" />
<path d="M101530 30677
L101330 30677
L101330 30753
L101340 30772
L101350 30782
L101369 30791
L101397 30791
L101416 30782
L101426 30772
L101435 30753
L101435 30677
" />
<path d="M101330 30849
L101330 30963
" />
<path d="M101530 30906
L101330 30906
" />
<path d="M100730 25882
L100530 25882
L100530 25930
L100540 25958
L100559 25977
L100578 25987
L100616 25996
L100645 25996
L100683 25987
L100702 25977
L100721 25958
L100730 25930
L100730 25882
" />
<path d="M100597 26168
L100730 26168
" />
<path d="M100521 26120
L100664 26072
L100664 26196
" />
<path d="M101330 25696
L101530 25763
L101330 25830
" />
<path d="M101426 25896
L101426 25963
" />
<path d="M101530 25991
L101530 25896
L101330 25896
L101330 25991
" />
<path d="M101530 26191
L101435 26125
" />
<path d="M101530 26077
L101330 26077
L101330 26153
L101340 26172
L101350 26182
L101369 26191
L101397 26191
L101416 26182
L101426 26172
L101435 26153
L101435 26077
" />
<path d="M101330 26249
L101330 26363
" />
<path d="M101530 26306
L101330 26306
" />
<path d="M100730 21232
L100530 21232
L100530 21280
L100540 21308
L100559 21327
L100578 21337
L100616 21346
L100645 21346
L100683 21337
L100702 21327
L100721 21308
L100730 21280
L100730 21232
" />
<path d="M100530 21413
L100530 21537
L100607 21470
L100607 21499
L100616 21518
L100626 21527
L100645 21537
L100692 21537
L100711 21527
L100721 21518
L100730 21499
L100730 21441
L100721 21422
L100711 21413
" />
<path d="M101330 21046
L101530 21113
L101330 21180
" />
<path d="M101426 21246
L101426 21313
" />
<path d="M101530 21341
L101530 21246
L101330 21246
L101330 21341
" />
<path d="M101530 21541
L101435 21475
" />
<path d="M101530 21427
L101330 21427
L101330 21503
L101340 21522
L101350 21532
L101369 21541
L101397 21541
L101416 21532
L101426 21522
L101435 21503
L101435 21427
" />
<path d="M101330 21599
L101330 21713
" />
<path d="M101530 21656
L101330 21656
" />
<path d="M100730 16332
L100530 16332
L100530 16380
L100540 16408
L100559 16427
L100578 16437
L100616 16446
L100645 16446
L100683 16437
L100702 16427
L100721 16408
L100730 16380
L100730 16332
" />
<path d="M100550 16522
L100540 16532
L100530 16551
L100530 16599
L100540 16618
L100550 16627
L100569 16637
L100588 16637
L100616 16627
L100730 16513
L100730 16637
" />
<path d="M101330 16146
L101530 16213
L101330 16280
" />
<path d="M101426 16346
L101426 16413
" />
<path d="M101530 16441
L101530 16346
L101330 16346
L101330 16441
" />
<path d="M101530 16641
L101435 16575
" />
<path d="M101530 16527
L101330 16527
L101330 16603
L101340 16622
L101350 16632
L101369 16641
L101397 16641
L101416 16632
L101426 16622
L101435 16603
L101435 16527
" />
<path d="M101330 16699
L101330 16813
" />
<path d="M101530 16756
L101330 16756
" />
<path d="M89002 17799
L89002 17999
L89050 17999
L89078 17989
L89097 17970
L89107 17951
L89116 17913
L89116 17884
L89107 17846
L89097 17827
L89078 17808
L89050 17799
L89002 17799
" />
<path d="M89307 17799
L89192 17799
" />
<path d="M89250 17799
L89250 17999
L89230 17970
L89211 17951
L89192 17941
" />
<path d="M89021 16999
L88926 16999
L88926 17199
" />
<path d="M89088 17103
L89154 17103
" />
<path d="M89183 16999
L89088 16999
L89088 17199
L89183 17199
" />
<path d="M89269 16999
L89269 17199
L89316 17199
L89345 17189
L89364 17170
L89373 17151
L89383 17113
L89383 17084
L89373 17046
L89364 17027
L89345 17008
L89316 16999
L89269 16999
" />
</g>
<g style="fill:#000000; fill-opacity:0.0; 
stroke:#000000; stroke-width:45; stroke-opacity:1; 
stroke-linecap:round; stroke-linejoin:round;">
<path d="M90034 32368
L90025 32358
L90000 32349
L89982 32349
L89957 32358
L89940 32377
L89931 32396
L89922 32434
L89922 32463
L89931 32501
L89940 32520
L89957 32539
L89982 32549
L90000 32549
L90025 32539
L90034 32530
" />
<path d="M90205 32349
L90102 32349
" />
<path d="M90154 32349
L90154 32549
L90137 32520
L90120 32501
L90102 32491
" />
<path d="M90360 32549
L90325 32549
L90308 32539
L90300 32530
L90282 32501
L90274 32463
L90274 32387
L90282 32368
L90291 32358
L90308 32349
L90342 32349
L90360 32358
L90368 32368
L90377 32387
L90377 32434
L90368 32453
L90360 32463
L90342 32472
L90308 32472
L90291 32463
L90282 32453
L90274 32434
" />
<path d="M98484 23818
L98475 23808
L98450 23799
L98432 23799
L98407 23808
L98390 23827
L98381 23846
L98372 23884
L98372 23913
L98381 23951
L98390 23970
L98407 23989
L98432 23999
L98450 23999
L98475 23989
L98484 23980
" />
<path d="M98655 23799
L98552 23799
" />
<path d="M98604 23799
L98604 23999
L98587 23970
L98570 23951
L98552 23941
" />
<path d="M98818 23999
L98732 23999
L98724 23903
L98732 23913
L98750 23922
L98792 23922
L98810 23913
L98818 23903
L98827 23884
L98827 23837
L98818 23818
L98810 23808
L98792 23799
L98750 23799
L98732 23808
L98724 23818
" />
<path d="M101163 32814
L101030 32754
" />
<path d="M101163 32711
L100883 32711
L100883 32780
L100896 32797
L100910 32805
L100936 32814
L100976 32814
L101003 32805
L101016 32797
L101030 32780
L101030 32711
" />
<path d="M101163 32985
L101163 32882
" />
<path d="M101163 32934
L100883 32934
L100923 32917
L100950 32900
L100963 32882
" />
<path d="M101163 33157
L101163 33054
" />
<path d="M101163 33105
L100883 33105
L100923 33088
L100950 33071
L100963 33054
" />
<path d="M101063 28014
L100930 27954
" />
<path d="M101063 27911
L100783 27911
L100783 27980
L100796 27997
L100810 28005
L100836 28014
L100876 28014
L100903 28005
L100916 27997
L100930 27980
L100930 27911
" />
<path d="M101063 28185
L101063 28082
" />
<path d="M101063 28134
L100783 28134
L100823 28117
L100850 28100
L100863 28082
" />
<path d="M100783 28297
L100783 28314
L100796 28331
L100810 28340
L100836 28348
L100890 28357
L100956 28357
L101010 28348
L101036 28340
L101050 28331
L101063 28314
L101063 28297
L101050 28280
L101036 28271
L101010 28262
L100956 28254
L100890 28254
L100836 28262
L100810 28271
L100796 28280
L100783 28297
" />
<path d="M101163 23400
L101030 23340
" />
<path d="M101163 23297
L100883 23297
L100883 23365
L100896 23382
L100910 23391
L100936 23400
L100976 23400
L101003 23391
L101016 23382
L101030 23365
L101030 23297
" />
<path d="M101163 23485
L101163 23520
L101150 23537
L101136 23545
L101096 23562
L101043 23571
L100936 23571
L100910 23562
L100896 23554
L100883 23537
L100883 23502
L100896 23485
L100910 23477
L100936 23468
L101003 23468
L101030 23477
L101043 23485
L101056 23502
L101056 23537
L101043 23554
L101030 23562
L101003 23571
" />
<path d="M101163 18650
L101030 18590
" />
<path d="M101163 18547
L100883 18547
L100883 18615
L100896 18632
L100910 18641
L100936 18650
L100976 18650
L101003 18641
L101016 18632
L101030 18615
L101030 18547
" />
<path d="M101003 18752
L100990 18735
L100976 18727
L100950 18718
L100936 18718
L100910 18727
L100896 18735
L100883 18752
L100883 18787
L100896 18804
L100910 18812
L100936 18821
L100950 18821
L100976 18812
L100990 18804
L101003 18787
L101003 18752
L101016 18735
L101030 18727
L101056 18718
L101110 18718
L101136 18727
L101150 18735
L101163 18752
L101163 18787
L101150 18804
L101136 18812
L101110 18821
L101056 18821
L101030 18812
L101016 18804
L101003 18787
" />
<path d="M90470 17366
L90410 17500
" />
<path d="M90367 17366
L90367 17646
L90435 17646
L90452 17633
L90461 17620
L90470 17593
L90470 17553
L90461 17526
L90452 17513
L90435 17500
L90367 17500
" />
<path d="M90530 17646
L90650 17646
L90572 17366
" />
</g>
<g style="fill:#000000; fill-opacity:0.0; 
stroke:#000000; stroke-width:47; stroke-opacity:1; 
stroke-linecap:round; stroke-linejoin:round;">
<path d="M92350 26143
L92360 26133
L92369 26105
L92369 26087
L92360 26058
L92341 26040
L92322 26030
L92285 26021
L92257 26021
L92219 26030
L92200 26040
L92182 26058
L92172 26087
L92172 26105
L92182 26133
L92191 26143
" />
<path d="M92369 26330
L92369 26218
" />
<path d="M92369 26274
L92172 26274
L92200 26255
L92219 26237
L92229 26218
" />
<path d="M92257 26443
L92247 26424
L92238 26415
L92219 26406
L92210 26406
L92191 26415
L92182 26424
L92172 26443
L92172 26481
L92182 26499
L92191 26509
L92210 26518
L92219 26518
L92238 26509
L92247 26499
L92257 26481
L92257 26443
L92266 26424
L92275 26415
L92294 26406
L92332 26406
L92350 26415
L92360 26424
L92369 26443
L92369 26481
L92360 26499
L92350 26509
L92332 26518
L92294 26518
L92275 26509
L92266 26499
L92257 26481
" />
<path d="M91020 23863
L91030 23853
L91039 23825
L91039 23807
L91030 23778
L91011 23760
L90992 23750
L90955 23741
L90927 23741
L90889 23750
L90870 23760
L90852 23778
L90842 23807
L90842 23825
L90852 23853
L90861 23863
" />
<path d="M91039 24050
L91039 23938
" />
<path d="M91039 23994
L90842 23994
L90870 23975
L90889 23957
L90899 23938
" />
<path d="M90842 24116
L90842 24247
L91039 24163
" />
</g>
<g style="fill:#000000; fill-opacity:0.0; 
stroke:#000000; stroke-width:45; stroke-opacity:1; 
stroke-linecap:round; stroke-linejoin:round;">
<path d="M87911 16200
L87921 16191
L87930 16165
L87930 16148
L87921 16122
L87902 16105
L87883 16097
L87845 16088
L87816 16088
L87778 16097
L87759 16105
L87740 16122
L87730 16148
L87730 16165
L87740 16191
L87750 16200
" />
<path d="M87750 16268
L87740 16277
L87730 16294
L87730 16337
L87740 16354
L87750 16362
L87769 16371
L87788 16371
L87816 16362
L87930 16260
L87930 16371
" />
<path d="M88400 16011
L88390 16020
L88380 16037
L88380 16080
L88390 16097
L88400 16105
L88419 16114
L88438 16114
L88466 16105
L88580 16002
L88580 16114
" />
<path d="M88380 16174
L88380 16294
L88580 16217
" />
<path d="M88447 16362
L88647 16362
" />
<path d="M88457 16362
L88447 16380
L88447 16414
L88457 16431
L88466 16440
L88485 16448
L88542 16448
L88561 16440
L88571 16431
L88580 16414
L88580 16380
L88571 16362
" />
<path d="M85761 21000
L85771 20991
L85780 20965
L85780 20948
L85771 20922
L85752 20905
L85733 20897
L85695 20888
L85666 20888
L85628 20897
L85609 20905
L85590 20922
L85580 20948
L85580 20965
L85590 20991
L85600 21000
" />
<path d="M85580 21162
L85580 21077
L85676 21068
L85666 21077
L85657 21094
L85657 21137
L85666 21154
L85676 21162
L85695 21171
L85742 21171
L85761 21162
L85771 21154
L85780 21137
L85780 21094
L85771 21077
L85761 21068
" />
<path d="M84950 20811
L84940 20820
L84930 20837
L84930 20880
L84940 20897
L84950 20905
L84969 20914
L84988 20914
L85016 20905
L85130 20802
L85130 20914
" />
<path d="M84930 20974
L84930 21094
L85130 21017
" />
<path d="M84997 21162
L85197 21162
" />
<path d="M85007 21162
L84997 21180
L84997 21214
L85007 21231
L85016 21240
L85035 21248
L85092 21248
L85111 21240
L85121 21231
L85130 21214
L85130 21180
L85121 21162
" />
</g>
<g style="fill:#000000; fill-opacity:0.0; 
stroke:#000000; stroke-width:47; stroke-opacity:1; 
stroke-linecap:round; stroke-linejoin:round;">
<path d="M90429 23547
L90429 23453
L90232 23453
" />
<path d="M90251 23603
L90242 23612
L90232 23631
L90232 23678
L90242 23697
L90251 23706
L90270 23716
L90289 23716
L90317 23706
L90429 23594
L90429 23716
" />
</g>
<g style="fill:#000000; fill-opacity:0.0; 
stroke:#000000; stroke-width:120; stroke-opacity:1; 
stroke-linecap:round; stroke-linejoin:round;">
<path d="M80342 62187
L79742 62187
L79742 62415
L79771 62472
L79800 62501
L79857 62530
L79942 62530
L80000 62501
L80028 62472
L80057 62415
L80057 62187
" />
<path d="M80342 63101
L80342 62758
" />
<path d="M80342 62930
L79742 62930
L79828 62872
L79885 62815
L79914 62758
" />
<path d="M82785 61358
L82814 61330
L82842 61244
L82842 61187
L82814 61101
L82757 61044
L82700 61015
L82585 60987
L82500 60987
L82385 61015
L82328 61044
L82271 61101
L82242 61187
L82242 61244
L82271 61330
L82300 61358
" />
<path d="M82242 61730
L82242 61844
L82271 61901
L82328 61958
L82442 61987
L82642 61987
L82757 61958
L82814 61901
L82842 61844
L82842 61730
L82814 61672
L82757 61615
L82642 61587
L82442 61587
L82328 61615
L82271 61672
L82242 61730
" />
<path d="M82842 62244
L82242 62244
L82842 62587
L82242 62587
" />
<path d="M82842 62872
L82242 62872
L82842 63215
L82242 63215
" />
<path d="M82900 63358
L82900 63815
" />
<path d="M82442 64215
L82842 64215
" />
<path d="M82214 64072
L82642 63930
L82642 64301
" />
</g>
<g style="fill:#000000; fill-opacity:0.0; 
stroke:#000000; stroke-width:50; stroke-opacity:1; 
stroke-linecap:round; stroke-linejoin:round;">
<path d="M90692 62300
L91042 62300
L91084 62320
L91104 62341
L91125 62382
L91125 62465
L91104 62506
L91084 62526
L91042 62547
L90692 62547
" />
<path d="M90692 62712
L90692 62980
L90857 62836
L90857 62898
L90877 62939
L90898 62959
L90939 62980
L91042 62980
L91084 62959
L91104 62939
L91125 62898
L91125 62774
L91104 62733
L91084 62712
" />
</g>
<g style="fill:#000000; fill-opacity:0.0; 
stroke:#000000; stroke-width:60; stroke-opacity:1; 
stroke-linecap:round; stroke-linejoin:round;">
<path d="M89653 61225
L89653 61094
" />
<path d="M89859 61094
L89465 61094
L89465 61282
" />
<path d="M89465 61376
L89465 61601
" />
<path d="M89859 61488
L89465 61488
" />
<path d="M89596 61901
L89859 61901
" />
<path d="M89446 61807
L89728 61713
L89728 61957
" />
<path d="M89503 62089
L89484 62107
L89465 62145
L89465 62239
L89484 62276
L89503 62295
L89540 62314
L89578 62314
L89634 62295
L89859 62070
L89859 62314
" />
<path d="M89465 62445
L89465 62689
L89615 62558
L89615 62614
L89634 62651
L89653 62670
L89690 62689
L89784 62689
L89821 62670
L89840 62651
L89859 62614
L89859 62501
L89840 62464
L89821 62445
" />
<path d="M89503 62839
L89484 62858
L89465 62895
L89465 62989
L89484 63027
L89503 63045
L89540 63064
L89578 63064
L89634 63045
L89859 62820
L89859 63064
" />
<path d="M89709 63233
L89709 63533
" />
<path d="M89859 63721
L89465 63721
" />
<path d="M89653 63721
L89653 63946
" />
<path d="M89859 63946
L89465 63946
" />
<path d="M89859 64321
L89859 64134
L89465 64134
" />
</g>
<g style="fill:#000000; fill-opacity:0.0; 
stroke:#000000; stroke-width:59; stroke-opacity:1; 
stroke-linecap:round; stroke-linejoin:round;">
<path d="M89325 68905
L89325 68666
L89339 68638
L89353 68624
L89381 68610
L89437 68610
L89465 68624
L89479 68638
L89493 68666
L89493 68905
" />
<path d="M89788 68610
L89620 68610
" />
<path d="M89704 68610
L89704 68905
L89676 68863
L89648 68835
L89620 68821
" />
<path d="M88924 67810
L88981 67810
L89009 67824
L89023 67838
L89051 67880
L89065 67937
L89065 68049
L89051 68077
L89037 68091
L89009 68105
L88952 68105
L88924 68091
L88910 68077
L88896 68049
L88896 67979
L88910 67951
L88924 67937
L88952 67922
L89009 67922
L89037 67937
L89051 67951
L89065 67979
" />
<path d="M89163 68105
L89346 68105
L89247 67993
L89290 67993
L89318 67979
L89332 67965
L89346 67937
L89346 67866
L89332 67838
L89318 67824
L89290 67810
L89205 67810
L89177 67824
L89163 67838
" />
<path d="M89641 67838
L89627 67824
L89585 67810
L89557 67810
L89514 67824
L89486 67852
L89472 67880
L89458 67937
L89458 67979
L89472 68035
L89486 68063
L89514 68091
L89557 68105
L89585 68105
L89627 68091
L89641 68077
" />
<path d="M89894 68007
L89894 67810
" />
<path d="M89823 68119
L89753 67908
L89936 67908
" />
<path d="M90175 68105
L90118 68105
L90090 68091
L90076 68077
L90048 68035
L90034 67979
L90034 67866
L90048 67838
L90062 67824
L90090 67810
L90147 67810
L90175 67824
L90189 67838
L90203 67866
L90203 67937
L90189 67965
L90175 67979
L90147 67993
L90090 67993
L90062 67979
L90048 67965
L90034 67937
" />
<path d="M96924 66105
L97163 66105
L97191 66119
L97205 66133
L97219 66161
L97219 66217
L97205 66245
L97191 66259
L97163 66273
L96924 66273
" />
<path d="M97022 66540
L97219 66540
" />
<path d="M96910 66470
L97121 66400
L97121 66582
" />
<path d="M96124 65508
L96124 65704
L96419 65578
" />
<path d="M96222 65943
L96419 65943
" />
<path d="M96110 65873
L96321 65803
L96321 65985
" />
<path d="M96419 66098
L96124 66098
" />
<path d="M96264 66098
L96264 66266
" />
<path d="M96419 66266
L96124 66266
" />
<path d="M96391 66575
L96405 66561
L96419 66519
L96419 66491
L96405 66449
L96377 66421
L96349 66407
L96292 66393
L96250 66393
L96194 66407
L96166 66421
L96138 66449
L96124 66491
L96124 66519
L96138 66561
L96152 66575
" />
<path d="M96124 66758
L96124 66786
L96138 66814
L96152 66828
L96180 66842
L96236 66856
L96307 66856
L96363 66842
L96391 66828
L96405 66814
L96419 66786
L96419 66758
L96405 66730
L96391 66716
L96363 66702
L96307 66688
L96236 66688
L96180 66702
L96152 66716
L96138 66730
L96124 66758
" />
<path d="M96152 66969
L96138 66983
L96124 67011
L96124 67081
L96138 67109
L96152 67123
L96180 67137
L96208 67137
L96250 67123
L96419 66955
L96419 67137
" />
</g>
<g style="fill:#000000; fill-opacity:0.0; 
stroke:#000000; stroke-width:45; stroke-opacity:1; 
stroke-linecap:round; stroke-linejoin:round;">
<path d="M88145 68225
L88085 68319
" />
<path d="M88042 68225
L88042 68422
L88110 68422
L88127 68412
L88136 68403
L88145 68384
L88145 68356
L88136 68337
L88127 68328
L88110 68319
L88042 68319
" />
<path d="M88213 68403
L88222 68412
L88239 68422
L88282 68422
L88299 68412
L88307 68403
L88316 68384
L88316 68365
L88307 68337
L88205 68225
L88316 68225
" />
<path d="M88042 68918
L87940 68918
" />
<path d="M87991 68918
L87991 69118
L87974 69089
L87957 69070
L87940 69060
" />
<path d="M88154 69118
L88171 69118
L88188 69108
L88197 69099
L88205 69079
L88214 69041
L88214 68994
L88205 68956
L88197 68937
L88188 68927
L88171 68918
L88154 68918
L88137 68927
L88128 68937
L88120 68956
L88111 68994
L88111 69041
L88120 69079
L88128 69099
L88137 69108
L88154 69118
" />
<path d="M88291 68918
L88291 69118
" />
<path d="M88308 68994
L88360 68918
" />
<path d="M88360 69051
L88291 68975
" />
<path d="M88604 66125
L88510 66065
" />
<path d="M88604 66022
L88407 66022
L88407 66090
L88417 66107
L88426 66116
L88445 66125
L88473 66125
L88492 66116
L88501 66107
L88510 66090
L88510 66022
" />
<path d="M88604 66296
L88604 66193
" />
<path d="M88604 66245
L88407 66245
L88435 66227
L88454 66210
L88464 66193
" />
<path d="M87911 66022
L87911 65920
" />
<path d="M87911 65971
L87711 65971
L87740 65954
L87759 65937
L87769 65920
" />
<path d="M87711 66134
L87711 66151
L87721 66168
L87731 66177
L87750 66185
L87788 66194
L87835 66194
L87873 66185
L87892 66177
L87902 66168
L87911 66151
L87911 66134
L87902 66117
L87892 66108
L87873 66100
L87835 66091
L87788 66091
L87750 66100
L87731 66108
L87721 66117
L87711 66134
" />
<path d="M87911 66271
L87711 66271
" />
<path d="M87835 66288
L87911 66340
" />
<path d="M87778 66340
L87854 66271
" />
<path d="M91354 66925
L91260 66865
" />
<path d="M91354 66822
L91157 66822
L91157 66890
L91167 66907
L91176 66916
L91195 66925
L91223 66925
L91242 66916
L91251 66907
L91260 66890
L91260 66822
" />
<path d="M91157 66985
L91157 67096
L91232 67036
L91232 67062
L91242 67079
L91251 67087
L91270 67096
L91317 67096
L91335 67087
L91345 67079
L91354 67062
L91354 67010
L91345 66993
L91335 66985
" />
<path d="M92049 66872
L92049 66770
" />
<path d="M92049 66821
L91849 66821
L91878 66804
L91897 66787
L91907 66770
" />
<path d="M91849 66984
L91849 67001
L91859 67018
L91869 67027
L91888 67035
L91926 67044
L91973 67044
L92011 67035
L92030 67027
L92040 67018
L92049 67001
L92049 66984
L92040 66967
L92030 66958
L92011 66950
L91973 66941
L91926 66941
L91888 66950
L91869 66958
L91859 66967
L91849 66984
" />
<path d="M92049 67121
L91849 67121
" />
<path d="M91973 67138
L92049 67190
" />
<path d="M91916 67190
L91992 67121
" />
<path d="M90895 68225
L90835 68319
" />
<path d="M90792 68225
L90792 68422
L90860 68422
L90877 68412
L90886 68403
L90895 68384
L90895 68356
L90886 68337
L90877 68328
L90860 68319
L90792 68319
" />
<path d="M91049 68356
L91049 68225
" />
<path d="M91006 68431
L90963 68290
L91075 68290
" />
<path d="M90647 69099
L90655 69108
L90672 69118
L90715 69118
L90732 69108
L90741 69099
L90750 69079
L90750 69060
L90741 69032
L90638 68918
L90750 68918
" />
<path d="M90827 68937
L90835 68927
L90827 68918
L90818 68927
L90827 68937
L90827 68918
" />
<path d="M90904 69099
L90912 69108
L90930 69118
L90972 69118
L90990 69108
L90998 69099
L91007 69079
L91007 69060
L90998 69032
L90895 68918
L91007 68918
" />
<path d="M91084 68918
L91084 69118
" />
<path d="M91101 68994
L91152 68918
" />
<path d="M91152 69051
L91084 68975
" />
<path d="M87645 59075
L87585 59169
" />
<path d="M87542 59075
L87542 59272
L87610 59272
L87627 59262
L87636 59253
L87645 59234
L87645 59206
L87636 59187
L87627 59178
L87610 59169
L87542 59169
" />
<path d="M87799 59272
L87765 59272
L87747 59262
L87739 59253
L87722 59225
L87713 59187
L87713 59112
L87722 59094
L87730 59084
L87747 59075
L87782 59075
L87799 59084
L87807 59094
L87816 59112
L87816 59159
L87807 59178
L87799 59187
L87782 59197
L87747 59197
L87730 59187
L87722 59178
L87713 59159
" />
<path d="M87628 59768
L87525 59768
" />
<path d="M87577 59768
L87577 59968
L87560 59939
L87542 59920
L87525 59910
" />
<path d="M87705 59768
L87705 59968
" />
<path d="M87722 59844
L87774 59768
" />
<path d="M87774 59901
L87705 59825
" />
<path d="M85745 64225
L85685 64319
" />
<path d="M85642 64225
L85642 64422
L85710 64422
L85727 64412
L85736 64403
L85745 64384
L85745 64356
L85736 64337
L85727 64328
L85710 64319
L85642 64319
" />
<path d="M85907 64422
L85822 64422
L85813 64328
L85822 64337
L85839 64347
L85882 64347
L85899 64337
L85907 64328
L85916 64309
L85916 64262
L85907 64244
L85899 64234
L85882 64225
L85839 64225
L85822 64234
L85813 64244
" />
<path d="M85642 64918
L85540 64918
" />
<path d="M85591 64918
L85591 65118
L85574 65089
L85557 65070
L85540 65060
" />
<path d="M85711 65099
L85720 65108
L85737 65118
L85780 65118
L85797 65108
L85805 65099
L85814 65079
L85814 65060
L85805 65032
L85702 64918
L85814 64918
" />
<path d="M85891 64918
L85891 65118
" />
<path d="M85908 64994
L85960 64918
" />
<path d="M85960 65051
L85891 64975
" />
<path d="M90161 70264
L90171 70255
L90180 70230
L90180 70212
L90171 70187
L90152 70170
L90133 70161
L90095 70152
L90066 70152
L90028 70161
L90009 70170
L89990 70187
L89980 70212
L89980 70230
L89990 70255
L90000 70264
" />
<path d="M90180 70435
L90180 70332
" />
<path d="M90180 70384
L89980 70384
L90009 70367
L90028 70350
L90038 70332
" />
<path d="M89980 70547
L89980 70564
L89990 70581
L90000 70590
L90019 70598
L90057 70607
L90104 70607
L90142 70598
L90161 70590
L90171 70581
L90180 70564
L90180 70547
L90171 70530
L90161 70521
L90142 70512
L90104 70504
L90057 70504
L90019 70512
L90000 70521
L89990 70530
L89980 70547
" />
<path d="M89530 70178
L89530 70075
" />
<path d="M89530 70127
L89330 70127
L89359 70109
L89378 70092
L89388 70075
" />
<path d="M89330 70290
L89330 70307
L89340 70324
L89350 70332
L89369 70341
L89407 70350
L89454 70350
L89492 70341
L89511 70332
L89521 70324
L89530 70307
L89530 70290
L89521 70272
L89511 70264
L89492 70255
L89454 70247
L89407 70247
L89369 70255
L89350 70264
L89340 70272
L89330 70290
" />
<path d="M89330 70461
L89330 70478
L89340 70495
L89350 70504
L89369 70512
L89407 70521
L89454 70521
L89492 70512
L89511 70504
L89521 70495
L89530 70478
L89530 70461
L89521 70444
L89511 70435
L89492 70427
L89454 70418
L89407 70418
L89369 70427
L89350 70435
L89340 70444
L89330 70461
" />
<path d="M89397 70598
L89530 70598
" />
<path d="M89416 70598
L89407 70607
L89397 70624
L89397 70650
L89407 70667
L89426 70675
L89530 70675
" />
<path d="M86011 59150
L86021 59141
L86030 59115
L86030 59098
L86021 59072
L86002 59055
L85983 59047
L85945 59038
L85916 59038
L85878 59047
L85859 59055
L85840 59072
L85830 59098
L85830 59115
L85840 59141
L85850 59150
" />
<path d="M86030 59321
L86030 59218
" />
<path d="M86030 59270
L85830 59270
L85859 59252
L85878 59235
L85888 59218
" />
<path d="M85380 58978
L85380 58875
" />
<path d="M85380 58927
L85180 58927
L85209 58909
L85228 58892
L85238 58875
" />
<path d="M85180 59090
L85180 59107
L85190 59124
L85200 59132
L85219 59141
L85257 59150
L85304 59150
L85342 59141
L85361 59132
L85371 59124
L85380 59107
L85380 59090
L85371 59072
L85361 59064
L85342 59055
L85304 59047
L85257 59047
L85219 59055
L85200 59064
L85190 59072
L85180 59090
" />
<path d="M85180 59261
L85180 59278
L85190 59295
L85200 59304
L85219 59312
L85257 59321
L85304 59321
L85342 59312
L85361 59304
L85371 59295
L85380 59278
L85380 59261
L85371 59244
L85361 59235
L85342 59227
L85304 59218
L85257 59218
L85219 59227
L85200 59235
L85190 59244
L85180 59261
" />
<path d="M85247 59398
L85380 59398
" />
<path d="M85266 59398
L85257 59407
L85247 59424
L85247 59450
L85257 59467
L85276 59475
L85380 59475
" />
<path d="M87670 65018
L87661 65008
L87635 64999
L87618 64999
L87592 65008
L87575 65027
L87567 65046
L87558 65084
L87558 65113
L87567 65151
L87575 65170
L87592 65189
L87618 65199
L87635 65199
L87661 65189
L87670 65180
" />
<path d="M87730 65199
L87850 65199
L87772 64999
" />
<path d="M87498 65649
L87395 65649
" />
<path d="M87447 65649
L87447 65849
L87429 65820
L87412 65801
L87395 65791
" />
<path d="M87610 65849
L87627 65849
L87644 65839
L87652 65830
L87661 65810
L87670 65772
L87670 65725
L87661 65687
L87652 65668
L87644 65658
L87627 65649
L87610 65649
L87592 65658
L87584 65668
L87575 65687
L87567 65725
L87567 65772
L87575 65810
L87584 65830
L87592 65839
L87610 65849
" />
<path d="M87781 65849
L87798 65849
L87815 65839
L87824 65830
L87832 65810
L87841 65772
L87841 65725
L87832 65687
L87824 65668
L87815 65658
L87798 65649
L87781 65649
L87764 65658
L87755 65668
L87747 65687
L87738 65725
L87738 65772
L87747 65810
L87755 65830
L87764 65839
L87781 65849
" />
<path d="M87918 65782
L87918 65649
" />
<path d="M87918 65763
L87927 65772
L87944 65782
L87970 65782
L87987 65772
L87995 65753
L87995 65649
" />
<path d="M94870 60868
L94861 60858
L94835 60849
L94818 60849
L94792 60858
L94775 60877
L94767 60896
L94758 60934
L94758 60963
L94767 61001
L94775 61020
L94792 61039
L94818 61049
L94835 61049
L94861 61039
L94870 61030
" />
<path d="M94972 60963
L94955 60972
L94947 60982
L94938 61001
L94938 61010
L94947 61030
L94955 61039
L94972 61049
L95007 61049
L95024 61039
L95032 61030
L95041 61010
L95041 61001
L95032 60982
L95024 60972
L95007 60963
L94972 60963
L94955 60953
L94947 60944
L94938 60925
L94938 60887
L94947 60868
L94955 60858
L94972 60849
L95007 60849
L95024 60858
L95032 60868
L95041 60887
L95041 60925
L95032 60944
L95024 60953
L95007 60963
" />
<path d="M94698 61499
L94595 61499
" />
<path d="M94647 61499
L94647 61699
L94629 61670
L94612 61651
L94595 61641
" />
<path d="M94810 61699
L94827 61699
L94844 61689
L94852 61680
L94861 61660
L94870 61622
L94870 61575
L94861 61537
L94852 61518
L94844 61508
L94827 61499
L94810 61499
L94792 61508
L94784 61518
L94775 61537
L94767 61575
L94767 61622
L94775 61660
L94784 61680
L94792 61689
L94810 61699
" />
<path d="M94981 61699
L94998 61699
L95015 61689
L95024 61680
L95032 61660
L95041 61622
L95041 61575
L95032 61537
L95024 61518
L95015 61508
L94998 61499
L94981 61499
L94964 61508
L94955 61518
L94947 61537
L94938 61575
L94938 61622
L94947 61660
L94955 61680
L94964 61689
L94981 61699
" />
<path d="M95118 61632
L95118 61499
" />
<path d="M95118 61613
L95127 61622
L95144 61632
L95170 61632
L95187 61622
L95195 61603
L95195 61499
" />
<path d="M96661 68600
L96671 68591
L96680 68565
L96680 68548
L96671 68522
L96652 68505
L96633 68497
L96595 68488
L96566 68488
L96528 68497
L96509 68505
L96490 68522
L96480 68548
L96480 68565
L96490 68591
L96500 68600
" />
<path d="M96480 68660
L96480 68771
L96557 68711
L96557 68737
L96566 68754
L96576 68762
L96595 68771
L96642 68771
L96661 68762
L96671 68754
L96680 68737
L96680 68685
L96671 68668
L96661 68660
" />
<path d="M97330 68428
L97330 68325
" />
<path d="M97330 68377
L97130 68377
L97159 68359
L97178 68342
L97188 68325
" />
<path d="M97130 68540
L97130 68557
L97140 68574
L97150 68582
L97169 68591
L97207 68600
L97254 68600
L97292 68591
L97311 68582
L97321 68574
L97330 68557
L97330 68540
L97321 68522
L97311 68514
L97292 68505
L97254 68497
L97207 68497
L97169 68505
L97150 68514
L97140 68522
L97130 68540
" />
<path d="M97130 68711
L97130 68728
L97140 68745
L97150 68754
L97169 68762
L97207 68771
L97254 68771
L97292 68762
L97311 68754
L97321 68745
L97330 68728
L97330 68711
L97321 68694
L97311 68685
L97292 68677
L97254 68668
L97207 68668
L97169 68677
L97150 68685
L97140 68694
L97130 68711
" />
<path d="M97197 68848
L97330 68848
" />
<path d="M97216 68848
L97207 68857
L97197 68874
L97197 68900
L97207 68917
L97226 68925
L97330 68925
" />
<path d="M92711 66164
L92721 66155
L92730 66130
L92730 66112
L92721 66087
L92702 66070
L92683 66061
L92645 66052
L92616 66052
L92578 66061
L92559 66070
L92540 66087
L92530 66112
L92530 66130
L92540 66155
L92550 66164
" />
<path d="M92730 66335
L92730 66232
" />
<path d="M92730 66284
L92530 66284
L92559 66267
L92578 66250
L92588 66232
" />
<path d="M92597 66490
L92730 66490
" />
<path d="M92521 66447
L92664 66404
L92664 66515
" />
<path d="M93380 66078
L93380 65975
" />
<path d="M93380 66027
L93180 66027
L93209 66009
L93228 65992
L93238 65975
" />
<path d="M93180 66190
L93180 66207
L93190 66224
L93200 66232
L93219 66241
L93257 66250
L93304 66250
L93342 66241
L93361 66232
L93371 66224
L93380 66207
L93380 66190
L93371 66172
L93361 66164
L93342 66155
L93304 66147
L93257 66147
L93219 66155
L93200 66164
L93190 66172
L93180 66190
" />
<path d="M93180 66361
L93180 66378
L93190 66395
L93200 66404
L93219 66412
L93257 66421
L93304 66421
L93342 66412
L93361 66404
L93371 66395
L93380 66378
L93380 66361
L93371 66344
L93361 66335
L93342 66327
L93304 66318
L93257 66318
L93219 66327
L93200 66335
L93190 66344
L93180 66361
" />
<path d="M93247 66498
L93380 66498
" />
<path d="M93266 66498
L93257 66507
L93247 66524
L93247 66550
L93257 66567
L93276 66575
L93380 66575
" />
<path d="M96861 64014
L96871 64005
L96880 63980
L96880 63962
L96871 63937
L96852 63920
L96833 63911
L96795 63902
L96766 63902
L96728 63911
L96709 63920
L96690 63937
L96680 63962
L96680 63980
L96690 64005
L96700 64014
" />
<path d="M96880 64185
L96880 64082
" />
<path d="M96880 64134
L96680 64134
L96709 64117
L96728 64100
L96738 64082
" />
<path d="M96680 64245
L96680 64357
L96757 64297
L96757 64322
L96766 64340
L96776 64348
L96795 64357
L96842 64357
L96861 64348
L96871 64340
L96880 64322
L96880 64271
L96871 64254
L96861 64245
" />
<path d="M96230 63928
L96230 63825
" />
<path d="M96230 63877
L96030 63877
L96059 63859
L96078 63842
L96088 63825
" />
<path d="M96030 64040
L96030 64057
L96040 64074
L96050 64082
L96069 64091
L96107 64100
L96154 64100
L96192 64091
L96211 64082
L96221 64074
L96230 64057
L96230 64040
L96221 64022
L96211 64014
L96192 64005
L96154 63997
L96107 63997
L96069 64005
L96050 64014
L96040 64022
L96030 64040
" />
<path d="M96030 64211
L96030 64228
L96040 64245
L96050 64254
L96069 64262
L96107 64271
L96154 64271
L96192 64262
L96211 64254
L96221 64245
L96230 64228
L96230 64211
L96221 64194
L96211 64185
L96192 64177
L96154 64168
L96107 64168
L96069 64177
L96050 64185
L96040 64194
L96030 64211
" />
<path d="M96097 64348
L96230 64348
" />
<path d="M96116 64348
L96107 64357
L96097 64374
L96097 64400
L96107 64417
L96126 64425
L96230 64425
" />
<path d="M94084 56568
L94075 56558
L94050 56549
L94032 56549
L94007 56558
L93990 56577
L93981 56596
L93972 56634
L93972 56663
L93981 56701
L93990 56720
L94007 56739
L94032 56749
L94050 56749
L94075 56739
L94084 56730
" />
<path d="M94255 56549
L94152 56549
" />
<path d="M94204 56549
L94204 56749
L94187 56720
L94170 56701
L94152 56691
" />
<path d="M94324 56730
L94332 56739
L94350 56749
L94392 56749
L94410 56739
L94418 56730
L94427 56710
L94427 56691
L94418 56663
L94315 56549
L94427 56549
" />
<path d="M93998 57199
L93895 57199
" />
<path d="M93947 57199
L93947 57399
L93929 57370
L93912 57351
L93895 57341
" />
<path d="M94110 57399
L94127 57399
L94144 57389
L94152 57380
L94161 57360
L94170 57322
L94170 57275
L94161 57237
L94152 57218
L94144 57208
L94127 57199
L94110 57199
L94092 57208
L94084 57218
L94075 57237
L94067 57275
L94067 57322
L94075 57360
L94084 57380
L94092 57389
L94110 57399
" />
<path d="M94281 57399
L94298 57399
L94315 57389
L94324 57380
L94332 57360
L94341 57322
L94341 57275
L94332 57237
L94324 57218
L94315 57208
L94298 57199
L94281 57199
L94264 57208
L94255 57218
L94247 57237
L94238 57275
L94238 57322
L94247 57360
L94255 57380
L94264 57389
L94281 57399
" />
<path d="M94418 57332
L94418 57199
" />
<path d="M94418 57313
L94427 57322
L94444 57332
L94470 57332
L94487 57322
L94495 57303
L94495 57199
" />
<path d="M89861 59114
L89871 59105
L89880 59080
L89880 59062
L89871 59037
L89852 59020
L89833 59011
L89795 59002
L89766 59002
L89728 59011
L89709 59020
L89690 59037
L89680 59062
L89680 59080
L89690 59105
L89700 59114
" />
<path d="M89880 59285
L89880 59182
" />
<path d="M89880 59234
L89680 59234
L89709 59217
L89728 59200
L89738 59182
" />
<path d="M89880 59457
L89880 59354
" />
<path d="M89880 59405
L89680 59405
L89709 59388
L89728 59371
L89738 59354
" />
<path d="M89230 59028
L89230 58925
" />
<path d="M89230 58977
L89030 58977
L89059 58959
L89078 58942
L89088 58925
" />
<path d="M89030 59140
L89030 59157
L89040 59174
L89050 59182
L89069 59191
L89107 59200
L89154 59200
L89192 59191
L89211 59182
L89221 59174
L89230 59157
L89230 59140
L89221 59122
L89211 59114
L89192 59105
L89154 59097
L89107 59097
L89069 59105
L89050 59114
L89040 59122
L89030 59140
" />
<path d="M89030 59311
L89030 59328
L89040 59345
L89050 59354
L89069 59362
L89107 59371
L89154 59371
L89192 59362
L89211 59354
L89221 59345
L89230 59328
L89230 59311
L89221 59294
L89211 59285
L89192 59277
L89154 59268
L89107 59268
L89069 59277
L89050 59285
L89040 59294
L89030 59311
" />
<path d="M89097 59448
L89230 59448
" />
<path d="M89116 59448
L89107 59457
L89097 59474
L89097 59500
L89107 59517
L89126 59525
L89230 59525
" />
<path d="M85770 60068
L85761 60058
L85735 60049
L85718 60049
L85692 60058
L85675 60077
L85667 60096
L85658 60134
L85658 60163
L85667 60201
L85675 60220
L85692 60239
L85718 60249
L85735 60249
L85761 60239
L85770 60230
" />
<path d="M85855 60049
L85890 60049
L85907 60058
L85915 60068
L85932 60096
L85941 60134
L85941 60210
L85932 60230
L85924 60239
L85907 60249
L85872 60249
L85855 60239
L85847 60230
L85838 60210
L85838 60163
L85847 60144
L85855 60134
L85872 60125
L85907 60125
L85924 60134
L85932 60144
L85941 60163
" />
<path d="M85598 60699
L85495 60699
" />
<path d="M85547 60699
L85547 60899
L85529 60870
L85512 60851
L85495 60841
" />
<path d="M85710 60899
L85727 60899
L85744 60889
L85752 60880
L85761 60860
L85770 60822
L85770 60775
L85761 60737
L85752 60718
L85744 60708
L85727 60699
L85710 60699
L85692 60708
L85684 60718
L85675 60737
L85667 60775
L85667 60822
L85675 60860
L85684 60880
L85692 60889
L85710 60899
" />
<path d="M85881 60899
L85898 60899
L85915 60889
L85924 60880
L85932 60860
L85941 60822
L85941 60775
L85932 60737
L85924 60718
L85915 60708
L85898 60699
L85881 60699
L85864 60708
L85855 60718
L85847 60737
L85838 60775
L85838 60822
L85847 60860
L85855 60880
L85864 60889
L85881 60899
" />
<path d="M86018 60832
L86018 60699
" />
<path d="M86018 60813
L86027 60822
L86044 60832
L86070 60832
L86087 60822
L86095 60803
L86095 60699
" />
<path d="M92661 69050
L92671 69041
L92680 69015
L92680 68998
L92671 68972
L92652 68955
L92633 68947
L92595 68938
L92566 68938
L92528 68947
L92509 68955
L92490 68972
L92480 68998
L92480 69015
L92490 69041
L92500 69050
" />
<path d="M92480 69204
L92480 69170
L92490 69152
L92500 69144
L92528 69127
L92566 69118
L92642 69118
L92661 69127
L92671 69135
L92680 69152
L92680 69187
L92671 69204
L92661 69212
L92642 69221
L92595 69221
L92576 69212
L92566 69204
L92557 69187
L92557 69152
L92566 69135
L92576 69127
L92595 69118
" />
<path d="M93330 68878
L93330 68775
" />
<path d="M93330 68827
L93130 68827
L93159 68809
L93178 68792
L93188 68775
" />
<path d="M93130 68990
L93130 69007
L93140 69024
L93150 69032
L93169 69041
L93207 69050
L93254 69050
L93292 69041
L93311 69032
L93321 69024
L93330 69007
L93330 68990
L93321 68972
L93311 68964
L93292 68955
L93254 68947
L93207 68947
L93169 68955
L93150 68964
L93140 68972
L93130 68990
" />
<path d="M93130 69161
L93130 69178
L93140 69195
L93150 69204
L93169 69212
L93207 69221
L93254 69221
L93292 69212
L93311 69204
L93321 69195
L93330 69178
L93330 69161
L93321 69144
L93311 69135
L93292 69127
L93254 69118
L93207 69118
L93169 69127
L93150 69135
L93140 69144
L93130 69161
" />
<path d="M93197 69298
L93330 69298
" />
<path d="M93216 69298
L93207 69307
L93197 69324
L93197 69350
L93207 69367
L93226 69375
L93330 69375
" />
</g>
<g style="fill:#000000; fill-opacity:0.0; 
stroke:#000000; stroke-width:120; stroke-opacity:1; 
stroke-linecap:round; stroke-linejoin:round;">
<path d="M85942 58287
L85942 57801
L85971 57744
L86000 57715
L86057 57687
L86171 57687
L86228 57715
L86257 57744
L86285 57801
L86285 58287
" />
<path d="M86542 58230
L86571 58258
L86628 58287
L86771 58287
L86828 58258
L86857 58230
L86885 58172
L86885 58115
L86857 58030
L86514 57687
L86885 57687
" />
<path d="M85099 57687
L84814 57687
L84814 58287
" />
<path d="M85299 57687
L85299 58287
L85499 57858
L85699 58287
L85699 57687
" />
<path d="M86299 57687
L85957 57687
" />
<path d="M86128 57687
L86128 58287
L86071 58201
L86014 58144
L85957 58115
" />
<path d="M86871 57687
L86528 57687
" />
<path d="M86699 57687
L86699 58287
L86642 58201
L86585 58144
L86528 58115
" />
<path d="M87442 57687
L87100 57687
" />
<path d="M87271 57687
L87271 58287
L87214 58201
L87157 58144
L87100 58115
" />
<path d="M87642 58287
L88042 58287
L87785 57687
" />
</g>
<g style="fill:#000000; fill-opacity:0.0; 
stroke:#000000; stroke-width:50; stroke-opacity:1; 
stroke-linecap:round; stroke-linejoin:round;">
<path d="M91221 56008
L91221 55765
L91235 55737
L91250 55722
L91278 55708
L91335 55708
L91364 55722
L91378 55737
L91392 55765
L91392 56008
" />
<path d="M91678 56008
L91535 56008
L91521 55865
L91535 55880
L91564 55894
L91635 55894
L91664 55880
L91678 55865
L91692 55837
L91692 55765
L91678 55737
L91664 55722
L91635 55708
L91564 55708
L91535 55722
L91521 55737
" />
<path d="M90085 56608
L90285 56608
L90157 56308
" />
<path d="M90528 56508
L90528 56308
" />
<path d="M90457 56622
L90385 56408
L90571 56408
" />
<path d="M90828 56308
L90685 56308
L90685 56608
" />
<path d="M90885 56608
L90985 56308
L91085 56608
" />
<path d="M91357 56337
L91342 56322
L91300 56308
L91271 56308
L91228 56322
L91200 56351
L91185 56380
L91171 56437
L91171 56480
L91185 56537
L91200 56565
L91228 56594
L91271 56608
L91300 56608
L91342 56594
L91357 56580
" />
<path d="M91657 56337
L91642 56322
L91600 56308
L91571 56308
L91528 56322
L91500 56351
L91485 56380
L91471 56437
L91471 56480
L91485 56537
L91500 56565
L91528 56594
L91571 56608
L91600 56608
L91642 56594
L91657 56580
" />
<path d="M91757 56608
L91942 56608
L91842 56494
L91885 56494
L91914 56480
L91928 56465
L91942 56437
L91942 56365
L91928 56337
L91914 56322
L91885 56308
L91800 56308
L91771 56322
L91757 56337
" />
<path d="M92057 56580
L92071 56594
L92100 56608
L92171 56608
L92200 56594
L92214 56580
L92228 56551
L92228 56522
L92214 56480
L92042 56308
L92228 56308
" />
<path d="M92485 56508
L92485 56308
" />
<path d="M92414 56622
L92342 56408
L92528 56408
" />
<path d="M92785 56608
L92642 56608
L92628 56465
L92642 56480
L92671 56494
L92742 56494
L92771 56480
L92785 56465
L92799 56437
L92799 56365
L92785 56337
L92771 56322
L92742 56308
L92671 56308
L92642 56322
L92628 56337
" />
<path d="M97921 61451
L98164 61451
L98192 61465
L98207 61480
L98221 61508
L98221 61565
L98207 61594
L98192 61608
L98164 61622
L97921 61622
" />
<path d="M97921 61894
L97921 61837
L97935 61808
L97950 61794
L97992 61765
L98050 61751
L98164 61751
L98192 61765
L98207 61780
L98221 61808
L98221 61865
L98207 61894
L98192 61908
L98164 61922
L98092 61922
L98064 61908
L98050 61894
L98035 61865
L98035 61808
L98050 61780
L98064 61765
L98092 61751
" />
<path d="M97321 60315
L97321 60515
L97621 60387
" />
<path d="M97421 60758
L97621 60758
" />
<path d="M97307 60687
L97521 60615
L97521 60801
" />
<path d="M97621 61058
L97621 60915
L97321 60915
" />
<path d="M97321 61115
L97621 61215
L97321 61315
" />
<path d="M97592 61587
L97607 61572
L97621 61530
L97621 61501
L97607 61458
L97578 61430
L97550 61415
L97492 61401
L97450 61401
L97392 61415
L97364 61430
L97335 61458
L97321 61501
L97321 61530
L97335 61572
L97350 61587
" />
<path d="M97592 61887
L97607 61872
L97621 61830
L97621 61801
L97607 61758
L97578 61730
L97550 61715
L97492 61701
L97450 61701
L97392 61715
L97364 61730
L97335 61758
L97321 61801
L97321 61830
L97335 61872
L97350 61887
" />
<path d="M97321 61987
L97321 62172
L97435 62072
L97435 62115
L97450 62144
L97464 62158
L97492 62172
L97564 62172
L97592 62158
L97607 62144
L97621 62115
L97621 62030
L97607 62001
L97592 61987
" />
<path d="M97350 62287
L97335 62301
L97321 62330
L97321 62401
L97335 62430
L97350 62444
L97378 62458
L97407 62458
L97450 62444
L97621 62272
L97621 62458
" />
<path d="M97421 62715
L97621 62715
" />
<path d="M97307 62644
L97521 62572
L97521 62758
" />
<path d="M97321 63015
L97321 62872
L97464 62858
L97450 62872
L97435 62901
L97435 62972
L97450 63001
L97464 63015
L97492 63029
L97564 63029
L97592 63015
L97607 63001
L97621 62972
L97621 62901
L97607 62872
L97592 62858
" />
</g>
<g style="fill:#000000; fill-opacity:0.0; 
stroke:#000000; stroke-width:107; stroke-opacity:1; 
stroke-linecap:round; stroke-linejoin:round;">
<path d="M105276 71014
L104593 71014
L104593 71177
L104625 71217
L104658 71238
L104723 71258
L104821 71258
L104886 71238
L104918 71217
L104951 71177
L104951 71014
" />
<path d="M104658 71421
L104625 71442
L104593 71482
L104593 71584
L104625 71625
L104658 71645
L104723 71666
L104788 71666
L104886 71645
L105276 71401
L105276 71666
" />
<path d="M105276 66414
L104593 66414
L104593 66577
L104625 66617
L104658 66638
L104723 66658
L104821 66658
L104886 66638
L104918 66617
L104951 66577
L104951 66414
" />
<path d="M104593 66801
L104593 67066
L104853 66923
L104853 66984
L104886 67025
L104918 67045
L104983 67066
L105146 67066
L105211 67045
L105243 67025
L105276 66984
L105276 66862
L105243 66821
L105211 66801
" />
<path d="M105276 61764
L104593 61764
L104593 61927
L104625 61967
L104658 61988
L104723 62008
L104821 62008
L104886 61988
L104918 61967
L104951 61927
L104951 61764
" />
<path d="M104821 62375
L105276 62375
" />
<path d="M104560 62273
L105048 62171
L105048 62436
" />
<path d="M105276 57164
L104593 57164
L104593 57327
L104625 57367
L104658 57388
L104723 57408
L104821 57408
L104886 57388
L104918 57367
L104951 57327
L104951 57164
" />
<path d="M104593 57795
L104593 57592
L104918 57571
L104886 57592
L104853 57632
L104853 57734
L104886 57775
L104918 57795
L104983 57816
L105146 57816
L105211 57795
L105243 57775
L105276 57734
L105276 57632
L105243 57592
L105211 57571
" />
</g>
<g style="fill:#000000; fill-opacity:0.0; 
stroke:#000000; stroke-width:120; stroke-opacity:1; 
stroke-linecap:round; stroke-linejoin:round;">
<path d="M98742 55030
L99171 55030
L99257 55001
L99314 54944
L99342 54858
L99342 54801
" />
<path d="M98742 55258
L98742 55630
L98971 55430
L98971 55515
L99000 55572
L99028 55601
L99085 55630
L99228 55630
L99285 55601
L99314 55572
L99342 55515
L99342 55344
L99314 55287
L99285 55258
" />
<path d="M102064 54387
L102092 54472
L102092 54615
L102064 54672
L102035 54701
L101978 54730
L101921 54730
L101864 54701
L101835 54672
L101807 54615
L101778 54501
L101750 54444
L101721 54415
L101664 54387
L101607 54387
L101550 54415
L101521 54444
L101492 54501
L101492 54644
L101521 54730
" />
<path d="M102092 54987
L101492 54987
" />
<path d="M102092 55558
L102092 55272
L101492 55272
" />
<path d="M102092 56072
L102092 55730
" />
<path d="M102092 55901
L101492 55901
L101578 55844
L101635 55787
L101664 55730
" />
<path d="M98692 69530
L99121 69530
L99207 69501
L99264 69444
L99292 69358
L99292 69301
" />
<path d="M98692 69758
L98692 70130
L98921 69930
L98921 70015
L98950 70072
L98978 70101
L99035 70130
L99178 70130
L99235 70101
L99264 70072
L99292 70015
L99292 69844
L99264 69787
L99235 69758
" />
<path d="M102014 68887
L102042 68972
L102042 69115
L102014 69172
L101985 69201
L101928 69230
L101871 69230
L101814 69201
L101785 69172
L101757 69115
L101728 69001
L101700 68944
L101671 68915
L101614 68887
L101557 68887
L101500 68915
L101471 68944
L101442 69001
L101442 69144
L101471 69230
" />
<path d="M102042 69487
L101442 69487
" />
<path d="M102042 70058
L102042 69772
L101442 69772
" />
<path d="M102042 70572
L102042 70230
" />
<path d="M102042 70401
L101442 70401
L101528 70344
L101585 70287
L101614 70230
" />
<path d="M81742 67330
L82171 67330
L82257 67301
L82314 67244
L82342 67158
L82342 67101
" />
<path d="M81742 67558
L81742 67930
L81971 67730
L81971 67815
L82000 67872
L82028 67901
L82085 67930
L82228 67930
L82285 67901
L82314 67872
L82342 67815
L82342 67644
L82314 67587
L82285 67558
" />
<path d="M85064 66687
L85092 66772
L85092 66915
L85064 66972
L85035 67001
L84978 67030
L84921 67030
L84864 67001
L84835 66972
L84807 66915
L84778 66801
L84750 66744
L84721 66715
L84664 66687
L84607 66687
L84550 66715
L84521 66744
L84492 66801
L84492 66944
L84521 67030
" />
<path d="M85092 67287
L84492 67287
" />
<path d="M85092 67858
L85092 67572
L84492 67572
" />
<path d="M85092 68372
L85092 68030
" />
<path d="M85092 68201
L84492 68201
L84578 68144
L84635 68087
L84664 68030
" />
<path d="M81742 57580
L82171 57580
L82257 57551
L82314 57494
L82342 57408
L82342 57351
" />
<path d="M81742 57808
L81742 58180
L81971 57980
L81971 58065
L82000 58122
L82028 58151
L82085 58180
L82228 58180
L82285 58151
L82314 58122
L82342 58065
L82342 57894
L82314 57837
L82285 57808
" />
<path d="M85064 56937
L85092 57022
L85092 57165
L85064 57222
L85035 57251
L84978 57280
L84921 57280
L84864 57251
L84835 57222
L84807 57165
L84778 57051
L84750 56994
L84721 56965
L84664 56937
L84607 56937
L84550 56965
L84521 56994
L84492 57051
L84492 57194
L84521 57280
" />
<path d="M85092 57537
L84492 57537
" />
<path d="M85092 58108
L85092 57822
L84492 57822
" />
<path d="M85092 58622
L85092 58280
" />
<path d="M85092 58451
L84492 58451
L84578 58394
L84635 58337
L84664 58280
" />
<path d="M84292 68244
L84892 68644
" />
<path d="M84292 68644
L84892 68244
" />
<path d="M84892 69187
L84892 68844
" />
<path d="M84892 69015
L84292 69015
L84378 68958
L84435 68901
L84464 68844
" />
<path d="M87892 67758
L87892 67415
" />
<path d="M87892 67587
L87292 67587
L87378 67530
L87435 67472
L87464 67415
" />
<path d="M87350 67987
L87321 68015
L87292 68072
L87292 68215
L87321 68272
L87350 68301
L87407 68330
L87464 68330
L87550 68301
L87892 67958
L87892 68330
" />
<path d="M87892 68587
L87292 68587
L87721 68787
L87292 68987
L87892 68987
" />
<path d="M87892 69272
L87292 69272
" />
<path d="M87892 69530
L87578 69530
L87521 69501
L87492 69444
L87492 69358
L87521 69301
L87550 69272
" />
<path d="M87492 69758
L87492 70072
L87892 69758
L87892 70072
" />
</g>
<g style="fill:#000000; fill-opacity:0.0; 
stroke:#000000; stroke-width:47; stroke-opacity:1; 
stroke-linecap:round; stroke-linejoin:round;">
<path d="M93227 68609
L93217 68599
L93189 68590
L93170 68590
L93142 68599
L93123 68618
L93114 68637
L93105 68674
L93105 68702
L93114 68740
L93123 68759
L93142 68777
L93170 68787
L93189 68787
L93217 68777
L93227 68768
" />
<path d="M93396 68721
L93396 68590
" />
<path d="M93349 68796
L93302 68655
L93424 68655
" />
</g>
<g style="fill:#000000; fill-opacity:0.0; 
stroke:#000000; stroke-width:45; stroke-opacity:1; 
stroke-linecap:round; stroke-linejoin:round;">
<path d="M99534 65466
L99474 65600
" />
<path d="M99431 65466
L99431 65746
L99500 65746
L99517 65733
L99525 65720
L99534 65693
L99534 65653
L99525 65626
L99517 65613
L99500 65600
L99431 65600
" />
<path d="M99705 65466
L99602 65466
" />
<path d="M99654 65466
L99654 65746
L99637 65706
L99620 65680
L99602 65666
" />
<path d="M99774 65720
L99782 65733
L99800 65746
L99842 65746
L99860 65733
L99868 65720
L99877 65693
L99877 65666
L99868 65626
L99765 65466
L99877 65466
" />
<path d="M98784 57616
L98724 57750
" />
<path d="M98681 57616
L98681 57896
L98750 57896
L98767 57883
L98775 57870
L98784 57843
L98784 57803
L98775 57776
L98767 57763
L98750 57750
L98681 57750
" />
<path d="M98955 57616
L98852 57616
" />
<path d="M98904 57616
L98904 57896
L98887 57856
L98870 57830
L98852 57816
" />
<path d="M99118 57896
L99032 57896
L99024 57763
L99032 57776
L99050 57790
L99092 57790
L99110 57776
L99118 57763
L99127 57736
L99127 57670
L99118 57643
L99110 57630
L99092 57616
L99050 57616
L99032 57630
L99024 57643
" />
</g>
<g style="fill:#000000; fill-opacity:0.0; 
stroke:#000000; stroke-width:50; stroke-opacity:1; 
stroke-linecap:round; stroke-linejoin:round;">
<path d="M99607 58608
L99507 58751
" />
<path d="M99435 58608
L99435 58908
L99550 58908
L99578 58894
L99592 58880
L99607 58851
L99607 58808
L99592 58780
L99578 58765
L99550 58751
L99435 58751
" />
<path d="M99892 58608
L99721 58608
" />
<path d="M99807 58608
L99807 58908
L99778 58865
L99750 58837
L99721 58822
" />
<path d="M100150 58808
L100150 58608
" />
<path d="M100078 58922
L100007 58708
L100192 58708
" />
<path d="M100700 24280
L100700 25180
" />
<path d="M100700 25180
L100050 25180
" />
<path d="M99350 24280
L98700 24280
" />
<path d="M98700 24280
L98700 25180
" />
<path d="M98700 25180
L99350 25180
" />
<path d="M100050 24280
L100700 24280
" />
<path d="M88100 27480
L90100 27480
" />
<path d="M88100 25780
L90100 25780
" />
<path d="M88100 25530
L88100 27730
" />
<path d="M88100 27730
L90100 27730
" />
<path d="M90100 27730
L90100 25530
" />
<path d="M90100 25530
L88100 25530
" />
</g>
<g style="fill:#000000; fill-opacity:0.0; 
stroke:#000000; stroke-width:26; stroke-opacity:1; 
stroke-linecap:round; stroke-linejoin:round;">
<path d="M100873 30807
L101227 30807
" />
<path d="M101227 30807
L101227 30964
" />
<path d="M100873 30964
L101227 30964
" />
<path d="M100873 30807
L100873 30964
" />
<path d="M100873 30296
L101227 30296
" />
<path d="M101227 30296
L101227 30453
" />
<path d="M100873 30453
L101227 30453
" />
<path d="M100873 30296
L100873 30453
" />
<path d="M100873 30630
L100932 30630
" />
<path d="M100932 30630
L100932 30748
" />
<path d="M100873 30748
L100932 30748
" />
<path d="M100873 30630
L100873 30748
" />
<path d="M101168 30630
L101227 30630
" />
<path d="M101227 30630
L101227 30748
" />
<path d="M101168 30748
L101227 30748
" />
<path d="M101168 30630
L101168 30748
" />
<path d="M100991 30630
L101109 30630
" />
<path d="M101109 30630
L101109 30748
" />
<path d="M100991 30748
L101109 30748
" />
<path d="M100991 30630
L100991 30748
" />
</g>
<g style="fill:#000000; fill-opacity:0.0; 
stroke:#000000; stroke-width:40; stroke-opacity:1; 
stroke-linecap:round; stroke-linejoin:round;">
<path d="M100893 30807
L100893 30453
" />
<path d="M101207 30807
L101207 30453
" />
</g>
<g style="fill:#000000; fill-opacity:0.0; 
stroke:#000000; stroke-width:26; stroke-opacity:1; 
stroke-linecap:round; stroke-linejoin:round;">
<path d="M100873 26207
L101227 26207
" />
<path d="M101227 26207
L101227 26364
" />
<path d="M100873 26364
L101227 26364
" />
<path d="M100873 26207
L100873 26364
" />
<path d="M100873 25696
L101227 25696
" />
<path d="M101227 25696
L101227 25853
" />
<path d="M100873 25853
L101227 25853
" />
<path d="M100873 25696
L100873 25853
" />
<path d="M100873 26030
L100932 26030
" />
<path d="M100932 26030
L100932 26148
" />
<path d="M100873 26148
L100932 26148
" />
<path d="M100873 26030
L100873 26148
" />
<path d="M101168 26030
L101227 26030
" />
<path d="M101227 26030
L101227 26148
" />
<path d="M101168 26148
L101227 26148
" />
<path d="M101168 26030
L101168 26148
" />
<path d="M100991 26030
L101109 26030
" />
<path d="M101109 26030
L101109 26148
" />
<path d="M100991 26148
L101109 26148
" />
<path d="M100991 26030
L100991 26148
" />
</g>
<g style="fill:#000000; fill-opacity:0.0; 
stroke:#000000; stroke-width:40; stroke-opacity:1; 
stroke-linecap:round; stroke-linejoin:round;">
<path d="M100893 26207
L100893 25853
" />
<path d="M101207 26207
L101207 25853
" />
</g>
<g style="fill:#000000; fill-opacity:0.0; 
stroke:#000000; stroke-width:26; stroke-opacity:1; 
stroke-linecap:round; stroke-linejoin:round;">
<path d="M100873 21557
L101227 21557
" />
<path d="M101227 21557
L101227 21714
" />
<path d="M100873 21714
L101227 21714
" />
<path d="M100873 21557
L100873 21714
" />
<path d="M100873 21046
L101227 21046
" />
<path d="M101227 21046
L101227 21203
" />
<path d="M100873 21203
L101227 21203
" />
<path d="M100873 21046
L100873 21203
" />
<path d="M100873 21380
L100932 21380
" />
<path d="M100932 21380
L100932 21498
" />
<path d="M100873 21498
L100932 21498
" />
<path d="M100873 21380
L100873 21498
" />
<path d="M101168 21380
L101227 21380
" />
<path d="M101227 21380
L101227 21498
" />
<path d="M101168 21498
L101227 21498
" />
<path d="M101168 21380
L101168 21498
" />
<path d="M100991 21380
L101109 21380
" />
<path d="M101109 21380
L101109 21498
" />
<path d="M100991 21498
L101109 21498
" />
<path d="M100991 21380
L100991 21498
" />
</g>
<g style="fill:#000000; fill-opacity:0.0; 
stroke:#000000; stroke-width:40; stroke-opacity:1; 
stroke-linecap:round; stroke-linejoin:round;">
<path d="M100893 21557
L100893 21203
" />
<path d="M101207 21557
L101207 21203
" />
</g>
<g style="fill:#000000; fill-opacity:0.0; 
stroke:#000000; stroke-width:26; stroke-opacity:1; 
stroke-linecap:round; stroke-linejoin:round;">
<path d="M100873 16657
L101227 16657
" />
<path d="M101227 16657
L101227 16814
" />
<path d="M100873 16814
L101227 16814
" />
<path d="M100873 16657
L100873 16814
" />
<path d="M100873 16146
L101227 16146
" />
<path d="M101227 16146
L101227 16303
" />
<path d="M100873 16303
L101227 16303
" />
<path d="M100873 16146
L100873 16303
" />
<path d="M100873 16480
L100932 16480
" />
<path d="M100932 16480
L100932 16598
" />
<path d="M100873 16598
L100932 16598
" />
<path d="M100873 16480
L100873 16598
" />
<path d="M101168 16480
L101227 16480
" />
<path d="M101227 16480
L101227 16598
" />
<path d="M101168 16598
L101227 16598
" />
<path d="M101168 16480
L101168 16598
" />
<path d="M100991 16480
L101109 16480
" />
<path d="M101109 16480
L101109 16598
" />
<path d="M100991 16598
L101109 16598
" />
<path d="M100991 16480
L100991 16598
" />
</g>
<g style="fill:#000000; fill-opacity:0.0; 
stroke:#000000; stroke-width:40; stroke-opacity:1; 
stroke-linecap:round; stroke-linejoin:round;">
<path d="M100893 16657
L100893 16303
" />
<path d="M101207 16657
L101207 16303
" />
</g>
<g style="fill:#000000; fill-opacity:0.0; 
stroke:#000000; stroke-width:26; stroke-opacity:1; 
stroke-linecap:round; stroke-linejoin:round;">
<path d="M89327 17657
L89327 17303
" />
<path d="M89327 17303
L89484 17303
" />
<path d="M89484 17657
L89484 17303
" />
<path d="M89327 17657
L89484 17657
" />
<path d="M88816 17657
L88816 17303
" />
<path d="M88816 17303
L88973 17303
" />
<path d="M88973 17657
L88973 17303
" />
<path d="M88816 17657
L88973 17657
" />
<path d="M89150 17657
L89150 17598
" />
<path d="M89150 17598
L89268 17598
" />
<path d="M89268 17657
L89268 17598
" />
<path d="M89150 17657
L89268 17657
" />
<path d="M89150 17362
L89150 17303
" />
<path d="M89150 17303
L89268 17303
" />
<path d="M89268 17362
L89268 17303
" />
<path d="M89150 17362
L89268 17362
" />
<path d="M89150 17539
L89150 17421
" />
<path d="M89150 17421
L89268 17421
" />
<path d="M89268 17539
L89268 17421
" />
<path d="M89150 17539
L89268 17539
" />
</g>
<g style="fill:#000000; fill-opacity:0.0; 
stroke:#000000; stroke-width:40; stroke-opacity:1; 
stroke-linecap:round; stroke-linejoin:round;">
<path d="M89327 17637
L88973 17637
" />
<path d="M89327 17323
L88973 17323
" />
</g>
<g style="fill:#000000; fill-opacity:0.0; 
stroke:#000000; stroke-width:50; stroke-opacity:1; 
stroke-linecap:round; stroke-linejoin:round;">
<path d="M90600 32180
L89700 32180
" />
<path d="M89700 32180
L89700 32680
" />
<path d="M89700 32680
L90600 32680
" />
<path d="M90600 32680
L90600 32180
" />
<path d="M99050 23630
L98150 23630
" />
<path d="M98150 23630
L98150 24130
" />
<path d="M98150 24130
L99050 24130
" />
<path d="M99050 24130
L99050 23630
" />
<path d="M100800 32480
L100800 33380
" />
<path d="M100800 33380
L101300 33380
" />
<path d="M101300 33380
L101300 32480
" />
<path d="M101300 32480
L100800 32480
" />
<path d="M100700 27680
L100700 28580
" />
<path d="M100700 28580
L101200 28580
" />
<path d="M101200 28580
L101200 27680
" />
<path d="M101200 27680
L100700 27680
" />
<path d="M100800 22980
L100800 23880
" />
<path d="M100800 23880
L101300 23880
" />
<path d="M101300 23880
L101300 22980
" />
<path d="M101300 22980
L100800 22980
" />
<path d="M100800 18230
L100800 19130
" />
<path d="M100800 19130
L101300 19130
" />
<path d="M101300 19130
L101300 18230
" />
<path d="M101300 18230
L100800 18230
" />
<path d="M90050 17730
L90950 17730
" />
<path d="M90950 17730
L90950 17230
" />
<path d="M90950 17230
L90050 17230
" />
<path d="M90050 17230
L90050 17730
" />
<path d="M92090 26910
L91110 26910
" />
<path d="M91110 25650
L92090 25650
" />
<path d="M92090 25830
L91110 25830
" />
<path d="M91110 26730
L92090 26730
" />
<path d="M91110 26910
L91110 25650
" />
<path d="M92090 25650
L92090 26910
" />
<path d="M91160 23350
L92140 23350
" />
<path d="M92140 24610
L91160 24610
" />
<path d="M91160 24430
L92140 24430
" />
<path d="M92140 23530
L91160 23530
" />
<path d="M92140 23350
L92140 24610
" />
<path d="M91160 24610
L91160 23350
" />
</g>
<g style="fill:#000000; fill-opacity:0.0; 
stroke:#000000; stroke-width:47; stroke-opacity:1; 
stroke-linecap:round; stroke-linejoin:round;">
<path d="M87653 16486
L87378 16486
" />
<path d="M88047 16486
L88322 16486
" />
<path d="M87653 15974
L87378 15974
" />
<path d="M88322 15974
L88047 15974
" />
<path d="M87378 15980
L87378 16480
" />
<path d="M88322 16480
L88322 15980
" />
<path d="M85897 20774
L86172 20774
" />
<path d="M85503 20774
L85228 20774
" />
<path d="M85897 21286
L86172 21286
" />
<path d="M85228 21286
L85503 21286
" />
<path d="M86172 21280
L86172 20780
" />
<path d="M85228 20780
L85228 21280
" />
</g>
<g style="fill:#000000; fill-opacity:0.0; 
stroke:#000000; stroke-width:50; stroke-opacity:1; 
stroke-linecap:round; stroke-linejoin:round;">
<path d="M90050 22730
L88050 22730
" />
<path d="M90050 24430
L88050 24430
" />
<path d="M90050 24680
L90050 22480
" />
<path d="M90050 22480
L88050 22480
" />
<path d="M88050 22480
L88050 24680
" />
<path d="M88050 24680
L90050 24680
" />
<path d="M78550 65030
L78550 60230
" />
<path d="M78550 60230
L85250 60230
" />
<path d="M85250 60230
L85250 65030
" />
<path d="M85250 65030
L78550 65030
" />
</g>
<g style="fill:#000000; fill-opacity:0.0; 
stroke:#000000; stroke-width:80; stroke-opacity:1; 
stroke-linecap:round; stroke-linejoin:round;">
<circle cx="88782" cy="64248" r="150" /> 
<path d="M92382 60648
L92382 64648
" />
<path d="M92382 64648
L88632 64648
" />
<path d="M88632 64648
L88382 64398
" />
<path d="M88382 64398
L88382 60648
" />
<path d="M88382 60648
L92382 60648
" />
</g>
<g style="fill:#000000; fill-opacity:0.0; 
stroke:#000000; stroke-width:50; stroke-opacity:1; 
stroke-linecap:round; stroke-linejoin:round;">
<path d="M88600 69110
L88600 67550
" />
<path d="M88600 67550
L90500 67550
" />
<path d="M90500 67550
L90500 69110
" />
<path d="M90500 69110
L88600 69110
" />
<path d="M88800 69110
L88800 69540
" />
<path d="M89300 69110
L89300 69540
" />
<path d="M89800 69110
L89800 69540
" />
<path d="M90300 69540
L90300 69110
" />
<path d="M90300 67550
L90300 67120
" />
<path d="M89800 67120
L89800 67550
" />
<path d="M89300 67120
L89300 67550
" />
<path d="M88800 67120
L88800 67550
" />
<circle cx="88890" cy="67840" r="186.011" /> 
<path d="M97480 68030
L95920 68030
" />
<path d="M95920 68030
L95920 64630
" />
<path d="M95920 64630
L97480 64630
" />
<path d="M97480 64630
L97480 68030
" />
<path d="M97480 67330
L97910 67330
" />
<path d="M97480 66830
L97910 66830
" />
<path d="M97480 66330
L97910 66330
" />
<path d="M97480 67830
L97910 67830
" />
<path d="M97910 65830
L97480 65830
" />
<path d="M97910 65330
L97480 65330
" />
<path d="M97910 64830
L97480 64830
" />
<path d="M95920 64830
L95490 64830
" />
<path d="M95920 65330
L95490 65330
" />
<path d="M95920 67830
L95490 67830
" />
<path d="M95490 67330
L95920 67330
" />
<path d="M95490 65830
L95920 65830
" />
<path d="M95490 66330
L95920 66330
" />
<path d="M95490 66830
L95920 66830
" />
<circle cx="96210" cy="67740" r="186.011" /> 
<path d="M88425 68527
L88425 68805
" />
<path d="M88425 68805
L87875 68805
" />
<path d="M87875 68805
L87875 68527
" />
<path d="M88425 67855
L88425 68133
" />
<path d="M88425 67855
L87875 67855
" />
<path d="M87875 67855
L87875 68133
" />
<path d="M88303 66405
L88025 66405
" />
<path d="M88025 66405
L88025 65855
" />
<path d="M88025 65855
L88303 65855
" />
<path d="M88975 66405
L88697 66405
" />
<path d="M88975 66405
L88975 65855
" />
<path d="M88975 65855
L88697 65855
" />
<path d="M91497 66705
L91775 66705
" />
<path d="M91775 66705
L91775 67255
" />
<path d="M91775 67255
L91497 67255
" />
<path d="M90825 66705
L91103 66705
" />
<path d="M90825 66705
L90825 67255
" />
<path d="M90825 67255
L91103 67255
" />
<path d="M91175 68527
L91175 68805
" />
<path d="M91175 68805
L90625 68805
" />
<path d="M90625 68805
L90625 68527
" />
<path d="M91175 67855
L91175 68133
" />
<path d="M91175 67855
L90625 67855
" />
<path d="M90625 67855
L90625 68133
" />
<path d="M87925 59377
L87925 59655
" />
<path d="M87925 59655
L87375 59655
" />
<path d="M87375 59655
L87375 59377
" />
<path d="M87925 58705
L87925 58983
" />
<path d="M87925 58705
L87375 58705
" />
<path d="M87375 58705
L87375 58983
" />
<path d="M86025 64527
L86025 64805
" />
<path d="M86025 64805
L85475 64805
" />
<path d="M85475 64805
L85475 64527
" />
<path d="M86025 63855
L86025 64133
" />
<path d="M86025 63855
L85475 63855
" />
<path d="M85475 63855
L85475 64133
" />
</g>
<g style="fill:#000000; fill-opacity:0.0; 
stroke:#000000; stroke-width:47; stroke-opacity:1; 
stroke-linecap:round; stroke-linejoin:round;">
<path d="M90297 70124
L90572 70124
" />
<path d="M89903 70124
L89628 70124
" />
<path d="M90297 70636
L90572 70636
" />
<path d="M89628 70636
L89903 70636
" />
<path d="M90572 70630
L90572 70130
" />
<path d="M89628 70130
L89628 70630
" />
<path d="M86147 58924
L86422 58924
" />
<path d="M85753 58924
L85478 58924
" />
<path d="M86147 59436
L86422 59436
" />
<path d="M85478 59436
L85753 59436
" />
<path d="M86422 59430
L86422 58930
" />
<path d="M85478 58930
L85478 59430
" />
<path d="M87444 64883
L87444 64608
" />
<path d="M87444 65277
L87444 65552
" />
<path d="M87956 64883
L87956 64608
" />
<path d="M87956 65552
L87956 65277
" />
<path d="M87950 64608
L87450 64608
" />
<path d="M87450 65552
L87950 65552
" />
<path d="M94644 60733
L94644 60458
" />
<path d="M94644 61127
L94644 61402
" />
<path d="M95156 60733
L95156 60458
" />
<path d="M95156 61402
L95156 61127
" />
<path d="M95150 60458
L94650 60458
" />
<path d="M94650 61402
L95150 61402
" />
<path d="M96403 68886
L96128 68886
" />
<path d="M96797 68886
L97072 68886
" />
<path d="M96403 68374
L96128 68374
" />
<path d="M97072 68374
L96797 68374
" />
<path d="M96128 68380
L96128 68880
" />
<path d="M97072 68880
L97072 68380
" />
<path d="M92453 66536
L92178 66536
" />
<path d="M92847 66536
L93122 66536
" />
<path d="M92453 66024
L92178 66024
" />
<path d="M93122 66024
L92847 66024
" />
<path d="M92178 66030
L92178 66530
" />
<path d="M93122 66530
L93122 66030
" />
<path d="M96997 63874
L97272 63874
" />
<path d="M96603 63874
L96328 63874
" />
<path d="M96997 64386
L97272 64386
" />
<path d="M96328 64386
L96603 64386
" />
<path d="M97272 64380
L97272 63880
" />
<path d="M96328 63880
L96328 64380
" />
<path d="M93944 56433
L93944 56158
" />
<path d="M93944 56827
L93944 57102
" />
<path d="M94456 56433
L94456 56158
" />
<path d="M94456 57102
L94456 56827
" />
<path d="M94450 56158
L93950 56158
" />
<path d="M93950 57102
L94450 57102
" />
<path d="M89997 58974
L90272 58974
" />
<path d="M89603 58974
L89328 58974
" />
<path d="M89997 59486
L90272 59486
" />
<path d="M89328 59486
L89603 59486
" />
<path d="M90272 59480
L90272 58980
" />
<path d="M89328 58980
L89328 59480
" />
<path d="M85544 59933
L85544 59658
" />
<path d="M85544 60327
L85544 60602
" />
<path d="M86056 59933
L86056 59658
" />
<path d="M86056 60602
L86056 60327
" />
<path d="M86050 59658
L85550 59658
" />
<path d="M85550 60602
L86050 60602
" />
<path d="M92403 69336
L92128 69336
" />
<path d="M92797 69336
L93072 69336
" />
<path d="M92403 68824
L92128 68824
" />
<path d="M93072 68824
L92797 68824
" />
<path d="M92128 68830
L92128 69330
" />
<path d="M93072 69330
L93072 68830
" />
</g>
<g style="fill:#000000; fill-opacity:0.0; 
stroke:#000000; stroke-width:150; stroke-opacity:1; 
stroke-linecap:round; stroke-linejoin:round;">
<path d="M86900 54430
L86900 56930
" />
<path d="M86900 56930
L84400 56930
" />
<path d="M84400 56930
L84400 54430
" />
<path d="M86900 54430
L84400 54430
" />
</g>
<g style="fill:#000000; fill-opacity:0.0; 
stroke:#000000; stroke-width:60; stroke-opacity:1; 
stroke-linecap:round; stroke-linejoin:round;">
<path d="M93200 55030
L89700 55030
" />
<path d="M89700 55030
L89700 56430
" />
<path d="M89700 56430
L93200 56430
" />
<path d="M93200 56430
L93200 55030
" />
</g>
<g style="fill:#000000; fill-opacity:0.0; 
stroke:#000000; stroke-width:50; stroke-opacity:1; 
stroke-linecap:round; stroke-linejoin:round;">
<circle cx="93000" cy="56230" r="141.421" /> 
<path d="M93200 55480
L92900 55480
" />
<path d="M92900 55480
L92900 55980
" />
<path d="M92900 55980
L93200 55980
" />
</g>
<g style="fill:#000000; fill-opacity:0.0; 
stroke:#000000; stroke-width:60; stroke-opacity:1; 
stroke-linecap:round; stroke-linejoin:round;">
<path d="M98900 63430
L98900 59930
" />
<path d="M98900 59930
L97500 59930
" />
<path d="M97500 59930
L97500 63430
" />
<path d="M97500 63430
L98900 63430
" />
</g>
<g style="fill:#000000; fill-opacity:0.0; 
stroke:#000000; stroke-width:50; stroke-opacity:1; 
stroke-linecap:round; stroke-linejoin:round;">
<circle cx="97700" cy="63230" r="141.421" /> 
<path d="M98450 63430
L98450 63130
" />
<path d="M98450 63130
L97950 63130
" />
<path d="M97950 63130
L97950 63430
" />
</g>
<g style="fill:#000000; fill-opacity:0.0; 
stroke:#000000; stroke-width:200; stroke-opacity:1; 
stroke-linecap:round; stroke-linejoin:round;">
<path d="M102400 70830
L107200 70830
" />
<path d="M106600 69830
L107200 69830
" />
<path d="M107000 67830
L107200 67830
" />
<path d="M102400 67830
L107000 67830
" />
<path d="M102400 68830
L107200 68830
" />
<path d="M102400 69830
L106600 69830
" />
</g>
<g style="fill:#000000; fill-opacity:0.0; 
stroke:#000000; stroke-width:150; stroke-opacity:1; 
stroke-linecap:round; stroke-linejoin:round;">
<path d="M103000 70830
L106600 70830
" />
<path d="M102400 70830
L102800 70830
" />
<path d="M102800 67230
L102800 67630
" />
<path d="M104000 67230
L104000 67630
" />
<path d="M102800 67230
L107600 67230
" />
<path d="M102800 71430
L107600 71430
" />
<path d="M107600 71430
L107600 67430
" />
<path d="M107600 67430
L107600 67230
" />
<path d="M104000 71330
L104000 67380
" />
<path d="M102800 67380
L102800 71330
" />
</g>
<g style="fill:#000000; fill-opacity:0.0; 
stroke:#000000; stroke-width:200; stroke-opacity:1; 
stroke-linecap:round; stroke-linejoin:round;">
<path d="M102400 66230
L107200 66230
" />
<path d="M106600 65230
L107200 65230
" />
<path d="M107000 63230
L107200 63230
" />
<path d="M102400 63230
L107000 63230
" />
<path d="M102400 64230
L107200 64230
" />
<path d="M102400 65230
L106600 65230
" />
</g>
<g style="fill:#000000; fill-opacity:0.0; 
stroke:#000000; stroke-width:150; stroke-opacity:1; 
stroke-linecap:round; stroke-linejoin:round;">
<path d="M103000 66230
L106600 66230
" />
<path d="M102400 66230
L102800 66230
" />
<path d="M102800 62630
L102800 63030
" />
<path d="M104000 62630
L104000 63030
" />
<path d="M102800 62630
L107600 62630
" />
<path d="M102800 66830
L107600 66830
" />
<path d="M107600 66830
L107600 62830
" />
<path d="M107600 62830
L107600 62630
" />
<path d="M104000 66730
L104000 62780
" />
<path d="M102800 62780
L102800 66730
" />
</g>
<g style="fill:#000000; fill-opacity:0.0; 
stroke:#000000; stroke-width:200; stroke-opacity:1; 
stroke-linecap:round; stroke-linejoin:round;">
<path d="M102400 61580
L107200 61580
" />
<path d="M106600 60580
L107200 60580
" />
<path d="M107000 58580
L107200 58580
" />
<path d="M102400 58580
L107000 58580
" />
<path d="M102400 59580
L107200 59580
" />
<path d="M102400 60580
L106600 60580
" />
</g>
<g style="fill:#000000; fill-opacity:0.0; 
stroke:#000000; stroke-width:150; stroke-opacity:1; 
stroke-linecap:round; stroke-linejoin:round;">
<path d="M103000 61580
L106600 61580
" />
<path d="M102400 61580
L102800 61580
" />
<path d="M102800 57980
L102800 58380
" />
<path d="M104000 57980
L104000 58380
" />
<path d="M102800 57980
L107600 57980
" />
<path d="M102800 62180
L107600 62180
" />
<path d="M107600 62180
L107600 58180
" />
<path d="M107600 58180
L107600 57980
" />
<path d="M104000 62080
L104000 58130
" />
<path d="M102800 58130
L102800 62080
" />
</g>
<g style="fill:#000000; fill-opacity:0.0; 
stroke:#000000; stroke-width:200; stroke-opacity:1; 
stroke-linecap:round; stroke-linejoin:round;">
<path d="M102400 56980
L107200 56980
" />
<path d="M106600 55980
L107200 55980
" />
<path d="M107000 53980
L107200 53980
" />
<path d="M102400 53980
L107000 53980
" />
<path d="M102400 54980
L107200 54980
" />
<path d="M102400 55980
L106600 55980
" />
</g>
<g style="fill:#000000; fill-opacity:0.0; 
stroke:#000000; stroke-width:150; stroke-opacity:1; 
stroke-linecap:round; stroke-linejoin:round;">
<path d="M103000 56980
L106600 56980
" />
<path d="M102400 56980
L102800 56980
" />
<path d="M102800 53380
L102800 53780
" />
<path d="M104000 53380
L104000 53780
" />
<path d="M102800 53380
L107600 53380
" />
<path d="M102800 57580
L107600 57580
" />
<path d="M107600 57580
L107600 53580
" />
<path d="M107600 53580
L107600 53380
" />
<path d="M104000 57480
L104000 53530
" />
<path d="M102800 53530
L102800 57480
" />
</g>
<g style="fill:#000000; fill-opacity:0.0; 
stroke:#000000; stroke-width:125; stroke-opacity:1; 
stroke-linecap:round; stroke-linejoin:round;">
<path d="M87150 67480
L87150 69980
" />
<path d="M85150 67480
L85150 69980
" />
<path d="M85150 69980 A1000 1000 0.0 0 0 86150 70980 " />
<path d="M86150 70980 A1000 1000 0.0 0 0 87150 69980 " />
<path d="M86150 66480 A1000 1000 0.0 0 0 85150 67480 " />
<path d="M87150 67480 A1000 1000 0.0 0 0 86150 66480 " />
</g>
<g style="fill:#000000; fill-opacity:0.0; 
stroke:#000000; stroke-width:50; stroke-opacity:1; 
stroke-linecap:round; stroke-linejoin:round;">
<path d="M92600 68380
L92600 67580
" />
<path d="M93900 68380
L93900 67580
" />
<path d="M92350 68380
L92350 67580
" />
<path d="M92350 67580
L94150 67580
" />
<path d="M94150 67580
L94150 68380
" />
<path d="M94150 68380
L92350 68380
" />
<path d="M100100 65330
L99200 65330
" />
<path d="M99200 65330
L99200 65830
" />
<path d="M99200 65830
L100100 65830
" />
<path d="M100100 65830
L100100 65330
" />
<path d="M99350 57480
L98450 57480
" />
<path d="M98450 57480
L98450 57980
" />
<path d="M98450 57980
L99350 57980
" />
<path d="M99350 57980
L99350 57480
" />
<path d="M100800 58280
L100800 59180
" />
<path d="M100800 59180
L100150 59180
" />
<path d="M99450 58280
L98800 58280
" />
<path d="M98800 58280
L98800 59180
" />
<path d="M98800 59180
L99450 59180
" />
<path d="M100150 58280
L100800 58280
" />
</g>
<g style="fill:#000000; fill-opacity:0.0; 
stroke:#000000; stroke-width:39.3701; stroke-opacity:1; 
stroke-linecap:round; stroke-linejoin:round;">
</g>
<g style="fill:#000000; fill-opacity:1.0; 
stroke:#000000; stroke-width:39.3701; stroke-opacity:1; 
stroke-linecap:round; stroke-linejoin:round;">
<circle cx="84450" cy="62130" r="314.961" /> 
<circle cx="84450" cy="63130" r="314.961" /> 
<circle cx="83663" cy="63130" r="314.961" /> 
<circle cx="83663" cy="62130" r="314.961" /> 
<circle cx="82600" cy="60268" r="511.815" /> 
<circle cx="82600" cy="64992" r="511.815" /> 
<polyline style="fill-rule:evenodd;"
points="101626,68164
102373,68164
102373,67495
101626,67495
101626,68164
" /> 
<circle cx="102000" cy="68830" r="373.815" /> 
<circle cx="102000" cy="69830" r="373.815" /> 
<circle cx="102000" cy="70830" r="373.815" /> 
<polyline style="fill-rule:evenodd;"
points="101626,63564
102373,63564
102373,62895
101626,62895
101626,63564
" /> 
<circle cx="102000" cy="64230" r="373.815" /> 
<circle cx="102000" cy="65230" r="373.815" /> 
<circle cx="102000" cy="66230" r="373.815" /> 
<polyline style="fill-rule:evenodd;"
points="101626,58914
102373,58914
102373,58245
101626,58245
101626,58914
" /> 
<circle cx="102000" cy="59580" r="373.815" /> 
<circle cx="102000" cy="60580" r="373.815" /> 
<circle cx="102000" cy="61580" r="373.815" /> 
<polyline style="fill-rule:evenodd;"
points="101626,54314
102373,54314
102373,53645
101626,53645
101626,54314
" /> 
<circle cx="102000" cy="54980" r="373.815" /> 
<circle cx="102000" cy="55980" r="373.815" /> 
<circle cx="102000" cy="56980" r="373.815" /> 
<circle cx="99100" cy="55230" r="374.016" /> 
<circle cx="99050" cy="69730" r="374.016" /> 
<circle cx="82100" cy="67530" r="374.016" /> 
<circle cx="82100" cy="57780" r="374.016" /> 
<circle cx="86150" cy="67730" r="260.315" /> 
<circle cx="86150" cy="69730" r="260.315" /> 
</g> 
</svg>
