<?xml version="1.0" standalone="no"?>
 <!DOCTYPE svg PUBLIC "-//W3C//DTD SVG 1.1//EN" 
 "http://www.w3.org/Graphics/SVG/1.1/DTD/svg11.dtd"> 
<svg xmlns="http://www.w3.org/2000/svg" version="1.1" 
    width="29.7002cm" height="21.0007cm" viewBox="0 0 116930 82680 ">
<title>SVG Picture created as USB_TO_4UART_BOARD-F_SilkS.svg date 2015/07/11 22:46:22 </title>
  <desc>Picture generated by PCBNEW </desc>
<g style="fill:#000000; fill-opacity:1;stroke:#000000; stroke-opacity:1;
stroke-linecap:round; stroke-linejoin:round; "
 transform="translate(0 0) scale(1 1)">
</g>
<g style="fill:#000000; fill-opacity:0.0; 
stroke:#000000; stroke-width:98.4252; stroke-opacity:1; 
stroke-linecap:round; stroke-linejoin:round;">
<path d="M90856 40171
L90781 40171
L90743 40190
L90725 40209
L90687 40265
L90668 40340
L90668 40490
L90687 40528
L90706 40546
L90743 40565
L90818 40565
L90856 40546
L90875 40528
L90893 40490
L90893 40396
L90875 40359
L90856 40340
L90818 40321
L90743 40321
L90706 40340
L90687 40359
L90668 40396
" />
<path d="M91250 40171
L91062 40171
L91043 40359
L91062 40340
L91100 40321
L91193 40321
L91231 40340
L91250 40359
L91268 40396
L91268 40490
L91250 40528
L91231 40546
L91193 40565
L91100 40565
L91062 40546
L91043 40528
" />
<path d="M91456 40546
L91456 40565
L91437 40603
L91418 40621
" />
<path d="M91700 40171
L91737 40171
L91775 40190
L91793 40209
L91812 40246
L91831 40321
L91831 40415
L91812 40490
L91793 40528
L91775 40546
L91737 40565
L91700 40565
L91662 40546
L91643 40528
L91625 40490
L91606 40415
L91606 40321
L91625 40246
L91643 40209
L91662 40190
L91700 40171
" />
<path d="M91981 40209
L92000 40190
L92037 40171
L92131 40171
L92168 40190
L92187 40209
L92206 40246
L92206 40284
L92187 40340
L91962 40565
L92206 40565
" />
<path d="M92543 40303
L92543 40565
" />
<path d="M92449 40153
L92356 40434
L92599 40434
" />
<path d="M93049 40565
L93049 40303
" />
<path d="M93049 40340
L93068 40321
L93106 40303
L93162 40303
L93199 40321
L93218 40359
L93218 40565
" />
<path d="M93218 40359
L93237 40321
L93274 40303
L93331 40303
L93368 40321
L93387 40359
L93387 40565
" />
<path d="M93574 40565
L93574 40303
" />
<path d="M93574 40340
L93593 40321
L93631 40303
L93687 40303
L93724 40321
L93743 40359
L93743 40565
" />
<path d="M93743 40359
L93762 40321
L93799 40303
L93856 40303
L93893 40321
L93912 40359
L93912 40565
" />
<path d="M105099 40800
L79499 40800
" />
<path d="M105100 67200
L105099 40012
" />
<path d="M79500 67200
L79499 40012
" />
<path d="M79499 40800
L79943 41030
" />
<path d="M79499 40800
L79943 40569
" />
<path d="M105099 40800
L104656 41030
" />
<path d="M105099 40800
L104656 40569
" />
<path d="M73453 58043
L73715 58043
" />
<path d="M73303 58137
L73584 58231
L73584 57987
" />
<path d="M73321 57668
L73321 57743
L73340 57781
L73359 57799
L73415 57837
L73490 57856
L73640 57856
L73678 57837
L73696 57818
L73715 57781
L73715 57706
L73696 57668
L73678 57649
L73640 57631
L73546 57631
L73509 57649
L73490 57668
L73471 57706
L73471 57781
L73490 57818
L73509 57837
L73546 57856
" />
<path d="M73696 57443
L73715 57443
L73753 57462
L73771 57481
" />
<path d="M73453 57106
L73715 57106
" />
<path d="M73303 57199
L73584 57293
L73584 57049
" />
<path d="M73490 56843
L73471 56881
L73453 56899
L73415 56918
L73396 56918
L73359 56899
L73340 56881
L73321 56843
L73321 56768
L73340 56731
L73359 56712
L73396 56693
L73415 56693
L73453 56712
L73471 56731
L73490 56768
L73490 56843
L73509 56881
L73528 56899
L73565 56918
L73640 56918
L73678 56899
L73696 56881
L73715 56843
L73715 56768
L73696 56731
L73678 56712
L73640 56693
L73565 56693
L73528 56712
L73509 56731
L73490 56768
" />
<path d="M73359 56543
L73340 56525
L73321 56487
L73321 56393
L73340 56356
L73359 56337
L73396 56318
L73434 56318
L73490 56337
L73715 56562
L73715 56318
" />
<path d="M73715 55850
L73453 55850
" />
<path d="M73490 55850
L73471 55831
L73453 55793
L73453 55737
L73471 55700
L73509 55681
L73715 55681
" />
<path d="M73509 55681
L73471 55662
L73453 55625
L73453 55568
L73471 55531
L73509 55512
L73715 55512
" />
<path d="M73715 55325
L73453 55325
" />
<path d="M73490 55325
L73471 55306
L73453 55268
L73453 55212
L73471 55175
L73509 55156
L73715 55156
" />
<path d="M73509 55156
L73471 55137
L73453 55100
L73453 55043
L73471 55006
L73509 54987
L73715 54987
" />
<path d="M73950 65750
L73950 47450
" />
<path d="M105550 65750
L73162 65750
" />
<path d="M105550 47450
L73162 47450
" />
<path d="M73950 47450
L73719 47893
" />
<path d="M73950 47450
L74180 47893
" />
<path d="M73950 65750
L73719 65306
" />
<path d="M73950 65750
L74180 65306
" />
<path d="M73453 22343
L73715 22343
" />
<path d="M73303 22437
L73584 22531
L73584 22287
" />
<path d="M73321 21968
L73321 22043
L73340 22081
L73359 22099
L73415 22137
L73490 22156
L73640 22156
L73678 22137
L73696 22118
L73715 22081
L73715 22006
L73696 21968
L73678 21949
L73640 21931
L73546 21931
L73509 21949
L73490 21968
L73471 22006
L73471 22081
L73490 22118
L73509 22137
L73546 22156
" />
<path d="M73696 21743
L73715 21743
L73753 21762
L73771 21781
" />
<path d="M73453 21406
L73715 21406
" />
<path d="M73303 21499
L73584 21593
L73584 21349
" />
<path d="M73490 21143
L73471 21181
L73453 21199
L73415 21218
L73396 21218
L73359 21199
L73340 21181
L73321 21143
L73321 21068
L73340 21031
L73359 21012
L73396 20993
L73415 20993
L73453 21012
L73471 21031
L73490 21068
L73490 21143
L73509 21181
L73528 21199
L73565 21218
L73640 21218
L73678 21199
L73696 21181
L73715 21143
L73715 21068
L73696 21031
L73678 21012
L73640 20993
L73565 20993
L73528 21012
L73509 21031
L73490 21068
" />
<path d="M73359 20843
L73340 20825
L73321 20787
L73321 20693
L73340 20656
L73359 20637
L73396 20618
L73434 20618
L73490 20637
L73715 20862
L73715 20618
" />
<path d="M73715 20150
L73453 20150
" />
<path d="M73490 20150
L73471 20131
L73453 20093
L73453 20037
L73471 20000
L73509 19981
L73715 19981
" />
<path d="M73509 19981
L73471 19962
L73453 19925
L73453 19868
L73471 19831
L73509 19812
L73715 19812
" />
<path d="M73715 19625
L73453 19625
" />
<path d="M73490 19625
L73471 19606
L73453 19568
L73453 19512
L73471 19475
L73509 19456
L73715 19456
" />
<path d="M73509 19456
L73471 19437
L73453 19400
L73453 19343
L73471 19306
L73509 19287
L73715 19287
" />
<path d="M73950 11749
L73950 30049
" />
<path d="M105550 11750
L73162 11749
" />
<path d="M105550 30050
L73162 30049
" />
<path d="M73950 30049
L73719 29606
" />
<path d="M73950 30049
L74180 29606
" />
<path d="M73950 11749
L73719 12193
" />
<path d="M73950 11749
L74180 12193
" />
<path d="M90856 36859
L90781 36859
L90743 36878
L90725 36896
L90687 36953
L90668 37028
L90668 37178
L90687 37215
L90706 37234
L90743 37253
L90818 37253
L90856 37234
L90875 37215
L90893 37178
L90893 37084
L90875 37046
L90856 37028
L90818 37009
L90743 37009
L90706 37028
L90687 37046
L90668 37084
" />
<path d="M91250 36859
L91062 36859
L91043 37046
L91062 37028
L91100 37009
L91193 37009
L91231 37028
L91250 37046
L91268 37084
L91268 37178
L91250 37215
L91231 37234
L91193 37253
L91100 37253
L91062 37234
L91043 37215
" />
<path d="M91456 37234
L91456 37253
L91437 37290
L91418 37309
" />
<path d="M91700 36859
L91737 36859
L91775 36878
L91793 36896
L91812 36934
L91831 37009
L91831 37103
L91812 37178
L91793 37215
L91775 37234
L91737 37253
L91700 37253
L91662 37234
L91643 37215
L91625 37178
L91606 37103
L91606 37009
L91625 36934
L91643 36896
L91662 36878
L91700 36859
" />
<path d="M91981 36896
L92000 36878
L92037 36859
L92131 36859
L92168 36878
L92187 36896
L92206 36934
L92206 36971
L92187 37028
L91962 37253
L92206 37253
" />
<path d="M92543 36990
L92543 37253
" />
<path d="M92449 36840
L92356 37121
L92599 37121
" />
<path d="M93049 37253
L93049 36990
" />
<path d="M93049 37028
L93068 37009
L93106 36990
L93162 36990
L93199 37009
L93218 37046
L93218 37253
" />
<path d="M93218 37046
L93237 37009
L93274 36990
L93331 36990
L93368 37009
L93387 37046
L93387 37253
" />
<path d="M93574 37253
L93574 36990
" />
<path d="M93574 37028
L93593 37009
L93631 36990
L93687 36990
L93724 37009
L93743 37046
L93743 37253
" />
<path d="M93743 37046
L93762 37009
L93799 36990
L93856 36990
L93893 37009
L93912 37046
L93912 37253
" />
<path d="M105099 36699
L79499 36699
" />
<path d="M105100 10300
L105099 37487
" />
<path d="M79500 10300
L79499 37487
" />
<path d="M79499 36699
L79943 36469
" />
<path d="M79499 36699
L79943 36930
" />
<path d="M105099 36699
L104656 36469
" />
<path d="M105099 36699
L104656 36930
" />
</g>
<g style="fill:#000000; fill-opacity:0.0; 
stroke:#000000; stroke-width:47; stroke-opacity:1; 
stroke-linecap:round; stroke-linejoin:round;">
<path d="M87479 54482
L87479 54576
L87282 54576
" />
<path d="M87479 54313
L87479 54426
" />
<path d="M87479 54370
L87282 54370
L87310 54389
L87329 54407
L87339 54426
" />
</g>
<g style="fill:#000000; fill-opacity:0.0; 
stroke:#000000; stroke-width:50; stroke-opacity:1; 
stroke-linecap:round; stroke-linejoin:round;">
<path d="M100330 50597
L100130 50597
L100130 50550
L100140 50521
L100159 50502
L100178 50492
L100216 50483
L100245 50483
L100283 50492
L100302 50502
L100321 50521
L100330 50550
L100330 50597
" />
<path d="M100130 50302
L100130 50397
L100226 50407
L100216 50397
L100207 50378
L100207 50330
L100216 50311
L100226 50302
L100245 50292
L100292 50292
L100311 50302
L100321 50311
L100330 50330
L100330 50378
L100321 50397
L100311 50407
" />
<path d="M100930 50783
L101130 50716
L100930 50650
" />
<path d="M101026 50583
L101026 50516
" />
<path d="M101130 50488
L101130 50583
L100930 50583
L100930 50488
" />
<path d="M101130 50288
L101035 50354
" />
<path d="M101130 50402
L100930 50402
L100930 50326
L100940 50307
L100950 50297
L100969 50288
L100997 50288
L101016 50297
L101026 50307
L101035 50326
L101035 50402
" />
<path d="M100930 50230
L100930 50116
" />
<path d="M101130 50173
L100930 50173
" />
<path d="M100330 55197
L100130 55197
L100130 55150
L100140 55121
L100159 55102
L100178 55092
L100216 55083
L100245 55083
L100283 55092
L100302 55102
L100321 55121
L100330 55150
L100330 55197
" />
<path d="M100197 54911
L100330 54911
" />
<path d="M100121 54959
L100264 55007
L100264 54883
" />
<path d="M100930 55383
L101130 55316
L100930 55250
" />
<path d="M101026 55183
L101026 55116
" />
<path d="M101130 55088
L101130 55183
L100930 55183
L100930 55088
" />
<path d="M101130 54888
L101035 54954
" />
<path d="M101130 55002
L100930 55002
L100930 54926
L100940 54907
L100950 54897
L100969 54888
L100997 54888
L101016 54897
L101026 54907
L101035 54926
L101035 55002
" />
<path d="M100930 54830
L100930 54716
" />
<path d="M101130 54773
L100930 54773
" />
<path d="M100330 59847
L100130 59847
L100130 59800
L100140 59771
L100159 59752
L100178 59742
L100216 59733
L100245 59733
L100283 59742
L100302 59752
L100321 59771
L100330 59800
L100330 59847
" />
<path d="M100130 59666
L100130 59542
L100207 59609
L100207 59580
L100216 59561
L100226 59552
L100245 59542
L100292 59542
L100311 59552
L100321 59561
L100330 59580
L100330 59638
L100321 59657
L100311 59666
" />
<path d="M100930 60033
L101130 59966
L100930 59900
" />
<path d="M101026 59833
L101026 59766
" />
<path d="M101130 59738
L101130 59833
L100930 59833
L100930 59738
" />
<path d="M101130 59538
L101035 59604
" />
<path d="M101130 59652
L100930 59652
L100930 59576
L100940 59557
L100950 59547
L100969 59538
L100997 59538
L101016 59547
L101026 59557
L101035 59576
L101035 59652
" />
<path d="M100930 59480
L100930 59366
" />
<path d="M101130 59423
L100930 59423
" />
<path d="M100330 64747
L100130 64747
L100130 64700
L100140 64671
L100159 64652
L100178 64642
L100216 64633
L100245 64633
L100283 64642
L100302 64652
L100321 64671
L100330 64700
L100330 64747
" />
<path d="M100150 64557
L100140 64547
L100130 64528
L100130 64480
L100140 64461
L100150 64452
L100169 64442
L100188 64442
L100216 64452
L100330 64566
L100330 64442
" />
<path d="M100930 64933
L101130 64866
L100930 64800
" />
<path d="M101026 64733
L101026 64666
" />
<path d="M101130 64638
L101130 64733
L100930 64733
L100930 64638
" />
<path d="M101130 64438
L101035 64504
" />
<path d="M101130 64552
L100930 64552
L100930 64476
L100940 64457
L100950 64447
L100969 64438
L100997 64438
L101016 64447
L101026 64457
L101035 64476
L101035 64552
" />
<path d="M100930 64380
L100930 64266
" />
<path d="M101130 64323
L100930 64323
" />
<path d="M88602 63280
L88602 63080
L88650 63080
L88678 63090
L88697 63109
L88707 63128
L88716 63166
L88716 63195
L88707 63233
L88697 63252
L88678 63271
L88650 63280
L88602 63280
" />
<path d="M88907 63280
L88792 63280
" />
<path d="M88850 63280
L88850 63080
L88830 63109
L88811 63128
L88792 63138
" />
<path d="M88621 64080
L88526 64080
L88526 63880
" />
<path d="M88688 63976
L88754 63976
" />
<path d="M88783 64080
L88688 64080
L88688 63880
L88783 63880
" />
<path d="M88869 64080
L88869 63880
L88916 63880
L88945 63890
L88964 63909
L88973 63928
L88983 63966
L88983 63995
L88973 64033
L88964 64052
L88945 64071
L88916 64080
L88869 64080
" />
</g>
<g style="fill:#000000; fill-opacity:0.0; 
stroke:#000000; stroke-width:45; stroke-opacity:1; 
stroke-linecap:round; stroke-linejoin:round;">
<path d="M89634 48711
L89625 48721
L89600 48730
L89582 48730
L89557 48721
L89540 48702
L89531 48683
L89522 48645
L89522 48616
L89531 48578
L89540 48559
L89557 48540
L89582 48530
L89600 48530
L89625 48540
L89634 48550
" />
<path d="M89805 48730
L89702 48730
" />
<path d="M89754 48730
L89754 48530
L89737 48559
L89720 48578
L89702 48588
" />
<path d="M89960 48530
L89925 48530
L89908 48540
L89900 48550
L89882 48578
L89874 48616
L89874 48692
L89882 48711
L89891 48721
L89908 48730
L89942 48730
L89960 48721
L89968 48711
L89977 48692
L89977 48645
L89968 48626
L89960 48616
L89942 48607
L89908 48607
L89891 48616
L89882 48626
L89874 48645
" />
<path d="M98084 57261
L98075 57271
L98050 57280
L98032 57280
L98007 57271
L97990 57252
L97981 57233
L97972 57195
L97972 57166
L97981 57128
L97990 57109
L98007 57090
L98032 57080
L98050 57080
L98075 57090
L98084 57100
" />
<path d="M98255 57280
L98152 57280
" />
<path d="M98204 57280
L98204 57080
L98187 57109
L98170 57128
L98152 57138
" />
<path d="M98418 57080
L98332 57080
L98324 57176
L98332 57166
L98350 57157
L98392 57157
L98410 57166
L98418 57176
L98427 57195
L98427 57242
L98418 57261
L98410 57271
L98392 57280
L98350 57280
L98332 57271
L98324 57261
" />
<path d="M100763 48265
L100630 48325
" />
<path d="M100763 48368
L100483 48368
L100483 48300
L100496 48282
L100510 48274
L100536 48265
L100576 48265
L100603 48274
L100616 48282
L100630 48300
L100630 48368
" />
<path d="M100763 48094
L100763 48197
" />
<path d="M100763 48145
L100483 48145
L100523 48162
L100550 48180
L100563 48197
" />
<path d="M100763 47922
L100763 48025
" />
<path d="M100763 47974
L100483 47974
L100523 47991
L100550 48008
L100563 48025
" />
<path d="M100663 53065
L100530 53125
" />
<path d="M100663 53168
L100383 53168
L100383 53100
L100396 53082
L100410 53074
L100436 53065
L100476 53065
L100503 53074
L100516 53082
L100530 53100
L100530 53168
" />
<path d="M100663 52894
L100663 52997
" />
<path d="M100663 52945
L100383 52945
L100423 52962
L100450 52980
L100463 52997
" />
<path d="M100383 52782
L100383 52765
L100396 52748
L100410 52740
L100436 52731
L100490 52722
L100556 52722
L100610 52731
L100636 52740
L100650 52748
L100663 52765
L100663 52782
L100650 52800
L100636 52808
L100610 52817
L100556 52825
L100490 52825
L100436 52817
L100410 52808
L100396 52800
L100383 52782
" />
<path d="M100763 57680
L100630 57740
" />
<path d="M100763 57782
L100483 57782
L100483 57714
L100496 57697
L100510 57688
L100536 57680
L100576 57680
L100603 57688
L100616 57697
L100630 57714
L100630 57782
" />
<path d="M100763 57594
L100763 57560
L100750 57542
L100736 57534
L100696 57517
L100643 57508
L100536 57508
L100510 57517
L100496 57525
L100483 57542
L100483 57577
L100496 57594
L100510 57602
L100536 57611
L100603 57611
L100630 57602
L100643 57594
L100656 57577
L100656 57542
L100643 57525
L100630 57517
L100603 57508
" />
<path d="M100763 62430
L100630 62490
" />
<path d="M100763 62532
L100483 62532
L100483 62464
L100496 62447
L100510 62438
L100536 62430
L100576 62430
L100603 62438
L100616 62447
L100630 62464
L100630 62532
" />
<path d="M100603 62327
L100590 62344
L100576 62352
L100550 62361
L100536 62361
L100510 62352
L100496 62344
L100483 62327
L100483 62292
L100496 62275
L100510 62267
L100536 62258
L100550 62258
L100576 62267
L100590 62275
L100603 62292
L100603 62327
L100616 62344
L100630 62352
L100656 62361
L100710 62361
L100736 62352
L100750 62344
L100763 62327
L100763 62292
L100750 62275
L100736 62267
L100710 62258
L100656 62258
L100630 62267
L100616 62275
L100603 62292
" />
<path d="M90070 63713
L90010 63580
" />
<path d="M89967 63713
L89967 63433
L90035 63433
L90052 63446
L90061 63460
L90070 63486
L90070 63526
L90061 63553
L90052 63566
L90035 63580
L89967 63580
" />
<path d="M90130 63433
L90250 63433
L90172 63713
" />
</g>
<g style="fill:#000000; fill-opacity:0.0; 
stroke:#000000; stroke-width:47; stroke-opacity:1; 
stroke-linecap:round; stroke-linejoin:round;">
<path d="M91950 54936
L91960 54946
L91969 54974
L91969 54992
L91960 55021
L91941 55039
L91922 55049
L91885 55058
L91857 55058
L91819 55049
L91800 55039
L91782 55021
L91772 54992
L91772 54974
L91782 54946
L91791 54936
" />
<path d="M91969 54749
L91969 54861
" />
<path d="M91969 54805
L91772 54805
L91800 54824
L91819 54842
L91829 54861
" />
<path d="M91857 54636
L91847 54655
L91838 54664
L91819 54673
L91810 54673
L91791 54664
L91782 54655
L91772 54636
L91772 54598
L91782 54580
L91791 54570
L91810 54561
L91819 54561
L91838 54570
L91847 54580
L91857 54598
L91857 54636
L91866 54655
L91875 54664
L91894 54673
L91932 54673
L91950 54664
L91960 54655
L91969 54636
L91969 54598
L91960 54580
L91950 54570
L91932 54561
L91894 54561
L91875 54570
L91866 54580
L91857 54598
" />
<path d="M90620 57216
L90630 57226
L90639 57254
L90639 57272
L90630 57301
L90611 57319
L90592 57329
L90555 57338
L90527 57338
L90489 57329
L90470 57319
L90452 57301
L90442 57272
L90442 57254
L90452 57226
L90461 57216
" />
<path d="M90639 57029
L90639 57141
" />
<path d="M90639 57085
L90442 57085
L90470 57104
L90489 57122
L90499 57141
" />
<path d="M90442 56963
L90442 56832
L90639 56916
" />
</g>
<g style="fill:#000000; fill-opacity:0.0; 
stroke:#000000; stroke-width:45; stroke-opacity:1; 
stroke-linecap:round; stroke-linejoin:round;">
<path d="M87511 64880
L87521 64888
L87530 64914
L87530 64931
L87521 64957
L87502 64974
L87483 64982
L87445 64991
L87416 64991
L87378 64982
L87359 64974
L87340 64957
L87330 64931
L87330 64914
L87340 64888
L87350 64880
" />
<path d="M87350 64811
L87340 64802
L87330 64785
L87330 64742
L87340 64725
L87350 64717
L87369 64708
L87388 64708
L87416 64717
L87530 64820
L87530 64708
" />
<path d="M88000 65068
L87990 65060
L87980 65042
L87980 65000
L87990 64982
L88000 64974
L88019 64965
L88038 64965
L88066 64974
L88180 65077
L88180 64965
" />
<path d="M87980 64905
L87980 64785
L88180 64862
" />
<path d="M88047 64717
L88247 64717
" />
<path d="M88057 64717
L88047 64699
L88047 64665
L88057 64648
L88066 64639
L88085 64631
L88142 64631
L88161 64639
L88171 64648
L88180 64665
L88180 64699
L88171 64717
" />
<path d="M85361 60080
L85371 60088
L85380 60114
L85380 60131
L85371 60157
L85352 60174
L85333 60182
L85295 60191
L85266 60191
L85228 60182
L85209 60174
L85190 60157
L85180 60131
L85180 60114
L85190 60088
L85200 60080
" />
<path d="M85180 59917
L85180 60002
L85276 60011
L85266 60002
L85257 59985
L85257 59942
L85266 59925
L85276 59917
L85295 59908
L85342 59908
L85361 59917
L85371 59925
L85380 59942
L85380 59985
L85371 60002
L85361 60011
" />
<path d="M84550 60268
L84540 60260
L84530 60242
L84530 60200
L84540 60182
L84550 60174
L84569 60165
L84588 60165
L84616 60174
L84730 60277
L84730 60165
" />
<path d="M84530 60105
L84530 59985
L84730 60062
" />
<path d="M84597 59917
L84797 59917
" />
<path d="M84607 59917
L84597 59899
L84597 59865
L84607 59848
L84616 59839
L84635 59831
L84692 59831
L84711 59839
L84721 59848
L84730 59865
L84730 59899
L84721 59917
" />
</g>
<g style="fill:#000000; fill-opacity:0.0; 
stroke:#000000; stroke-width:47; stroke-opacity:1; 
stroke-linecap:round; stroke-linejoin:round;">
<path d="M90029 57532
L90029 57626
L89832 57626
" />
<path d="M89851 57476
L89842 57467
L89832 57448
L89832 57401
L89842 57382
L89851 57373
L89870 57363
L89889 57363
L89917 57373
L90029 57485
L90029 57363
" />
</g>
<g style="fill:#000000; fill-opacity:0.0; 
stroke:#000000; stroke-width:120; stroke-opacity:1; 
stroke-linecap:round; stroke-linejoin:round;">
<path d="M79792 21192
L79192 21192
L79192 20964
L79221 20907
L79250 20878
L79307 20850
L79392 20850
L79450 20878
L79478 20907
L79507 20964
L79507 21192
" />
<path d="M79792 20278
L79792 20621
" />
<path d="M79792 20450
L79192 20450
L79278 20507
L79335 20564
L79364 20621
" />
<path d="M82235 22021
L82264 22049
L82292 22135
L82292 22192
L82264 22278
L82207 22335
L82150 22364
L82035 22392
L81950 22392
L81835 22364
L81778 22335
L81721 22278
L81692 22192
L81692 22135
L81721 22049
L81750 22021
" />
<path d="M81692 21649
L81692 21535
L81721 21478
L81778 21421
L81892 21392
L82092 21392
L82207 21421
L82264 21478
L82292 21535
L82292 21649
L82264 21707
L82207 21764
L82092 21792
L81892 21792
L81778 21764
L81721 21707
L81692 21649
" />
<path d="M82292 21135
L81692 21135
L82292 20792
L81692 20792
" />
<path d="M82292 20507
L81692 20507
L82292 20164
L81692 20164
" />
<path d="M82350 20021
L82350 19564
" />
<path d="M81892 19164
L82292 19164
" />
<path d="M81664 19307
L82092 19450
L82092 19078
" />
</g>
<g style="fill:#000000; fill-opacity:0.0; 
stroke:#000000; stroke-width:50; stroke-opacity:1; 
stroke-linecap:round; stroke-linejoin:round;">
<path d="M90142 21079
L90492 21079
L90534 21059
L90554 21038
L90575 20997
L90575 20914
L90554 20873
L90534 20853
L90492 20832
L90142 20832
" />
<path d="M90142 20667
L90142 20399
L90307 20543
L90307 20481
L90327 20440
L90348 20420
L90389 20399
L90492 20399
L90534 20420
L90554 20440
L90575 20481
L90575 20605
L90554 20646
L90534 20667
" />
</g>
<g style="fill:#000000; fill-opacity:0.0; 
stroke:#000000; stroke-width:60; stroke-opacity:1; 
stroke-linecap:round; stroke-linejoin:round;">
<path d="M89103 22154
L89103 22285
" />
<path d="M89309 22285
L88915 22285
L88915 22097
" />
<path d="M88915 22003
L88915 21778
" />
<path d="M89309 21891
L88915 21891
" />
<path d="M89046 21478
L89309 21478
" />
<path d="M88896 21572
L89178 21666
L89178 21422
" />
<path d="M88953 21291
L88934 21272
L88915 21234
L88915 21140
L88934 21103
L88953 21084
L88990 21065
L89028 21065
L89084 21084
L89309 21309
L89309 21065
" />
<path d="M88915 20934
L88915 20690
L89065 20821
L89065 20765
L89084 20728
L89103 20709
L89140 20690
L89234 20690
L89271 20709
L89290 20728
L89309 20765
L89309 20878
L89290 20915
L89271 20934
" />
<path d="M88953 20540
L88934 20521
L88915 20484
L88915 20390
L88934 20352
L88953 20334
L88990 20315
L89028 20315
L89084 20334
L89309 20559
L89309 20315
" />
<path d="M89159 20146
L89159 19846
" />
<path d="M89309 19658
L88915 19658
" />
<path d="M89103 19658
L89103 19433
" />
<path d="M89309 19433
L88915 19433
" />
<path d="M89309 19058
L89309 19245
L88915 19245
" />
</g>
<g style="fill:#000000; fill-opacity:0.0; 
stroke:#000000; stroke-width:59; stroke-opacity:1; 
stroke-linecap:round; stroke-linejoin:round;">
<path d="M88775 14474
L88775 14713
L88789 14741
L88803 14755
L88831 14769
L88887 14769
L88915 14755
L88929 14741
L88943 14713
L88943 14474
" />
<path d="M89238 14769
L89070 14769
" />
<path d="M89154 14769
L89154 14474
L89126 14516
L89098 14544
L89070 14558
" />
<path d="M88374 15569
L88431 15569
L88459 15555
L88473 15541
L88501 15499
L88515 15442
L88515 15330
L88501 15302
L88487 15288
L88459 15274
L88402 15274
L88374 15288
L88360 15302
L88346 15330
L88346 15400
L88360 15428
L88374 15442
L88402 15457
L88459 15457
L88487 15442
L88501 15428
L88515 15400
" />
<path d="M88613 15274
L88796 15274
L88697 15386
L88740 15386
L88768 15400
L88782 15414
L88796 15442
L88796 15513
L88782 15541
L88768 15555
L88740 15569
L88655 15569
L88627 15555
L88613 15541
" />
<path d="M89091 15541
L89077 15555
L89035 15569
L89007 15569
L88964 15555
L88936 15527
L88922 15499
L88908 15442
L88908 15400
L88922 15344
L88936 15316
L88964 15288
L89007 15274
L89035 15274
L89077 15288
L89091 15302
" />
<path d="M89344 15372
L89344 15569
" />
<path d="M89273 15260
L89203 15471
L89386 15471
" />
<path d="M89625 15274
L89568 15274
L89540 15288
L89526 15302
L89498 15344
L89484 15400
L89484 15513
L89498 15541
L89512 15555
L89540 15569
L89597 15569
L89625 15555
L89639 15541
L89653 15513
L89653 15442
L89639 15414
L89625 15400
L89597 15386
L89540 15386
L89512 15400
L89498 15414
L89484 15442
" />
<path d="M96374 17274
L96613 17274
L96641 17260
L96655 17246
L96669 17218
L96669 17162
L96655 17134
L96641 17120
L96613 17106
L96374 17106
" />
<path d="M96472 16839
L96669 16839
" />
<path d="M96360 16909
L96571 16979
L96571 16797
" />
<path d="M95574 17871
L95574 17675
L95869 17801
" />
<path d="M95672 17436
L95869 17436
" />
<path d="M95560 17506
L95771 17576
L95771 17394
" />
<path d="M95869 17281
L95574 17281
" />
<path d="M95714 17281
L95714 17113
" />
<path d="M95869 17113
L95574 17113
" />
<path d="M95841 16804
L95855 16818
L95869 16860
L95869 16888
L95855 16930
L95827 16958
L95799 16972
L95742 16986
L95700 16986
L95644 16972
L95616 16958
L95588 16930
L95574 16888
L95574 16860
L95588 16818
L95602 16804
" />
<path d="M95574 16621
L95574 16593
L95588 16565
L95602 16551
L95630 16537
L95686 16523
L95757 16523
L95813 16537
L95841 16551
L95855 16565
L95869 16593
L95869 16621
L95855 16649
L95841 16663
L95813 16677
L95757 16691
L95686 16691
L95630 16677
L95602 16663
L95588 16649
L95574 16621
" />
<path d="M95602 16410
L95588 16396
L95574 16368
L95574 16298
L95588 16270
L95602 16256
L95630 16242
L95658 16242
L95700 16256
L95869 16424
L95869 16242
" />
</g>
<g style="fill:#000000; fill-opacity:0.0; 
stroke:#000000; stroke-width:45; stroke-opacity:1; 
stroke-linecap:round; stroke-linejoin:round;">
<path d="M87595 15154
L87535 15060
" />
<path d="M87492 15154
L87492 14957
L87560 14957
L87577 14967
L87586 14976
L87595 14995
L87595 15023
L87586 15042
L87577 15051
L87560 15060
L87492 15060
" />
<path d="M87663 14976
L87672 14967
L87689 14957
L87732 14957
L87749 14967
L87757 14976
L87766 14995
L87766 15014
L87757 15042
L87655 15154
L87766 15154
" />
<path d="M87492 14461
L87390 14461
" />
<path d="M87441 14461
L87441 14261
L87424 14290
L87407 14309
L87390 14319
" />
<path d="M87604 14261
L87621 14261
L87638 14271
L87647 14281
L87655 14300
L87664 14338
L87664 14385
L87655 14423
L87647 14442
L87638 14452
L87621 14461
L87604 14461
L87587 14452
L87578 14442
L87570 14423
L87561 14385
L87561 14338
L87570 14300
L87578 14281
L87587 14271
L87604 14261
" />
<path d="M87741 14461
L87741 14261
" />
<path d="M87758 14385
L87810 14461
" />
<path d="M87810 14328
L87741 14404
" />
<path d="M88054 17255
L87960 17315
" />
<path d="M88054 17357
L87857 17357
L87857 17289
L87867 17272
L87876 17263
L87895 17255
L87923 17255
L87942 17263
L87951 17272
L87960 17289
L87960 17357
" />
<path d="M88054 17083
L88054 17186
" />
<path d="M88054 17135
L87857 17135
L87885 17152
L87904 17169
L87914 17186
" />
<path d="M87361 17357
L87361 17460
" />
<path d="M87361 17408
L87161 17408
L87190 17425
L87209 17442
L87219 17460
" />
<path d="M87161 17245
L87161 17228
L87171 17211
L87181 17202
L87200 17194
L87238 17185
L87285 17185
L87323 17194
L87342 17202
L87352 17211
L87361 17228
L87361 17245
L87352 17262
L87342 17271
L87323 17280
L87285 17288
L87238 17288
L87200 17280
L87181 17271
L87171 17262
L87161 17245
" />
<path d="M87361 17108
L87161 17108
" />
<path d="M87285 17091
L87361 17039
" />
<path d="M87228 17039
L87304 17108
" />
<path d="M90804 16455
L90710 16515
" />
<path d="M90804 16557
L90607 16557
L90607 16489
L90617 16472
L90626 16463
L90645 16455
L90673 16455
L90692 16463
L90701 16472
L90710 16489
L90710 16557
" />
<path d="M90607 16395
L90607 16283
L90682 16343
L90682 16317
L90692 16300
L90701 16292
L90720 16283
L90767 16283
L90785 16292
L90795 16300
L90804 16317
L90804 16369
L90795 16386
L90785 16395
" />
<path d="M91499 16507
L91499 16610
" />
<path d="M91499 16558
L91299 16558
L91328 16575
L91347 16592
L91357 16610
" />
<path d="M91299 16395
L91299 16378
L91309 16361
L91319 16352
L91338 16344
L91376 16335
L91423 16335
L91461 16344
L91480 16352
L91490 16361
L91499 16378
L91499 16395
L91490 16412
L91480 16421
L91461 16430
L91423 16438
L91376 16438
L91338 16430
L91319 16421
L91309 16412
L91299 16395
" />
<path d="M91499 16258
L91299 16258
" />
<path d="M91423 16241
L91499 16189
" />
<path d="M91366 16189
L91442 16258
" />
<path d="M90345 15154
L90285 15060
" />
<path d="M90242 15154
L90242 14957
L90310 14957
L90327 14967
L90336 14976
L90345 14995
L90345 15023
L90336 15042
L90327 15051
L90310 15060
L90242 15060
" />
<path d="M90499 15023
L90499 15154
" />
<path d="M90456 14948
L90413 15089
L90525 15089
" />
<path d="M90097 14281
L90105 14271
L90122 14261
L90165 14261
L90182 14271
L90191 14281
L90200 14300
L90200 14319
L90191 14347
L90088 14461
L90200 14461
" />
<path d="M90277 14442
L90285 14452
L90277 14461
L90268 14452
L90277 14442
L90277 14461
" />
<path d="M90354 14281
L90362 14271
L90380 14261
L90422 14261
L90440 14271
L90448 14281
L90457 14300
L90457 14319
L90448 14347
L90345 14461
L90457 14461
" />
<path d="M90534 14461
L90534 14261
" />
<path d="M90551 14385
L90602 14461
" />
<path d="M90602 14328
L90534 14404
" />
<path d="M87095 24304
L87035 24210
" />
<path d="M86992 24304
L86992 24107
L87060 24107
L87077 24117
L87086 24126
L87095 24145
L87095 24173
L87086 24192
L87077 24201
L87060 24210
L86992 24210
" />
<path d="M87249 24107
L87215 24107
L87197 24117
L87189 24126
L87172 24154
L87163 24192
L87163 24267
L87172 24285
L87180 24295
L87197 24304
L87232 24304
L87249 24295
L87257 24285
L87266 24267
L87266 24220
L87257 24201
L87249 24192
L87232 24182
L87197 24182
L87180 24192
L87172 24201
L87163 24220
" />
<path d="M87078 23611
L86975 23611
" />
<path d="M87027 23611
L87027 23411
L87010 23440
L86992 23459
L86975 23469
" />
<path d="M87155 23611
L87155 23411
" />
<path d="M87172 23535
L87224 23611
" />
<path d="M87224 23478
L87155 23554
" />
<path d="M85195 19154
L85135 19060
" />
<path d="M85092 19154
L85092 18957
L85160 18957
L85177 18967
L85186 18976
L85195 18995
L85195 19023
L85186 19042
L85177 19051
L85160 19060
L85092 19060
" />
<path d="M85357 18957
L85272 18957
L85263 19051
L85272 19042
L85289 19032
L85332 19032
L85349 19042
L85357 19051
L85366 19070
L85366 19117
L85357 19135
L85349 19145
L85332 19154
L85289 19154
L85272 19145
L85263 19135
" />
<path d="M85092 18461
L84990 18461
" />
<path d="M85041 18461
L85041 18261
L85024 18290
L85007 18309
L84990 18319
" />
<path d="M85161 18281
L85170 18271
L85187 18261
L85230 18261
L85247 18271
L85255 18281
L85264 18300
L85264 18319
L85255 18347
L85152 18461
L85264 18461
" />
<path d="M85341 18461
L85341 18261
" />
<path d="M85358 18385
L85410 18461
" />
<path d="M85410 18328
L85341 18404
" />
<path d="M89611 13115
L89621 13124
L89630 13150
L89630 13167
L89621 13192
L89602 13210
L89583 13218
L89545 13227
L89516 13227
L89478 13218
L89459 13210
L89440 13192
L89430 13167
L89430 13150
L89440 13124
L89450 13115
" />
<path d="M89630 12944
L89630 13047
" />
<path d="M89630 12995
L89430 12995
L89459 13012
L89478 13030
L89488 13047
" />
<path d="M89430 12832
L89430 12815
L89440 12798
L89450 12790
L89469 12781
L89507 12772
L89554 12772
L89592 12781
L89611 12790
L89621 12798
L89630 12815
L89630 12832
L89621 12850
L89611 12858
L89592 12867
L89554 12875
L89507 12875
L89469 12867
L89450 12858
L89440 12850
L89430 12832
" />
<path d="M88980 13201
L88980 13304
" />
<path d="M88980 13252
L88780 13252
L88809 13270
L88828 13287
L88838 13304
" />
<path d="M88780 13090
L88780 13072
L88790 13055
L88800 13047
L88819 13038
L88857 13030
L88904 13030
L88942 13038
L88961 13047
L88971 13055
L88980 13072
L88980 13090
L88971 13107
L88961 13115
L88942 13124
L88904 13132
L88857 13132
L88819 13124
L88800 13115
L88790 13107
L88780 13090
" />
<path d="M88780 12918
L88780 12901
L88790 12884
L88800 12875
L88819 12867
L88857 12858
L88904 12858
L88942 12867
L88961 12875
L88971 12884
L88980 12901
L88980 12918
L88971 12935
L88961 12944
L88942 12952
L88904 12961
L88857 12961
L88819 12952
L88800 12944
L88790 12935
L88780 12918
" />
<path d="M88847 12781
L88980 12781
" />
<path d="M88866 12781
L88857 12772
L88847 12755
L88847 12729
L88857 12712
L88876 12704
L88980 12704
" />
<path d="M85461 24230
L85471 24238
L85480 24264
L85480 24281
L85471 24307
L85452 24324
L85433 24332
L85395 24341
L85366 24341
L85328 24332
L85309 24324
L85290 24307
L85280 24281
L85280 24264
L85290 24238
L85300 24230
" />
<path d="M85480 24058
L85480 24161
" />
<path d="M85480 24110
L85280 24110
L85309 24127
L85328 24144
L85338 24161
" />
<path d="M84830 24401
L84830 24504
" />
<path d="M84830 24452
L84630 24452
L84659 24470
L84678 24487
L84688 24504
" />
<path d="M84630 24290
L84630 24272
L84640 24255
L84650 24247
L84669 24238
L84707 24230
L84754 24230
L84792 24238
L84811 24247
L84821 24255
L84830 24272
L84830 24290
L84821 24307
L84811 24315
L84792 24324
L84754 24332
L84707 24332
L84669 24324
L84650 24315
L84640 24307
L84630 24290
" />
<path d="M84630 24118
L84630 24101
L84640 24084
L84650 24075
L84669 24067
L84707 24058
L84754 24058
L84792 24067
L84811 24075
L84821 24084
L84830 24101
L84830 24118
L84821 24135
L84811 24144
L84792 24152
L84754 24161
L84707 24161
L84669 24152
L84650 24144
L84640 24135
L84630 24118
" />
<path d="M84697 23981
L84830 23981
" />
<path d="M84716 23981
L84707 23972
L84697 23955
L84697 23929
L84707 23912
L84726 23904
L84830 23904
" />
<path d="M87120 18361
L87111 18371
L87085 18380
L87068 18380
L87042 18371
L87025 18352
L87017 18333
L87008 18295
L87008 18266
L87017 18228
L87025 18209
L87042 18190
L87068 18180
L87085 18180
L87111 18190
L87120 18200
" />
<path d="M87180 18180
L87300 18180
L87222 18380
" />
<path d="M86948 17730
L86845 17730
" />
<path d="M86897 17730
L86897 17530
L86879 17559
L86862 17578
L86845 17588
" />
<path d="M87060 17530
L87077 17530
L87094 17540
L87102 17550
L87111 17569
L87120 17607
L87120 17654
L87111 17692
L87102 17711
L87094 17721
L87077 17730
L87060 17730
L87042 17721
L87034 17711
L87025 17692
L87017 17654
L87017 17607
L87025 17569
L87034 17550
L87042 17540
L87060 17530
" />
<path d="M87231 17530
L87248 17530
L87265 17540
L87274 17550
L87282 17569
L87291 17607
L87291 17654
L87282 17692
L87274 17711
L87265 17721
L87248 17730
L87231 17730
L87214 17721
L87205 17711
L87197 17692
L87188 17654
L87188 17607
L87197 17569
L87205 17550
L87214 17540
L87231 17530
" />
<path d="M87368 17597
L87368 17730
" />
<path d="M87368 17616
L87377 17607
L87394 17597
L87420 17597
L87437 17607
L87445 17626
L87445 17730
" />
<path d="M94320 22511
L94311 22521
L94285 22530
L94268 22530
L94242 22521
L94225 22502
L94217 22483
L94208 22445
L94208 22416
L94217 22378
L94225 22359
L94242 22340
L94268 22330
L94285 22330
L94311 22340
L94320 22350
" />
<path d="M94422 22416
L94405 22407
L94397 22397
L94388 22378
L94388 22369
L94397 22350
L94405 22340
L94422 22330
L94457 22330
L94474 22340
L94482 22350
L94491 22369
L94491 22378
L94482 22397
L94474 22407
L94457 22416
L94422 22416
L94405 22426
L94397 22435
L94388 22454
L94388 22492
L94397 22511
L94405 22521
L94422 22530
L94457 22530
L94474 22521
L94482 22511
L94491 22492
L94491 22454
L94482 22435
L94474 22426
L94457 22416
" />
<path d="M94148 21880
L94045 21880
" />
<path d="M94097 21880
L94097 21680
L94079 21709
L94062 21728
L94045 21738
" />
<path d="M94260 21680
L94277 21680
L94294 21690
L94302 21700
L94311 21719
L94320 21757
L94320 21804
L94311 21842
L94302 21861
L94294 21871
L94277 21880
L94260 21880
L94242 21871
L94234 21861
L94225 21842
L94217 21804
L94217 21757
L94225 21719
L94234 21700
L94242 21690
L94260 21680
" />
<path d="M94431 21680
L94448 21680
L94465 21690
L94474 21700
L94482 21719
L94491 21757
L94491 21804
L94482 21842
L94474 21861
L94465 21871
L94448 21880
L94431 21880
L94414 21871
L94405 21861
L94397 21842
L94388 21804
L94388 21757
L94397 21719
L94405 21700
L94414 21690
L94431 21680
" />
<path d="M94568 21747
L94568 21880
" />
<path d="M94568 21766
L94577 21757
L94594 21747
L94620 21747
L94637 21757
L94645 21776
L94645 21880
" />
<path d="M96111 14780
L96121 14788
L96130 14814
L96130 14831
L96121 14857
L96102 14874
L96083 14882
L96045 14891
L96016 14891
L95978 14882
L95959 14874
L95940 14857
L95930 14831
L95930 14814
L95940 14788
L95950 14780
" />
<path d="M95930 14720
L95930 14608
L96007 14668
L96007 14642
L96016 14625
L96026 14617
L96045 14608
L96092 14608
L96111 14617
L96121 14625
L96130 14642
L96130 14694
L96121 14711
L96111 14720
" />
<path d="M96780 14951
L96780 15054
" />
<path d="M96780 15002
L96580 15002
L96609 15020
L96628 15037
L96638 15054
" />
<path d="M96580 14840
L96580 14822
L96590 14805
L96600 14797
L96619 14788
L96657 14780
L96704 14780
L96742 14788
L96761 14797
L96771 14805
L96780 14822
L96780 14840
L96771 14857
L96761 14865
L96742 14874
L96704 14882
L96657 14882
L96619 14874
L96600 14865
L96590 14857
L96580 14840
" />
<path d="M96580 14668
L96580 14651
L96590 14634
L96600 14625
L96619 14617
L96657 14608
L96704 14608
L96742 14617
L96761 14625
L96771 14634
L96780 14651
L96780 14668
L96771 14685
L96761 14694
L96742 14702
L96704 14711
L96657 14711
L96619 14702
L96600 14694
L96590 14685
L96580 14668
" />
<path d="M96647 14531
L96780 14531
" />
<path d="M96666 14531
L96657 14522
L96647 14505
L96647 14479
L96657 14462
L96676 14454
L96780 14454
" />
<path d="M92161 17215
L92171 17224
L92180 17250
L92180 17267
L92171 17292
L92152 17310
L92133 17318
L92095 17327
L92066 17327
L92028 17318
L92009 17310
L91990 17292
L91980 17267
L91980 17250
L91990 17224
L92000 17215
" />
<path d="M92180 17044
L92180 17147
" />
<path d="M92180 17095
L91980 17095
L92009 17112
L92028 17130
L92038 17147
" />
<path d="M92047 16890
L92180 16890
" />
<path d="M91971 16932
L92114 16975
L92114 16864
" />
<path d="M92830 17301
L92830 17404
" />
<path d="M92830 17352
L92630 17352
L92659 17370
L92678 17387
L92688 17404
" />
<path d="M92630 17190
L92630 17172
L92640 17155
L92650 17147
L92669 17138
L92707 17130
L92754 17130
L92792 17138
L92811 17147
L92821 17155
L92830 17172
L92830 17190
L92821 17207
L92811 17215
L92792 17224
L92754 17232
L92707 17232
L92669 17224
L92650 17215
L92640 17207
L92630 17190
" />
<path d="M92630 17018
L92630 17001
L92640 16984
L92650 16975
L92669 16967
L92707 16958
L92754 16958
L92792 16967
L92811 16975
L92821 16984
L92830 17001
L92830 17018
L92821 17035
L92811 17044
L92792 17052
L92754 17061
L92707 17061
L92669 17052
L92650 17044
L92640 17035
L92630 17018
" />
<path d="M92697 16881
L92830 16881
" />
<path d="M92716 16881
L92707 16872
L92697 16855
L92697 16829
L92707 16812
L92726 16804
L92830 16804
" />
<path d="M96311 19365
L96321 19374
L96330 19400
L96330 19417
L96321 19442
L96302 19460
L96283 19468
L96245 19477
L96216 19477
L96178 19468
L96159 19460
L96140 19442
L96130 19417
L96130 19400
L96140 19374
L96150 19365
" />
<path d="M96330 19194
L96330 19297
" />
<path d="M96330 19245
L96130 19245
L96159 19262
L96178 19280
L96188 19297
" />
<path d="M96130 19134
L96130 19022
L96207 19082
L96207 19057
L96216 19040
L96226 19031
L96245 19022
L96292 19022
L96311 19031
L96321 19040
L96330 19057
L96330 19108
L96321 19125
L96311 19134
" />
<path d="M95680 19451
L95680 19554
" />
<path d="M95680 19502
L95480 19502
L95509 19520
L95528 19537
L95538 19554
" />
<path d="M95480 19340
L95480 19322
L95490 19305
L95500 19297
L95519 19288
L95557 19280
L95604 19280
L95642 19288
L95661 19297
L95671 19305
L95680 19322
L95680 19340
L95671 19357
L95661 19365
L95642 19374
L95604 19382
L95557 19382
L95519 19374
L95500 19365
L95490 19357
L95480 19340
" />
<path d="M95480 19168
L95480 19151
L95490 19134
L95500 19125
L95519 19117
L95557 19108
L95604 19108
L95642 19117
L95661 19125
L95671 19134
L95680 19151
L95680 19168
L95671 19185
L95661 19194
L95642 19202
L95604 19211
L95557 19211
L95519 19202
L95500 19194
L95490 19185
L95480 19168
" />
<path d="M95547 19031
L95680 19031
" />
<path d="M95566 19031
L95557 19022
L95547 19005
L95547 18979
L95557 18962
L95576 18954
L95680 18954
" />
<path d="M93534 26811
L93525 26821
L93500 26830
L93482 26830
L93457 26821
L93440 26802
L93431 26783
L93422 26745
L93422 26716
L93431 26678
L93440 26659
L93457 26640
L93482 26630
L93500 26630
L93525 26640
L93534 26650
" />
<path d="M93705 26830
L93602 26830
" />
<path d="M93654 26830
L93654 26630
L93637 26659
L93620 26678
L93602 26688
" />
<path d="M93774 26650
L93782 26640
L93800 26630
L93842 26630
L93860 26640
L93868 26650
L93877 26669
L93877 26688
L93868 26716
L93765 26830
L93877 26830
" />
<path d="M93448 26180
L93345 26180
" />
<path d="M93397 26180
L93397 25980
L93379 26009
L93362 26028
L93345 26038
" />
<path d="M93560 25980
L93577 25980
L93594 25990
L93602 26000
L93611 26019
L93620 26057
L93620 26104
L93611 26142
L93602 26161
L93594 26171
L93577 26180
L93560 26180
L93542 26171
L93534 26161
L93525 26142
L93517 26104
L93517 26057
L93525 26019
L93534 26000
L93542 25990
L93560 25980
" />
<path d="M93731 25980
L93748 25980
L93765 25990
L93774 26000
L93782 26019
L93791 26057
L93791 26104
L93782 26142
L93774 26161
L93765 26171
L93748 26180
L93731 26180
L93714 26171
L93705 26161
L93697 26142
L93688 26104
L93688 26057
L93697 26019
L93705 26000
L93714 25990
L93731 25980
" />
<path d="M93868 26047
L93868 26180
" />
<path d="M93868 26066
L93877 26057
L93894 26047
L93920 26047
L93937 26057
L93945 26076
L93945 26180
" />
<path d="M89311 24265
L89321 24274
L89330 24300
L89330 24317
L89321 24342
L89302 24360
L89283 24368
L89245 24377
L89216 24377
L89178 24368
L89159 24360
L89140 24342
L89130 24317
L89130 24300
L89140 24274
L89150 24265
" />
<path d="M89330 24094
L89330 24197
" />
<path d="M89330 24145
L89130 24145
L89159 24162
L89178 24180
L89188 24197
" />
<path d="M89330 23922
L89330 24025
" />
<path d="M89330 23974
L89130 23974
L89159 23991
L89178 24008
L89188 24025
" />
<path d="M88680 24351
L88680 24454
" />
<path d="M88680 24402
L88480 24402
L88509 24420
L88528 24437
L88538 24454
" />
<path d="M88480 24240
L88480 24222
L88490 24205
L88500 24197
L88519 24188
L88557 24180
L88604 24180
L88642 24188
L88661 24197
L88671 24205
L88680 24222
L88680 24240
L88671 24257
L88661 24265
L88642 24274
L88604 24282
L88557 24282
L88519 24274
L88500 24265
L88490 24257
L88480 24240
" />
<path d="M88480 24068
L88480 24051
L88490 24034
L88500 24025
L88519 24017
L88557 24008
L88604 24008
L88642 24017
L88661 24025
L88671 24034
L88680 24051
L88680 24068
L88671 24085
L88661 24094
L88642 24102
L88604 24111
L88557 24111
L88519 24102
L88500 24094
L88490 24085
L88480 24068
" />
<path d="M88547 23931
L88680 23931
" />
<path d="M88566 23931
L88557 23922
L88547 23905
L88547 23879
L88557 23862
L88576 23854
L88680 23854
" />
<path d="M85220 23311
L85211 23321
L85185 23330
L85168 23330
L85142 23321
L85125 23302
L85117 23283
L85108 23245
L85108 23216
L85117 23178
L85125 23159
L85142 23140
L85168 23130
L85185 23130
L85211 23140
L85220 23150
" />
<path d="M85305 23330
L85340 23330
L85357 23321
L85365 23311
L85382 23283
L85391 23245
L85391 23169
L85382 23150
L85374 23140
L85357 23130
L85322 23130
L85305 23140
L85297 23150
L85288 23169
L85288 23216
L85297 23235
L85305 23245
L85322 23254
L85357 23254
L85374 23245
L85382 23235
L85391 23216
" />
<path d="M85048 22680
L84945 22680
" />
<path d="M84997 22680
L84997 22480
L84979 22509
L84962 22528
L84945 22538
" />
<path d="M85160 22480
L85177 22480
L85194 22490
L85202 22500
L85211 22519
L85220 22557
L85220 22604
L85211 22642
L85202 22661
L85194 22671
L85177 22680
L85160 22680
L85142 22671
L85134 22661
L85125 22642
L85117 22604
L85117 22557
L85125 22519
L85134 22500
L85142 22490
L85160 22480
" />
<path d="M85331 22480
L85348 22480
L85365 22490
L85374 22500
L85382 22519
L85391 22557
L85391 22604
L85382 22642
L85374 22661
L85365 22671
L85348 22680
L85331 22680
L85314 22671
L85305 22661
L85297 22642
L85288 22604
L85288 22557
L85297 22519
L85305 22500
L85314 22490
L85331 22480
" />
<path d="M85468 22547
L85468 22680
" />
<path d="M85468 22566
L85477 22557
L85494 22547
L85520 22547
L85537 22557
L85545 22576
L85545 22680
" />
<path d="M92111 14330
L92121 14338
L92130 14364
L92130 14381
L92121 14407
L92102 14424
L92083 14432
L92045 14441
L92016 14441
L91978 14432
L91959 14424
L91940 14407
L91930 14381
L91930 14364
L91940 14338
L91950 14330
" />
<path d="M91930 14175
L91930 14210
L91940 14227
L91950 14235
L91978 14252
L92016 14261
L92092 14261
L92111 14252
L92121 14244
L92130 14227
L92130 14192
L92121 14175
L92111 14167
L92092 14158
L92045 14158
L92026 14167
L92016 14175
L92007 14192
L92007 14227
L92016 14244
L92026 14252
L92045 14261
" />
<path d="M92780 14501
L92780 14604
" />
<path d="M92780 14552
L92580 14552
L92609 14570
L92628 14587
L92638 14604
" />
<path d="M92580 14390
L92580 14372
L92590 14355
L92600 14347
L92619 14338
L92657 14330
L92704 14330
L92742 14338
L92761 14347
L92771 14355
L92780 14372
L92780 14390
L92771 14407
L92761 14415
L92742 14424
L92704 14432
L92657 14432
L92619 14424
L92600 14415
L92590 14407
L92580 14390
" />
<path d="M92580 14218
L92580 14201
L92590 14184
L92600 14175
L92619 14167
L92657 14158
L92704 14158
L92742 14167
L92761 14175
L92771 14184
L92780 14201
L92780 14218
L92771 14235
L92761 14244
L92742 14252
L92704 14261
L92657 14261
L92619 14252
L92600 14244
L92590 14235
L92580 14218
" />
<path d="M92647 14081
L92780 14081
" />
<path d="M92666 14081
L92657 14072
L92647 14055
L92647 14029
L92657 14012
L92676 14004
L92780 14004
" />
</g>
<g style="fill:#000000; fill-opacity:0.0; 
stroke:#000000; stroke-width:120; stroke-opacity:1; 
stroke-linecap:round; stroke-linejoin:round;">
<path d="M85392 25092
L85392 25578
L85421 25635
L85450 25664
L85507 25692
L85621 25692
L85678 25664
L85707 25635
L85735 25578
L85735 25092
" />
<path d="M85992 25150
L86021 25121
L86078 25092
L86221 25092
L86278 25121
L86307 25150
L86335 25207
L86335 25264
L86307 25350
L85964 25692
L86335 25692
" />
<path d="M84549 25692
L84264 25692
L84264 25092
" />
<path d="M84749 25692
L84749 25092
L84949 25521
L85149 25092
L85149 25692
" />
<path d="M85749 25692
L85407 25692
" />
<path d="M85578 25692
L85578 25092
L85521 25178
L85464 25235
L85407 25264
" />
<path d="M86321 25692
L85978 25692
" />
<path d="M86149 25692
L86149 25092
L86092 25178
L86035 25235
L85978 25264
" />
<path d="M86892 25692
L86550 25692
" />
<path d="M86721 25692
L86721 25092
L86664 25178
L86607 25235
L86550 25264
" />
<path d="M87092 25092
L87492 25092
L87235 25692
" />
</g>
<g style="fill:#000000; fill-opacity:0.0; 
stroke:#000000; stroke-width:50; stroke-opacity:1; 
stroke-linecap:round; stroke-linejoin:round;">
<path d="M90671 27371
L90671 27614
L90685 27642
L90700 27657
L90728 27671
L90785 27671
L90814 27657
L90828 27642
L90842 27614
L90842 27371
" />
<path d="M91128 27371
L90985 27371
L90971 27514
L90985 27500
L91014 27485
L91085 27485
L91114 27500
L91128 27514
L91142 27542
L91142 27614
L91128 27642
L91114 27657
L91085 27671
L91014 27671
L90985 27657
L90971 27642
" />
<path d="M89535 26771
L89735 26771
L89607 27071
" />
<path d="M89978 26871
L89978 27071
" />
<path d="M89907 26757
L89835 26971
L90021 26971
" />
<path d="M90278 27071
L90135 27071
L90135 26771
" />
<path d="M90335 26771
L90435 27071
L90535 26771
" />
<path d="M90807 27042
L90792 27057
L90750 27071
L90721 27071
L90678 27057
L90650 27028
L90635 27000
L90621 26942
L90621 26900
L90635 26842
L90650 26814
L90678 26785
L90721 26771
L90750 26771
L90792 26785
L90807 26800
" />
<path d="M91107 27042
L91092 27057
L91050 27071
L91021 27071
L90978 27057
L90950 27028
L90935 27000
L90921 26942
L90921 26900
L90935 26842
L90950 26814
L90978 26785
L91021 26771
L91050 26771
L91092 26785
L91107 26800
" />
<path d="M91207 26771
L91392 26771
L91292 26885
L91335 26885
L91364 26900
L91378 26914
L91392 26942
L91392 27014
L91378 27042
L91364 27057
L91335 27071
L91250 27071
L91221 27057
L91207 27042
" />
<path d="M91507 26800
L91521 26785
L91550 26771
L91621 26771
L91650 26785
L91664 26800
L91678 26828
L91678 26857
L91664 26900
L91492 27071
L91678 27071
" />
<path d="M91935 26871
L91935 27071
" />
<path d="M91864 26757
L91792 26971
L91978 26971
" />
<path d="M92235 26771
L92092 26771
L92078 26914
L92092 26900
L92121 26885
L92192 26885
L92221 26900
L92235 26914
L92249 26942
L92249 27014
L92235 27042
L92221 27057
L92192 27071
L92121 27071
L92092 27057
L92078 27042
" />
<path d="M97371 21928
L97614 21928
L97642 21914
L97657 21900
L97671 21871
L97671 21814
L97657 21785
L97642 21771
L97614 21757
L97371 21757
" />
<path d="M97371 21485
L97371 21542
L97385 21571
L97400 21585
L97442 21614
L97500 21628
L97614 21628
L97642 21614
L97657 21600
L97671 21571
L97671 21514
L97657 21485
L97642 21471
L97614 21457
L97542 21457
L97514 21471
L97500 21485
L97485 21514
L97485 21571
L97500 21600
L97514 21614
L97542 21628
" />
<path d="M96771 23064
L96771 22864
L97071 22992
" />
<path d="M96871 22621
L97071 22621
" />
<path d="M96757 22692
L96971 22764
L96971 22578
" />
<path d="M97071 22321
L97071 22464
L96771 22464
" />
<path d="M96771 22264
L97071 22164
L96771 22064
" />
<path d="M97042 21792
L97057 21807
L97071 21850
L97071 21878
L97057 21921
L97028 21950
L97000 21964
L96942 21978
L96900 21978
L96842 21964
L96814 21950
L96785 21921
L96771 21878
L96771 21850
L96785 21807
L96800 21792
" />
<path d="M97042 21492
L97057 21507
L97071 21550
L97071 21578
L97057 21621
L97028 21650
L97000 21664
L96942 21678
L96900 21678
L96842 21664
L96814 21650
L96785 21621
L96771 21578
L96771 21550
L96785 21507
L96800 21492
" />
<path d="M96771 21392
L96771 21207
L96885 21307
L96885 21264
L96900 21235
L96914 21221
L96942 21207
L97014 21207
L97042 21221
L97057 21235
L97071 21264
L97071 21350
L97057 21378
L97042 21392
" />
<path d="M96800 21092
L96785 21078
L96771 21050
L96771 20978
L96785 20950
L96800 20935
L96828 20921
L96857 20921
L96900 20935
L97071 21107
L97071 20921
" />
<path d="M96871 20664
L97071 20664
" />
<path d="M96757 20735
L96971 20807
L96971 20621
" />
<path d="M96771 20364
L96771 20507
L96914 20521
L96900 20507
L96885 20478
L96885 20407
L96900 20378
L96914 20364
L96942 20350
L97014 20350
L97042 20364
L97057 20378
L97071 20407
L97071 20478
L97057 20507
L97042 20521
" />
</g>
<g style="fill:#000000; fill-opacity:0.0; 
stroke:#000000; stroke-width:107; stroke-opacity:1; 
stroke-linecap:round; stroke-linejoin:round;">
<path d="M104726 12365
L104043 12365
L104043 12202
L104075 12162
L104108 12141
L104173 12121
L104271 12121
L104336 12141
L104368 12162
L104401 12202
L104401 12365
" />
<path d="M104108 11958
L104075 11937
L104043 11897
L104043 11795
L104075 11754
L104108 11734
L104173 11713
L104238 11713
L104336 11734
L104726 11978
L104726 11713
" />
<path d="M104726 16965
L104043 16965
L104043 16802
L104075 16762
L104108 16741
L104173 16721
L104271 16721
L104336 16741
L104368 16762
L104401 16802
L104401 16965
" />
<path d="M104043 16578
L104043 16313
L104303 16456
L104303 16395
L104336 16354
L104368 16334
L104433 16313
L104596 16313
L104661 16334
L104693 16354
L104726 16395
L104726 16517
L104693 16558
L104661 16578
" />
<path d="M104726 21615
L104043 21615
L104043 21452
L104075 21412
L104108 21391
L104173 21371
L104271 21371
L104336 21391
L104368 21412
L104401 21452
L104401 21615
" />
<path d="M104271 21004
L104726 21004
" />
<path d="M104010 21106
L104498 21208
L104498 20943
" />
<path d="M104726 26215
L104043 26215
L104043 26052
L104075 26012
L104108 25991
L104173 25971
L104271 25971
L104336 25991
L104368 26012
L104401 26052
L104401 26215
" />
<path d="M104043 25584
L104043 25787
L104368 25808
L104336 25787
L104303 25747
L104303 25645
L104336 25604
L104368 25584
L104433 25563
L104596 25563
L104661 25584
L104693 25604
L104726 25645
L104726 25747
L104693 25787
L104661 25808
" />
</g>
<g style="fill:#000000; fill-opacity:0.0; 
stroke:#000000; stroke-width:120; stroke-opacity:1; 
stroke-linecap:round; stroke-linejoin:round;">
<path d="M98192 28350
L98621 28350
L98707 28378
L98764 28435
L98792 28521
L98792 28578
" />
<path d="M98192 28121
L98192 27750
L98421 27950
L98421 27864
L98450 27807
L98478 27778
L98535 27750
L98678 27750
L98735 27778
L98764 27807
L98792 27864
L98792 28035
L98764 28092
L98735 28121
" />
<path d="M101514 28992
L101542 28907
L101542 28764
L101514 28707
L101485 28678
L101428 28650
L101371 28650
L101314 28678
L101285 28707
L101257 28764
L101228 28878
L101200 28935
L101171 28964
L101114 28992
L101057 28992
L101000 28964
L100971 28935
L100942 28878
L100942 28735
L100971 28650
" />
<path d="M101542 28392
L100942 28392
" />
<path d="M101542 27821
L101542 28107
L100942 28107
" />
<path d="M101542 27307
L101542 27650
" />
<path d="M101542 27478
L100942 27478
L101028 27535
L101085 27592
L101114 27650
" />
<path d="M98142 13850
L98571 13850
L98657 13878
L98714 13935
L98742 14021
L98742 14078
" />
<path d="M98142 13621
L98142 13250
L98371 13450
L98371 13364
L98400 13307
L98428 13278
L98485 13250
L98628 13250
L98685 13278
L98714 13307
L98742 13364
L98742 13535
L98714 13592
L98685 13621
" />
<path d="M101464 14492
L101492 14407
L101492 14264
L101464 14207
L101435 14178
L101378 14150
L101321 14150
L101264 14178
L101235 14207
L101207 14264
L101178 14378
L101150 14435
L101121 14464
L101064 14492
L101007 14492
L100950 14464
L100921 14435
L100892 14378
L100892 14235
L100921 14150
" />
<path d="M101492 13892
L100892 13892
" />
<path d="M101492 13321
L101492 13607
L100892 13607
" />
<path d="M101492 12807
L101492 13150
" />
<path d="M101492 12978
L100892 12978
L100978 13035
L101035 13092
L101064 13150
" />
<path d="M81192 16050
L81621 16050
L81707 16078
L81764 16135
L81792 16221
L81792 16278
" />
<path d="M81192 15821
L81192 15450
L81421 15650
L81421 15564
L81450 15507
L81478 15478
L81535 15450
L81678 15450
L81735 15478
L81764 15507
L81792 15564
L81792 15735
L81764 15792
L81735 15821
" />
<path d="M84514 16692
L84542 16607
L84542 16464
L84514 16407
L84485 16378
L84428 16350
L84371 16350
L84314 16378
L84285 16407
L84257 16464
L84228 16578
L84200 16635
L84171 16664
L84114 16692
L84057 16692
L84000 16664
L83971 16635
L83942 16578
L83942 16435
L83971 16350
" />
<path d="M84542 16092
L83942 16092
" />
<path d="M84542 15521
L84542 15807
L83942 15807
" />
<path d="M84542 15007
L84542 15350
" />
<path d="M84542 15178
L83942 15178
L84028 15235
L84085 15292
L84114 15350
" />
<path d="M81192 25800
L81621 25800
L81707 25828
L81764 25885
L81792 25971
L81792 26028
" />
<path d="M81192 25571
L81192 25200
L81421 25400
L81421 25314
L81450 25257
L81478 25228
L81535 25200
L81678 25200
L81735 25228
L81764 25257
L81792 25314
L81792 25485
L81764 25542
L81735 25571
" />
<path d="M84514 26442
L84542 26357
L84542 26214
L84514 26157
L84485 26128
L84428 26100
L84371 26100
L84314 26128
L84285 26157
L84257 26214
L84228 26328
L84200 26385
L84171 26414
L84114 26442
L84057 26442
L84000 26414
L83971 26385
L83942 26328
L83942 26185
L83971 26100
" />
<path d="M84542 25842
L83942 25842
" />
<path d="M84542 25271
L84542 25557
L83942 25557
" />
<path d="M84542 24757
L84542 25100
" />
<path d="M84542 24928
L83942 24928
L84028 24985
L84085 25042
L84114 25100
" />
<path d="M83742 15135
L84342 14735
" />
<path d="M83742 14735
L84342 15135
" />
<path d="M84342 14192
L84342 14535
" />
<path d="M84342 14364
L83742 14364
L83828 14421
L83885 14478
L83914 14535
" />
<path d="M87342 15621
L87342 15964
" />
<path d="M87342 15792
L86742 15792
L86828 15850
L86885 15907
L86914 15964
" />
<path d="M86800 15392
L86771 15364
L86742 15307
L86742 15164
L86771 15107
L86800 15078
L86857 15049
L86914 15049
L87000 15078
L87342 15421
L87342 15049
" />
<path d="M87342 14792
L86742 14792
L87171 14592
L86742 14392
L87342 14392
" />
<path d="M87342 14107
L86742 14107
" />
<path d="M87342 13849
L87028 13849
L86971 13878
L86942 13935
L86942 14021
L86971 14078
L87000 14107
" />
<path d="M86942 13621
L86942 13307
L87342 13621
L87342 13307
" />
</g>
<g style="fill:#000000; fill-opacity:0.0; 
stroke:#000000; stroke-width:47; stroke-opacity:1; 
stroke-linecap:round; stroke-linejoin:round;">
<path d="M92677 14770
L92667 14780
L92639 14789
L92620 14789
L92592 14780
L92573 14761
L92564 14742
L92555 14705
L92555 14677
L92564 14639
L92573 14620
L92592 14602
L92620 14592
L92639 14592
L92667 14602
L92677 14611
" />
<path d="M92846 14658
L92846 14789
" />
<path d="M92799 14583
L92752 14724
L92874 14724
" />
</g>
<g style="fill:#000000; fill-opacity:0.0; 
stroke:#000000; stroke-width:50; stroke-opacity:1; 
stroke-linecap:round; stroke-linejoin:round;">
<path d="M87700 53600
L89700 53600
" />
<path d="M87700 55300
L89700 55300
" />
<path d="M87700 55550
L87700 53350
" />
<path d="M87700 53350
L89700 53350
" />
<path d="M89700 53350
L89700 55550
" />
<path d="M89700 55550
L87700 55550
" />
</g>
<g style="fill:#000000; fill-opacity:0.0; 
stroke:#000000; stroke-width:26; stroke-opacity:1; 
stroke-linecap:round; stroke-linejoin:round;">
<path d="M100473 50273
L100827 50273
" />
<path d="M100827 50273
L100827 50116
" />
<path d="M100473 50116
L100827 50116
" />
<path d="M100473 50273
L100473 50116
" />
<path d="M100473 50784
L100827 50784
" />
<path d="M100827 50784
L100827 50627
" />
<path d="M100473 50627
L100827 50627
" />
<path d="M100473 50784
L100473 50627
" />
<path d="M100473 50450
L100532 50450
" />
<path d="M100532 50450
L100532 50332
" />
<path d="M100473 50332
L100532 50332
" />
<path d="M100473 50450
L100473 50332
" />
<path d="M100768 50450
L100827 50450
" />
<path d="M100827 50450
L100827 50332
" />
<path d="M100768 50332
L100827 50332
" />
<path d="M100768 50450
L100768 50332
" />
<path d="M100591 50450
L100709 50450
" />
<path d="M100709 50450
L100709 50332
" />
<path d="M100591 50332
L100709 50332
" />
<path d="M100591 50450
L100591 50332
" />
</g>
<g style="fill:#000000; fill-opacity:0.0; 
stroke:#000000; stroke-width:40; stroke-opacity:1; 
stroke-linecap:round; stroke-linejoin:round;">
<path d="M100493 50273
L100493 50627
" />
<path d="M100807 50273
L100807 50627
" />
</g>
<g style="fill:#000000; fill-opacity:0.0; 
stroke:#000000; stroke-width:26; stroke-opacity:1; 
stroke-linecap:round; stroke-linejoin:round;">
<path d="M100473 54873
L100827 54873
" />
<path d="M100827 54873
L100827 54716
" />
<path d="M100473 54716
L100827 54716
" />
<path d="M100473 54873
L100473 54716
" />
<path d="M100473 55384
L100827 55384
" />
<path d="M100827 55384
L100827 55227
" />
<path d="M100473 55227
L100827 55227
" />
<path d="M100473 55384
L100473 55227
" />
<path d="M100473 55050
L100532 55050
" />
<path d="M100532 55050
L100532 54932
" />
<path d="M100473 54932
L100532 54932
" />
<path d="M100473 55050
L100473 54932
" />
<path d="M100768 55050
L100827 55050
" />
<path d="M100827 55050
L100827 54932
" />
<path d="M100768 54932
L100827 54932
" />
<path d="M100768 55050
L100768 54932
" />
<path d="M100591 55050
L100709 55050
" />
<path d="M100709 55050
L100709 54932
" />
<path d="M100591 54932
L100709 54932
" />
<path d="M100591 55050
L100591 54932
" />
</g>
<g style="fill:#000000; fill-opacity:0.0; 
stroke:#000000; stroke-width:40; stroke-opacity:1; 
stroke-linecap:round; stroke-linejoin:round;">
<path d="M100493 54873
L100493 55227
" />
<path d="M100807 54873
L100807 55227
" />
</g>
<g style="fill:#000000; fill-opacity:0.0; 
stroke:#000000; stroke-width:26; stroke-opacity:1; 
stroke-linecap:round; stroke-linejoin:round;">
<path d="M100473 59523
L100827 59523
" />
<path d="M100827 59523
L100827 59366
" />
<path d="M100473 59366
L100827 59366
" />
<path d="M100473 59523
L100473 59366
" />
<path d="M100473 60034
L100827 60034
" />
<path d="M100827 60034
L100827 59877
" />
<path d="M100473 59877
L100827 59877
" />
<path d="M100473 60034
L100473 59877
" />
<path d="M100473 59700
L100532 59700
" />
<path d="M100532 59700
L100532 59582
" />
<path d="M100473 59582
L100532 59582
" />
<path d="M100473 59700
L100473 59582
" />
<path d="M100768 59700
L100827 59700
" />
<path d="M100827 59700
L100827 59582
" />
<path d="M100768 59582
L100827 59582
" />
<path d="M100768 59700
L100768 59582
" />
<path d="M100591 59700
L100709 59700
" />
<path d="M100709 59700
L100709 59582
" />
<path d="M100591 59582
L100709 59582
" />
<path d="M100591 59700
L100591 59582
" />
</g>
<g style="fill:#000000; fill-opacity:0.0; 
stroke:#000000; stroke-width:40; stroke-opacity:1; 
stroke-linecap:round; stroke-linejoin:round;">
<path d="M100493 59523
L100493 59877
" />
<path d="M100807 59523
L100807 59877
" />
</g>
<g style="fill:#000000; fill-opacity:0.0; 
stroke:#000000; stroke-width:26; stroke-opacity:1; 
stroke-linecap:round; stroke-linejoin:round;">
<path d="M100473 64423
L100827 64423
" />
<path d="M100827 64423
L100827 64266
" />
<path d="M100473 64266
L100827 64266
" />
<path d="M100473 64423
L100473 64266
" />
<path d="M100473 64934
L100827 64934
" />
<path d="M100827 64934
L100827 64777
" />
<path d="M100473 64777
L100827 64777
" />
<path d="M100473 64934
L100473 64777
" />
<path d="M100473 64600
L100532 64600
" />
<path d="M100532 64600
L100532 64482
" />
<path d="M100473 64482
L100532 64482
" />
<path d="M100473 64600
L100473 64482
" />
<path d="M100768 64600
L100827 64600
" />
<path d="M100827 64600
L100827 64482
" />
<path d="M100768 64482
L100827 64482
" />
<path d="M100768 64600
L100768 64482
" />
<path d="M100591 64600
L100709 64600
" />
<path d="M100709 64600
L100709 64482
" />
<path d="M100591 64482
L100709 64482
" />
<path d="M100591 64600
L100591 64482
" />
</g>
<g style="fill:#000000; fill-opacity:0.0; 
stroke:#000000; stroke-width:40; stroke-opacity:1; 
stroke-linecap:round; stroke-linejoin:round;">
<path d="M100493 64423
L100493 64777
" />
<path d="M100807 64423
L100807 64777
" />
</g>
<g style="fill:#000000; fill-opacity:0.0; 
stroke:#000000; stroke-width:26; stroke-opacity:1; 
stroke-linecap:round; stroke-linejoin:round;">
<path d="M88927 63423
L88927 63777
" />
<path d="M88927 63777
L89084 63777
" />
<path d="M89084 63423
L89084 63777
" />
<path d="M88927 63423
L89084 63423
" />
<path d="M88416 63423
L88416 63777
" />
<path d="M88416 63777
L88573 63777
" />
<path d="M88573 63423
L88573 63777
" />
<path d="M88416 63423
L88573 63423
" />
<path d="M88750 63423
L88750 63482
" />
<path d="M88750 63482
L88868 63482
" />
<path d="M88868 63423
L88868 63482
" />
<path d="M88750 63423
L88868 63423
" />
<path d="M88750 63718
L88750 63777
" />
<path d="M88750 63777
L88868 63777
" />
<path d="M88868 63718
L88868 63777
" />
<path d="M88750 63718
L88868 63718
" />
<path d="M88750 63541
L88750 63659
" />
<path d="M88750 63659
L88868 63659
" />
<path d="M88868 63541
L88868 63659
" />
<path d="M88750 63541
L88868 63541
" />
</g>
<g style="fill:#000000; fill-opacity:0.0; 
stroke:#000000; stroke-width:40; stroke-opacity:1; 
stroke-linecap:round; stroke-linejoin:round;">
<path d="M88927 63443
L88573 63443
" />
<path d="M88927 63757
L88573 63757
" />
</g>
<g style="fill:#000000; fill-opacity:0.0; 
stroke:#000000; stroke-width:50; stroke-opacity:1; 
stroke-linecap:round; stroke-linejoin:round;">
<path d="M90200 48900
L89300 48900
" />
<path d="M89300 48900
L89300 48400
" />
<path d="M89300 48400
L90200 48400
" />
<path d="M90200 48400
L90200 48900
" />
<path d="M98650 57450
L97750 57450
" />
<path d="M97750 57450
L97750 56950
" />
<path d="M97750 56950
L98650 56950
" />
<path d="M98650 56950
L98650 57450
" />
<path d="M100400 48600
L100400 47700
" />
<path d="M100400 47700
L100900 47700
" />
<path d="M100900 47700
L100900 48600
" />
<path d="M100900 48600
L100400 48600
" />
<path d="M100300 53400
L100300 52500
" />
<path d="M100300 52500
L100800 52500
" />
<path d="M100800 52500
L100800 53400
" />
<path d="M100800 53400
L100300 53400
" />
<path d="M100400 58100
L100400 57200
" />
<path d="M100400 57200
L100900 57200
" />
<path d="M100900 57200
L100900 58100
" />
<path d="M100900 58100
L100400 58100
" />
<path d="M100400 62850
L100400 61950
" />
<path d="M100400 61950
L100900 61950
" />
<path d="M100900 61950
L100900 62850
" />
<path d="M100900 62850
L100400 62850
" />
<path d="M89650 63350
L90550 63350
" />
<path d="M90550 63350
L90550 63850
" />
<path d="M90550 63850
L89650 63850
" />
<path d="M89650 63850
L89650 63350
" />
<path d="M91690 54170
L90710 54170
" />
<path d="M90710 55430
L91690 55430
" />
<path d="M91690 55250
L90710 55250
" />
<path d="M90710 54350
L91690 54350
" />
<path d="M90710 54170
L90710 55430
" />
<path d="M91690 55430
L91690 54170
" />
<path d="M90760 57730
L91740 57730
" />
<path d="M91740 56470
L90760 56470
" />
<path d="M90760 56650
L91740 56650
" />
<path d="M91740 57550
L90760 57550
" />
<path d="M91740 57730
L91740 56470
" />
<path d="M90760 56470
L90760 57730
" />
</g>
<g style="fill:#000000; fill-opacity:0.0; 
stroke:#000000; stroke-width:47; stroke-opacity:1; 
stroke-linecap:round; stroke-linejoin:round;">
<path d="M87253 64594
L86978 64594
" />
<path d="M87647 64594
L87922 64594
" />
<path d="M87253 65106
L86978 65106
" />
<path d="M87922 65106
L87647 65106
" />
<path d="M86978 65100
L86978 64600
" />
<path d="M87922 64600
L87922 65100
" />
<path d="M85497 60306
L85772 60306
" />
<path d="M85103 60306
L84828 60306
" />
<path d="M85497 59794
L85772 59794
" />
<path d="M84828 59794
L85103 59794
" />
<path d="M85772 59800
L85772 60300
" />
<path d="M84828 60300
L84828 59800
" />
</g>
<g style="fill:#000000; fill-opacity:0.0; 
stroke:#000000; stroke-width:50; stroke-opacity:1; 
stroke-linecap:round; stroke-linejoin:round;">
<path d="M89650 58350
L87650 58350
" />
<path d="M89650 56650
L87650 56650
" />
<path d="M89650 56400
L89650 58600
" />
<path d="M89650 58600
L87650 58600
" />
<path d="M87650 58600
L87650 56400
" />
<path d="M87650 56400
L89650 56400
" />
<path d="M78000 18350
L78000 23150
" />
<path d="M78000 23150
L84700 23150
" />
<path d="M84700 23150
L84700 18350
" />
<path d="M84700 18350
L78000 18350
" />
</g>
<g style="fill:#000000; fill-opacity:0.0; 
stroke:#000000; stroke-width:80; stroke-opacity:1; 
stroke-linecap:round; stroke-linejoin:round;">
<circle cx="88232" cy="19132" r="150" /> 
<path d="M91832 22732
L91832 18732
" />
<path d="M91832 18732
L88082 18732
" />
<path d="M88082 18732
L87832 18982
" />
<path d="M87832 18982
L87832 22732
" />
<path d="M87832 22732
L91832 22732
" />
</g>
<g style="fill:#000000; fill-opacity:0.0; 
stroke:#000000; stroke-width:50; stroke-opacity:1; 
stroke-linecap:round; stroke-linejoin:round;">
<path d="M88050 14270
L88050 15830
" />
<path d="M88050 15830
L89950 15830
" />
<path d="M89950 15830
L89950 14270
" />
<path d="M89950 14270
L88050 14270
" />
<path d="M88250 14270
L88250 13840
" />
<path d="M88750 14270
L88750 13840
" />
<path d="M89250 14270
L89250 13840
" />
<path d="M89750 13840
L89750 14270
" />
<path d="M89750 15830
L89750 16260
" />
<path d="M89250 16260
L89250 15830
" />
<path d="M88750 16260
L88750 15830
" />
<path d="M88250 16260
L88250 15830
" />
<circle cx="88340" cy="15540" r="186.011" /> 
<path d="M96930 15350
L95370 15350
" />
<path d="M95370 15350
L95370 18750
" />
<path d="M95370 18750
L96930 18750
" />
<path d="M96930 18750
L96930 15350
" />
<path d="M96930 16050
L97360 16050
" />
<path d="M96930 16550
L97360 16550
" />
<path d="M96930 17050
L97360 17050
" />
<path d="M96930 15550
L97360 15550
" />
<path d="M97360 17550
L96930 17550
" />
<path d="M97360 18050
L96930 18050
" />
<path d="M97360 18550
L96930 18550
" />
<path d="M95370 18550
L94940 18550
" />
<path d="M95370 18050
L94940 18050
" />
<path d="M95370 15550
L94940 15550
" />
<path d="M94940 16050
L95370 16050
" />
<path d="M94940 17550
L95370 17550
" />
<path d="M94940 17050
L95370 17050
" />
<path d="M94940 16550
L95370 16550
" />
<circle cx="95660" cy="15640" r="186.011" /> 
<path d="M87875 14853
L87875 14575
" />
<path d="M87875 14575
L87325 14575
" />
<path d="M87325 14575
L87325 14853
" />
<path d="M87875 15525
L87875 15247
" />
<path d="M87875 15525
L87325 15525
" />
<path d="M87325 15525
L87325 15247
" />
<path d="M87753 16975
L87475 16975
" />
<path d="M87475 16975
L87475 17525
" />
<path d="M87475 17525
L87753 17525
" />
<path d="M88425 16975
L88147 16975
" />
<path d="M88425 16975
L88425 17525
" />
<path d="M88425 17525
L88147 17525
" />
<path d="M90947 16675
L91225 16675
" />
<path d="M91225 16675
L91225 16125
" />
<path d="M91225 16125
L90947 16125
" />
<path d="M90275 16675
L90553 16675
" />
<path d="M90275 16675
L90275 16125
" />
<path d="M90275 16125
L90553 16125
" />
<path d="M90625 14853
L90625 14575
" />
<path d="M90625 14575
L90075 14575
" />
<path d="M90075 14575
L90075 14853
" />
<path d="M90625 15525
L90625 15247
" />
<path d="M90625 15525
L90075 15525
" />
<path d="M90075 15525
L90075 15247
" />
<path d="M87375 24003
L87375 23725
" />
<path d="M87375 23725
L86825 23725
" />
<path d="M86825 23725
L86825 24003
" />
<path d="M87375 24675
L87375 24397
" />
<path d="M87375 24675
L86825 24675
" />
<path d="M86825 24675
L86825 24397
" />
<path d="M85475 18853
L85475 18575
" />
<path d="M85475 18575
L84925 18575
" />
<path d="M84925 18575
L84925 18853
" />
<path d="M85475 19525
L85475 19247
" />
<path d="M85475 19525
L84925 19525
" />
<path d="M84925 19525
L84925 19247
" />
</g>
<g style="fill:#000000; fill-opacity:0.0; 
stroke:#000000; stroke-width:47; stroke-opacity:1; 
stroke-linecap:round; stroke-linejoin:round;">
<path d="M89747 13256
L90022 13256
" />
<path d="M89353 13256
L89078 13256
" />
<path d="M89747 12744
L90022 12744
" />
<path d="M89078 12744
L89353 12744
" />
<path d="M90022 12750
L90022 13250
" />
<path d="M89078 13250
L89078 12750
" />
<path d="M85597 24456
L85872 24456
" />
<path d="M85203 24456
L84928 24456
" />
<path d="M85597 23944
L85872 23944
" />
<path d="M84928 23944
L85203 23944
" />
<path d="M85872 23950
L85872 24450
" />
<path d="M84928 24450
L84928 23950
" />
<path d="M86894 18497
L86894 18772
" />
<path d="M86894 18103
L86894 17828
" />
<path d="M87406 18497
L87406 18772
" />
<path d="M87406 17828
L87406 18103
" />
<path d="M87400 18772
L86900 18772
" />
<path d="M86900 17828
L87400 17828
" />
<path d="M94094 22647
L94094 22922
" />
<path d="M94094 22253
L94094 21978
" />
<path d="M94606 22647
L94606 22922
" />
<path d="M94606 21978
L94606 22253
" />
<path d="M94600 22922
L94100 22922
" />
<path d="M94100 21978
L94600 21978
" />
<path d="M95853 14494
L95578 14494
" />
<path d="M96247 14494
L96522 14494
" />
<path d="M95853 15006
L95578 15006
" />
<path d="M96522 15006
L96247 15006
" />
<path d="M95578 15000
L95578 14500
" />
<path d="M96522 14500
L96522 15000
" />
<path d="M91903 16844
L91628 16844
" />
<path d="M92297 16844
L92572 16844
" />
<path d="M91903 17356
L91628 17356
" />
<path d="M92572 17356
L92297 17356
" />
<path d="M91628 17350
L91628 16850
" />
<path d="M92572 16850
L92572 17350
" />
<path d="M96447 19506
L96722 19506
" />
<path d="M96053 19506
L95778 19506
" />
<path d="M96447 18994
L96722 18994
" />
<path d="M95778 18994
L96053 18994
" />
<path d="M96722 19000
L96722 19500
" />
<path d="M95778 19500
L95778 19000
" />
<path d="M93394 26947
L93394 27222
" />
<path d="M93394 26553
L93394 26278
" />
<path d="M93906 26947
L93906 27222
" />
<path d="M93906 26278
L93906 26553
" />
<path d="M93900 27222
L93400 27222
" />
<path d="M93400 26278
L93900 26278
" />
<path d="M89447 24406
L89722 24406
" />
<path d="M89053 24406
L88778 24406
" />
<path d="M89447 23894
L89722 23894
" />
<path d="M88778 23894
L89053 23894
" />
<path d="M89722 23900
L89722 24400
" />
<path d="M88778 24400
L88778 23900
" />
<path d="M84994 23447
L84994 23722
" />
<path d="M84994 23053
L84994 22778
" />
<path d="M85506 23447
L85506 23722
" />
<path d="M85506 22778
L85506 23053
" />
<path d="M85500 23722
L85000 23722
" />
<path d="M85000 22778
L85500 22778
" />
<path d="M91853 14044
L91578 14044
" />
<path d="M92247 14044
L92522 14044
" />
<path d="M91853 14556
L91578 14556
" />
<path d="M92522 14556
L92247 14556
" />
<path d="M91578 14550
L91578 14050
" />
<path d="M92522 14050
L92522 14550
" />
</g>
<g style="fill:#000000; fill-opacity:0.0; 
stroke:#000000; stroke-width:150; stroke-opacity:1; 
stroke-linecap:round; stroke-linejoin:round;">
<path d="M86350 28950
L86350 26450
" />
<path d="M86350 26450
L83850 26450
" />
<path d="M83850 26450
L83850 28950
" />
<path d="M86350 28950
L83850 28950
" />
</g>
<g style="fill:#000000; fill-opacity:0.0; 
stroke:#000000; stroke-width:60; stroke-opacity:1; 
stroke-linecap:round; stroke-linejoin:round;">
<path d="M92650 28350
L89150 28350
" />
<path d="M89150 28350
L89150 26950
" />
<path d="M89150 26950
L92650 26950
" />
<path d="M92650 26950
L92650 28350
" />
</g>
<g style="fill:#000000; fill-opacity:0.0; 
stroke:#000000; stroke-width:50; stroke-opacity:1; 
stroke-linecap:round; stroke-linejoin:round;">
<circle cx="92450" cy="27150" r="141.421" /> 
<path d="M92650 27900
L92350 27900
" />
<path d="M92350 27900
L92350 27400
" />
<path d="M92350 27400
L92650 27400
" />
</g>
<g style="fill:#000000; fill-opacity:0.0; 
stroke:#000000; stroke-width:60; stroke-opacity:1; 
stroke-linecap:round; stroke-linejoin:round;">
<path d="M98350 19950
L98350 23450
" />
<path d="M98350 23450
L96950 23450
" />
<path d="M96950 23450
L96950 19950
" />
<path d="M96950 19950
L98350 19950
" />
</g>
<g style="fill:#000000; fill-opacity:0.0; 
stroke:#000000; stroke-width:50; stroke-opacity:1; 
stroke-linecap:round; stroke-linejoin:round;">
<circle cx="97150" cy="20150" r="141.421" /> 
<path d="M97900 19950
L97900 20250
" />
<path d="M97900 20250
L97400 20250
" />
<path d="M97400 20250
L97400 19950
" />
</g>
<g style="fill:#000000; fill-opacity:0.0; 
stroke:#000000; stroke-width:200; stroke-opacity:1; 
stroke-linecap:round; stroke-linejoin:round;">
<path d="M101850 12550
L106650 12550
" />
<path d="M106050 13550
L106650 13550
" />
<path d="M106450 15550
L106650 15550
" />
<path d="M101850 15550
L106450 15550
" />
<path d="M101850 14550
L106650 14550
" />
<path d="M101850 13550
L106050 13550
" />
</g>
<g style="fill:#000000; fill-opacity:0.0; 
stroke:#000000; stroke-width:150; stroke-opacity:1; 
stroke-linecap:round; stroke-linejoin:round;">
<path d="M102450 12550
L106050 12550
" />
<path d="M101850 12550
L102250 12550
" />
<path d="M102250 16150
L102250 15750
" />
<path d="M103450 16150
L103450 15750
" />
<path d="M102250 16150
L107050 16150
" />
<path d="M102250 11950
L107050 11950
" />
<path d="M107050 11950
L107050 15950
" />
<path d="M107050 15950
L107050 16150
" />
<path d="M103450 12050
L103450 16000
" />
<path d="M102250 16000
L102250 12050
" />
</g>
<g style="fill:#000000; fill-opacity:0.0; 
stroke:#000000; stroke-width:200; stroke-opacity:1; 
stroke-linecap:round; stroke-linejoin:round;">
<path d="M101850 17150
L106650 17150
" />
<path d="M106050 18150
L106650 18150
" />
<path d="M106450 20150
L106650 20150
" />
<path d="M101850 20150
L106450 20150
" />
<path d="M101850 19150
L106650 19150
" />
<path d="M101850 18150
L106050 18150
" />
</g>
<g style="fill:#000000; fill-opacity:0.0; 
stroke:#000000; stroke-width:150; stroke-opacity:1; 
stroke-linecap:round; stroke-linejoin:round;">
<path d="M102450 17150
L106050 17150
" />
<path d="M101850 17150
L102250 17150
" />
<path d="M102250 20750
L102250 20350
" />
<path d="M103450 20750
L103450 20350
" />
<path d="M102250 20750
L107050 20750
" />
<path d="M102250 16550
L107050 16550
" />
<path d="M107050 16550
L107050 20550
" />
<path d="M107050 20550
L107050 20750
" />
<path d="M103450 16650
L103450 20600
" />
<path d="M102250 20600
L102250 16650
" />
</g>
<g style="fill:#000000; fill-opacity:0.0; 
stroke:#000000; stroke-width:200; stroke-opacity:1; 
stroke-linecap:round; stroke-linejoin:round;">
<path d="M101850 21800
L106650 21800
" />
<path d="M106050 22800
L106650 22800
" />
<path d="M106450 24800
L106650 24800
" />
<path d="M101850 24800
L106450 24800
" />
<path d="M101850 23800
L106650 23800
" />
<path d="M101850 22800
L106050 22800
" />
</g>
<g style="fill:#000000; fill-opacity:0.0; 
stroke:#000000; stroke-width:150; stroke-opacity:1; 
stroke-linecap:round; stroke-linejoin:round;">
<path d="M102450 21800
L106050 21800
" />
<path d="M101850 21800
L102250 21800
" />
<path d="M102250 25400
L102250 25000
" />
<path d="M103450 25400
L103450 25000
" />
<path d="M102250 25400
L107050 25400
" />
<path d="M102250 21200
L107050 21200
" />
<path d="M107050 21200
L107050 25200
" />
<path d="M107050 25200
L107050 25400
" />
<path d="M103450 21300
L103450 25250
" />
<path d="M102250 25250
L102250 21300
" />
</g>
<g style="fill:#000000; fill-opacity:0.0; 
stroke:#000000; stroke-width:200; stroke-opacity:1; 
stroke-linecap:round; stroke-linejoin:round;">
<path d="M101850 26400
L106650 26400
" />
<path d="M106050 27400
L106650 27400
" />
<path d="M106450 29400
L106650 29400
" />
<path d="M101850 29400
L106450 29400
" />
<path d="M101850 28400
L106650 28400
" />
<path d="M101850 27400
L106050 27400
" />
</g>
<g style="fill:#000000; fill-opacity:0.0; 
stroke:#000000; stroke-width:150; stroke-opacity:1; 
stroke-linecap:round; stroke-linejoin:round;">
<path d="M102450 26400
L106050 26400
" />
<path d="M101850 26400
L102250 26400
" />
<path d="M102250 30000
L102250 29600
" />
<path d="M103450 30000
L103450 29600
" />
<path d="M102250 30000
L107050 30000
" />
<path d="M102250 25800
L107050 25800
" />
<path d="M107050 25800
L107050 29800
" />
<path d="M107050 29800
L107050 30000
" />
<path d="M103450 25900
L103450 29850
" />
<path d="M102250 29850
L102250 25900
" />
</g>
<g style="fill:#000000; fill-opacity:0.0; 
stroke:#000000; stroke-width:125; stroke-opacity:1; 
stroke-linecap:round; stroke-linejoin:round;">
<path d="M86600 15900
L86600 13400
" />
<path d="M84600 15900
L84600 13400
" />
<path d="M85600 12400 A1000 1000 0.0 0 0 84600 13400 " />
<path d="M86600 13400 A1000 1000 0.0 0 0 85600 12400 " />
<path d="M84600 15900 A1000 1000 0.0 0 0 85600 16900 " />
<path d="M85600 16900 A1000 1000 0.0 0 0 86600 15900 " />
</g>
<g style="fill:#000000; fill-opacity:0.0; 
stroke:#000000; stroke-width:50; stroke-opacity:1; 
stroke-linecap:round; stroke-linejoin:round;">
<path d="M92050 15000
L92050 15800
" />
<path d="M93350 15000
L93350 15800
" />
<path d="M91800 15000
L91800 15800
" />
<path d="M91800 15800
L93600 15800
" />
<path d="M93600 15800
L93600 15000
" />
<path d="M93600 15000
L91800 15000
" />
</g>
<g style="fill:#000000; fill-opacity:0.0; 
stroke:#000000; stroke-width:39.3701; stroke-opacity:1; 
stroke-linecap:round; stroke-linejoin:round;">
</g>
<g style="fill:#000000; fill-opacity:1.0; 
stroke:#000000; stroke-width:39.3701; stroke-opacity:1; 
stroke-linecap:round; stroke-linejoin:round;">
<circle cx="83900" cy="21250" r="314.961" /> 
<circle cx="83900" cy="20250" r="314.961" /> 
<circle cx="83113" cy="20250" r="314.961" /> 
<circle cx="83113" cy="21250" r="314.961" /> 
<circle cx="82050" cy="23112" r="511.815" /> 
<circle cx="82050" cy="18388" r="511.815" /> 
<polyline style="fill-rule:evenodd;"
points="101076,15215
101823,15215
101823,15884
101076,15884
101076,15215
" /> 
<circle cx="101450" cy="14550" r="373.815" /> 
<circle cx="101450" cy="13550" r="373.815" /> 
<circle cx="101450" cy="12550" r="373.815" /> 
<polyline style="fill-rule:evenodd;"
points="101076,19815
101823,19815
101823,20484
101076,20484
101076,19815
" /> 
<circle cx="101450" cy="19150" r="373.815" /> 
<circle cx="101450" cy="18150" r="373.815" /> 
<circle cx="101450" cy="17150" r="373.815" /> 
<polyline style="fill-rule:evenodd;"
points="101076,24465
101823,24465
101823,25134
101076,25134
101076,24465
" /> 
<circle cx="101450" cy="23800" r="373.815" /> 
<circle cx="101450" cy="22800" r="373.815" /> 
<circle cx="101450" cy="21800" r="373.815" /> 
<polyline style="fill-rule:evenodd;"
points="101076,29065
101823,29065
101823,29734
101076,29734
101076,29065
" /> 
<circle cx="101450" cy="28400" r="373.815" /> 
<circle cx="101450" cy="27400" r="373.815" /> 
<circle cx="101450" cy="26400" r="373.815" /> 
<circle cx="98550" cy="28150" r="374.016" /> 
<circle cx="98500" cy="13650" r="374.016" /> 
<circle cx="81550" cy="15850" r="374.016" /> 
<circle cx="81550" cy="25600" r="374.016" /> 
<circle cx="85600" cy="15650" r="260.315" /> 
<circle cx="85600" cy="13650" r="260.315" /> 
</g> 
</svg>
