<?xml version="1.0" standalone="no"?>
 <!DOCTYPE svg PUBLIC "-//W3C//DTD SVG 1.1//EN" 
 "http://www.w3.org/Graphics/SVG/1.1/DTD/svg11.dtd"> 
<svg xmlns="http://www.w3.org/2000/svg" version="1.1" 
    width="29.7002cm" height="21.0007cm" viewBox="0 0 116930 82680 ">
<title>SVG Picture created as USB_TO_4UART_BOARD-B_SilkS.svg date 2015/05/16 23:26:14 </title>
  <desc>Picture generated by PCBNEW </desc>
<g style="fill:#000000; fill-opacity:1;stroke:#000000; stroke-opacity:1;
stroke-linecap:round; stroke-linejoin:round; "
 transform="translate(0 0) scale(1 1)">
</g>
<g style="fill:#000000; fill-opacity:0.0; 
stroke:#000000; stroke-width:98.4252; stroke-opacity:1; 
stroke-linecap:round; stroke-linejoin:round;">
<path d="M91256 40908
L91181 40908
L91143 40889
L91125 40870
L91087 40814
L91068 40739
L91068 40589
L91087 40551
L91106 40533
L91143 40514
L91218 40514
L91256 40533
L91275 40551
L91293 40589
L91293 40683
L91275 40720
L91256 40739
L91218 40758
L91143 40758
L91106 40739
L91087 40720
L91068 40683
" />
<path d="M91650 40908
L91462 40908
L91443 40720
L91462 40739
L91500 40758
L91593 40758
L91631 40739
L91650 40720
L91668 40683
L91668 40589
L91650 40551
L91631 40533
L91593 40514
L91500 40514
L91462 40533
L91443 40551
" />
<path d="M91856 40533
L91856 40514
L91837 40476
L91818 40458
" />
<path d="M92100 40908
L92137 40908
L92175 40889
L92193 40870
L92212 40833
L92231 40758
L92231 40664
L92212 40589
L92193 40551
L92175 40533
L92137 40514
L92100 40514
L92062 40533
L92043 40551
L92025 40589
L92006 40664
L92006 40758
L92025 40833
L92043 40870
L92062 40889
L92100 40908
" />
<path d="M92381 40870
L92400 40889
L92437 40908
L92531 40908
L92568 40889
L92587 40870
L92606 40833
L92606 40795
L92587 40739
L92362 40514
L92606 40514
" />
<path d="M92943 40776
L92943 40514
" />
<path d="M92849 40926
L92756 40645
L92999 40645
" />
<path d="M93449 40514
L93449 40776
" />
<path d="M93449 40739
L93468 40758
L93506 40776
L93562 40776
L93599 40758
L93618 40720
L93618 40514
" />
<path d="M93618 40720
L93637 40758
L93674 40776
L93731 40776
L93768 40758
L93787 40720
L93787 40514
" />
<path d="M93974 40514
L93974 40776
" />
<path d="M93974 40739
L93993 40758
L94031 40776
L94087 40776
L94124 40758
L94143 40720
L94143 40514
" />
<path d="M94143 40720
L94162 40758
L94199 40776
L94256 40776
L94293 40758
L94312 40720
L94312 40514
" />
<path d="M105499 40279
L79899 40279
" />
<path d="M105500 13880
L105499 41067
" />
<path d="M79900 13880
L79899 41067
" />
<path d="M79899 40279
L80343 40049
" />
<path d="M79899 40279
L80343 40510
" />
<path d="M105499 40279
L105056 40049
" />
<path d="M105499 40279
L105056 40510
" />
<path d="M73853 23036
L74115 23036
" />
<path d="M73703 22942
L73984 22848
L73984 23092
" />
<path d="M73721 23411
L73721 23336
L73740 23298
L73759 23280
L73815 23242
L73890 23223
L74040 23223
L74078 23242
L74096 23261
L74115 23298
L74115 23373
L74096 23411
L74078 23430
L74040 23448
L73946 23448
L73909 23430
L73890 23411
L73871 23373
L73871 23298
L73890 23261
L73909 23242
L73946 23223
" />
<path d="M74096 23636
L74115 23636
L74153 23617
L74171 23598
" />
<path d="M73853 23973
L74115 23973
" />
<path d="M73703 23880
L73984 23786
L73984 24030
" />
<path d="M73890 24236
L73871 24198
L73853 24180
L73815 24161
L73796 24161
L73759 24180
L73740 24198
L73721 24236
L73721 24311
L73740 24348
L73759 24367
L73796 24386
L73815 24386
L73853 24367
L73871 24348
L73890 24311
L73890 24236
L73909 24198
L73928 24180
L73965 24161
L74040 24161
L74078 24180
L74096 24198
L74115 24236
L74115 24311
L74096 24348
L74078 24367
L74040 24386
L73965 24386
L73928 24367
L73909 24348
L73890 24311
" />
<path d="M73759 24536
L73740 24554
L73721 24592
L73721 24686
L73740 24723
L73759 24742
L73796 24761
L73834 24761
L73890 24742
L74115 24517
L74115 24761
" />
<path d="M74115 25229
L73853 25229
" />
<path d="M73890 25229
L73871 25248
L73853 25286
L73853 25342
L73871 25379
L73909 25398
L74115 25398
" />
<path d="M73909 25398
L73871 25417
L73853 25454
L73853 25511
L73871 25548
L73909 25567
L74115 25567
" />
<path d="M74115 25754
L73853 25754
" />
<path d="M73890 25754
L73871 25773
L73853 25811
L73853 25867
L73871 25904
L73909 25923
L74115 25923
" />
<path d="M73909 25923
L73871 25942
L73853 25979
L73853 26036
L73871 26073
L73909 26092
L74115 26092
" />
<path d="M74350 15329
L74350 33629
" />
<path d="M105950 15330
L73562 15329
" />
<path d="M105950 33630
L73562 33629
" />
<path d="M74350 33629
L74119 33186
" />
<path d="M74350 33629
L74580 33186
" />
<path d="M74350 15329
L74119 15773
" />
<path d="M74350 15329
L74580 15773
" />
<path d="M74003 61036
L74265 61036
" />
<path d="M73853 60942
L74134 60848
L74134 61092
" />
<path d="M73871 61411
L73871 61336
L73890 61298
L73909 61280
L73965 61242
L74040 61223
L74190 61223
L74228 61242
L74246 61261
L74265 61298
L74265 61373
L74246 61411
L74228 61430
L74190 61448
L74096 61448
L74059 61430
L74040 61411
L74021 61373
L74021 61298
L74040 61261
L74059 61242
L74096 61223
" />
<path d="M74246 61636
L74265 61636
L74303 61617
L74321 61598
" />
<path d="M74003 61973
L74265 61973
" />
<path d="M73853 61880
L74134 61786
L74134 62030
" />
<path d="M74040 62236
L74021 62198
L74003 62180
L73965 62161
L73946 62161
L73909 62180
L73890 62198
L73871 62236
L73871 62311
L73890 62348
L73909 62367
L73946 62386
L73965 62386
L74003 62367
L74021 62348
L74040 62311
L74040 62236
L74059 62198
L74078 62180
L74115 62161
L74190 62161
L74228 62180
L74246 62198
L74265 62236
L74265 62311
L74246 62348
L74228 62367
L74190 62386
L74115 62386
L74078 62367
L74059 62348
L74040 62311
" />
<path d="M73909 62536
L73890 62554
L73871 62592
L73871 62686
L73890 62723
L73909 62742
L73946 62761
L73984 62761
L74040 62742
L74265 62517
L74265 62761
" />
<path d="M74265 63229
L74003 63229
" />
<path d="M74040 63229
L74021 63248
L74003 63286
L74003 63342
L74021 63379
L74059 63398
L74265 63398
" />
<path d="M74059 63398
L74021 63417
L74003 63454
L74003 63511
L74021 63548
L74059 63567
L74265 63567
" />
<path d="M74265 63754
L74003 63754
" />
<path d="M74040 63754
L74021 63773
L74003 63811
L74003 63867
L74021 63904
L74059 63923
L74265 63923
" />
<path d="M74059 63923
L74021 63942
L74003 63979
L74003 64036
L74021 64073
L74059 64092
L74265 64092
" />
<path d="M74500 71630
L74500 53330
" />
<path d="M106100 71630
L73712 71630
" />
<path d="M106100 53330
L73712 53330
" />
<path d="M74500 53330
L74269 53773
" />
<path d="M74500 53330
L74730 53773
" />
<path d="M74500 71630
L74269 71186
" />
<path d="M74500 71630
L74730 71186
" />
<path d="M91406 46520
L91331 46520
L91293 46501
L91275 46483
L91237 46426
L91218 46351
L91218 46201
L91237 46164
L91256 46145
L91293 46126
L91368 46126
L91406 46145
L91425 46164
L91443 46201
L91443 46295
L91425 46333
L91406 46351
L91368 46370
L91293 46370
L91256 46351
L91237 46333
L91218 46295
" />
<path d="M91800 46520
L91612 46520
L91593 46333
L91612 46351
L91650 46370
L91743 46370
L91781 46351
L91800 46333
L91818 46295
L91818 46201
L91800 46164
L91781 46145
L91743 46126
L91650 46126
L91612 46145
L91593 46164
" />
<path d="M92006 46145
L92006 46126
L91987 46089
L91968 46070
" />
<path d="M92250 46520
L92287 46520
L92325 46501
L92343 46483
L92362 46445
L92381 46370
L92381 46276
L92362 46201
L92343 46164
L92325 46145
L92287 46126
L92250 46126
L92212 46145
L92193 46164
L92175 46201
L92156 46276
L92156 46370
L92175 46445
L92193 46483
L92212 46501
L92250 46520
" />
<path d="M92531 46483
L92550 46501
L92587 46520
L92681 46520
L92718 46501
L92737 46483
L92756 46445
L92756 46408
L92737 46351
L92512 46126
L92756 46126
" />
<path d="M93093 46389
L93093 46126
" />
<path d="M92999 46539
L92906 46258
L93149 46258
" />
<path d="M93599 46126
L93599 46389
" />
<path d="M93599 46351
L93618 46370
L93656 46389
L93712 46389
L93749 46370
L93768 46333
L93768 46126
" />
<path d="M93768 46333
L93787 46370
L93824 46389
L93881 46389
L93918 46370
L93937 46333
L93937 46126
" />
<path d="M94124 46126
L94124 46389
" />
<path d="M94124 46351
L94143 46370
L94181 46389
L94237 46389
L94274 46370
L94293 46333
L94293 46126
" />
<path d="M94293 46333
L94312 46370
L94349 46389
L94406 46389
L94443 46370
L94462 46333
L94462 46126
" />
<path d="M105649 46680
L80049 46680
" />
<path d="M105650 73080
L105649 45892
" />
<path d="M80050 73080
L80049 45892
" />
<path d="M80049 46680
L80493 46910
" />
<path d="M80049 46680
L80493 46449
" />
<path d="M105649 46680
L105206 46910
" />
<path d="M105649 46680
L105206 46449
" />
</g>
<g style="fill:#000000; fill-opacity:0.0; 
stroke:#000000; stroke-width:50; stroke-opacity:1; 
stroke-linecap:round; stroke-linejoin:round;">
<path d="M99842 28108
L99942 28251
" />
<path d="M100014 28108
L100014 28408
L99900 28408
L99871 28394
L99857 28380
L99842 28351
L99842 28308
L99857 28280
L99871 28265
L99900 28251
L100014 28251
" />
<path d="M99557 28108
L99728 28108
" />
<path d="M99642 28108
L99642 28408
L99671 28365
L99700 28337
L99728 28322
" />
<path d="M99300 28308
L99300 28108
" />
<path d="M99371 28422
L99442 28208
L99257 28208
" />
</g>
<g style="fill:#000000; fill-opacity:0.0; 
stroke:#000000; stroke-width:45; stroke-opacity:1; 
stroke-linecap:round; stroke-linejoin:round;">
<path d="M98865 29116
L98925 29250
" />
<path d="M98968 29116
L98968 29396
L98900 29396
L98882 29383
L98874 29370
L98865 29343
L98865 29303
L98874 29276
L98882 29263
L98900 29250
L98968 29250
" />
<path d="M98694 29116
L98797 29116
" />
<path d="M98745 29116
L98745 29396
L98762 29356
L98780 29330
L98797 29316
" />
<path d="M98531 29396
L98617 29396
L98625 29263
L98617 29276
L98600 29290
L98557 29290
L98540 29276
L98531 29263
L98522 29236
L98522 29170
L98531 29143
L98540 29130
L98557 29116
L98600 29116
L98617 29130
L98625 29143
" />
<path d="M99615 21266
L99675 21400
" />
<path d="M99718 21266
L99718 21546
L99650 21546
L99632 21533
L99624 21520
L99615 21493
L99615 21453
L99624 21426
L99632 21413
L99650 21400
L99718 21400
" />
<path d="M99444 21266
L99547 21266
" />
<path d="M99495 21266
L99495 21546
L99512 21506
L99530 21480
L99547 21466
" />
<path d="M99375 21520
L99367 21533
L99350 21546
L99307 21546
L99290 21533
L99281 21520
L99272 21493
L99272 21466
L99281 21426
L99384 21266
L99272 21266
" />
</g>
<g style="fill:#000000; fill-opacity:0.0; 
stroke:#000000; stroke-width:47; stroke-opacity:1; 
stroke-linecap:round; stroke-linejoin:round;">
<path d="M93142 18229
L93152 18219
L93180 18210
L93199 18210
L93227 18219
L93246 18238
L93255 18257
L93264 18294
L93264 18322
L93255 18360
L93246 18379
L93227 18397
L93199 18407
L93180 18407
L93152 18397
L93142 18388
" />
<path d="M92973 18341
L92973 18210
" />
<path d="M93020 18416
L93067 18275
L92945 18275
" />
</g>
<g style="fill:#000000; fill-opacity:0.0; 
stroke:#000000; stroke-width:120; stroke-opacity:1; 
stroke-linecap:round; stroke-linejoin:round;">
<path d="M84142 18715
L84742 18315
" />
<path d="M84142 18315
L84742 18715
" />
<path d="M84742 17772
L84742 18115
" />
<path d="M84742 17944
L84142 17944
L84228 18001
L84285 18058
L84314 18115
" />
<path d="M87742 19201
L87742 19544
" />
<path d="M87742 19372
L87142 19372
L87228 19430
L87285 19487
L87314 19544
" />
<path d="M87200 18972
L87171 18944
L87142 18887
L87142 18744
L87171 18687
L87200 18658
L87257 18629
L87314 18629
L87400 18658
L87742 19001
L87742 18629
" />
<path d="M87742 18372
L87142 18372
L87571 18172
L87142 17972
L87742 17972
" />
<path d="M87742 17687
L87142 17687
" />
<path d="M87742 17429
L87428 17429
L87371 17458
L87342 17515
L87342 17601
L87371 17658
L87400 17687
" />
<path d="M87342 17201
L87342 16887
L87742 17201
L87742 16887
" />
<path d="M81592 29380
L82021 29380
L82107 29408
L82164 29465
L82192 29551
L82192 29608
" />
<path d="M81592 29151
L81592 28780
L81821 28980
L81821 28894
L81850 28837
L81878 28808
L81935 28780
L82078 28780
L82135 28808
L82164 28837
L82192 28894
L82192 29065
L82164 29122
L82135 29151
" />
<path d="M84914 30022
L84942 29937
L84942 29794
L84914 29737
L84885 29708
L84828 29680
L84771 29680
L84714 29708
L84685 29737
L84657 29794
L84628 29908
L84600 29965
L84571 29994
L84514 30022
L84457 30022
L84400 29994
L84371 29965
L84342 29908
L84342 29765
L84371 29680
" />
<path d="M84942 29422
L84342 29422
" />
<path d="M84942 28851
L84942 29137
L84342 29137
" />
<path d="M84942 28337
L84942 28680
" />
<path d="M84942 28508
L84342 28508
L84428 28565
L84485 28622
L84514 28680
" />
<path d="M81592 19630
L82021 19630
L82107 19658
L82164 19715
L82192 19801
L82192 19858
" />
<path d="M81592 19401
L81592 19030
L81821 19230
L81821 19144
L81850 19087
L81878 19058
L81935 19030
L82078 19030
L82135 19058
L82164 19087
L82192 19144
L82192 19315
L82164 19372
L82135 19401
" />
<path d="M84914 20272
L84942 20187
L84942 20044
L84914 19987
L84885 19958
L84828 19930
L84771 19930
L84714 19958
L84685 19987
L84657 20044
L84628 20158
L84600 20215
L84571 20244
L84514 20272
L84457 20272
L84400 20244
L84371 20215
L84342 20158
L84342 20015
L84371 19930
" />
<path d="M84942 19672
L84342 19672
" />
<path d="M84942 19101
L84942 19387
L84342 19387
" />
<path d="M84942 18587
L84942 18930
" />
<path d="M84942 18758
L84342 18758
L84428 18815
L84485 18872
L84514 18930
" />
<path d="M98542 17430
L98971 17430
L99057 17458
L99114 17515
L99142 17601
L99142 17658
" />
<path d="M98542 17201
L98542 16830
L98771 17030
L98771 16944
L98800 16887
L98828 16858
L98885 16830
L99028 16830
L99085 16858
L99114 16887
L99142 16944
L99142 17115
L99114 17172
L99085 17201
" />
<path d="M101864 18072
L101892 17987
L101892 17844
L101864 17787
L101835 17758
L101778 17730
L101721 17730
L101664 17758
L101635 17787
L101607 17844
L101578 17958
L101550 18015
L101521 18044
L101464 18072
L101407 18072
L101350 18044
L101321 18015
L101292 17958
L101292 17815
L101321 17730
" />
<path d="M101892 17472
L101292 17472
" />
<path d="M101892 16901
L101892 17187
L101292 17187
" />
<path d="M101892 16387
L101892 16730
" />
<path d="M101892 16558
L101292 16558
L101378 16615
L101435 16672
L101464 16730
" />
<path d="M98592 31930
L99021 31930
L99107 31958
L99164 32015
L99192 32101
L99192 32158
" />
<path d="M98592 31701
L98592 31330
L98821 31530
L98821 31444
L98850 31387
L98878 31358
L98935 31330
L99078 31330
L99135 31358
L99164 31387
L99192 31444
L99192 31615
L99164 31672
L99135 31701
" />
<path d="M101914 32572
L101942 32487
L101942 32344
L101914 32287
L101885 32258
L101828 32230
L101771 32230
L101714 32258
L101685 32287
L101657 32344
L101628 32458
L101600 32515
L101571 32544
L101514 32572
L101457 32572
L101400 32544
L101371 32515
L101342 32458
L101342 32315
L101371 32230
" />
<path d="M101942 31972
L101342 31972
" />
<path d="M101942 31401
L101942 31687
L101342 31687
" />
<path d="M101942 30887
L101942 31230
" />
<path d="M101942 31058
L101342 31058
L101428 31115
L101485 31172
L101514 31230
" />
</g>
<g style="fill:#000000; fill-opacity:0.0; 
stroke:#000000; stroke-width:107; stroke-opacity:1; 
stroke-linecap:round; stroke-linejoin:round;">
<path d="M105126 29795
L104443 29795
L104443 29632
L104475 29592
L104508 29571
L104573 29551
L104671 29551
L104736 29571
L104768 29592
L104801 29632
L104801 29795
" />
<path d="M104443 29164
L104443 29367
L104768 29388
L104736 29367
L104703 29327
L104703 29225
L104736 29184
L104768 29164
L104833 29143
L104996 29143
L105061 29164
L105093 29184
L105126 29225
L105126 29327
L105093 29367
L105061 29388
" />
<path d="M105126 25195
L104443 25195
L104443 25032
L104475 24992
L104508 24971
L104573 24951
L104671 24951
L104736 24971
L104768 24992
L104801 25032
L104801 25195
" />
<path d="M104671 24584
L105126 24584
" />
<path d="M104410 24686
L104898 24788
L104898 24523
" />
<path d="M105126 20545
L104443 20545
L104443 20382
L104475 20342
L104508 20321
L104573 20301
L104671 20301
L104736 20321
L104768 20342
L104801 20382
L104801 20545
" />
<path d="M104443 20158
L104443 19893
L104703 20036
L104703 19975
L104736 19934
L104768 19914
L104833 19893
L104996 19893
L105061 19914
L105093 19934
L105126 19975
L105126 20097
L105093 20138
L105061 20158
" />
<path d="M105126 15945
L104443 15945
L104443 15782
L104475 15742
L104508 15721
L104573 15701
L104671 15701
L104736 15721
L104768 15742
L104801 15782
L104801 15945
" />
<path d="M104508 15538
L104475 15517
L104443 15477
L104443 15375
L104475 15334
L104508 15314
L104573 15293
L104638 15293
L104736 15314
L105126 15558
L105126 15293
" />
</g>
<g style="fill:#000000; fill-opacity:0.0; 
stroke:#000000; stroke-width:50; stroke-opacity:1; 
stroke-linecap:round; stroke-linejoin:round;">
<path d="M97771 25508
L98014 25508
L98042 25494
L98057 25480
L98071 25451
L98071 25394
L98057 25365
L98042 25351
L98014 25337
L97771 25337
" />
<path d="M97771 25065
L97771 25122
L97785 25151
L97800 25165
L97842 25194
L97900 25208
L98014 25208
L98042 25194
L98057 25180
L98071 25151
L98071 25094
L98057 25065
L98042 25051
L98014 25037
L97942 25037
L97914 25051
L97900 25065
L97885 25094
L97885 25151
L97900 25180
L97914 25194
L97942 25208
" />
<path d="M97171 26644
L97171 26444
L97471 26572
" />
<path d="M97271 26201
L97471 26201
" />
<path d="M97157 26272
L97371 26344
L97371 26158
" />
<path d="M97471 25901
L97471 26044
L97171 26044
" />
<path d="M97171 25844
L97471 25744
L97171 25644
" />
<path d="M97442 25372
L97457 25387
L97471 25430
L97471 25458
L97457 25501
L97428 25530
L97400 25544
L97342 25558
L97300 25558
L97242 25544
L97214 25530
L97185 25501
L97171 25458
L97171 25430
L97185 25387
L97200 25372
" />
<path d="M97442 25072
L97457 25087
L97471 25130
L97471 25158
L97457 25201
L97428 25230
L97400 25244
L97342 25258
L97300 25258
L97242 25244
L97214 25230
L97185 25201
L97171 25158
L97171 25130
L97185 25087
L97200 25072
" />
<path d="M97171 24972
L97171 24787
L97285 24887
L97285 24844
L97300 24815
L97314 24801
L97342 24787
L97414 24787
L97442 24801
L97457 24815
L97471 24844
L97471 24930
L97457 24958
L97442 24972
" />
<path d="M97200 24672
L97185 24658
L97171 24630
L97171 24558
L97185 24530
L97200 24515
L97228 24501
L97257 24501
L97300 24515
L97471 24687
L97471 24501
" />
<path d="M97271 24244
L97471 24244
" />
<path d="M97157 24315
L97371 24387
L97371 24201
" />
<path d="M97171 23944
L97171 24087
L97314 24101
L97300 24087
L97285 24058
L97285 23987
L97300 23958
L97314 23944
L97342 23930
L97414 23930
L97442 23944
L97457 23958
L97471 23987
L97471 24058
L97457 24087
L97442 24101
" />
<path d="M91528 31308
L91528 31065
L91514 31037
L91500 31022
L91471 31008
L91414 31008
L91385 31022
L91371 31037
L91357 31065
L91357 31308
" />
<path d="M91071 31308
L91214 31308
L91228 31165
L91214 31180
L91185 31194
L91114 31194
L91085 31180
L91071 31165
L91057 31137
L91057 31065
L91071 31037
L91085 31022
L91114 31008
L91185 31008
L91214 31022
L91228 31037
" />
<path d="M92664 30708
L92464 30708
L92592 30408
" />
<path d="M92221 30608
L92221 30408
" />
<path d="M92292 30722
L92364 30508
L92178 30508
" />
<path d="M91921 30408
L92064 30408
L92064 30708
" />
<path d="M91864 30708
L91764 30408
L91664 30708
" />
<path d="M91392 30437
L91407 30422
L91450 30408
L91478 30408
L91521 30422
L91550 30451
L91564 30480
L91578 30537
L91578 30580
L91564 30637
L91550 30665
L91521 30694
L91478 30708
L91450 30708
L91407 30694
L91392 30680
" />
<path d="M91092 30437
L91107 30422
L91150 30408
L91178 30408
L91221 30422
L91250 30451
L91264 30480
L91278 30537
L91278 30580
L91264 30637
L91250 30665
L91221 30694
L91178 30708
L91150 30708
L91107 30694
L91092 30680
" />
<path d="M90992 30708
L90807 30708
L90907 30594
L90864 30594
L90835 30580
L90821 30565
L90807 30537
L90807 30465
L90821 30437
L90835 30422
L90864 30408
L90950 30408
L90978 30422
L90992 30437
" />
<path d="M90692 30680
L90678 30694
L90650 30708
L90578 30708
L90550 30694
L90535 30680
L90521 30651
L90521 30622
L90535 30580
L90707 30408
L90521 30408
" />
<path d="M90264 30608
L90264 30408
" />
<path d="M90335 30722
L90407 30508
L90221 30508
" />
<path d="M89964 30708
L90107 30708
L90121 30565
L90107 30580
L90078 30594
L90007 30594
L89978 30580
L89964 30565
L89950 30537
L89950 30465
L89964 30437
L89978 30422
L90007 30408
L90078 30408
L90107 30422
L90121 30437
" />
</g>
<g style="fill:#000000; fill-opacity:0.0; 
stroke:#000000; stroke-width:120; stroke-opacity:1; 
stroke-linecap:round; stroke-linejoin:round;">
<path d="M86707 29387
L86707 28901
L86678 28844
L86650 28815
L86592 28787
L86478 28787
L86421 28815
L86392 28844
L86364 28901
L86364 29387
" />
<path d="M86107 29330
L86078 29358
L86021 29387
L85878 29387
L85821 29358
L85792 29330
L85764 29272
L85764 29215
L85792 29130
L86135 28787
L85764 28787
" />
<path d="M87550 28787
L87835 28787
L87835 29387
" />
<path d="M87350 28787
L87350 29387
L87150 28958
L86950 29387
L86950 28787
" />
<path d="M86350 28787
L86692 28787
" />
<path d="M86521 28787
L86521 29387
L86578 29301
L86635 29244
L86692 29215
" />
<path d="M85778 28787
L86121 28787
" />
<path d="M85950 28787
L85950 29387
L86007 29301
L86064 29244
L86121 29215
" />
<path d="M85207 28787
L85550 28787
" />
<path d="M85378 28787
L85378 29387
L85435 29301
L85492 29244
L85550 29215
" />
<path d="M85007 29387
L84607 29387
L84864 28787
" />
</g>
<g style="fill:#000000; fill-opacity:0.0; 
stroke:#000000; stroke-width:45; stroke-opacity:1; 
stroke-linecap:round; stroke-linejoin:round;">
<path d="M92511 17910
L92521 17918
L92530 17944
L92530 17961
L92521 17987
L92502 18004
L92483 18012
L92445 18021
L92416 18021
L92378 18012
L92359 18004
L92340 17987
L92330 17961
L92330 17944
L92340 17918
L92350 17910
" />
<path d="M92330 17755
L92330 17790
L92340 17807
L92350 17815
L92378 17832
L92416 17841
L92492 17841
L92511 17832
L92521 17824
L92530 17807
L92530 17772
L92521 17755
L92511 17747
L92492 17738
L92445 17738
L92426 17747
L92416 17755
L92407 17772
L92407 17807
L92416 17824
L92426 17832
L92445 17841
" />
<path d="M93180 18081
L93180 18184
" />
<path d="M93180 18132
L92980 18132
L93009 18150
L93028 18167
L93038 18184
" />
<path d="M92980 17970
L92980 17952
L92990 17935
L93000 17927
L93019 17918
L93057 17910
L93104 17910
L93142 17918
L93161 17927
L93171 17935
L93180 17952
L93180 17970
L93171 17987
L93161 17995
L93142 18004
L93104 18012
L93057 18012
L93019 18004
L93000 17995
L92990 17987
L92980 17970
" />
<path d="M92980 17798
L92980 17781
L92990 17764
L93000 17755
L93019 17747
L93057 17738
L93104 17738
L93142 17747
L93161 17755
L93171 17764
L93180 17781
L93180 17798
L93171 17815
L93161 17824
L93142 17832
L93104 17841
L93057 17841
L93019 17832
L93000 17824
L92990 17815
L92980 17798
" />
<path d="M93047 17661
L93180 17661
" />
<path d="M93066 17661
L93057 17652
L93047 17635
L93047 17609
L93057 17592
L93076 17584
L93180 17584
" />
<path d="M85680 26768
L85688 26758
L85714 26749
L85731 26749
L85757 26758
L85774 26777
L85782 26796
L85791 26834
L85791 26863
L85782 26901
L85774 26920
L85757 26939
L85731 26949
L85714 26949
L85688 26939
L85680 26930
" />
<path d="M85594 26749
L85560 26749
L85542 26758
L85534 26768
L85517 26796
L85508 26834
L85508 26910
L85517 26930
L85525 26939
L85542 26949
L85577 26949
L85594 26939
L85602 26930
L85611 26910
L85611 26863
L85602 26844
L85594 26834
L85577 26825
L85542 26825
L85525 26834
L85517 26844
L85508 26863
" />
<path d="M85851 26099
L85954 26099
" />
<path d="M85902 26099
L85902 26299
L85920 26270
L85937 26251
L85954 26241
" />
<path d="M85740 26299
L85722 26299
L85705 26289
L85697 26280
L85688 26260
L85680 26222
L85680 26175
L85688 26137
L85697 26118
L85705 26108
L85722 26099
L85740 26099
L85757 26108
L85765 26118
L85774 26137
L85782 26175
L85782 26222
L85774 26260
L85765 26280
L85757 26289
L85740 26299
" />
<path d="M85568 26299
L85551 26299
L85534 26289
L85525 26280
L85517 26260
L85508 26222
L85508 26175
L85517 26137
L85525 26118
L85534 26108
L85551 26099
L85568 26099
L85585 26108
L85594 26118
L85602 26137
L85611 26175
L85611 26222
L85602 26260
L85594 26280
L85585 26289
L85568 26299
" />
<path d="M85431 26232
L85431 26099
" />
<path d="M85431 26213
L85422 26222
L85405 26232
L85379 26232
L85362 26222
L85354 26203
L85354 26099
" />
<path d="M89711 27845
L89721 27854
L89730 27880
L89730 27897
L89721 27922
L89702 27940
L89683 27948
L89645 27957
L89616 27957
L89578 27948
L89559 27940
L89540 27922
L89530 27897
L89530 27880
L89540 27854
L89550 27845
" />
<path d="M89730 27674
L89730 27777
" />
<path d="M89730 27725
L89530 27725
L89559 27742
L89578 27760
L89588 27777
" />
<path d="M89730 27502
L89730 27605
" />
<path d="M89730 27554
L89530 27554
L89559 27571
L89578 27588
L89588 27605
" />
<path d="M89080 27931
L89080 28034
" />
<path d="M89080 27982
L88880 27982
L88909 28000
L88928 28017
L88938 28034
" />
<path d="M88880 27820
L88880 27802
L88890 27785
L88900 27777
L88919 27768
L88957 27760
L89004 27760
L89042 27768
L89061 27777
L89071 27785
L89080 27802
L89080 27820
L89071 27837
L89061 27845
L89042 27854
L89004 27862
L88957 27862
L88919 27854
L88900 27845
L88890 27837
L88880 27820
" />
<path d="M88880 27648
L88880 27631
L88890 27614
L88900 27605
L88919 27597
L88957 27588
L89004 27588
L89042 27597
L89061 27605
L89071 27614
L89080 27631
L89080 27648
L89071 27665
L89061 27674
L89042 27682
L89004 27691
L88957 27691
L88919 27682
L88900 27674
L88890 27665
L88880 27648
" />
<path d="M88947 27511
L89080 27511
" />
<path d="M88966 27511
L88957 27502
L88947 27485
L88947 27459
L88957 27442
L88976 27434
L89080 27434
" />
<path d="M94165 30268
L94174 30258
L94200 30249
L94217 30249
L94242 30258
L94260 30277
L94268 30296
L94277 30334
L94277 30363
L94268 30401
L94260 30420
L94242 30439
L94217 30449
L94200 30449
L94174 30439
L94165 30430
" />
<path d="M93994 30249
L94097 30249
" />
<path d="M94045 30249
L94045 30449
L94062 30420
L94080 30401
L94097 30391
" />
<path d="M93925 30430
L93917 30439
L93900 30449
L93857 30449
L93840 30439
L93831 30430
L93822 30410
L93822 30391
L93831 30363
L93934 30249
L93822 30249
" />
<path d="M94251 29599
L94354 29599
" />
<path d="M94302 29599
L94302 29799
L94320 29770
L94337 29751
L94354 29741
" />
<path d="M94140 29799
L94122 29799
L94105 29789
L94097 29780
L94088 29760
L94080 29722
L94080 29675
L94088 29637
L94097 29618
L94105 29608
L94122 29599
L94140 29599
L94157 29608
L94165 29618
L94174 29637
L94182 29675
L94182 29722
L94174 29760
L94165 29780
L94157 29789
L94140 29799
" />
<path d="M93968 29799
L93951 29799
L93934 29789
L93925 29780
L93917 29760
L93908 29722
L93908 29675
L93917 29637
L93925 29618
L93934 29608
L93951 29599
L93968 29599
L93985 29608
L93994 29618
L94002 29637
L94011 29675
L94011 29722
L94002 29760
L93994 29780
L93985 29789
L93968 29799
" />
<path d="M93831 29732
L93831 29599
" />
<path d="M93831 29713
L93822 29722
L93805 29732
L93779 29732
L93762 29722
L93754 29703
L93754 29599
" />
<path d="M96711 22945
L96721 22954
L96730 22980
L96730 22997
L96721 23022
L96702 23040
L96683 23048
L96645 23057
L96616 23057
L96578 23048
L96559 23040
L96540 23022
L96530 22997
L96530 22980
L96540 22954
L96550 22945
" />
<path d="M96730 22774
L96730 22877
" />
<path d="M96730 22825
L96530 22825
L96559 22842
L96578 22860
L96588 22877
" />
<path d="M96530 22714
L96530 22602
L96607 22662
L96607 22637
L96616 22620
L96626 22611
L96645 22602
L96692 22602
L96711 22611
L96721 22620
L96730 22637
L96730 22688
L96721 22705
L96711 22714
" />
<path d="M96080 23031
L96080 23134
" />
<path d="M96080 23082
L95880 23082
L95909 23100
L95928 23117
L95938 23134
" />
<path d="M95880 22920
L95880 22902
L95890 22885
L95900 22877
L95919 22868
L95957 22860
L96004 22860
L96042 22868
L96061 22877
L96071 22885
L96080 22902
L96080 22920
L96071 22937
L96061 22945
L96042 22954
L96004 22962
L95957 22962
L95919 22954
L95900 22945
L95890 22937
L95880 22920
" />
<path d="M95880 22748
L95880 22731
L95890 22714
L95900 22705
L95919 22697
L95957 22688
L96004 22688
L96042 22697
L96061 22705
L96071 22714
L96080 22731
L96080 22748
L96071 22765
L96061 22774
L96042 22782
L96004 22791
L95957 22791
L95919 22782
L95900 22774
L95890 22765
L95880 22748
" />
<path d="M95947 22611
L96080 22611
" />
<path d="M95966 22611
L95957 22602
L95947 22585
L95947 22559
L95957 22542
L95976 22534
L96080 22534
" />
<path d="M92561 20795
L92571 20804
L92580 20830
L92580 20847
L92571 20872
L92552 20890
L92533 20898
L92495 20907
L92466 20907
L92428 20898
L92409 20890
L92390 20872
L92380 20847
L92380 20830
L92390 20804
L92400 20795
" />
<path d="M92580 20624
L92580 20727
" />
<path d="M92580 20675
L92380 20675
L92409 20692
L92428 20710
L92438 20727
" />
<path d="M92447 20470
L92580 20470
" />
<path d="M92371 20512
L92514 20555
L92514 20444
" />
<path d="M93230 20881
L93230 20984
" />
<path d="M93230 20932
L93030 20932
L93059 20950
L93078 20967
L93088 20984
" />
<path d="M93030 20770
L93030 20752
L93040 20735
L93050 20727
L93069 20718
L93107 20710
L93154 20710
L93192 20718
L93211 20727
L93221 20735
L93230 20752
L93230 20770
L93221 20787
L93211 20795
L93192 20804
L93154 20812
L93107 20812
L93069 20804
L93050 20795
L93040 20787
L93030 20770
" />
<path d="M93030 20598
L93030 20581
L93040 20564
L93050 20555
L93069 20547
L93107 20538
L93154 20538
L93192 20547
L93211 20555
L93221 20564
L93230 20581
L93230 20598
L93221 20615
L93211 20624
L93192 20632
L93154 20641
L93107 20641
L93069 20632
L93050 20624
L93040 20615
L93030 20598
" />
<path d="M93097 20461
L93230 20461
" />
<path d="M93116 20461
L93107 20452
L93097 20435
L93097 20409
L93107 20392
L93126 20384
L93230 20384
" />
<path d="M96511 18360
L96521 18368
L96530 18394
L96530 18411
L96521 18437
L96502 18454
L96483 18462
L96445 18471
L96416 18471
L96378 18462
L96359 18454
L96340 18437
L96330 18411
L96330 18394
L96340 18368
L96350 18360
" />
<path d="M96330 18300
L96330 18188
L96407 18248
L96407 18222
L96416 18205
L96426 18197
L96445 18188
L96492 18188
L96511 18197
L96521 18205
L96530 18222
L96530 18274
L96521 18291
L96511 18300
" />
<path d="M97180 18531
L97180 18634
" />
<path d="M97180 18582
L96980 18582
L97009 18600
L97028 18617
L97038 18634
" />
<path d="M96980 18420
L96980 18402
L96990 18385
L97000 18377
L97019 18368
L97057 18360
L97104 18360
L97142 18368
L97161 18377
L97171 18385
L97180 18402
L97180 18420
L97171 18437
L97161 18445
L97142 18454
L97104 18462
L97057 18462
L97019 18454
L97000 18445
L96990 18437
L96980 18420
" />
<path d="M96980 18248
L96980 18231
L96990 18214
L97000 18205
L97019 18197
L97057 18188
L97104 18188
L97142 18197
L97161 18205
L97171 18214
L97180 18231
L97180 18248
L97171 18265
L97161 18274
L97142 18282
L97104 18291
L97057 18291
L97019 18282
L97000 18274
L96990 18265
L96980 18248
" />
<path d="M97047 18111
L97180 18111
" />
<path d="M97066 18111
L97057 18102
L97047 18085
L97047 18059
L97057 18042
L97076 18034
L97180 18034
" />
<path d="M94780 25968
L94788 25958
L94814 25949
L94831 25949
L94857 25958
L94874 25977
L94882 25996
L94891 26034
L94891 26063
L94882 26101
L94874 26120
L94857 26139
L94831 26149
L94814 26149
L94788 26139
L94780 26130
" />
<path d="M94677 26063
L94694 26072
L94702 26082
L94711 26101
L94711 26110
L94702 26130
L94694 26139
L94677 26149
L94642 26149
L94625 26139
L94617 26130
L94608 26110
L94608 26101
L94617 26082
L94625 26072
L94642 26063
L94677 26063
L94694 26053
L94702 26044
L94711 26025
L94711 25987
L94702 25968
L94694 25958
L94677 25949
L94642 25949
L94625 25958
L94617 25968
L94608 25987
L94608 26025
L94617 26044
L94625 26053
L94642 26063
" />
<path d="M94951 25299
L95054 25299
" />
<path d="M95002 25299
L95002 25499
L95020 25470
L95037 25451
L95054 25441
" />
<path d="M94840 25499
L94822 25499
L94805 25489
L94797 25480
L94788 25460
L94780 25422
L94780 25375
L94788 25337
L94797 25318
L94805 25308
L94822 25299
L94840 25299
L94857 25308
L94865 25318
L94874 25337
L94882 25375
L94882 25422
L94874 25460
L94865 25480
L94857 25489
L94840 25499
" />
<path d="M94668 25499
L94651 25499
L94634 25489
L94625 25480
L94617 25460
L94608 25422
L94608 25375
L94617 25337
L94625 25318
L94634 25308
L94651 25299
L94668 25299
L94685 25308
L94694 25318
L94702 25337
L94711 25375
L94711 25422
L94702 25460
L94694 25480
L94685 25489
L94668 25499
" />
<path d="M94531 25432
L94531 25299
" />
<path d="M94531 25413
L94522 25422
L94505 25432
L94479 25432
L94462 25422
L94454 25403
L94454 25299
" />
<path d="M87580 21818
L87588 21808
L87614 21799
L87631 21799
L87657 21808
L87674 21827
L87682 21846
L87691 21884
L87691 21913
L87682 21951
L87674 21970
L87657 21989
L87631 21999
L87614 21999
L87588 21989
L87580 21980
" />
<path d="M87520 21999
L87400 21999
L87477 21799
" />
<path d="M87751 21149
L87854 21149
" />
<path d="M87802 21149
L87802 21349
L87820 21320
L87837 21301
L87854 21291
" />
<path d="M87640 21349
L87622 21349
L87605 21339
L87597 21330
L87588 21310
L87580 21272
L87580 21225
L87588 21187
L87597 21168
L87605 21158
L87622 21149
L87640 21149
L87657 21158
L87665 21168
L87674 21187
L87682 21225
L87682 21272
L87674 21310
L87665 21330
L87657 21339
L87640 21349
" />
<path d="M87468 21349
L87451 21349
L87434 21339
L87425 21330
L87417 21310
L87408 21272
L87408 21225
L87417 21187
L87425 21168
L87434 21158
L87451 21149
L87468 21149
L87485 21158
L87494 21168
L87502 21187
L87511 21225
L87511 21272
L87502 21310
L87494 21330
L87485 21339
L87468 21349
" />
<path d="M87331 21282
L87331 21149
" />
<path d="M87331 21263
L87322 21272
L87305 21282
L87279 21282
L87262 21272
L87254 21253
L87254 21149
" />
<path d="M85861 27810
L85871 27818
L85880 27844
L85880 27861
L85871 27887
L85852 27904
L85833 27912
L85795 27921
L85766 27921
L85728 27912
L85709 27904
L85690 27887
L85680 27861
L85680 27844
L85690 27818
L85700 27810
" />
<path d="M85880 27638
L85880 27741
" />
<path d="M85880 27690
L85680 27690
L85709 27707
L85728 27724
L85738 27741
" />
<path d="M85230 27981
L85230 28084
" />
<path d="M85230 28032
L85030 28032
L85059 28050
L85078 28067
L85088 28084
" />
<path d="M85030 27870
L85030 27852
L85040 27835
L85050 27827
L85069 27818
L85107 27810
L85154 27810
L85192 27818
L85211 27827
L85221 27835
L85230 27852
L85230 27870
L85221 27887
L85211 27895
L85192 27904
L85154 27912
L85107 27912
L85069 27904
L85050 27895
L85040 27887
L85030 27870
" />
<path d="M85030 27698
L85030 27681
L85040 27664
L85050 27655
L85069 27647
L85107 27638
L85154 27638
L85192 27647
L85211 27655
L85221 27664
L85230 27681
L85230 27698
L85221 27715
L85211 27724
L85192 27732
L85154 27741
L85107 27741
L85069 27732
L85050 27724
L85040 27715
L85030 27698
" />
<path d="M85097 27561
L85230 27561
" />
<path d="M85116 27561
L85107 27552
L85097 27535
L85097 27509
L85107 27492
L85126 27484
L85230 27484
" />
<path d="M90011 16695
L90021 16704
L90030 16730
L90030 16747
L90021 16772
L90002 16790
L89983 16798
L89945 16807
L89916 16807
L89878 16798
L89859 16790
L89840 16772
L89830 16747
L89830 16730
L89840 16704
L89850 16695
" />
<path d="M90030 16524
L90030 16627
" />
<path d="M90030 16575
L89830 16575
L89859 16592
L89878 16610
L89888 16627
" />
<path d="M89830 16412
L89830 16395
L89840 16378
L89850 16370
L89869 16361
L89907 16352
L89954 16352
L89992 16361
L90011 16370
L90021 16378
L90030 16395
L90030 16412
L90021 16430
L90011 16438
L89992 16447
L89954 16455
L89907 16455
L89869 16447
L89850 16438
L89840 16430
L89830 16412
" />
<path d="M89380 16781
L89380 16884
" />
<path d="M89380 16832
L89180 16832
L89209 16850
L89228 16867
L89238 16884
" />
<path d="M89180 16670
L89180 16652
L89190 16635
L89200 16627
L89219 16618
L89257 16610
L89304 16610
L89342 16618
L89361 16627
L89371 16635
L89380 16652
L89380 16670
L89371 16687
L89361 16695
L89342 16704
L89304 16712
L89257 16712
L89219 16704
L89200 16695
L89190 16687
L89180 16670
" />
<path d="M89180 16498
L89180 16481
L89190 16464
L89200 16455
L89219 16447
L89257 16438
L89304 16438
L89342 16447
L89361 16455
L89371 16464
L89380 16481
L89380 16498
L89371 16515
L89361 16524
L89342 16532
L89304 16541
L89257 16541
L89219 16532
L89200 16524
L89190 16515
L89180 16498
" />
<path d="M89247 16361
L89380 16361
" />
<path d="M89266 16361
L89257 16352
L89247 16335
L89247 16309
L89257 16292
L89276 16284
L89380 16284
" />
<path d="M85655 22575
L85715 22669
" />
<path d="M85757 22575
L85757 22772
L85689 22772
L85672 22762
L85663 22753
L85655 22734
L85655 22706
L85663 22687
L85672 22678
L85689 22669
L85757 22669
" />
<path d="M85492 22772
L85577 22772
L85586 22678
L85577 22687
L85560 22697
L85517 22697
L85500 22687
L85492 22678
L85483 22659
L85483 22612
L85492 22594
L85500 22584
L85517 22575
L85560 22575
L85577 22584
L85586 22594
" />
<path d="M85707 21880
L85810 21880
" />
<path d="M85758 21880
L85758 22080
L85775 22051
L85792 22032
L85810 22022
" />
<path d="M85638 22061
L85630 22070
L85612 22080
L85570 22080
L85552 22070
L85544 22061
L85535 22041
L85535 22022
L85544 21994
L85647 21880
L85535 21880
" />
<path d="M85458 21880
L85458 22080
" />
<path d="M85441 21956
L85389 21880
" />
<path d="M85389 22013
L85458 21937
" />
<path d="M87555 27725
L87615 27819
" />
<path d="M87657 27725
L87657 27922
L87589 27922
L87572 27912
L87563 27903
L87555 27884
L87555 27856
L87563 27837
L87572 27828
L87589 27819
L87657 27819
" />
<path d="M87400 27922
L87435 27922
L87452 27912
L87460 27903
L87477 27875
L87486 27837
L87486 27762
L87477 27744
L87469 27734
L87452 27725
L87417 27725
L87400 27734
L87392 27744
L87383 27762
L87383 27809
L87392 27828
L87400 27837
L87417 27847
L87452 27847
L87469 27837
L87477 27828
L87486 27809
" />
<path d="M87521 27030
L87624 27030
" />
<path d="M87572 27030
L87572 27230
L87590 27201
L87607 27182
L87624 27172
" />
<path d="M87444 27030
L87444 27230
" />
<path d="M87427 27106
L87375 27030
" />
<path d="M87375 27163
L87444 27087
" />
<path d="M90805 18575
L90865 18669
" />
<path d="M90907 18575
L90907 18772
L90839 18772
L90822 18762
L90813 18753
L90805 18734
L90805 18706
L90813 18687
L90822 18678
L90839 18669
L90907 18669
" />
<path d="M90650 18706
L90650 18575
" />
<path d="M90693 18781
L90736 18640
L90625 18640
" />
<path d="M91002 18061
L90994 18070
L90977 18080
L90934 18080
L90917 18070
L90908 18061
L90900 18041
L90900 18022
L90908 17994
L91011 17880
L90900 17880
" />
<path d="M90822 17899
L90814 17889
L90822 17880
L90831 17889
L90822 17899
L90822 17880
" />
<path d="M90745 18061
L90737 18070
L90720 18080
L90677 18080
L90660 18070
L90651 18061
L90642 18041
L90642 18022
L90651 17994
L90754 17880
L90642 17880
" />
<path d="M90565 17880
L90565 18080
" />
<path d="M90548 17956
L90497 17880
" />
<path d="M90497 18013
L90565 17937
" />
<path d="M91204 20035
L91110 20095
" />
<path d="M91204 20137
L91007 20137
L91007 20069
L91017 20052
L91026 20043
L91045 20035
L91073 20035
L91092 20043
L91101 20052
L91110 20069
L91110 20137
" />
<path d="M91007 19975
L91007 19863
L91082 19923
L91082 19897
L91092 19880
L91101 19872
L91120 19863
L91167 19863
L91185 19872
L91195 19880
L91204 19897
L91204 19949
L91195 19966
L91185 19975
" />
<path d="M91899 20087
L91899 20190
" />
<path d="M91899 20138
L91699 20138
L91728 20155
L91747 20172
L91757 20190
" />
<path d="M91699 19975
L91699 19958
L91709 19941
L91719 19932
L91738 19924
L91776 19915
L91823 19915
L91861 19924
L91880 19932
L91890 19941
L91899 19958
L91899 19975
L91890 19992
L91880 20001
L91861 20010
L91823 20018
L91776 20018
L91738 20010
L91719 20001
L91709 19992
L91699 19975
" />
<path d="M91899 19838
L91699 19838
" />
<path d="M91823 19821
L91899 19769
" />
<path d="M91766 19769
L91842 19838
" />
<path d="M88454 20835
L88360 20895
" />
<path d="M88454 20937
L88257 20937
L88257 20869
L88267 20852
L88276 20843
L88295 20835
L88323 20835
L88342 20843
L88351 20852
L88360 20869
L88360 20937
" />
<path d="M88454 20663
L88454 20766
" />
<path d="M88454 20715
L88257 20715
L88285 20732
L88304 20749
L88314 20766
" />
<path d="M87761 20937
L87761 21040
" />
<path d="M87761 20988
L87561 20988
L87590 21005
L87609 21022
L87619 21040
" />
<path d="M87561 20825
L87561 20808
L87571 20791
L87581 20782
L87600 20774
L87638 20765
L87685 20765
L87723 20774
L87742 20782
L87752 20791
L87761 20808
L87761 20825
L87752 20842
L87742 20851
L87723 20860
L87685 20868
L87638 20868
L87600 20860
L87581 20851
L87571 20842
L87561 20825
" />
<path d="M87761 20688
L87561 20688
" />
<path d="M87685 20671
L87761 20619
" />
<path d="M87628 20619
L87704 20688
" />
<path d="M88055 18575
L88115 18669
" />
<path d="M88157 18575
L88157 18772
L88089 18772
L88072 18762
L88063 18753
L88055 18734
L88055 18706
L88063 18687
L88072 18678
L88089 18669
L88157 18669
" />
<path d="M87986 18753
L87977 18762
L87960 18772
L87917 18772
L87900 18762
L87892 18753
L87883 18734
L87883 18715
L87892 18687
L87995 18575
L87883 18575
" />
<path d="M88107 17880
L88210 17880
" />
<path d="M88158 17880
L88158 18080
L88175 18051
L88192 18032
L88210 18022
" />
<path d="M87995 18080
L87978 18080
L87961 18070
L87952 18061
L87944 18041
L87935 18003
L87935 17956
L87944 17918
L87952 17899
L87961 17889
L87978 17880
L87995 17880
L88012 17889
L88021 17899
L88030 17918
L88038 17956
L88038 18003
L88030 18041
L88021 18061
L88012 18070
L87995 18080
" />
<path d="M87858 17880
L87858 18080
" />
<path d="M87841 17956
L87789 17880
" />
<path d="M87789 18013
L87858 17937
" />
</g>
<g style="fill:#000000; fill-opacity:0.0; 
stroke:#000000; stroke-width:59; stroke-opacity:1; 
stroke-linecap:round; stroke-linejoin:round;">
<path d="M96774 20854
L97013 20854
L97041 20840
L97055 20826
L97069 20798
L97069 20742
L97055 20714
L97041 20700
L97013 20686
L96774 20686
" />
<path d="M96872 20419
L97069 20419
" />
<path d="M96760 20489
L96971 20559
L96971 20377
" />
<path d="M95974 21451
L95974 21255
L96269 21381
" />
<path d="M96072 21016
L96269 21016
" />
<path d="M95960 21086
L96171 21156
L96171 20974
" />
<path d="M96269 20861
L95974 20861
" />
<path d="M96114 20861
L96114 20693
" />
<path d="M96269 20693
L95974 20693
" />
<path d="M96241 20384
L96255 20398
L96269 20440
L96269 20468
L96255 20510
L96227 20538
L96199 20552
L96142 20566
L96100 20566
L96044 20552
L96016 20538
L95988 20510
L95974 20468
L95974 20440
L95988 20398
L96002 20384
" />
<path d="M95974 20201
L95974 20173
L95988 20145
L96002 20131
L96030 20117
L96086 20103
L96157 20103
L96213 20117
L96241 20131
L96255 20145
L96269 20173
L96269 20201
L96255 20229
L96241 20243
L96213 20257
L96157 20271
L96086 20271
L96030 20257
L96002 20243
L95988 20229
L95974 20201
" />
<path d="M96002 19990
L95988 19976
L95974 19948
L95974 19878
L95988 19850
L96002 19836
L96030 19822
L96058 19822
L96100 19836
L96269 20004
L96269 19822
" />
<path d="M89624 18405
L89624 18166
L89610 18138
L89596 18124
L89568 18110
L89512 18110
L89484 18124
L89470 18138
L89456 18166
L89456 18405
" />
<path d="M89161 18110
L89329 18110
" />
<path d="M89245 18110
L89245 18405
L89273 18363
L89301 18335
L89329 18321
" />
<path d="M90025 18910
L89968 18910
L89940 18924
L89926 18938
L89898 18980
L89884 19037
L89884 19149
L89898 19177
L89912 19191
L89940 19205
L89997 19205
L90025 19191
L90039 19177
L90053 19149
L90053 19079
L90039 19051
L90025 19037
L89997 19022
L89940 19022
L89912 19037
L89898 19051
L89884 19079
" />
<path d="M89786 19205
L89603 19205
L89702 19093
L89659 19093
L89631 19079
L89617 19065
L89603 19037
L89603 18966
L89617 18938
L89631 18924
L89659 18910
L89744 18910
L89772 18924
L89786 18938
" />
<path d="M89308 18938
L89322 18924
L89364 18910
L89392 18910
L89435 18924
L89463 18952
L89477 18980
L89491 19037
L89491 19079
L89477 19135
L89463 19163
L89435 19191
L89392 19205
L89364 19205
L89322 19191
L89308 19177
" />
<path d="M89055 19107
L89055 18910
" />
<path d="M89126 19219
L89196 19008
L89013 19008
" />
<path d="M88774 19205
L88831 19205
L88859 19191
L88873 19177
L88901 19135
L88915 19079
L88915 18966
L88901 18938
L88887 18924
L88859 18910
L88802 18910
L88774 18924
L88760 18938
L88746 18966
L88746 19037
L88760 19065
L88774 19079
L88802 19093
L88859 19093
L88887 19079
L88901 19065
L88915 19037
" />
</g>
<g style="fill:#000000; fill-opacity:0.0; 
stroke:#000000; stroke-width:50; stroke-opacity:1; 
stroke-linecap:round; stroke-linejoin:round;">
<path d="M90542 24659
L90892 24659
L90934 24639
L90954 24618
L90975 24577
L90975 24494
L90954 24453
L90934 24433
L90892 24412
L90542 24412
" />
<path d="M90542 24247
L90542 23979
L90707 24123
L90707 24061
L90727 24020
L90748 24000
L90789 23979
L90892 23979
L90934 24000
L90954 24020
L90975 24061
L90975 24185
L90954 24226
L90934 24247
" />
</g>
<g style="fill:#000000; fill-opacity:0.0; 
stroke:#000000; stroke-width:60; stroke-opacity:1; 
stroke-linecap:round; stroke-linejoin:round;">
<path d="M89503 25734
L89503 25865
" />
<path d="M89709 25865
L89315 25865
L89315 25677
" />
<path d="M89315 25583
L89315 25358
" />
<path d="M89709 25471
L89315 25471
" />
<path d="M89446 25058
L89709 25058
" />
<path d="M89296 25152
L89578 25246
L89578 25002
" />
<path d="M89353 24871
L89334 24852
L89315 24814
L89315 24720
L89334 24683
L89353 24664
L89390 24645
L89428 24645
L89484 24664
L89709 24889
L89709 24645
" />
<path d="M89315 24514
L89315 24270
L89465 24401
L89465 24345
L89484 24308
L89503 24289
L89540 24270
L89634 24270
L89671 24289
L89690 24308
L89709 24345
L89709 24458
L89690 24495
L89671 24514
" />
<path d="M89353 24120
L89334 24101
L89315 24064
L89315 23970
L89334 23932
L89353 23914
L89390 23895
L89428 23895
L89484 23914
L89709 24139
L89709 23895
" />
<path d="M89559 23726
L89559 23426
" />
<path d="M89709 23238
L89315 23238
" />
<path d="M89503 23238
L89503 23013
" />
<path d="M89709 23013
L89315 23013
" />
<path d="M89709 22638
L89709 22825
L89315 22825
" />
</g>
<g style="fill:#000000; fill-opacity:0.0; 
stroke:#000000; stroke-width:120; stroke-opacity:1; 
stroke-linecap:round; stroke-linejoin:round;">
<path d="M80192 24772
L79592 24772
L79592 24544
L79621 24487
L79650 24458
L79707 24430
L79792 24430
L79850 24458
L79878 24487
L79907 24544
L79907 24772
" />
<path d="M80192 23858
L80192 24201
" />
<path d="M80192 24030
L79592 24030
L79678 24087
L79735 24144
L79764 24201
" />
<path d="M82635 25601
L82664 25629
L82692 25715
L82692 25772
L82664 25858
L82607 25915
L82550 25944
L82435 25972
L82350 25972
L82235 25944
L82178 25915
L82121 25858
L82092 25772
L82092 25715
L82121 25629
L82150 25601
" />
<path d="M82092 25229
L82092 25115
L82121 25058
L82178 25001
L82292 24972
L82492 24972
L82607 25001
L82664 25058
L82692 25115
L82692 25229
L82664 25287
L82607 25344
L82492 25372
L82292 25372
L82178 25344
L82121 25287
L82092 25229
" />
<path d="M82692 24715
L82092 24715
L82692 24372
L82092 24372
" />
<path d="M82692 24087
L82092 24087
L82692 23744
L82092 23744
" />
<path d="M82750 23601
L82750 23144
" />
<path d="M82292 22744
L82692 22744
" />
<path d="M82064 22887
L82492 23030
L82492 22658
" />
</g>
<g style="fill:#000000; fill-opacity:0.0; 
stroke:#000000; stroke-width:47; stroke-opacity:1; 
stroke-linecap:round; stroke-linejoin:round;">
<path d="M90579 63412
L90579 63506
L90382 63506
" />
<path d="M90401 63356
L90392 63347
L90382 63328
L90382 63281
L90392 63262
L90401 63253
L90420 63243
L90439 63243
L90467 63253
L90579 63365
L90579 63243
" />
</g>
<g style="fill:#000000; fill-opacity:0.0; 
stroke:#000000; stroke-width:45; stroke-opacity:1; 
stroke-linecap:round; stroke-linejoin:round;">
<path d="M85911 65960
L85921 65968
L85930 65994
L85930 66011
L85921 66037
L85902 66054
L85883 66062
L85845 66071
L85816 66071
L85778 66062
L85759 66054
L85740 66037
L85730 66011
L85730 65994
L85740 65968
L85750 65960
" />
<path d="M85730 65797
L85730 65882
L85826 65891
L85816 65882
L85807 65865
L85807 65822
L85816 65805
L85826 65797
L85845 65788
L85892 65788
L85911 65797
L85921 65805
L85930 65822
L85930 65865
L85921 65882
L85911 65891
" />
<path d="M85100 66148
L85090 66140
L85080 66122
L85080 66080
L85090 66062
L85100 66054
L85119 66045
L85138 66045
L85166 66054
L85280 66157
L85280 66045
" />
<path d="M85080 65985
L85080 65865
L85280 65942
" />
<path d="M85147 65797
L85347 65797
" />
<path d="M85157 65797
L85147 65779
L85147 65745
L85157 65728
L85166 65719
L85185 65711
L85242 65711
L85261 65719
L85271 65728
L85280 65745
L85280 65779
L85271 65797
" />
<path d="M88061 70760
L88071 70768
L88080 70794
L88080 70811
L88071 70837
L88052 70854
L88033 70862
L87995 70871
L87966 70871
L87928 70862
L87909 70854
L87890 70837
L87880 70811
L87880 70794
L87890 70768
L87900 70760
" />
<path d="M87900 70691
L87890 70682
L87880 70665
L87880 70622
L87890 70605
L87900 70597
L87919 70588
L87938 70588
L87966 70597
L88080 70700
L88080 70588
" />
<path d="M88550 70948
L88540 70940
L88530 70922
L88530 70880
L88540 70862
L88550 70854
L88569 70845
L88588 70845
L88616 70854
L88730 70957
L88730 70845
" />
<path d="M88530 70785
L88530 70665
L88730 70742
" />
<path d="M88597 70597
L88797 70597
" />
<path d="M88607 70597
L88597 70579
L88597 70545
L88607 70528
L88616 70519
L88635 70511
L88692 70511
L88711 70519
L88721 70528
L88730 70545
L88730 70579
L88721 70597
" />
</g>
<g style="fill:#000000; fill-opacity:0.0; 
stroke:#000000; stroke-width:47; stroke-opacity:1; 
stroke-linecap:round; stroke-linejoin:round;">
<path d="M91170 63096
L91180 63106
L91189 63134
L91189 63152
L91180 63181
L91161 63199
L91142 63209
L91105 63218
L91077 63218
L91039 63209
L91020 63199
L91002 63181
L90992 63152
L90992 63134
L91002 63106
L91011 63096
" />
<path d="M91189 62909
L91189 63021
" />
<path d="M91189 62965
L90992 62965
L91020 62984
L91039 63002
L91049 63021
" />
<path d="M90992 62843
L90992 62712
L91189 62796
" />
<path d="M92500 60816
L92510 60826
L92519 60854
L92519 60872
L92510 60901
L92491 60919
L92472 60929
L92435 60938
L92407 60938
L92369 60929
L92350 60919
L92332 60901
L92322 60872
L92322 60854
L92332 60826
L92341 60816
" />
<path d="M92519 60629
L92519 60741
" />
<path d="M92519 60685
L92322 60685
L92350 60704
L92369 60722
L92379 60741
" />
<path d="M92407 60516
L92397 60535
L92388 60544
L92369 60553
L92360 60553
L92341 60544
L92332 60535
L92322 60516
L92322 60478
L92332 60460
L92341 60450
L92360 60441
L92369 60441
L92388 60450
L92397 60460
L92407 60478
L92407 60516
L92416 60535
L92425 60544
L92444 60553
L92482 60553
L92500 60544
L92510 60535
L92519 60516
L92519 60478
L92510 60460
L92500 60450
L92482 60441
L92444 60441
L92425 60450
L92416 60460
L92407 60478
" />
</g>
<g style="fill:#000000; fill-opacity:0.0; 
stroke:#000000; stroke-width:45; stroke-opacity:1; 
stroke-linecap:round; stroke-linejoin:round;">
<path d="M90680 69366
L90740 69500
" />
<path d="M90782 69366
L90782 69646
L90714 69646
L90697 69633
L90688 69620
L90680 69593
L90680 69553
L90688 69526
L90697 69513
L90714 69500
L90782 69500
" />
<path d="M90620 69646
L90500 69646
L90577 69366
" />
<path d="M101313 68310
L101180 68370
" />
<path d="M101313 68412
L101033 68412
L101033 68344
L101046 68327
L101060 68318
L101086 68310
L101126 68310
L101153 68318
L101166 68327
L101180 68344
L101180 68412
" />
<path d="M101153 68207
L101140 68224
L101126 68232
L101100 68241
L101086 68241
L101060 68232
L101046 68224
L101033 68207
L101033 68172
L101046 68155
L101060 68147
L101086 68138
L101100 68138
L101126 68147
L101140 68155
L101153 68172
L101153 68207
L101166 68224
L101180 68232
L101206 68241
L101260 68241
L101286 68232
L101300 68224
L101313 68207
L101313 68172
L101300 68155
L101286 68147
L101260 68138
L101206 68138
L101180 68147
L101166 68155
L101153 68172
" />
<path d="M101313 63560
L101180 63620
" />
<path d="M101313 63662
L101033 63662
L101033 63594
L101046 63577
L101060 63568
L101086 63560
L101126 63560
L101153 63568
L101166 63577
L101180 63594
L101180 63662
" />
<path d="M101313 63474
L101313 63440
L101300 63422
L101286 63414
L101246 63397
L101193 63388
L101086 63388
L101060 63397
L101046 63405
L101033 63422
L101033 63457
L101046 63474
L101060 63482
L101086 63491
L101153 63491
L101180 63482
L101193 63474
L101206 63457
L101206 63422
L101193 63405
L101180 63397
L101153 63388
" />
<path d="M101213 58945
L101080 59005
" />
<path d="M101213 59048
L100933 59048
L100933 58980
L100946 58962
L100960 58954
L100986 58945
L101026 58945
L101053 58954
L101066 58962
L101080 58980
L101080 59048
" />
<path d="M101213 58774
L101213 58877
" />
<path d="M101213 58825
L100933 58825
L100973 58842
L101000 58860
L101013 58877
" />
<path d="M100933 58662
L100933 58645
L100946 58628
L100960 58620
L100986 58611
L101040 58602
L101106 58602
L101160 58611
L101186 58620
L101200 58628
L101213 58645
L101213 58662
L101200 58680
L101186 58688
L101160 58697
L101106 58705
L101040 58705
L100986 58697
L100960 58688
L100946 58680
L100933 58662
" />
<path d="M101313 54145
L101180 54205
" />
<path d="M101313 54248
L101033 54248
L101033 54180
L101046 54162
L101060 54154
L101086 54145
L101126 54145
L101153 54154
L101166 54162
L101180 54180
L101180 54248
" />
<path d="M101313 53974
L101313 54077
" />
<path d="M101313 54025
L101033 54025
L101073 54042
L101100 54060
L101113 54077
" />
<path d="M101313 53802
L101313 53905
" />
<path d="M101313 53854
L101033 53854
L101073 53871
L101100 53888
L101113 53905
" />
<path d="M98865 63018
L98874 63008
L98900 62999
L98917 62999
L98942 63008
L98960 63027
L98968 63046
L98977 63084
L98977 63113
L98968 63151
L98960 63170
L98942 63189
L98917 63199
L98900 63199
L98874 63189
L98865 63180
" />
<path d="M98694 62999
L98797 62999
" />
<path d="M98745 62999
L98745 63199
L98762 63170
L98780 63151
L98797 63141
" />
<path d="M98531 63199
L98617 63199
L98625 63103
L98617 63113
L98600 63122
L98557 63122
L98540 63113
L98531 63103
L98522 63084
L98522 63037
L98531 63018
L98540 63008
L98557 62999
L98600 62999
L98617 63008
L98625 63018
" />
<path d="M90415 54468
L90424 54458
L90450 54449
L90467 54449
L90492 54458
L90510 54477
L90518 54496
L90527 54534
L90527 54563
L90518 54601
L90510 54620
L90492 54639
L90467 54649
L90450 54649
L90424 54639
L90415 54630
" />
<path d="M90244 54449
L90347 54449
" />
<path d="M90295 54449
L90295 54649
L90312 54620
L90330 54601
L90347 54591
" />
<path d="M90090 54649
L90124 54649
L90141 54639
L90150 54630
L90167 54601
L90175 54563
L90175 54487
L90167 54468
L90158 54458
L90141 54449
L90107 54449
L90090 54458
L90081 54468
L90072 54487
L90072 54534
L90081 54553
L90090 54563
L90107 54572
L90141 54572
L90158 54563
L90167 54553
L90175 54534
" />
</g>
<g style="fill:#000000; fill-opacity:0.0; 
stroke:#000000; stroke-width:50; stroke-opacity:1; 
stroke-linecap:round; stroke-linejoin:round;">
<path d="M89447 68999
L89447 69199
L89400 69199
L89371 69189
L89352 69170
L89342 69151
L89333 69113
L89333 69084
L89342 69046
L89352 69027
L89371 69008
L89400 68999
L89447 68999
" />
<path d="M89142 68999
L89257 68999
" />
<path d="M89200 68999
L89200 69199
L89219 69170
L89238 69151
L89257 69141
" />
<path d="M89428 69799
L89523 69799
L89523 69999
" />
<path d="M89361 69903
L89295 69903
" />
<path d="M89266 69799
L89361 69799
L89361 69999
L89266 69999
" />
<path d="M89180 69799
L89180 69999
L89133 69999
L89104 69989
L89085 69970
L89076 69951
L89066 69913
L89066 69884
L89076 69846
L89085 69827
L89104 69808
L89133 69799
L89180 69799
" />
<path d="M100880 70627
L100680 70627
L100680 70580
L100690 70551
L100709 70532
L100728 70522
L100766 70513
L100795 70513
L100833 70522
L100852 70532
L100871 70551
L100880 70580
L100880 70627
" />
<path d="M100700 70437
L100690 70427
L100680 70408
L100680 70360
L100690 70341
L100700 70332
L100719 70322
L100738 70322
L100766 70332
L100880 70446
L100880 70322
" />
<path d="M101480 70813
L101680 70746
L101480 70680
" />
<path d="M101576 70613
L101576 70546
" />
<path d="M101680 70518
L101680 70613
L101480 70613
L101480 70518
" />
<path d="M101680 70318
L101585 70384
" />
<path d="M101680 70432
L101480 70432
L101480 70356
L101490 70337
L101500 70327
L101519 70318
L101547 70318
L101566 70327
L101576 70337
L101585 70356
L101585 70432
" />
<path d="M101480 70260
L101480 70146
" />
<path d="M101680 70203
L101480 70203
" />
<path d="M100880 65727
L100680 65727
L100680 65680
L100690 65651
L100709 65632
L100728 65622
L100766 65613
L100795 65613
L100833 65622
L100852 65632
L100871 65651
L100880 65680
L100880 65727
" />
<path d="M100680 65546
L100680 65422
L100757 65489
L100757 65460
L100766 65441
L100776 65432
L100795 65422
L100842 65422
L100861 65432
L100871 65441
L100880 65460
L100880 65518
L100871 65537
L100861 65546
" />
<path d="M101480 65913
L101680 65846
L101480 65780
" />
<path d="M101576 65713
L101576 65646
" />
<path d="M101680 65618
L101680 65713
L101480 65713
L101480 65618
" />
<path d="M101680 65418
L101585 65484
" />
<path d="M101680 65532
L101480 65532
L101480 65456
L101490 65437
L101500 65427
L101519 65418
L101547 65418
L101566 65427
L101576 65437
L101585 65456
L101585 65532
" />
<path d="M101480 65360
L101480 65246
" />
<path d="M101680 65303
L101480 65303
" />
<path d="M100880 61077
L100680 61077
L100680 61030
L100690 61001
L100709 60982
L100728 60972
L100766 60963
L100795 60963
L100833 60972
L100852 60982
L100871 61001
L100880 61030
L100880 61077
" />
<path d="M100747 60791
L100880 60791
" />
<path d="M100671 60839
L100814 60887
L100814 60763
" />
<path d="M101480 61263
L101680 61196
L101480 61130
" />
<path d="M101576 61063
L101576 60996
" />
<path d="M101680 60968
L101680 61063
L101480 61063
L101480 60968
" />
<path d="M101680 60768
L101585 60834
" />
<path d="M101680 60882
L101480 60882
L101480 60806
L101490 60787
L101500 60777
L101519 60768
L101547 60768
L101566 60777
L101576 60787
L101585 60806
L101585 60882
" />
<path d="M101480 60710
L101480 60596
" />
<path d="M101680 60653
L101480 60653
" />
<path d="M100880 56477
L100680 56477
L100680 56430
L100690 56401
L100709 56382
L100728 56372
L100766 56363
L100795 56363
L100833 56372
L100852 56382
L100871 56401
L100880 56430
L100880 56477
" />
<path d="M100680 56182
L100680 56277
L100776 56287
L100766 56277
L100757 56258
L100757 56210
L100766 56191
L100776 56182
L100795 56172
L100842 56172
L100861 56182
L100871 56191
L100880 56210
L100880 56258
L100871 56277
L100861 56287
" />
<path d="M101480 56663
L101680 56596
L101480 56530
" />
<path d="M101576 56463
L101576 56396
" />
<path d="M101680 56368
L101680 56463
L101480 56463
L101480 56368
" />
<path d="M101680 56168
L101585 56234
" />
<path d="M101680 56282
L101480 56282
L101480 56206
L101490 56187
L101500 56177
L101519 56168
L101547 56168
L101566 56177
L101576 56187
L101585 56206
L101585 56282
" />
<path d="M101480 56110
L101480 55996
" />
<path d="M101680 56053
L101480 56053
" />
</g>
<g style="fill:#000000; fill-opacity:0.0; 
stroke:#000000; stroke-width:47; stroke-opacity:1; 
stroke-linecap:round; stroke-linejoin:round;">
<path d="M88029 60362
L88029 60456
L87832 60456
" />
<path d="M88029 60193
L88029 60306
" />
<path d="M88029 60250
L87832 60250
L87860 60269
L87879 60287
L87889 60306
" />
</g>
<g style="fill:#000000; fill-opacity:0.0; 
stroke:#000000; stroke-width:50; stroke-opacity:1; 
stroke-linecap:round; stroke-linejoin:round;">
<path d="M100042 62108
L100142 62251
" />
<path d="M100214 62108
L100214 62408
L100100 62408
L100071 62394
L100057 62380
L100042 62351
L100042 62308
L100057 62280
L100071 62265
L100100 62251
L100214 62251
" />
<path d="M99757 62108
L99928 62108
" />
<path d="M99842 62108
L99842 62408
L99871 62365
L99900 62337
L99928 62322
" />
<path d="M99657 62408
L99471 62408
L99571 62294
L99528 62294
L99500 62280
L99485 62265
L99471 62237
L99471 62165
L99485 62137
L99500 62122
L99528 62108
L99614 62108
L99642 62122
L99657 62137
" />
<path d="M100650 28680
L100650 27780
" />
<path d="M100650 27780
L100000 27780
" />
<path d="M99300 28680
L98650 28680
" />
<path d="M98650 28680
L98650 27780
" />
<path d="M98650 27780
L99300 27780
" />
<path d="M100000 28680
L100650 28680
" />
<path d="M99200 29480
L98300 29480
" />
<path d="M98300 29480
L98300 28980
" />
<path d="M98300 28980
L99200 28980
" />
<path d="M99200 28980
L99200 29480
" />
<path d="M99950 21630
L99050 21630
" />
<path d="M99050 21630
L99050 21130
" />
<path d="M99050 21130
L99950 21130
" />
<path d="M99950 21130
L99950 21630
" />
<path d="M92450 18580
L92450 19380
" />
<path d="M93750 18580
L93750 19380
" />
<path d="M92200 18580
L92200 19380
" />
<path d="M92200 19380
L94000 19380
" />
<path d="M94000 19380
L94000 18580
" />
<path d="M94000 18580
L92200 18580
" />
</g>
<g style="fill:#000000; fill-opacity:0.0; 
stroke:#000000; stroke-width:125; stroke-opacity:1; 
stroke-linecap:round; stroke-linejoin:round;">
<path d="M87000 19480
L87000 16980
" />
<path d="M85000 19480
L85000 16980
" />
<path d="M86000 15980 A1000 1000 0.0 0 0 85000 16980 " />
<path d="M87000 16980 A1000 1000 0.0 0 0 86000 15980 " />
<path d="M85000 19480 A1000 1000 0.0 0 0 86000 20480 " />
<path d="M86000 20480 A1000 1000 0.0 0 0 87000 19480 " />
</g>
<g style="fill:#000000; fill-opacity:0.0; 
stroke:#000000; stroke-width:200; stroke-opacity:1; 
stroke-linecap:round; stroke-linejoin:round;">
<path d="M102250 29980
L107050 29980
" />
<path d="M106450 30980
L107050 30980
" />
<path d="M106850 32980
L107050 32980
" />
<path d="M102250 32980
L106850 32980
" />
<path d="M102250 31980
L107050 31980
" />
<path d="M102250 30980
L106450 30980
" />
</g>
<g style="fill:#000000; fill-opacity:0.0; 
stroke:#000000; stroke-width:150; stroke-opacity:1; 
stroke-linecap:round; stroke-linejoin:round;">
<path d="M102850 29980
L106450 29980
" />
<path d="M102250 29980
L102650 29980
" />
<path d="M102650 33580
L102650 33180
" />
<path d="M103850 33580
L103850 33180
" />
<path d="M102650 33580
L107450 33580
" />
<path d="M102650 29380
L107450 29380
" />
<path d="M107450 29380
L107450 33380
" />
<path d="M107450 33380
L107450 33580
" />
<path d="M103850 29480
L103850 33430
" />
<path d="M102650 33430
L102650 29480
" />
</g>
<g style="fill:#000000; fill-opacity:0.0; 
stroke:#000000; stroke-width:200; stroke-opacity:1; 
stroke-linecap:round; stroke-linejoin:round;">
<path d="M102250 25380
L107050 25380
" />
<path d="M106450 26380
L107050 26380
" />
<path d="M106850 28380
L107050 28380
" />
<path d="M102250 28380
L106850 28380
" />
<path d="M102250 27380
L107050 27380
" />
<path d="M102250 26380
L106450 26380
" />
</g>
<g style="fill:#000000; fill-opacity:0.0; 
stroke:#000000; stroke-width:150; stroke-opacity:1; 
stroke-linecap:round; stroke-linejoin:round;">
<path d="M102850 25380
L106450 25380
" />
<path d="M102250 25380
L102650 25380
" />
<path d="M102650 28980
L102650 28580
" />
<path d="M103850 28980
L103850 28580
" />
<path d="M102650 28980
L107450 28980
" />
<path d="M102650 24780
L107450 24780
" />
<path d="M107450 24780
L107450 28780
" />
<path d="M107450 28780
L107450 28980
" />
<path d="M103850 24880
L103850 28830
" />
<path d="M102650 28830
L102650 24880
" />
</g>
<g style="fill:#000000; fill-opacity:0.0; 
stroke:#000000; stroke-width:200; stroke-opacity:1; 
stroke-linecap:round; stroke-linejoin:round;">
<path d="M102250 20730
L107050 20730
" />
<path d="M106450 21730
L107050 21730
" />
<path d="M106850 23730
L107050 23730
" />
<path d="M102250 23730
L106850 23730
" />
<path d="M102250 22730
L107050 22730
" />
<path d="M102250 21730
L106450 21730
" />
</g>
<g style="fill:#000000; fill-opacity:0.0; 
stroke:#000000; stroke-width:150; stroke-opacity:1; 
stroke-linecap:round; stroke-linejoin:round;">
<path d="M102850 20730
L106450 20730
" />
<path d="M102250 20730
L102650 20730
" />
<path d="M102650 24330
L102650 23930
" />
<path d="M103850 24330
L103850 23930
" />
<path d="M102650 24330
L107450 24330
" />
<path d="M102650 20130
L107450 20130
" />
<path d="M107450 20130
L107450 24130
" />
<path d="M107450 24130
L107450 24330
" />
<path d="M103850 20230
L103850 24180
" />
<path d="M102650 24180
L102650 20230
" />
</g>
<g style="fill:#000000; fill-opacity:0.0; 
stroke:#000000; stroke-width:200; stroke-opacity:1; 
stroke-linecap:round; stroke-linejoin:round;">
<path d="M102250 16130
L107050 16130
" />
<path d="M106450 17130
L107050 17130
" />
<path d="M106850 19130
L107050 19130
" />
<path d="M102250 19130
L106850 19130
" />
<path d="M102250 18130
L107050 18130
" />
<path d="M102250 17130
L106450 17130
" />
</g>
<g style="fill:#000000; fill-opacity:0.0; 
stroke:#000000; stroke-width:150; stroke-opacity:1; 
stroke-linecap:round; stroke-linejoin:round;">
<path d="M102850 16130
L106450 16130
" />
<path d="M102250 16130
L102650 16130
" />
<path d="M102650 19730
L102650 19330
" />
<path d="M103850 19730
L103850 19330
" />
<path d="M102650 19730
L107450 19730
" />
<path d="M102650 15530
L107450 15530
" />
<path d="M107450 15530
L107450 19530
" />
<path d="M107450 19530
L107450 19730
" />
<path d="M103850 15630
L103850 19580
" />
<path d="M102650 19580
L102650 15630
" />
</g>
<g style="fill:#000000; fill-opacity:0.0; 
stroke:#000000; stroke-width:60; stroke-opacity:1; 
stroke-linecap:round; stroke-linejoin:round;">
<path d="M98750 23530
L98750 27030
" />
<path d="M98750 27030
L97350 27030
" />
<path d="M97350 27030
L97350 23530
" />
<path d="M97350 23530
L98750 23530
" />
</g>
<g style="fill:#000000; fill-opacity:0.0; 
stroke:#000000; stroke-width:50; stroke-opacity:1; 
stroke-linecap:round; stroke-linejoin:round;">
<circle cx="97550" cy="23730" r="141.421" /> 
<path d="M98300 23530
L98300 23830
" />
<path d="M98300 23830
L97800 23830
" />
<path d="M97800 23830
L97800 23530
" />
</g>
<g style="fill:#000000; fill-opacity:0.0; 
stroke:#000000; stroke-width:60; stroke-opacity:1; 
stroke-linecap:round; stroke-linejoin:round;">
<path d="M93050 31930
L89550 31930
" />
<path d="M89550 31930
L89550 30530
" />
<path d="M89550 30530
L93050 30530
" />
<path d="M93050 30530
L93050 31930
" />
</g>
<g style="fill:#000000; fill-opacity:0.0; 
stroke:#000000; stroke-width:50; stroke-opacity:1; 
stroke-linecap:round; stroke-linejoin:round;">
<circle cx="92850" cy="30730" r="141.421" /> 
<path d="M93050 31480
L92750 31480
" />
<path d="M92750 31480
L92750 30980
" />
<path d="M92750 30980
L93050 30980
" />
</g>
<g style="fill:#000000; fill-opacity:0.0; 
stroke:#000000; stroke-width:150; stroke-opacity:1; 
stroke-linecap:round; stroke-linejoin:round;">
<path d="M86750 32530
L86750 30030
" />
<path d="M86750 30030
L84250 30030
" />
<path d="M84250 30030
L84250 32530
" />
<path d="M86750 32530
L84250 32530
" />
</g>
<g style="fill:#000000; fill-opacity:0.0; 
stroke:#000000; stroke-width:47; stroke-opacity:1; 
stroke-linecap:round; stroke-linejoin:round;">
<path d="M92253 17624
L91978 17624
" />
<path d="M92647 17624
L92922 17624
" />
<path d="M92253 18136
L91978 18136
" />
<path d="M92922 18136
L92647 18136
" />
<path d="M91978 18130
L91978 17630
" />
<path d="M92922 17630
L92922 18130
" />
<path d="M85394 27027
L85394 27302
" />
<path d="M85394 26633
L85394 26358
" />
<path d="M85906 27027
L85906 27302
" />
<path d="M85906 26358
L85906 26633
" />
<path d="M85900 27302
L85400 27302
" />
<path d="M85400 26358
L85900 26358
" />
<path d="M89847 27986
L90122 27986
" />
<path d="M89453 27986
L89178 27986
" />
<path d="M89847 27474
L90122 27474
" />
<path d="M89178 27474
L89453 27474
" />
<path d="M90122 27480
L90122 27980
" />
<path d="M89178 27980
L89178 27480
" />
<path d="M93794 30527
L93794 30802
" />
<path d="M93794 30133
L93794 29858
" />
<path d="M94306 30527
L94306 30802
" />
<path d="M94306 29858
L94306 30133
" />
<path d="M94300 30802
L93800 30802
" />
<path d="M93800 29858
L94300 29858
" />
<path d="M96847 23086
L97122 23086
" />
<path d="M96453 23086
L96178 23086
" />
<path d="M96847 22574
L97122 22574
" />
<path d="M96178 22574
L96453 22574
" />
<path d="M97122 22580
L97122 23080
" />
<path d="M96178 23080
L96178 22580
" />
<path d="M92303 20424
L92028 20424
" />
<path d="M92697 20424
L92972 20424
" />
<path d="M92303 20936
L92028 20936
" />
<path d="M92972 20936
L92697 20936
" />
<path d="M92028 20930
L92028 20430
" />
<path d="M92972 20430
L92972 20930
" />
<path d="M96253 18074
L95978 18074
" />
<path d="M96647 18074
L96922 18074
" />
<path d="M96253 18586
L95978 18586
" />
<path d="M96922 18586
L96647 18586
" />
<path d="M95978 18580
L95978 18080
" />
<path d="M96922 18080
L96922 18580
" />
<path d="M94494 26227
L94494 26502
" />
<path d="M94494 25833
L94494 25558
" />
<path d="M95006 26227
L95006 26502
" />
<path d="M95006 25558
L95006 25833
" />
<path d="M95000 26502
L94500 26502
" />
<path d="M94500 25558
L95000 25558
" />
<path d="M87294 22077
L87294 22352
" />
<path d="M87294 21683
L87294 21408
" />
<path d="M87806 22077
L87806 22352
" />
<path d="M87806 21408
L87806 21683
" />
<path d="M87800 22352
L87300 22352
" />
<path d="M87300 21408
L87800 21408
" />
<path d="M85997 28036
L86272 28036
" />
<path d="M85603 28036
L85328 28036
" />
<path d="M85997 27524
L86272 27524
" />
<path d="M85328 27524
L85603 27524
" />
<path d="M86272 27530
L86272 28030
" />
<path d="M85328 28030
L85328 27530
" />
<path d="M90147 16836
L90422 16836
" />
<path d="M89753 16836
L89478 16836
" />
<path d="M90147 16324
L90422 16324
" />
<path d="M89478 16324
L89753 16324
" />
<path d="M90422 16330
L90422 16830
" />
<path d="M89478 16830
L89478 16330
" />
</g>
<g style="fill:#000000; fill-opacity:0.0; 
stroke:#000000; stroke-width:50; stroke-opacity:1; 
stroke-linecap:round; stroke-linejoin:round;">
<path d="M85875 22433
L85875 22155
" />
<path d="M85875 22155
L85325 22155
" />
<path d="M85325 22155
L85325 22433
" />
<path d="M85875 23105
L85875 22827
" />
<path d="M85875 23105
L85325 23105
" />
<path d="M85325 23105
L85325 22827
" />
<path d="M87775 27583
L87775 27305
" />
<path d="M87775 27305
L87225 27305
" />
<path d="M87225 27305
L87225 27583
" />
<path d="M87775 28255
L87775 27977
" />
<path d="M87775 28255
L87225 28255
" />
<path d="M87225 28255
L87225 27977
" />
<path d="M91025 18433
L91025 18155
" />
<path d="M91025 18155
L90475 18155
" />
<path d="M90475 18155
L90475 18433
" />
<path d="M91025 19105
L91025 18827
" />
<path d="M91025 19105
L90475 19105
" />
<path d="M90475 19105
L90475 18827
" />
<path d="M91347 20255
L91625 20255
" />
<path d="M91625 20255
L91625 19705
" />
<path d="M91625 19705
L91347 19705
" />
<path d="M90675 20255
L90953 20255
" />
<path d="M90675 20255
L90675 19705
" />
<path d="M90675 19705
L90953 19705
" />
<path d="M88153 20555
L87875 20555
" />
<path d="M87875 20555
L87875 21105
" />
<path d="M87875 21105
L88153 21105
" />
<path d="M88825 20555
L88547 20555
" />
<path d="M88825 20555
L88825 21105
" />
<path d="M88825 21105
L88547 21105
" />
<path d="M88275 18433
L88275 18155
" />
<path d="M88275 18155
L87725 18155
" />
<path d="M87725 18155
L87725 18433
" />
<path d="M88275 19105
L88275 18827
" />
<path d="M88275 19105
L87725 19105
" />
<path d="M87725 19105
L87725 18827
" />
<path d="M97330 18930
L95770 18930
" />
<path d="M95770 18930
L95770 22330
" />
<path d="M95770 22330
L97330 22330
" />
<path d="M97330 22330
L97330 18930
" />
<path d="M97330 19630
L97760 19630
" />
<path d="M97330 20130
L97760 20130
" />
<path d="M97330 20630
L97760 20630
" />
<path d="M97330 19130
L97760 19130
" />
<path d="M97760 21130
L97330 21130
" />
<path d="M97760 21630
L97330 21630
" />
<path d="M97760 22130
L97330 22130
" />
<path d="M95770 22130
L95340 22130
" />
<path d="M95770 21630
L95340 21630
" />
<path d="M95770 19130
L95340 19130
" />
<path d="M95340 19630
L95770 19630
" />
<path d="M95340 21130
L95770 21130
" />
<path d="M95340 20630
L95770 20630
" />
<path d="M95340 20130
L95770 20130
" />
<circle cx="96060" cy="19220" r="186.011" /> 
<path d="M88450 17850
L88450 19410
" />
<path d="M88450 19410
L90350 19410
" />
<path d="M90350 19410
L90350 17850
" />
<path d="M90350 17850
L88450 17850
" />
<path d="M88650 17850
L88650 17420
" />
<path d="M89150 17850
L89150 17420
" />
<path d="M89650 17850
L89650 17420
" />
<path d="M90150 17420
L90150 17850
" />
<path d="M90150 19410
L90150 19840
" />
<path d="M89650 19840
L89650 19410
" />
<path d="M89150 19840
L89150 19410
" />
<path d="M88650 19840
L88650 19410
" />
<circle cx="88740" cy="19120" r="186.011" /> 
</g>
<g style="fill:#000000; fill-opacity:0.0; 
stroke:#000000; stroke-width:80; stroke-opacity:1; 
stroke-linecap:round; stroke-linejoin:round;">
<circle cx="88632" cy="22712" r="150" /> 
<path d="M92232 26312
L92232 22312
" />
<path d="M92232 22312
L88482 22312
" />
<path d="M88482 22312
L88232 22562
" />
<path d="M88232 22562
L88232 26312
" />
<path d="M88232 26312
L92232 26312
" />
</g>
<g style="fill:#000000; fill-opacity:0.0; 
stroke:#000000; stroke-width:50; stroke-opacity:1; 
stroke-linecap:round; stroke-linejoin:round;">
<path d="M78400 21930
L78400 26730
" />
<path d="M78400 26730
L85100 26730
" />
<path d="M85100 26730
L85100 21930
" />
<path d="M85100 21930
L78400 21930
" />
<path d="M90200 64230
L88200 64230
" />
<path d="M90200 62530
L88200 62530
" />
<path d="M90200 62280
L90200 64480
" />
<path d="M90200 64480
L88200 64480
" />
<path d="M88200 64480
L88200 62280
" />
<path d="M88200 62280
L90200 62280
" />
</g>
<g style="fill:#000000; fill-opacity:0.0; 
stroke:#000000; stroke-width:47; stroke-opacity:1; 
stroke-linecap:round; stroke-linejoin:round;">
<path d="M86047 66186
L86322 66186
" />
<path d="M85653 66186
L85378 66186
" />
<path d="M86047 65674
L86322 65674
" />
<path d="M85378 65674
L85653 65674
" />
<path d="M86322 65680
L86322 66180
" />
<path d="M85378 66180
L85378 65680
" />
<path d="M87803 70474
L87528 70474
" />
<path d="M88197 70474
L88472 70474
" />
<path d="M87803 70986
L87528 70986
" />
<path d="M88472 70986
L88197 70986
" />
<path d="M87528 70980
L87528 70480
" />
<path d="M88472 70480
L88472 70980
" />
</g>
<g style="fill:#000000; fill-opacity:0.0; 
stroke:#000000; stroke-width:50; stroke-opacity:1; 
stroke-linecap:round; stroke-linejoin:round;">
<path d="M91310 63610
L92290 63610
" />
<path d="M92290 62350
L91310 62350
" />
<path d="M91310 62530
L92290 62530
" />
<path d="M92290 63430
L91310 63430
" />
<path d="M92290 63610
L92290 62350
" />
<path d="M91310 62350
L91310 63610
" />
<path d="M92240 60050
L91260 60050
" />
<path d="M91260 61310
L92240 61310
" />
<path d="M92240 61130
L91260 61130
" />
<path d="M91260 60230
L92240 60230
" />
<path d="M91260 60050
L91260 61310
" />
<path d="M92240 61310
L92240 60050
" />
<path d="M90200 69230
L91100 69230
" />
<path d="M91100 69230
L91100 69730
" />
<path d="M91100 69730
L90200 69730
" />
<path d="M90200 69730
L90200 69230
" />
<path d="M100950 68730
L100950 67830
" />
<path d="M100950 67830
L101450 67830
" />
<path d="M101450 67830
L101450 68730
" />
<path d="M101450 68730
L100950 68730
" />
<path d="M100950 63980
L100950 63080
" />
<path d="M100950 63080
L101450 63080
" />
<path d="M101450 63080
L101450 63980
" />
<path d="M101450 63980
L100950 63980
" />
<path d="M100850 59280
L100850 58380
" />
<path d="M100850 58380
L101350 58380
" />
<path d="M101350 58380
L101350 59280
" />
<path d="M101350 59280
L100850 59280
" />
<path d="M100950 54480
L100950 53580
" />
<path d="M100950 53580
L101450 53580
" />
<path d="M101450 53580
L101450 54480
" />
<path d="M101450 54480
L100950 54480
" />
<path d="M99200 63330
L98300 63330
" />
<path d="M98300 63330
L98300 62830
" />
<path d="M98300 62830
L99200 62830
" />
<path d="M99200 62830
L99200 63330
" />
<path d="M90750 54780
L89850 54780
" />
<path d="M89850 54780
L89850 54280
" />
<path d="M89850 54280
L90750 54280
" />
<path d="M90750 54280
L90750 54780
" />
</g>
<g style="fill:#000000; fill-opacity:0.0; 
stroke:#000000; stroke-width:26; stroke-opacity:1; 
stroke-linecap:round; stroke-linejoin:round;">
<path d="M89477 69303
L89477 69657
" />
<path d="M89477 69657
L89634 69657
" />
<path d="M89634 69303
L89634 69657
" />
<path d="M89477 69303
L89634 69303
" />
<path d="M88966 69303
L88966 69657
" />
<path d="M88966 69657
L89123 69657
" />
<path d="M89123 69303
L89123 69657
" />
<path d="M88966 69303
L89123 69303
" />
<path d="M89300 69303
L89300 69362
" />
<path d="M89300 69362
L89418 69362
" />
<path d="M89418 69303
L89418 69362
" />
<path d="M89300 69303
L89418 69303
" />
<path d="M89300 69598
L89300 69657
" />
<path d="M89300 69657
L89418 69657
" />
<path d="M89418 69598
L89418 69657
" />
<path d="M89300 69598
L89418 69598
" />
<path d="M89300 69421
L89300 69539
" />
<path d="M89300 69539
L89418 69539
" />
<path d="M89418 69421
L89418 69539
" />
<path d="M89300 69421
L89418 69421
" />
</g>
<g style="fill:#000000; fill-opacity:0.0; 
stroke:#000000; stroke-width:40; stroke-opacity:1; 
stroke-linecap:round; stroke-linejoin:round;">
<path d="M89477 69323
L89123 69323
" />
<path d="M89477 69637
L89123 69637
" />
</g>
<g style="fill:#000000; fill-opacity:0.0; 
stroke:#000000; stroke-width:26; stroke-opacity:1; 
stroke-linecap:round; stroke-linejoin:round;">
<path d="M101023 70303
L101377 70303
" />
<path d="M101377 70303
L101377 70146
" />
<path d="M101023 70146
L101377 70146
" />
<path d="M101023 70303
L101023 70146
" />
<path d="M101023 70814
L101377 70814
" />
<path d="M101377 70814
L101377 70657
" />
<path d="M101023 70657
L101377 70657
" />
<path d="M101023 70814
L101023 70657
" />
<path d="M101023 70480
L101082 70480
" />
<path d="M101082 70480
L101082 70362
" />
<path d="M101023 70362
L101082 70362
" />
<path d="M101023 70480
L101023 70362
" />
<path d="M101318 70480
L101377 70480
" />
<path d="M101377 70480
L101377 70362
" />
<path d="M101318 70362
L101377 70362
" />
<path d="M101318 70480
L101318 70362
" />
<path d="M101141 70480
L101259 70480
" />
<path d="M101259 70480
L101259 70362
" />
<path d="M101141 70362
L101259 70362
" />
<path d="M101141 70480
L101141 70362
" />
</g>
<g style="fill:#000000; fill-opacity:0.0; 
stroke:#000000; stroke-width:40; stroke-opacity:1; 
stroke-linecap:round; stroke-linejoin:round;">
<path d="M101043 70303
L101043 70657
" />
<path d="M101357 70303
L101357 70657
" />
</g>
<g style="fill:#000000; fill-opacity:0.0; 
stroke:#000000; stroke-width:26; stroke-opacity:1; 
stroke-linecap:round; stroke-linejoin:round;">
<path d="M101023 65403
L101377 65403
" />
<path d="M101377 65403
L101377 65246
" />
<path d="M101023 65246
L101377 65246
" />
<path d="M101023 65403
L101023 65246
" />
<path d="M101023 65914
L101377 65914
" />
<path d="M101377 65914
L101377 65757
" />
<path d="M101023 65757
L101377 65757
" />
<path d="M101023 65914
L101023 65757
" />
<path d="M101023 65580
L101082 65580
" />
<path d="M101082 65580
L101082 65462
" />
<path d="M101023 65462
L101082 65462
" />
<path d="M101023 65580
L101023 65462
" />
<path d="M101318 65580
L101377 65580
" />
<path d="M101377 65580
L101377 65462
" />
<path d="M101318 65462
L101377 65462
" />
<path d="M101318 65580
L101318 65462
" />
<path d="M101141 65580
L101259 65580
" />
<path d="M101259 65580
L101259 65462
" />
<path d="M101141 65462
L101259 65462
" />
<path d="M101141 65580
L101141 65462
" />
</g>
<g style="fill:#000000; fill-opacity:0.0; 
stroke:#000000; stroke-width:40; stroke-opacity:1; 
stroke-linecap:round; stroke-linejoin:round;">
<path d="M101043 65403
L101043 65757
" />
<path d="M101357 65403
L101357 65757
" />
</g>
<g style="fill:#000000; fill-opacity:0.0; 
stroke:#000000; stroke-width:26; stroke-opacity:1; 
stroke-linecap:round; stroke-linejoin:round;">
<path d="M101023 60753
L101377 60753
" />
<path d="M101377 60753
L101377 60596
" />
<path d="M101023 60596
L101377 60596
" />
<path d="M101023 60753
L101023 60596
" />
<path d="M101023 61264
L101377 61264
" />
<path d="M101377 61264
L101377 61107
" />
<path d="M101023 61107
L101377 61107
" />
<path d="M101023 61264
L101023 61107
" />
<path d="M101023 60930
L101082 60930
" />
<path d="M101082 60930
L101082 60812
" />
<path d="M101023 60812
L101082 60812
" />
<path d="M101023 60930
L101023 60812
" />
<path d="M101318 60930
L101377 60930
" />
<path d="M101377 60930
L101377 60812
" />
<path d="M101318 60812
L101377 60812
" />
<path d="M101318 60930
L101318 60812
" />
<path d="M101141 60930
L101259 60930
" />
<path d="M101259 60930
L101259 60812
" />
<path d="M101141 60812
L101259 60812
" />
<path d="M101141 60930
L101141 60812
" />
</g>
<g style="fill:#000000; fill-opacity:0.0; 
stroke:#000000; stroke-width:40; stroke-opacity:1; 
stroke-linecap:round; stroke-linejoin:round;">
<path d="M101043 60753
L101043 61107
" />
<path d="M101357 60753
L101357 61107
" />
</g>
<g style="fill:#000000; fill-opacity:0.0; 
stroke:#000000; stroke-width:26; stroke-opacity:1; 
stroke-linecap:round; stroke-linejoin:round;">
<path d="M101023 56153
L101377 56153
" />
<path d="M101377 56153
L101377 55996
" />
<path d="M101023 55996
L101377 55996
" />
<path d="M101023 56153
L101023 55996
" />
<path d="M101023 56664
L101377 56664
" />
<path d="M101377 56664
L101377 56507
" />
<path d="M101023 56507
L101377 56507
" />
<path d="M101023 56664
L101023 56507
" />
<path d="M101023 56330
L101082 56330
" />
<path d="M101082 56330
L101082 56212
" />
<path d="M101023 56212
L101082 56212
" />
<path d="M101023 56330
L101023 56212
" />
<path d="M101318 56330
L101377 56330
" />
<path d="M101377 56330
L101377 56212
" />
<path d="M101318 56212
L101377 56212
" />
<path d="M101318 56330
L101318 56212
" />
<path d="M101141 56330
L101259 56330
" />
<path d="M101259 56330
L101259 56212
" />
<path d="M101141 56212
L101259 56212
" />
<path d="M101141 56330
L101141 56212
" />
</g>
<g style="fill:#000000; fill-opacity:0.0; 
stroke:#000000; stroke-width:40; stroke-opacity:1; 
stroke-linecap:round; stroke-linejoin:round;">
<path d="M101043 56153
L101043 56507
" />
<path d="M101357 56153
L101357 56507
" />
</g>
<g style="fill:#000000; fill-opacity:0.0; 
stroke:#000000; stroke-width:50; stroke-opacity:1; 
stroke-linecap:round; stroke-linejoin:round;">
<path d="M88250 59480
L90250 59480
" />
<path d="M88250 61180
L90250 61180
" />
<path d="M88250 61430
L88250 59230
" />
<path d="M88250 59230
L90250 59230
" />
<path d="M90250 59230
L90250 61430
" />
<path d="M90250 61430
L88250 61430
" />
<path d="M100850 62680
L100850 61780
" />
<path d="M100850 61780
L100200 61780
" />
<path d="M99500 62680
L98850 62680
" />
<path d="M98850 62680
L98850 61780
" />
<path d="M98850 61780
L99500 61780
" />
<path d="M100200 62680
L100850 62680
" />
</g>
<g style="fill:#000000; fill-opacity:0.0; 
stroke:#000000; stroke-width:39.3701; stroke-opacity:1; 
stroke-linecap:round; stroke-linejoin:round;">
</g>
<g style="fill:#000000; fill-opacity:1.0; 
stroke:#000000; stroke-width:39.3701; stroke-opacity:1; 
stroke-linecap:round; stroke-linejoin:round;">
<circle cx="86000" cy="19230" r="260.315" /> 
<circle cx="86000" cy="17230" r="260.315" /> 
<circle cx="81950" cy="29180" r="374.016" /> 
<circle cx="81950" cy="19430" r="374.016" /> 
<circle cx="98900" cy="17230" r="374.016" /> 
<circle cx="98950" cy="31730" r="374.016" /> 
<polyline style="fill-rule:evenodd;"
points="102223,32645
101476,32645
101476,33314
102223,33314
102223,32645
" /> 
<circle cx="101850" cy="31980" r="373.815" /> 
<circle cx="101850" cy="30980" r="373.815" /> 
<circle cx="101850" cy="29980" r="373.815" /> 
<polyline style="fill-rule:evenodd;"
points="102223,28045
101476,28045
101476,28714
102223,28714
102223,28045
" /> 
<circle cx="101850" cy="27380" r="373.815" /> 
<circle cx="101850" cy="26380" r="373.815" /> 
<circle cx="101850" cy="25380" r="373.815" /> 
<polyline style="fill-rule:evenodd;"
points="102223,23395
101476,23395
101476,24064
102223,24064
102223,23395
" /> 
<circle cx="101850" cy="22730" r="373.815" /> 
<circle cx="101850" cy="21730" r="373.815" /> 
<circle cx="101850" cy="20730" r="373.815" /> 
<polyline style="fill-rule:evenodd;"
points="102223,18795
101476,18795
101476,19464
102223,19464
102223,18795
" /> 
<circle cx="101850" cy="18130" r="373.815" /> 
<circle cx="101850" cy="17130" r="373.815" /> 
<circle cx="101850" cy="16130" r="373.815" /> 
<circle cx="84300" cy="24830" r="314.961" /> 
<circle cx="84300" cy="23830" r="314.961" /> 
<circle cx="83513" cy="23830" r="314.961" /> 
<circle cx="83513" cy="24830" r="314.961" /> 
<circle cx="82450" cy="26692" r="511.815" /> 
<circle cx="82450" cy="21968" r="511.815" /> 
</g> 
</svg>
