  0
SECTION
  2
HEADER
  9
$ANGBASE
  50
0.0
  9
$ANGDIR
  70
  1
  9
$MEASUREMENT
  70
0
  0
ENDSEC
  0
SECTION
  2
TABLES
  0
TABLE
  2
LTYPE
  70
1
  0
LTYPE
  2
CONTINUOUS
  70
0
  3
Solid line
  72
65
  73
0
  40
0.0
  0
ENDTAB
  0
TABLE
  2
STYLE
  70
4
  0
STYLE
  2
KICAD
  70
0
  40
0
  41
1
  42
1
  50
0
  71
0
  3
isocp.shx
  0
STYLE
  2
KICADB
  70
0
  40
0
  41
1
  42
1
  50
0
  71
0
  3
isocp.shx
  0
STYLE
  2
KICADI
  70
0
  40
0
  41
1
  42
1
  50
15
  71
0
  3
isocp.shx
  0
STYLE
  2
KICADBI
  70
0
  40
0
  41
1
  42
1
  50
15
  71
0
  3
isocp.shx
  0
ENDTAB
  0
TABLE
  2
LAYER
  70
24
  0
LAYER
  2
BLACK
  70
0
  62
250
  6
CONTINUOUS
  0
LAYER
  2
BLUE
  70
0
  62
5
  6
CONTINUOUS
  0
LAYER
  2
GREEN
  70
0
  62
3
  6
CONTINUOUS
  0
LAYER
  2
CYAN
  70
0
  62
4
  6
CONTINUOUS
  0
LAYER
  2
RED
  70
0
  62
1
  6
CONTINUOUS
  0
LAYER
  2
MAGENTA
  70
0
  62
6
  6
CONTINUOUS
  0
LAYER
  2
BROWN
  70
0
  62
54
  6
CONTINUOUS
  0
LAYER
  2
LIGHTGRAY
  70
0
  62
9
  6
CONTINUOUS
  0
LAYER
  2
DARKGRAY
  70
0
  62
8
  6
CONTINUOUS
  0
LAYER
  2
LIGHTBLUE
  70
0
  62
171
  6
CONTINUOUS
  0
LAYER
  2
LIGHTGREEN
  70
0
  62
91
  6
CONTINUOUS
  0
LAYER
  2
LIGHTCYAN
  70
0
  62
131
  6
CONTINUOUS
  0
LAYER
  2
LIGHTRED
  70
0
  62
11
  6
CONTINUOUS
  0
LAYER
  2
LIGHTMAGENTA
  70
0
  62
221
  6
CONTINUOUS
  0
LAYER
  2
YELLOW
  70
0
  62
2
  6
CONTINUOUS
  0
LAYER
  2
WHITE
  70
0
  62
7
  6
CONTINUOUS
  0
LAYER
  2
DARKDARKGRAY
  70
0
  62
251
  6
CONTINUOUS
  0
LAYER
  2
DARKBLUE
  70
0
  62
178
  6
CONTINUOUS
  0
LAYER
  2
DARKGREEN
  70
0
  62
98
  6
CONTINUOUS
  0
LAYER
  2
DARKCYAN
  70
0
  62
138
  6
CONTINUOUS
  0
LAYER
  2
DARKRED
  70
0
  62
18
  6
CONTINUOUS
  0
LAYER
  2
DARKMAGENTA
  70
0
  62
228
  6
CONTINUOUS
  0
LAYER
  2
DARKBROWN
  70
0
  62
58
  6
CONTINUOUS
  0
LAYER
  2
LIGHTYELLOW
  70
0
  62
51
  6
CONTINUOUS
  0
ENDTAB
  0
ENDSEC
  0
SECTION
  2
ENTITIES
0
LINE
8
RED
10
10.16
20
-10.16
11
286.842
21
-10.16
0
LINE
8
RED
10
286.842
20
-10.16
11
286.842
21
-199.847
0
LINE
8
RED
10
286.842
20
-199.847
11
10.16
21
-199.847
0
LINE
8
RED
10
10.16
20
-199.847
11
10.16
21
-10.16
0
LINE
8
RED
10
11.938
20
-11.938
11
285.064
21
-11.938
0
LINE
8
RED
10
285.064
20
-11.938
11
285.064
21
-198.069
0
LINE
8
RED
10
285.064
20
-198.069
11
11.938
21
-198.069
0
LINE
8
RED
10
11.938
20
-198.069
11
11.938
21
-11.938
0
LINE
8
RED
10
65.4812
20
-10.16
11
65.4812
21
-11.938
  0
TEXT
  7
KICAD
  8
RED
  10
37.8206
  11
37.8206
  20
-11.049
  21
-11.049
  40
1.27
  41
1
  50
0
  51
0
  71
0
  72
1
  73
2
  1
1
0
LINE
8
RED
10
65.4812
20
-199.847
11
65.4812
21
-198.069
  0
TEXT
  7
KICAD
  8
RED
  10
37.8206
  11
37.8206
  20
-198.958
  21
-198.958
  40
1.27
  41
1
  50
0
  51
0
  71
0
  72
1
  73
2
  1
1
0
LINE
8
RED
10
120.802
20
-10.16
11
120.802
21
-11.938
  0
TEXT
  7
KICAD
  8
RED
  10
93.1418
  11
93.1418
  20
-11.049
  21
-11.049
  40
1.27
  41
1
  50
0
  51
0
  71
0
  72
1
  73
2
  1
2
0
LINE
8
RED
10
120.802
20
-199.847
11
120.802
21
-198.069
  0
TEXT
  7
KICAD
  8
RED
  10
93.1418
  11
93.1418
  20
-198.958
  21
-198.958
  40
1.27
  41
1
  50
0
  51
0
  71
0
  72
1
  73
2
  1
2
0
LINE
8
RED
10
176.124
20
-10.16
11
176.124
21
-11.938
  0
TEXT
  7
KICAD
  8
RED
  10
148.463
  11
148.463
  20
-11.049
  21
-11.049
  40
1.27
  41
1
  50
0
  51
0
  71
0
  72
1
  73
2
  1
3
0
LINE
8
RED
10
176.124
20
-199.847
11
176.124
21
-198.069
  0
TEXT
  7
KICAD
  8
RED
  10
148.463
  11
148.463
  20
-198.958
  21
-198.958
  40
1.27
  41
1
  50
0
  51
0
  71
0
  72
1
  73
2
  1
3
0
LINE
8
RED
10
231.445
20
-10.16
11
231.445
21
-11.938
  0
TEXT
  7
KICAD
  8
RED
  10
203.784
  11
203.784
  20
-11.049
  21
-11.049
  40
1.27
  41
1
  50
0
  51
0
  71
0
  72
1
  73
2
  1
4
0
LINE
8
RED
10
231.445
20
-199.847
11
231.445
21
-198.069
  0
TEXT
  7
KICAD
  8
RED
  10
203.784
  11
203.784
  20
-198.958
  21
-198.958
  40
1.27
  41
1
  50
0
  51
0
  71
0
  72
1
  73
2
  1
4
  0
TEXT
  7
KICAD
  8
RED
  10
259.105
  11
259.105
  20
-11.049
  21
-11.049
  40
1.27
  41
1
  50
0
  51
0
  71
0
  72
1
  73
2
  1
5
  0
TEXT
  7
KICAD
  8
RED
  10
259.105
  11
259.105
  20
-198.958
  21
-198.958
  40
1.27
  41
1
  50
0
  51
0
  71
0
  72
1
  73
2
  1
5
0
LINE
8
RED
10
10.16
20
-73.3806
11
11.938
21
-73.3806
  0
TEXT
  7
KICAD
  8
RED
  10
11.049
  11
11.049
  20
-41.783
  21
-41.783
  40
1.27
  41
1
  50
0
  51
0
  71
0
  72
1
  73
2
  1
A
0
LINE
8
RED
10
286.842
20
-73.3806
11
285.064
21
-73.3806
  0
TEXT
  7
KICAD
  8
RED
  10
285.953
  11
285.953
  20
-41.783
  21
-41.783
  40
1.27
  41
1
  50
0
  51
0
  71
0
  72
1
  73
2
  1
A
0
LINE
8
RED
10
10.16
20
-136.601
11
11.938
21
-136.601
  0
TEXT
  7
KICAD
  8
RED
  10
11.049
  11
11.049
  20
-105.004
  21
-105.004
  40
1.27
  41
1
  50
0
  51
0
  71
0
  72
1
  73
2
  1
B
0
LINE
8
RED
10
286.842
20
-136.601
11
285.064
21
-136.601
  0
TEXT
  7
KICAD
  8
RED
  10
285.953
  11
285.953
  20
-105.004
  21
-105.004
  40
1.27
  41
1
  50
0
  51
0
  71
0
  72
1
  73
2
  1
B
  0
TEXT
  7
KICAD
  8
RED
  10
11.049
  11
11.049
  20
-168.224
  21
-168.224
  40
1.27
  41
1
  50
0
  51
0
  71
0
  72
1
  73
2
  1
C
  0
TEXT
  7
KICAD
  8
RED
  10
285.953
  11
285.953
  20
-168.224
  21
-168.224
  40
1.27
  41
1
  50
0
  51
0
  71
0
  72
1
  73
2
  1
C
  0
TEXT
  7
KICADI
  8
RED
  10
201.244
  11
201.244
  20
-193.497
  21
-193.497
  40
1.524
  41
1
  50
0
  51
15
  71
0
  72
0
  73
2
  1
Date: 16 may 2015
  0
TEXT
  7
KICAD
  8
RED
  10
179.908
  11
179.908
  20
-196.545
  21
-196.545
  40
1.524
  41
1
  50
0
  51
0
  71
0
  72
0
  73
2
  1
KiCad E.D.A.  
  0
TEXT
  7
KICADI
  8
RED
  10
264.236
  11
264.236
  20
-193.497
  21
-193.497
  40
1.524
  41
1
  50
0
  51
15
  71
0
  72
0
  73
2
  1
Rev: V1-10
  0
TEXT
  7
KICAD
  8
RED
  10
179.908
  11
179.908
  20
-193.497
  21
-193.497
  40
1.524
  41
1
  50
0
  51
0
  71
0
  72
0
  73
2
  1
Size: A4
  0
TEXT
  7
KICAD
  8
RED
  10
264.236
  11
264.236
  20
-196.545
  21
-196.545
  40
1.524
  41
1
  50
0
  51
0
  71
0
  72
0
  73
2
  1
Id: 1/1
  0
TEXT
  7
KICADI
  8
RED
  10
179.908
  11
179.908
  20
-190.449
  21
-190.449
  40
1.524
  41
1
  50
0
  51
15
  71
0
  72
0
  73
2
  1
Title: USB_TO_4UART_BOARD
  0
TEXT
  7
KICAD
  8
RED
  10
179.908
  11
179.908
  20
-184.353
  21
-184.353
  40
1.524
  41
1
  50
0
  51
0
  71
0
  72
0
  73
2
  1
File: USB_TO_4UART_BOARD.sch
  0
TEXT
  7
KICAD
  8
RED
  10
179.908
  11
179.908
  20
-187.401
  21
-187.401
  40
1.524
  41
1
  50
0
  51
0
  71
0
  72
0
  73
2
  1
Sheet: /
  0
TEXT
  7
KICADI
  8
RED
  10
179.908
  11
179.908
  20
-181.305
  21
-181.305
  40
1.524
  41
1
  50
0
  51
15
  71
0
  72
0
  73
2
  1
F4DEB
0
LINE
8
RED
10
178.384
20
-179.781
11
178.384
21
-198.069
0
LINE
8
RED
10
178.384
20
-182.829
11
285.064
21
-182.829
0
LINE
8
RED
10
178.384
20
-179.781
11
285.064
21
-179.781
0
LINE
8
RED
10
178.384
20
-188.925
11
285.064
21
-188.925
0
LINE
8
RED
10
262.712
20
-191.973
11
262.712
21
-198.069
0
LINE
8
RED
10
178.384
20
-195.021
11
285.064
21
-195.021
0
LINE
8
RED
10
178.384
20
-191.973
11
285.064
21
-191.973
0
LINE
8
RED
10
195.148
20
-191.973
11
195.148
21
-195.021
0
LINE
8
RED
10
274.32
20
-69.85
11
274.32
21
-59.69
0
LINE
8
RED
10
274.32
20
-59.69
11
279.4
21
-59.69
0
LINE
8
RED
10
279.4
20
-59.69
11
279.4
21
-69.85
0
LINE
8
RED
10
279.4
20
-69.85
11
274.32
21
-69.85
0
CIRCLE
8
RED
10
273.431
20
-68.58
40
0.889
0
LINE
8
RED
10
272.542
20
-68.58
11
267.97
21
-68.58
  0
TEXT
  7
KICAD
  8
RED
  10
271.145
  11
271.145
  20
-68.326
  21
-68.326
  40
1.27
  41
1
  50
0
  51
0
  71
0
  72
1
  73
1
  1
1
0
CIRCLE
8
RED
10
273.431
20
-66.04
40
0.889
0
LINE
8
RED
10
272.542
20
-66.04
11
267.97
21
-66.04
  0
TEXT
  7
KICAD
  8
RED
  10
271.145
  11
271.145
  20
-65.786
  21
-65.786
  40
1.27
  41
1
  50
0
  51
0
  71
0
  72
1
  73
1
  1
2
0
CIRCLE
8
RED
10
273.431
20
-63.5
40
0.889
0
LINE
8
RED
10
272.542
20
-63.5
11
267.97
21
-63.5
  0
TEXT
  7
KICAD
  8
RED
  10
271.145
  11
271.145
  20
-63.246
  21
-63.246
  40
1.27
  41
1
  50
0
  51
0
  71
0
  72
1
  73
1
  1
3
0
CIRCLE
8
RED
10
273.431
20
-60.96
40
0.889
0
LINE
8
RED
10
272.542
20
-60.96
11
267.97
21
-60.96
  0
TEXT
  7
KICAD
  8
RED
  10
271.145
  11
271.145
  20
-60.706
  21
-60.706
  40
1.27
  41
1
  50
0
  51
0
  71
0
  72
1
  73
1
  1
4
  0
TEXT
  7
KICAD
  8
CYAN
  10
275.514
  11
275.514
  20
-64.77
  21
-64.77
  40
1.27
  41
1
  50
90
  51
0
  71
0
  72
1
  73
2
  1
P2
  0
TEXT
  7
KICAD
  8
CYAN
  10
278.054
  11
278.054
  20
-64.77
  21
-64.77
  40
1.27
  41
1
  50
90
  51
0
  71
0
  72
1
  73
2
  1
CONN_4
0
LINE
8
RED
10
274.32
20
-100.33
11
274.32
21
-90.17
0
LINE
8
RED
10
274.32
20
-90.17
11
279.4
21
-90.17
0
LINE
8
RED
10
279.4
20
-90.17
11
279.4
21
-100.33
0
LINE
8
RED
10
279.4
20
-100.33
11
274.32
21
-100.33
0
CIRCLE
8
RED
10
273.431
20
-99.06
40
0.889
0
LINE
8
RED
10
272.542
20
-99.06
11
267.97
21
-99.06
  0
TEXT
  7
KICAD
  8
RED
  10
271.145
  11
271.145
  20
-98.806
  21
-98.806
  40
1.27
  41
1
  50
0
  51
0
  71
0
  72
1
  73
1
  1
1
0
CIRCLE
8
RED
10
273.431
20
-96.52
40
0.889
0
LINE
8
RED
10
272.542
20
-96.52
11
267.97
21
-96.52
  0
TEXT
  7
KICAD
  8
RED
  10
271.145
  11
271.145
  20
-96.266
  21
-96.266
  40
1.27
  41
1
  50
0
  51
0
  71
0
  72
1
  73
1
  1
2
0
CIRCLE
8
RED
10
273.431
20
-93.98
40
0.889
0
LINE
8
RED
10
272.542
20
-93.98
11
267.97
21
-93.98
  0
TEXT
  7
KICAD
  8
RED
  10
271.145
  11
271.145
  20
-93.726
  21
-93.726
  40
1.27
  41
1
  50
0
  51
0
  71
0
  72
1
  73
1
  1
3
0
CIRCLE
8
RED
10
273.431
20
-91.44
40
0.889
0
LINE
8
RED
10
272.542
20
-91.44
11
267.97
21
-91.44
  0
TEXT
  7
KICAD
  8
RED
  10
271.145
  11
271.145
  20
-91.186
  21
-91.186
  40
1.27
  41
1
  50
0
  51
0
  71
0
  72
1
  73
1
  1
4
  0
TEXT
  7
KICAD
  8
CYAN
  10
275.514
  11
275.514
  20
-95.25
  21
-95.25
  40
1.27
  41
1
  50
90
  51
0
  71
0
  72
1
  73
2
  1
P3
  0
TEXT
  7
KICAD
  8
CYAN
  10
278.054
  11
278.054
  20
-95.25
  21
-95.25
  40
1.27
  41
1
  50
90
  51
0
  71
0
  72
1
  73
2
  1
CONN_4
0
LINE
8
RED
10
274.32
20
-129.54
11
274.32
21
-119.38
0
LINE
8
RED
10
274.32
20
-119.38
11
279.4
21
-119.38
0
LINE
8
RED
10
279.4
20
-119.38
11
279.4
21
-129.54
0
LINE
8
RED
10
279.4
20
-129.54
11
274.32
21
-129.54
0
CIRCLE
8
RED
10
273.431
20
-128.27
40
0.889
0
LINE
8
RED
10
272.542
20
-128.27
11
267.97
21
-128.27
  0
TEXT
  7
KICAD
  8
RED
  10
271.145
  11
271.145
  20
-128.016
  21
-128.016
  40
1.27
  41
1
  50
0
  51
0
  71
0
  72
1
  73
1
  1
1
0
CIRCLE
8
RED
10
273.431
20
-125.73
40
0.889
0
LINE
8
RED
10
272.542
20
-125.73
11
267.97
21
-125.73
  0
TEXT
  7
KICAD
  8
RED
  10
271.145
  11
271.145
  20
-125.476
  21
-125.476
  40
1.27
  41
1
  50
0
  51
0
  71
0
  72
1
  73
1
  1
2
0
CIRCLE
8
RED
10
273.431
20
-123.19
40
0.889
0
LINE
8
RED
10
272.542
20
-123.19
11
267.97
21
-123.19
  0
TEXT
  7
KICAD
  8
RED
  10
271.145
  11
271.145
  20
-122.936
  21
-122.936
  40
1.27
  41
1
  50
0
  51
0
  71
0
  72
1
  73
1
  1
3
0
CIRCLE
8
RED
10
273.431
20
-120.65
40
0.889
0
LINE
8
RED
10
272.542
20
-120.65
11
267.97
21
-120.65
  0
TEXT
  7
KICAD
  8
RED
  10
271.145
  11
271.145
  20
-120.396
  21
-120.396
  40
1.27
  41
1
  50
0
  51
0
  71
0
  72
1
  73
1
  1
4
  0
TEXT
  7
KICAD
  8
CYAN
  10
275.514
  11
275.514
  20
-124.46
  21
-124.46
  40
1.27
  41
1
  50
90
  51
0
  71
0
  72
1
  73
2
  1
P4
  0
TEXT
  7
KICAD
  8
CYAN
  10
278.054
  11
278.054
  20
-124.46
  21
-124.46
  40
1.27
  41
1
  50
90
  51
0
  71
0
  72
1
  73
2
  1
CONN_4
0
LINE
8
RED
10
274.32
20
-160.02
11
274.32
21
-149.86
0
LINE
8
RED
10
274.32
20
-149.86
11
279.4
21
-149.86
0
LINE
8
RED
10
279.4
20
-149.86
11
279.4
21
-160.02
0
LINE
8
RED
10
279.4
20
-160.02
11
274.32
21
-160.02
0
CIRCLE
8
RED
10
273.431
20
-158.75
40
0.889
0
LINE
8
RED
10
272.542
20
-158.75
11
267.97
21
-158.75
  0
TEXT
  7
KICAD
  8
RED
  10
271.145
  11
271.145
  20
-158.496
  21
-158.496
  40
1.27
  41
1
  50
0
  51
0
  71
0
  72
1
  73
1
  1
1
0
CIRCLE
8
RED
10
273.431
20
-156.21
40
0.889
0
LINE
8
RED
10
272.542
20
-156.21
11
267.97
21
-156.21
  0
TEXT
  7
KICAD
  8
RED
  10
271.145
  11
271.145
  20
-155.956
  21
-155.956
  40
1.27
  41
1
  50
0
  51
0
  71
0
  72
1
  73
1
  1
2
0
CIRCLE
8
RED
10
273.431
20
-153.67
40
0.889
0
LINE
8
RED
10
272.542
20
-153.67
11
267.97
21
-153.67
  0
TEXT
  7
KICAD
  8
RED
  10
271.145
  11
271.145
  20
-153.416
  21
-153.416
  40
1.27
  41
1
  50
0
  51
0
  71
0
  72
1
  73
1
  1
3
0
CIRCLE
8
RED
10
273.431
20
-151.13
40
0.889
0
LINE
8
RED
10
272.542
20
-151.13
11
267.97
21
-151.13
  0
TEXT
  7
KICAD
  8
RED
  10
271.145
  11
271.145
  20
-150.876
  21
-150.876
  40
1.27
  41
1
  50
0
  51
0
  71
0
  72
1
  73
1
  1
4
  0
TEXT
  7
KICAD
  8
CYAN
  10
275.514
  11
275.514
  20
-154.94
  21
-154.94
  40
1.27
  41
1
  50
90
  51
0
  71
0
  72
1
  73
2
  1
P5
  0
TEXT
  7
KICAD
  8
CYAN
  10
278.054
  11
278.054
  20
-154.94
  21
-154.94
  40
1.27
  41
1
  50
90
  51
0
  71
0
  72
1
  73
2
  1
CONN_4
0
LINE
8
RED
10
99.06
20
-66.04
11
99.06
21
-160.02
0
LINE
8
RED
10
99.06
20
-160.02
11
149.86
21
-160.02
0
LINE
8
RED
10
149.86
20
-160.02
11
149.86
21
-66.04
0
LINE
8
RED
10
149.86
20
-66.04
11
99.06
21
-66.04
0
LINE
8
RED
10
119.38
20
-160.02
11
119.38
21
-162.56
  0
TEXT
  7
KICAD
  8
CYAN
  10
119.38
  11
119.38
  20
-159.004
  21
-159.004
  40
1.27
  41
1
  50
90
  51
0
  71
0
  72
0
  73
2
  1
GND
  0
TEXT
  7
KICAD
  8
RED
  10
119.126
  11
119.126
  20
-161.29
  21
-161.29
  40
1.27
  41
1
  50
90
  51
0
  71
0
  72
1
  73
1
  1
1
0
LINE
8
RED
10
99.06
20
-132.08
11
96.52
21
-132.08
  0
TEXT
  7
KICAD
  8
CYAN
  10
100.076
  11
100.076
  20
-132.08
  21
-132.08
  40
1.27
  41
1
  50
0
  51
0
  71
0
  72
0
  73
2
  1
OSCI
  0
TEXT
  7
KICAD
  8
RED
  10
97.79
  11
97.79
  20
-131.826
  21
-131.826
  40
1.27
  41
1
  50
0
  51
0
  71
0
  72
1
  73
1
  1
2
0
LINE
8
RED
10
99.06
20
-144.78
11
96.52
21
-144.78
  0
TEXT
  7
KICAD
  8
CYAN
  10
100.076
  11
100.076
  20
-144.78
  21
-144.78
  40
1.27
  41
1
  50
0
  51
0
  71
0
  72
0
  73
2
  1
OSCO
  0
TEXT
  7
KICAD
  8
RED
  10
97.79
  11
97.79
  20
-144.526
  21
-144.526
  40
1.27
  41
1
  50
0
  51
0
  71
0
  72
1
  73
1
  1
3
0
LINE
8
RED
10
110.49
20
-66.04
11
110.49
21
-63.5
  0
TEXT
  7
KICAD
  8
CYAN
  10
110.49
  11
110.49
  20
-67.056
  21
-67.056
  40
1.27
  41
1
  50
90
  51
0
  71
0
  72
2
  73
2
  1
VPHY
  0
TEXT
  7
KICAD
  8
RED
  10
110.236
  11
110.236
  20
-64.77
  21
-64.77
  40
1.27
  41
1
  50
90
  51
0
  71
0
  72
1
  73
1
  1
4
0
LINE
8
RED
10
121.92
20
-160.02
11
121.92
21
-162.56
  0
TEXT
  7
KICAD
  8
CYAN
  10
121.92
  11
121.92
  20
-159.004
  21
-159.004
  40
1.27
  41
1
  50
90
  51
0
  71
0
  72
0
  73
2
  1
GND
  0
TEXT
  7
KICAD
  8
RED
  10
121.666
  11
121.666
  20
-161.29
  21
-161.29
  40
1.27
  41
1
  50
90
  51
0
  71
0
  72
1
  73
1
  1
5
0
LINE
8
RED
10
99.06
20
-92.71
11
96.52
21
-92.71
  0
TEXT
  7
KICAD
  8
CYAN
  10
100.076
  11
100.076
  20
-92.71
  21
-92.71
  40
1.27
  41
1
  50
0
  51
0
  71
0
  72
0
  73
2
  1
REF
  0
TEXT
  7
KICAD
  8
RED
  10
97.79
  11
97.79
  20
-92.456
  21
-92.456
  40
1.27
  41
1
  50
0
  51
0
  71
0
  72
1
  73
1
  1
6
0
LINE
8
RED
10
99.06
20
-80.01
11
96.52
21
-80.01
  0
TEXT
  7
KICAD
  8
CYAN
  10
100.076
  11
100.076
  20
-80.01
  21
-80.01
  40
1.27
  41
1
  50
0
  51
0
  71
0
  72
0
  73
2
  1
DM
  0
TEXT
  7
KICAD
  8
RED
  10
97.79
  11
97.79
  20
-79.756
  21
-79.756
  40
1.27
  41
1
  50
0
  51
0
  71
0
  72
1
  73
1
  1
7
0
LINE
8
RED
10
99.06
20
-82.55
11
96.52
21
-82.55
  0
TEXT
  7
KICAD
  8
CYAN
  10
100.076
  11
100.076
  20
-82.55
  21
-82.55
  40
1.27
  41
1
  50
0
  51
0
  71
0
  72
0
  73
2
  1
DP
  0
TEXT
  7
KICAD
  8
RED
  10
97.79
  11
97.79
  20
-82.296
  21
-82.296
  40
1.27
  41
1
  50
0
  51
0
  71
0
  72
1
  73
1
  1
8
0
LINE
8
RED
10
113.03
20
-66.04
11
113.03
21
-63.5
  0
TEXT
  7
KICAD
  8
CYAN
  10
113.03
  11
113.03
  20
-67.056
  21
-67.056
  40
1.27
  41
1
  50
90
  51
0
  71
0
  72
2
  73
2
  1
VPLL
  0
TEXT
  7
KICAD
  8
RED
  10
112.776
  11
112.776
  20
-64.77
  21
-64.77
  40
1.27
  41
1
  50
90
  51
0
  71
0
  72
1
  73
1
  1
9
0
LINE
8
RED
10
115.57
20
-160.02
11
115.57
21
-162.56
  0
TEXT
  7
KICAD
  8
CYAN
  10
115.57
  11
115.57
  20
-159.004
  21
-159.004
  40
1.27
  41
1
  50
90
  51
0
  71
0
  72
0
  73
2
  1
AGND
  0
TEXT
  7
KICAD
  8
RED
  10
115.316
  11
115.316
  20
-161.29
  21
-161.29
  40
1.27
  41
1
  50
90
  51
0
  71
0
  72
1
  73
1
  1
10
0
LINE
8
RED
10
130.81
20
-66.04
11
130.81
21
-63.5
  0
TEXT
  7
KICAD
  8
CYAN
  10
130.81
  11
130.81
  20
-67.056
  21
-67.056
  40
1.27
  41
1
  50
90
  51
0
  71
0
  72
2
  73
2
  1
VCCIO
  0
TEXT
  7
KICAD
  8
RED
  10
130.556
  11
130.556
  20
-64.77
  21
-64.77
  40
1.27
  41
1
  50
90
  51
0
  71
0
  72
1
  73
1
  1
20
0
LINE
8
RED
10
149.86
20
-100.33
11
152.4
21
-100.33
  0
TEXT
  7
KICAD
  8
CYAN
  10
148.844
  11
148.844
  20
-100.33
  21
-100.33
  40
1.27
  41
1
  50
0
  51
0
  71
0
  72
2
  73
2
  1
BDBUS4
  0
TEXT
  7
KICAD
  8
RED
  10
151.13
  11
151.13
  20
-100.076
  21
-100.076
  40
1.27
  41
1
  50
0
  51
0
  71
0
  72
1
  73
1
  1
30
0
LINE
8
RED
10
149.86
20
-116.84
11
152.4
21
-116.84
  0
TEXT
  7
KICAD
  8
CYAN
  10
148.844
  11
148.844
  20
-116.84
  21
-116.84
  40
1.27
  41
1
  50
0
  51
0
  71
0
  72
2
  73
2
  1
CDBUS2
  0
TEXT
  7
KICAD
  8
RED
  10
151.13
  11
151.13
  20
-116.586
  21
-116.586
  40
1.27
  41
1
  50
0
  51
0
  71
0
  72
1
  73
1
  1
40
0
LINE
8
RED
10
99.06
20
-68.58
11
96.52
21
-68.58
  0
TEXT
  7
KICAD
  8
CYAN
  10
100.076
  11
100.076
  20
-68.58
  21
-68.58
  40
1.27
  41
1
  50
0
  51
0
  71
0
  72
0
  73
2
  1
VREGIN
  0
TEXT
  7
KICAD
  8
RED
  10
97.79
  11
97.79
  20
-68.326
  21
-68.326
  40
1.27
  41
1
  50
0
  51
0
  71
0
  72
1
  73
1
  1
50
0
CIRCLE
8
RED
10
150.749
20
-154.94
40
0.889
0
LINE
8
RED
10
151.638
20
-154.94
11
152.4
21
-154.94
  0
TEXT
  7
KICAD
  8
CYAN
  10
148.844
  11
148.844
  20
-154.94
  21
-154.94
  40
1.27
  41
1
  50
0
  51
0
  71
0
  72
2
  73
2
  1
PWREN
  0
TEXT
  7
KICAD
  8
RED
  10
151.13
  11
151.13
  20
-154.686
  21
-154.686
  40
1.27
  41
1
  50
0
  51
0
  71
0
  72
1
  73
1
  1
60
0
LINE
8
RED
10
124.46
20
-160.02
11
124.46
21
-162.56
  0
TEXT
  7
KICAD
  8
CYAN
  10
124.46
  11
124.46
  20
-159.004
  21
-159.004
  40
1.27
  41
1
  50
90
  51
0
  71
0
  72
0
  73
2
  1
GND
  0
TEXT
  7
KICAD
  8
RED
  10
124.206
  11
124.206
  20
-161.29
  21
-161.29
  40
1.27
  41
1
  50
90
  51
0
  71
0
  72
1
  73
1
  1
11
0
LINE
8
RED
10
149.86
20
-78.74
11
152.4
21
-78.74
  0
TEXT
  7
KICAD
  8
CYAN
  10
148.844
  11
148.844
  20
-78.74
  21
-78.74
  40
1.27
  41
1
  50
0
  51
0
  71
0
  72
2
  73
2
  1
ADBUS4
  0
TEXT
  7
KICAD
  8
RED
  10
151.13
  11
151.13
  20
-78.486
  21
-78.486
  40
1.27
  41
1
  50
0
  51
0
  71
0
  72
1
  73
1
  1
21
0
LINE
8
RED
10
133.35
20
-66.04
11
133.35
21
-63.5
  0
TEXT
  7
KICAD
  8
CYAN
  10
133.35
  11
133.35
  20
-67.056
  21
-67.056
  40
1.27
  41
1
  50
90
  51
0
  71
0
  72
2
  73
2
  1
VCCIO
  0
TEXT
  7
KICAD
  8
RED
  10
133.096
  11
133.096
  20
-64.77
  21
-64.77
  40
1.27
  41
1
  50
90
  51
0
  71
0
  72
1
  73
1
  1
31
0
LINE
8
RED
10
149.86
20
-119.38
11
152.4
21
-119.38
  0
TEXT
  7
KICAD
  8
CYAN
  10
148.844
  11
148.844
  20
-119.38
  21
-119.38
  40
1.27
  41
1
  50
0
  51
0
  71
0
  72
2
  73
2
  1
CDBUS3
  0
TEXT
  7
KICAD
  8
RED
  10
151.13
  11
151.13
  20
-119.126
  21
-119.126
  40
1.27
  41
1
  50
0
  51
0
  71
0
  72
1
  73
1
  1
41
0
LINE
8
RED
10
137.16
20
-160.02
11
137.16
21
-162.56
  0
TEXT
  7
KICAD
  8
CYAN
  10
137.16
  11
137.16
  20
-159.004
  21
-159.004
  40
1.27
  41
1
  50
90
  51
0
  71
0
  72
0
  73
2
  1
GND
  0
TEXT
  7
KICAD
  8
RED
  10
136.906
  11
136.906
  20
-161.29
  21
-161.29
  40
1.27
  41
1
  50
90
  51
0
  71
0
  72
1
  73
1
  1
51
0
LINE
8
RED
10
99.06
20
-114.3
11
96.52
21
-114.3
  0
TEXT
  7
KICAD
  8
CYAN
  10
100.076
  11
100.076
  20
-114.3
  21
-114.3
  40
1.27
  41
1
  50
0
  51
0
  71
0
  72
0
  73
2
  1
EEDATA
  0
TEXT
  7
KICAD
  8
RED
  10
97.79
  11
97.79
  20
-114.046
  21
-114.046
  40
1.27
  41
1
  50
0
  51
0
  71
0
  72
1
  73
1
  1
61
0
LINE
8
RED
10
118.11
20
-66.04
11
118.11
21
-63.5
  0
TEXT
  7
KICAD
  8
CYAN
  10
118.11
  11
118.11
  20
-67.056
  21
-67.056
  40
1.27
  41
1
  50
90
  51
0
  71
0
  72
2
  73
2
  1
VCORE
  0
TEXT
  7
KICAD
  8
RED
  10
117.856
  11
117.856
  20
-64.77
  21
-64.77
  40
1.27
  41
1
  50
90
  51
0
  71
0
  72
1
  73
1
  1
12
0
LINE
8
RED
10
149.86
20
-81.28
11
152.4
21
-81.28
  0
TEXT
  7
KICAD
  8
CYAN
  10
148.844
  11
148.844
  20
-81.28
  21
-81.28
  40
1.27
  41
1
  50
0
  51
0
  71
0
  72
2
  73
2
  1
ADBUS5
  0
TEXT
  7
KICAD
  8
RED
  10
151.13
  11
151.13
  20
-81.026
  21
-81.026
  40
1.27
  41
1
  50
0
  51
0
  71
0
  72
1
  73
1
  1
22
0
LINE
8
RED
10
149.86
20
-102.87
11
152.4
21
-102.87
  0
TEXT
  7
KICAD
  8
CYAN
  10
148.844
  11
148.844
  20
-102.87
  21
-102.87
  40
1.27
  41
1
  50
0
  51
0
  71
0
  72
2
  73
2
  1
BDBUS5
  0
TEXT
  7
KICAD
  8
RED
  10
151.13
  11
151.13
  20
-102.616
  21
-102.616
  40
1.27
  41
1
  50
0
  51
0
  71
0
  72
1
  73
1
  1
32
0
LINE
8
RED
10
135.89
20
-66.04
11
135.89
21
-63.5
  0
TEXT
  7
KICAD
  8
CYAN
  10
135.89
  11
135.89
  20
-67.056
  21
-67.056
  40
1.27
  41
1
  50
90
  51
0
  71
0
  72
2
  73
2
  1
VCCIO
  0
TEXT
  7
KICAD
  8
RED
  10
135.636
  11
135.636
  20
-64.77
  21
-64.77
  40
1.27
  41
1
  50
90
  51
0
  71
0
  72
1
  73
1
  1
42
0
LINE
8
RED
10
149.86
20
-135.89
11
152.4
21
-135.89
  0
TEXT
  7
KICAD
  8
CYAN
  10
148.844
  11
148.844
  20
-135.89
  21
-135.89
  40
1.27
  41
1
  50
0
  51
0
  71
0
  72
2
  73
2
  1
DDBUS1
  0
TEXT
  7
KICAD
  8
RED
  10
151.13
  11
151.13
  20
-135.636
  21
-135.636
  40
1.27
  41
1
  50
0
  51
0
  71
0
  72
1
  73
1
  1
52
0
LINE
8
RED
10
99.06
20
-111.76
11
96.52
21
-111.76
  0
TEXT
  7
KICAD
  8
CYAN
  10
100.076
  11
100.076
  20
-111.76
  21
-111.76
  40
1.27
  41
1
  50
0
  51
0
  71
0
  72
0
  73
2
  1
EECLK
  0
TEXT
  7
KICAD
  8
RED
  10
97.79
  11
97.79
  20
-111.506
  21
-111.506
  40
1.27
  41
1
  50
0
  51
0
  71
0
  72
1
  73
1
  1
62
0
LINE
8
RED
10
99.06
20
-148.59
11
96.52
21
-148.59
  0
TEXT
  7
KICAD
  8
CYAN
  10
100.076
  11
100.076
  20
-148.59
  21
-148.59
  40
1.27
  41
1
  50
0
  51
0
  71
0
  72
0
  73
2
  1
TEST
  0
TEXT
  7
KICAD
  8
RED
  10
97.79
  11
97.79
  20
-148.336
  21
-148.336
  40
1.27
  41
1
  50
0
  51
0
  71
0
  72
1
  73
1
  1
13
0
LINE
8
RED
10
149.86
20
-83.82
11
152.4
21
-83.82
  0
TEXT
  7
KICAD
  8
CYAN
  10
148.844
  11
148.844
  20
-83.82
  21
-83.82
  40
1.27
  41
1
  50
0
  51
0
  71
0
  72
2
  73
2
  1
ADBUS6
  0
TEXT
  7
KICAD
  8
RED
  10
151.13
  11
151.13
  20
-83.566
  21
-83.566
  40
1.27
  41
1
  50
0
  51
0
  71
0
  72
1
  73
1
  1
23
0
LINE
8
RED
10
149.86
20
-105.41
11
152.4
21
-105.41
  0
TEXT
  7
KICAD
  8
CYAN
  10
148.844
  11
148.844
  20
-105.41
  21
-105.41
  40
1.27
  41
1
  50
0
  51
0
  71
0
  72
2
  73
2
  1
BDBUS6
  0
TEXT
  7
KICAD
  8
RED
  10
151.13
  11
151.13
  20
-105.156
  21
-105.156
  40
1.27
  41
1
  50
0
  51
0
  71
0
  72
1
  73
1
  1
33
0
LINE
8
RED
10
149.86
20
-121.92
11
152.4
21
-121.92
  0
TEXT
  7
KICAD
  8
CYAN
  10
148.844
  11
148.844
  20
-121.92
  21
-121.92
  40
1.27
  41
1
  50
0
  51
0
  71
0
  72
2
  73
2
  1
CDBUS4
  0
TEXT
  7
KICAD
  8
RED
  10
151.13
  11
151.13
  20
-121.666
  21
-121.666
  40
1.27
  41
1
  50
0
  51
0
  71
0
  72
1
  73
1
  1
43
0
LINE
8
RED
10
149.86
20
-138.43
11
152.4
21
-138.43
  0
TEXT
  7
KICAD
  8
CYAN
  10
148.844
  11
148.844
  20
-138.43
  21
-138.43
  40
1.27
  41
1
  50
0
  51
0
  71
0
  72
2
  73
2
  1
DDBUS2
  0
TEXT
  7
KICAD
  8
RED
  10
151.13
  11
151.13
  20
-138.176
  21
-138.176
  40
1.27
  41
1
  50
0
  51
0
  71
0
  72
1
  73
1
  1
53
0
LINE
8
RED
10
99.06
20
-109.22
11
96.52
21
-109.22
  0
TEXT
  7
KICAD
  8
CYAN
  10
100.076
  11
100.076
  20
-109.22
  21
-109.22
  40
1.27
  41
1
  50
0
  51
0
  71
0
  72
0
  73
2
  1
EECS
  0
TEXT
  7
KICAD
  8
RED
  10
97.79
  11
97.79
  20
-108.966
  21
-108.966
  40
1.27
  41
1
  50
0
  51
0
  71
0
  72
1
  73
1
  1
63
0
CIRCLE
8
RED
10
98.171
20
-96.52
40
0.889
0
LINE
8
RED
10
97.282
20
-96.52
11
96.52
21
-96.52
  0
TEXT
  7
KICAD
  8
CYAN
  10
100.076
  11
100.076
  20
-96.52
  21
-96.52
  40
1.27
  41
1
  50
0
  51
0
  71
0
  72
0
  73
2
  1
RESET
  0
TEXT
  7
KICAD
  8
RED
  10
97.79
  11
97.79
  20
-96.266
  21
-96.266
  40
1.27
  41
1
  50
0
  51
0
  71
0
  72
1
  73
1
  1
14
0
LINE
8
RED
10
149.86
20
-86.36
11
152.4
21
-86.36
  0
TEXT
  7
KICAD
  8
CYAN
  10
148.844
  11
148.844
  20
-86.36
  21
-86.36
  40
1.27
  41
1
  50
0
  51
0
  71
0
  72
2
  73
2
  1
ADBUS7
  0
TEXT
  7
KICAD
  8
RED
  10
151.13
  11
151.13
  20
-86.106
  21
-86.106
  40
1.27
  41
1
  50
0
  51
0
  71
0
  72
1
  73
1
  1
24
0
LINE
8
RED
10
149.86
20
-107.95
11
152.4
21
-107.95
  0
TEXT
  7
KICAD
  8
CYAN
  10
148.844
  11
148.844
  20
-107.95
  21
-107.95
  40
1.27
  41
1
  50
0
  51
0
  71
0
  72
2
  73
2
  1
BDBUS7
  0
TEXT
  7
KICAD
  8
RED
  10
151.13
  11
151.13
  20
-107.696
  21
-107.696
  40
1.27
  41
1
  50
0
  51
0
  71
0
  72
1
  73
1
  1
34
0
LINE
8
RED
10
149.86
20
-124.46
11
152.4
21
-124.46
  0
TEXT
  7
KICAD
  8
CYAN
  10
148.844
  11
148.844
  20
-124.46
  21
-124.46
  40
1.27
  41
1
  50
0
  51
0
  71
0
  72
2
  73
2
  1
CDBUS5
  0
TEXT
  7
KICAD
  8
RED
  10
151.13
  11
151.13
  20
-124.206
  21
-124.206
  40
1.27
  41
1
  50
0
  51
0
  71
0
  72
1
  73
1
  1
44
0
LINE
8
RED
10
149.86
20
-140.97
11
152.4
21
-140.97
  0
TEXT
  7
KICAD
  8
CYAN
  10
148.844
  11
148.844
  20
-140.97
  21
-140.97
  40
1.27
  41
1
  50
0
  51
0
  71
0
  72
2
  73
2
  1
DDBUS3
  0
TEXT
  7
KICAD
  8
RED
  10
151.13
  11
151.13
  20
-140.716
  21
-140.716
  40
1.27
  41
1
  50
0
  51
0
  71
0
  72
1
  73
1
  1
54
0
LINE
8
RED
10
123.19
20
-66.04
11
123.19
21
-63.5
  0
TEXT
  7
KICAD
  8
CYAN
  10
123.19
  11
123.19
  20
-67.056
  21
-67.056
  40
1.27
  41
1
  50
90
  51
0
  71
0
  72
2
  73
2
  1
VCORE
  0
TEXT
  7
KICAD
  8
RED
  10
122.936
  11
122.936
  20
-64.77
  21
-64.77
  40
1.27
  41
1
  50
90
  51
0
  71
0
  72
1
  73
1
  1
64
0
LINE
8
RED
10
127
20
-160.02
11
127
21
-162.56
  0
TEXT
  7
KICAD
  8
CYAN
  10
127
  11
127
  20
-159.004
  21
-159.004
  40
1.27
  41
1
  50
90
  51
0
  71
0
  72
0
  73
2
  1
GND
  0
TEXT
  7
KICAD
  8
RED
  10
126.746
  11
126.746
  20
-161.29
  21
-161.29
  40
1.27
  41
1
  50
90
  51
0
  71
0
  72
1
  73
1
  1
15
0
LINE
8
RED
10
129.54
20
-160.02
11
129.54
21
-162.56
  0
TEXT
  7
KICAD
  8
CYAN
  10
129.54
  11
129.54
  20
-159.004
  21
-159.004
  40
1.27
  41
1
  50
90
  51
0
  71
0
  72
0
  73
2
  1
GND
  0
TEXT
  7
KICAD
  8
RED
  10
129.286
  11
129.286
  20
-161.29
  21
-161.29
  40
1.27
  41
1
  50
90
  51
0
  71
0
  72
1
  73
1
  1
25
0
LINE
8
RED
10
132.08
20
-160.02
11
132.08
21
-162.56
  0
TEXT
  7
KICAD
  8
CYAN
  10
132.08
  11
132.08
  20
-159.004
  21
-159.004
  40
1.27
  41
1
  50
90
  51
0
  71
0
  72
0
  73
2
  1
GND
  0
TEXT
  7
KICAD
  8
RED
  10
131.826
  11
131.826
  20
-161.29
  21
-161.29
  40
1.27
  41
1
  50
90
  51
0
  71
0
  72
1
  73
1
  1
35
0
LINE
8
RED
10
149.86
20
-127
11
152.4
21
-127
  0
TEXT
  7
KICAD
  8
CYAN
  10
148.844
  11
148.844
  20
-127
  21
-127
  40
1.27
  41
1
  50
0
  51
0
  71
0
  72
2
  73
2
  1
CDBUS6
  0
TEXT
  7
KICAD
  8
RED
  10
151.13
  11
151.13
  20
-126.746
  21
-126.746
  40
1.27
  41
1
  50
0
  51
0
  71
0
  72
1
  73
1
  1
45
0
LINE
8
RED
10
149.86
20
-143.51
11
152.4
21
-143.51
  0
TEXT
  7
KICAD
  8
CYAN
  10
148.844
  11
148.844
  20
-143.51
  21
-143.51
  40
1.27
  41
1
  50
0
  51
0
  71
0
  72
2
  73
2
  1
DDBUS4
  0
TEXT
  7
KICAD
  8
RED
  10
151.13
  11
151.13
  20
-143.256
  21
-143.256
  40
1.27
  41
1
  50
0
  51
0
  71
0
  72
1
  73
1
  1
55
0
LINE
8
RED
10
149.86
20
-68.58
11
152.4
21
-68.58
  0
TEXT
  7
KICAD
  8
CYAN
  10
148.844
  11
148.844
  20
-68.58
  21
-68.58
  40
1.27
  41
1
  50
0
  51
0
  71
0
  72
2
  73
2
  1
ADBUS0
  0
TEXT
  7
KICAD
  8
RED
  10
151.13
  11
151.13
  20
-68.326
  21
-68.326
  40
1.27
  41
1
  50
0
  51
0
  71
0
  72
1
  73
1
  1
16
0
LINE
8
RED
10
149.86
20
-90.17
11
152.4
21
-90.17
  0
TEXT
  7
KICAD
  8
CYAN
  10
148.844
  11
148.844
  20
-90.17
  21
-90.17
  40
1.27
  41
1
  50
0
  51
0
  71
0
  72
2
  73
2
  1
BDBUS0
  0
TEXT
  7
KICAD
  8
RED
  10
151.13
  11
151.13
  20
-89.916
  21
-89.916
  40
1.27
  41
1
  50
0
  51
0
  71
0
  72
1
  73
1
  1
26
0
CIRCLE
8
RED
10
150.749
20
-157.48
40
0.889
0
LINE
8
RED
10
151.638
20
-157.48
11
152.4
21
-157.48
  0
TEXT
  7
KICAD
  8
CYAN
  10
148.844
  11
148.844
  20
-157.48
  21
-157.48
  40
1.27
  41
1
  50
0
  51
0
  71
0
  72
2
  73
2
  1
SUSPEND
  0
TEXT
  7
KICAD
  8
RED
  10
151.13
  11
151.13
  20
-157.226
  21
-157.226
  40
1.27
  41
1
  50
0
  51
0
  71
0
  72
1
  73
1
  1
36
0
LINE
8
RED
10
149.86
20
-129.54
11
152.4
21
-129.54
  0
TEXT
  7
KICAD
  8
CYAN
  10
148.844
  11
148.844
  20
-129.54
  21
-129.54
  40
1.27
  41
1
  50
0
  51
0
  71
0
  72
2
  73
2
  1
CDBUS7
  0
TEXT
  7
KICAD
  8
RED
  10
151.13
  11
151.13
  20
-129.286
  21
-129.286
  40
1.27
  41
1
  50
0
  51
0
  71
0
  72
1
  73
1
  1
46
0
LINE
8
RED
10
138.43
20
-66.04
11
138.43
21
-63.5
  0
TEXT
  7
KICAD
  8
CYAN
  10
138.43
  11
138.43
  20
-67.056
  21
-67.056
  40
1.27
  41
1
  50
90
  51
0
  71
0
  72
2
  73
2
  1
VCCIO
  0
TEXT
  7
KICAD
  8
RED
  10
138.176
  11
138.176
  20
-64.77
  21
-64.77
  40
1.27
  41
1
  50
90
  51
0
  71
0
  72
1
  73
1
  1
56
0
LINE
8
RED
10
149.86
20
-71.12
11
152.4
21
-71.12
  0
TEXT
  7
KICAD
  8
CYAN
  10
148.844
  11
148.844
  20
-71.12
  21
-71.12
  40
1.27
  41
1
  50
0
  51
0
  71
0
  72
2
  73
2
  1
ADBUS1
  0
TEXT
  7
KICAD
  8
RED
  10
151.13
  11
151.13
  20
-70.866
  21
-70.866
  40
1.27
  41
1
  50
0
  51
0
  71
0
  72
1
  73
1
  1
17
0
LINE
8
RED
10
149.86
20
-92.71
11
152.4
21
-92.71
  0
TEXT
  7
KICAD
  8
CYAN
  10
148.844
  11
148.844
  20
-92.71
  21
-92.71
  40
1.27
  41
1
  50
0
  51
0
  71
0
  72
2
  73
2
  1
BDBUS1
  0
TEXT
  7
KICAD
  8
RED
  10
151.13
  11
151.13
  20
-92.456
  21
-92.456
  40
1.27
  41
1
  50
0
  51
0
  71
0
  72
1
  73
1
  1
27
0
LINE
8
RED
10
120.65
20
-66.04
11
120.65
21
-63.5
  0
TEXT
  7
KICAD
  8
CYAN
  10
120.65
  11
120.65
  20
-67.056
  21
-67.056
  40
1.27
  41
1
  50
90
  51
0
  71
0
  72
2
  73
2
  1
VCORE
  0
TEXT
  7
KICAD
  8
RED
  10
120.396
  11
120.396
  20
-64.77
  21
-64.77
  40
1.27
  41
1
  50
90
  51
0
  71
0
  72
1
  73
1
  1
37
0
LINE
8
RED
10
134.62
20
-160.02
11
134.62
21
-162.56
  0
TEXT
  7
KICAD
  8
CYAN
  10
134.62
  11
134.62
  20
-159.004
  21
-159.004
  40
1.27
  41
1
  50
90
  51
0
  71
0
  72
0
  73
2
  1
GND
  0
TEXT
  7
KICAD
  8
RED
  10
134.366
  11
134.366
  20
-161.29
  21
-161.29
  40
1.27
  41
1
  50
90
  51
0
  71
0
  72
1
  73
1
  1
47
0
LINE
8
RED
10
149.86
20
-146.05
11
152.4
21
-146.05
  0
TEXT
  7
KICAD
  8
CYAN
  10
148.844
  11
148.844
  20
-146.05
  21
-146.05
  40
1.27
  41
1
  50
0
  51
0
  71
0
  72
2
  73
2
  1
DDBUS5
  0
TEXT
  7
KICAD
  8
RED
  10
151.13
  11
151.13
  20
-145.796
  21
-145.796
  40
1.27
  41
1
  50
0
  51
0
  71
0
  72
1
  73
1
  1
57
0
LINE
8
RED
10
149.86
20
-73.66
11
152.4
21
-73.66
  0
TEXT
  7
KICAD
  8
CYAN
  10
148.844
  11
148.844
  20
-73.66
  21
-73.66
  40
1.27
  41
1
  50
0
  51
0
  71
0
  72
2
  73
2
  1
ADBUS2
  0
TEXT
  7
KICAD
  8
RED
  10
151.13
  11
151.13
  20
-73.406
  21
-73.406
  40
1.27
  41
1
  50
0
  51
0
  71
0
  72
1
  73
1
  1
18
0
LINE
8
RED
10
149.86
20
-95.25
11
152.4
21
-95.25
  0
TEXT
  7
KICAD
  8
CYAN
  10
148.844
  11
148.844
  20
-95.25
  21
-95.25
  40
1.27
  41
1
  50
0
  51
0
  71
0
  72
2
  73
2
  1
BDBUS2
  0
TEXT
  7
KICAD
  8
RED
  10
151.13
  11
151.13
  20
-94.996
  21
-94.996
  40
1.27
  41
1
  50
0
  51
0
  71
0
  72
1
  73
1
  1
28
0
LINE
8
RED
10
149.86
20
-111.76
11
152.4
21
-111.76
  0
TEXT
  7
KICAD
  8
CYAN
  10
148.844
  11
148.844
  20
-111.76
  21
-111.76
  40
1.27
  41
1
  50
0
  51
0
  71
0
  72
2
  73
2
  1
CDBUS0
  0
TEXT
  7
KICAD
  8
RED
  10
151.13
  11
151.13
  20
-111.506
  21
-111.506
  40
1.27
  41
1
  50
0
  51
0
  71
0
  72
1
  73
1
  1
38
0
LINE
8
RED
10
149.86
20
-133.35
11
152.4
21
-133.35
  0
TEXT
  7
KICAD
  8
CYAN
  10
148.844
  11
148.844
  20
-133.35
  21
-133.35
  40
1.27
  41
1
  50
0
  51
0
  71
0
  72
2
  73
2
  1
DDBUS0
  0
TEXT
  7
KICAD
  8
RED
  10
151.13
  11
151.13
  20
-133.096
  21
-133.096
  40
1.27
  41
1
  50
0
  51
0
  71
0
  72
1
  73
1
  1
48
0
LINE
8
RED
10
149.86
20
-148.59
11
152.4
21
-148.59
  0
TEXT
  7
KICAD
  8
CYAN
  10
148.844
  11
148.844
  20
-148.59
  21
-148.59
  40
1.27
  41
1
  50
0
  51
0
  71
0
  72
2
  73
2
  1
DDBUS6
  0
TEXT
  7
KICAD
  8
RED
  10
151.13
  11
151.13
  20
-148.336
  21
-148.336
  40
1.27
  41
1
  50
0
  51
0
  71
0
  72
1
  73
1
  1
58
0
LINE
8
RED
10
149.86
20
-76.2
11
152.4
21
-76.2
  0
TEXT
  7
KICAD
  8
CYAN
  10
148.844
  11
148.844
  20
-76.2
  21
-76.2
  40
1.27
  41
1
  50
0
  51
0
  71
0
  72
2
  73
2
  1
ADBUS3
  0
TEXT
  7
KICAD
  8
RED
  10
151.13
  11
151.13
  20
-75.946
  21
-75.946
  40
1.27
  41
1
  50
0
  51
0
  71
0
  72
1
  73
1
  1
19
0
LINE
8
RED
10
149.86
20
-97.79
11
152.4
21
-97.79
  0
TEXT
  7
KICAD
  8
CYAN
  10
148.844
  11
148.844
  20
-97.79
  21
-97.79
  40
1.27
  41
1
  50
0
  51
0
  71
0
  72
2
  73
2
  1
BDBUS3
  0
TEXT
  7
KICAD
  8
RED
  10
151.13
  11
151.13
  20
-97.536
  21
-97.536
  40
1.27
  41
1
  50
0
  51
0
  71
0
  72
1
  73
1
  1
29
0
LINE
8
RED
10
149.86
20
-114.3
11
152.4
21
-114.3
  0
TEXT
  7
KICAD
  8
CYAN
  10
148.844
  11
148.844
  20
-114.3
  21
-114.3
  40
1.27
  41
1
  50
0
  51
0
  71
0
  72
2
  73
2
  1
CDBUS1
  0
TEXT
  7
KICAD
  8
RED
  10
151.13
  11
151.13
  20
-114.046
  21
-114.046
  40
1.27
  41
1
  50
0
  51
0
  71
0
  72
1
  73
1
  1
39
0
LINE
8
RED
10
99.06
20
-71.12
11
96.52
21
-71.12
  0
TEXT
  7
KICAD
  8
CYAN
  10
100.076
  11
100.076
  20
-71.12
  21
-71.12
  40
1.27
  41
1
  50
0
  51
0
  71
0
  72
0
  73
2
  1
VREGOUT
  0
TEXT
  7
KICAD
  8
RED
  10
97.79
  11
97.79
  20
-70.866
  21
-70.866
  40
1.27
  41
1
  50
0
  51
0
  71
0
  72
1
  73
1
  1
49
0
LINE
8
RED
10
149.86
20
-151.13
11
152.4
21
-151.13
  0
TEXT
  7
KICAD
  8
CYAN
  10
148.844
  11
148.844
  20
-151.13
  21
-151.13
  40
1.27
  41
1
  50
0
  51
0
  71
0
  72
2
  73
2
  1
DDBUS7
  0
TEXT
  7
KICAD
  8
RED
  10
151.13
  11
151.13
  20
-150.876
  21
-150.876
  40
1.27
  41
1
  50
0
  51
0
  71
0
  72
1
  73
1
  1
59
  0
TEXT
  7
KICAD
  8
CYAN
  10
143.51
  11
143.51
  20
-60.8838
  21
-60.8838
  40
1.524
  41
1
  50
0
  51
0
  71
0
  72
1
  73
2
  1
U3
  0
TEXT
  7
KICAD
  8
CYAN
  10
102.87
  11
102.87
  20
-60.8838
  21
-60.8838
  40
1.524
  41
1
  50
0
  51
0
  71
0
  72
1
  73
2
  1
FT4232-HL
0
LINE
8
RED
10
213.36
20
-76.2
11
213.36
21
-109.22
0
LINE
8
RED
10
213.36
20
-109.22
11
228.6
21
-109.22
0
LINE
8
RED
10
228.6
20
-109.22
11
228.6
21
-76.2
0
LINE
8
RED
10
228.6
20
-76.2
11
213.36
21
-76.2
0
LINE
8
RED
10
213.36
20
-78.74
11
210.82
21
-78.74
  0
TEXT
  7
KICAD
  8
CYAN
  10
214.376
  11
214.376
  20
-78.74
  21
-78.74
  40
1.27
  41
1
  50
0
  51
0
  71
0
  72
0
  73
2
  1
VCCA
  0
TEXT
  7
KICAD
  8
RED
  10
212.09
  11
212.09
  20
-78.486
  21
-78.486
  40
1.27
  41
1
  50
0
  51
0
  71
0
  72
1
  73
1
  1
1
0
LINE
8
RED
10
213.36
20
-81.28
11
210.82
21
-81.28
  0
TEXT
  7
KICAD
  8
CYAN
  10
214.376
  11
214.376
  20
-81.28
  21
-81.28
  40
1.27
  41
1
  50
0
  51
0
  71
0
  72
0
  73
2
  1
DIR
  0
TEXT
  7
KICAD
  8
RED
  10
212.09
  11
212.09
  20
-81.026
  21
-81.026
  40
1.27
  41
1
  50
0
  51
0
  71
0
  72
1
  73
1
  1
2
0
LINE
8
RED
10
213.36
20
-83.82
11
210.82
21
-83.82
  0
TEXT
  7
KICAD
  8
CYAN
  10
214.376
  11
214.376
  20
-83.82
  21
-83.82
  40
1.27
  41
1
  50
0
  51
0
  71
0
  72
0
  73
2
  1
A1
  0
TEXT
  7
KICAD
  8
RED
  10
212.09
  11
212.09
  20
-83.566
  21
-83.566
  40
1.27
  41
1
  50
0
  51
0
  71
0
  72
1
  73
1
  1
3
0
LINE
8
RED
10
213.36
20
-86.36
11
210.82
21
-86.36
  0
TEXT
  7
KICAD
  8
CYAN
  10
214.376
  11
214.376
  20
-86.36
  21
-86.36
  40
1.27
  41
1
  50
0
  51
0
  71
0
  72
0
  73
2
  1
A2
  0
TEXT
  7
KICAD
  8
RED
  10
212.09
  11
212.09
  20
-86.106
  21
-86.106
  40
1.27
  41
1
  50
0
  51
0
  71
0
  72
1
  73
1
  1
4
0
LINE
8
RED
10
213.36
20
-88.9
11
210.82
21
-88.9
  0
TEXT
  7
KICAD
  8
CYAN
  10
214.376
  11
214.376
  20
-88.9
  21
-88.9
  40
1.27
  41
1
  50
0
  51
0
  71
0
  72
0
  73
2
  1
A3
  0
TEXT
  7
KICAD
  8
RED
  10
212.09
  11
212.09
  20
-88.646
  21
-88.646
  40
1.27
  41
1
  50
0
  51
0
  71
0
  72
1
  73
1
  1
5
0
LINE
8
RED
10
213.36
20
-91.44
11
210.82
21
-91.44
  0
TEXT
  7
KICAD
  8
CYAN
  10
214.376
  11
214.376
  20
-91.44
  21
-91.44
  40
1.27
  41
1
  50
0
  51
0
  71
0
  72
0
  73
2
  1
A4
  0
TEXT
  7
KICAD
  8
RED
  10
212.09
  11
212.09
  20
-91.186
  21
-91.186
  40
1.27
  41
1
  50
0
  51
0
  71
0
  72
1
  73
1
  1
6
0
LINE
8
RED
10
213.36
20
-93.98
11
210.82
21
-93.98
  0
TEXT
  7
KICAD
  8
CYAN
  10
214.376
  11
214.376
  20
-93.98
  21
-93.98
  40
1.27
  41
1
  50
0
  51
0
  71
0
  72
0
  73
2
  1
A5
  0
TEXT
  7
KICAD
  8
RED
  10
212.09
  11
212.09
  20
-93.726
  21
-93.726
  40
1.27
  41
1
  50
0
  51
0
  71
0
  72
1
  73
1
  1
7
0
LINE
8
RED
10
213.36
20
-96.52
11
210.82
21
-96.52
  0
TEXT
  7
KICAD
  8
CYAN
  10
214.376
  11
214.376
  20
-96.52
  21
-96.52
  40
1.27
  41
1
  50
0
  51
0
  71
0
  72
0
  73
2
  1
A6
  0
TEXT
  7
KICAD
  8
RED
  10
212.09
  11
212.09
  20
-96.266
  21
-96.266
  40
1.27
  41
1
  50
0
  51
0
  71
0
  72
1
  73
1
  1
8
0
LINE
8
RED
10
213.36
20
-99.06
11
210.82
21
-99.06
  0
TEXT
  7
KICAD
  8
CYAN
  10
214.376
  11
214.376
  20
-99.06
  21
-99.06
  40
1.27
  41
1
  50
0
  51
0
  71
0
  72
0
  73
2
  1
A7
  0
TEXT
  7
KICAD
  8
RED
  10
212.09
  11
212.09
  20
-98.806
  21
-98.806
  40
1.27
  41
1
  50
0
  51
0
  71
0
  72
1
  73
1
  1
9
0
LINE
8
RED
10
213.36
20
-101.6
11
210.82
21
-101.6
  0
TEXT
  7
KICAD
  8
CYAN
  10
214.376
  11
214.376
  20
-101.6
  21
-101.6
  40
1.27
  41
1
  50
0
  51
0
  71
0
  72
0
  73
2
  1
A8
  0
TEXT
  7
KICAD
  8
RED
  10
212.09
  11
212.09
  20
-101.346
  21
-101.346
  40
1.27
  41
1
  50
0
  51
0
  71
0
  72
1
  73
1
  1
10
0
LINE
8
RED
10
228.6
20
-88.9
11
231.14
21
-88.9
  0
TEXT
  7
KICAD
  8
CYAN
  10
227.584
  11
227.584
  20
-88.9
  21
-88.9
  40
1.27
  41
1
  50
0
  51
0
  71
0
  72
2
  73
2
  1
B2
  0
TEXT
  7
KICAD
  8
RED
  10
229.87
  11
229.87
  20
-88.646
  21
-88.646
  40
1.27
  41
1
  50
0
  51
0
  71
0
  72
1
  73
1
  1
20
0
LINE
8
RED
10
213.36
20
-104.14
11
210.82
21
-104.14
  0
TEXT
  7
KICAD
  8
CYAN
  10
214.376
  11
214.376
  20
-104.14
  21
-104.14
  40
1.27
  41
1
  50
0
  51
0
  71
0
  72
0
  73
2
  1
GND
  0
TEXT
  7
KICAD
  8
RED
  10
212.09
  11
212.09
  20
-103.886
  21
-103.886
  40
1.27
  41
1
  50
0
  51
0
  71
0
  72
1
  73
1
  1
11
0
LINE
8
RED
10
228.6
20
-86.36
11
231.14
21
-86.36
  0
TEXT
  7
KICAD
  8
CYAN
  10
227.584
  11
227.584
  20
-86.36
  21
-86.36
  40
1.27
  41
1
  50
0
  51
0
  71
0
  72
2
  73
2
  1
B1
  0
TEXT
  7
KICAD
  8
RED
  10
229.87
  11
229.87
  20
-86.106
  21
-86.106
  40
1.27
  41
1
  50
0
  51
0
  71
0
  72
1
  73
1
  1
21
0
LINE
8
RED
10
213.36
20
-106.68
11
210.82
21
-106.68
  0
TEXT
  7
KICAD
  8
CYAN
  10
214.376
  11
214.376
  20
-106.68
  21
-106.68
  40
1.27
  41
1
  50
0
  51
0
  71
0
  72
0
  73
2
  1
GND
  0
TEXT
  7
KICAD
  8
RED
  10
212.09
  11
212.09
  20
-106.426
  21
-106.426
  40
1.27
  41
1
  50
0
  51
0
  71
0
  72
1
  73
1
  1
12
0
LINE
8
RED
10
228.6
20
-83.82
11
231.14
21
-83.82
  0
TEXT
  7
KICAD
  8
CYAN
  10
227.584
  11
227.584
  20
-83.82
  21
-83.82
  40
1.27
  41
1
  50
0
  51
0
  71
0
  72
2
  73
2
  1
OE
  0
TEXT
  7
KICAD
  8
RED
  10
229.87
  11
229.87
  20
-83.566
  21
-83.566
  40
1.27
  41
1
  50
0
  51
0
  71
0
  72
1
  73
1
  1
22
0
LINE
8
RED
10
228.6
20
-106.68
11
231.14
21
-106.68
  0
TEXT
  7
KICAD
  8
CYAN
  10
227.584
  11
227.584
  20
-106.68
  21
-106.68
  40
1.27
  41
1
  50
0
  51
0
  71
0
  72
2
  73
2
  1
GND
  0
TEXT
  7
KICAD
  8
RED
  10
229.87
  11
229.87
  20
-106.426
  21
-106.426
  40
1.27
  41
1
  50
0
  51
0
  71
0
  72
1
  73
1
  1
13
0
LINE
8
RED
10
228.6
20
-81.28
11
231.14
21
-81.28
  0
TEXT
  7
KICAD
  8
CYAN
  10
227.584
  11
227.584
  20
-81.28
  21
-81.28
  40
1.27
  41
1
  50
0
  51
0
  71
0
  72
2
  73
2
  1
NC
  0
TEXT
  7
KICAD
  8
RED
  10
229.87
  11
229.87
  20
-81.026
  21
-81.026
  40
1.27
  41
1
  50
0
  51
0
  71
0
  72
1
  73
1
  1
23
0
LINE
8
RED
10
228.6
20
-104.14
11
231.14
21
-104.14
  0
TEXT
  7
KICAD
  8
CYAN
  10
227.584
  11
227.584
  20
-104.14
  21
-104.14
  40
1.27
  41
1
  50
0
  51
0
  71
0
  72
2
  73
2
  1
B8
  0
TEXT
  7
KICAD
  8
RED
  10
229.87
  11
229.87
  20
-103.886
  21
-103.886
  40
1.27
  41
1
  50
0
  51
0
  71
0
  72
1
  73
1
  1
14
0
LINE
8
RED
10
228.6
20
-78.74
11
231.14
21
-78.74
  0
TEXT
  7
KICAD
  8
CYAN
  10
227.584
  11
227.584
  20
-78.74
  21
-78.74
  40
1.27
  41
1
  50
0
  51
0
  71
0
  72
2
  73
2
  1
VCCB
  0
TEXT
  7
KICAD
  8
RED
  10
229.87
  11
229.87
  20
-78.486
  21
-78.486
  40
1.27
  41
1
  50
0
  51
0
  71
0
  72
1
  73
1
  1
24
0
LINE
8
RED
10
228.6
20
-101.6
11
231.14
21
-101.6
  0
TEXT
  7
KICAD
  8
CYAN
  10
227.584
  11
227.584
  20
-101.6
  21
-101.6
  40
1.27
  41
1
  50
0
  51
0
  71
0
  72
2
  73
2
  1
B7
  0
TEXT
  7
KICAD
  8
RED
  10
229.87
  11
229.87
  20
-101.346
  21
-101.346
  40
1.27
  41
1
  50
0
  51
0
  71
0
  72
1
  73
1
  1
15
0
LINE
8
RED
10
228.6
20
-99.06
11
231.14
21
-99.06
  0
TEXT
  7
KICAD
  8
CYAN
  10
227.584
  11
227.584
  20
-99.06
  21
-99.06
  40
1.27
  41
1
  50
0
  51
0
  71
0
  72
2
  73
2
  1
B6
  0
TEXT
  7
KICAD
  8
RED
  10
229.87
  11
229.87
  20
-98.806
  21
-98.806
  40
1.27
  41
1
  50
0
  51
0
  71
0
  72
1
  73
1
  1
16
0
LINE
8
RED
10
228.6
20
-96.52
11
231.14
21
-96.52
  0
TEXT
  7
KICAD
  8
CYAN
  10
227.584
  11
227.584
  20
-96.52
  21
-96.52
  40
1.27
  41
1
  50
0
  51
0
  71
0
  72
2
  73
2
  1
B5
  0
TEXT
  7
KICAD
  8
RED
  10
229.87
  11
229.87
  20
-96.266
  21
-96.266
  40
1.27
  41
1
  50
0
  51
0
  71
0
  72
1
  73
1
  1
17
0
LINE
8
RED
10
228.6
20
-93.98
11
231.14
21
-93.98
  0
TEXT
  7
KICAD
  8
CYAN
  10
227.584
  11
227.584
  20
-93.98
  21
-93.98
  40
1.27
  41
1
  50
0
  51
0
  71
0
  72
2
  73
2
  1
B4
  0
TEXT
  7
KICAD
  8
RED
  10
229.87
  11
229.87
  20
-93.726
  21
-93.726
  40
1.27
  41
1
  50
0
  51
0
  71
0
  72
1
  73
1
  1
18
0
LINE
8
RED
10
228.6
20
-91.44
11
231.14
21
-91.44
  0
TEXT
  7
KICAD
  8
CYAN
  10
227.584
  11
227.584
  20
-91.44
  21
-91.44
  40
1.27
  41
1
  50
0
  51
0
  71
0
  72
2
  73
2
  1
B3
  0
TEXT
  7
KICAD
  8
RED
  10
229.87
  11
229.87
  20
-91.186
  21
-91.186
  40
1.27
  41
1
  50
0
  51
0
  71
0
  72
1
  73
1
  1
19
  0
TEXT
  7
KICAD
  8
CYAN
  10
214.63
  11
214.63
  20
-73.5838
  21
-73.5838
  40
1.524
  41
1
  50
0
  51
0
  71
0
  72
1
  73
2
  1
U5
  0
TEXT
  7
KICAD
  8
CYAN
  10
220.98
  11
220.98
  20
-71.0438
  21
-71.0438
  40
1.524
  41
1
  50
0
  51
0
  71
0
  72
1
  73
2
  1
74LVCC3245
0
LINE
8
RED
10
87.63
20
-154.94
11
87.63
21
-149.86
0
LINE
8
RED
10
82.55
20
-154.94
11
82.55
21
-149.86
0
LINE
8
RED
10
86.36
20
-153.67
11
83.82
21
-153.67
0
LINE
8
RED
10
83.82
20
-153.67
11
83.82
21
-151.13
0
LINE
8
RED
10
83.82
20
-151.13
11
86.36
21
-151.13
0
LINE
8
RED
10
86.36
20
-151.13
11
86.36
21
-153.67
0
LINE
8
RED
10
87.63
20
-152.4
11
90.17
21
-152.4
0
LINE
8
RED
10
82.55
20
-152.4
11
80.01
21
-152.4
  0
TEXT
  7
KICAD
  8
CYAN
  10
82.6262
  11
82.6262
  20
-147.32
  21
-147.32
  40
1.524
  41
1
  50
90
  51
0
  71
0
  72
1
  73
2
  1
X1
  0
TEXT
  7
KICAD
  8
CYAN
  10
87.7062
  11
87.7062
  20
-146.05
  21
-146.05
  40
1.524
  41
1
  50
90
  51
0
  71
0
  72
1
  73
2
  1
12Mhz
0
LINE
8
GREEN
10
78.74
20
-132.08
11
78.74
21
-160.02
0
LINE
8
GREEN
10
80.01
20
-152.4
11
78.74
21
-152.4
0
POLYLINE
8
GREEN
66
1
70
1
40
0.4064
41
0.4064
0
VERTEX
8
GREEN
10
78.5368
 20
-152.4
42
1.0
0
VERTEX
8
GREEN
10
78.9432
 20
-152.4
42
1.0
0
SEQEND
0
LINE
8
GREEN
10
91.44
20
-144.78
11
91.44
21
-160.02
0
LINE
8
GREEN
10
90.17
20
-152.4
11
91.44
21
-152.4
0
POLYLINE
8
GREEN
66
1
70
1
40
0.4064
41
0.4064
0
VERTEX
8
GREEN
10
91.2368
 20
-152.4
42
1.0
0
VERTEX
8
GREEN
10
91.6432
 20
-152.4
42
1.0
0
SEQEND
0
LINE
8
RED
10
81.28
20
-163.068
11
76.2
21
-163.068
0
LINE
8
RED
10
81.28
20
-164.592
11
76.2
21
-164.592
0
LINE
8
RED
10
78.74
20
-164.592
11
78.74
21
-167.64
  0
TEXT
  7
KICAD
  8
CYAN
  10
78.74
  11
78.74
  20
-164.338
  21
-164.338
  40
1.016
  41
1
  50
90
  51
0
  71
0
  72
0
  73
2
  1
%%O
0
LINE
8
RED
10
78.74
20
-163.068
11
78.74
21
-160.02
  0
TEXT
  7
KICAD
  8
CYAN
  10
78.74
  11
78.74
  20
-163.322
  21
-163.322
  40
1.016
  41
1
  50
90
  51
0
  71
0
  72
2
  73
2
  1
%%O
  0
TEXT
  7
KICAD
  8
CYAN
  10
77.5462
  11
77.5462
  20
-167.615
  21
-167.615
  40
1.27
  41
1
  50
90
  51
0
  71
0
  72
1
  73
2
  1
C2
  0
TEXT
  7
KICAD
  8
CYAN
  10
77.5462
  11
77.5462
  20
-160.528
  21
-160.528
  40
1.27
  41
1
  50
90
  51
0
  71
0
  72
1
  73
2
  1
27p
0
LINE
8
RED
10
93.98
20
-163.068
11
88.9
21
-163.068
0
LINE
8
RED
10
93.98
20
-164.592
11
88.9
21
-164.592
0
LINE
8
RED
10
91.44
20
-164.592
11
91.44
21
-167.64
  0
TEXT
  7
KICAD
  8
CYAN
  10
91.44
  11
91.44
  20
-164.338
  21
-164.338
  40
1.016
  41
1
  50
90
  51
0
  71
0
  72
0
  73
2
  1
%%O
0
LINE
8
RED
10
91.44
20
-163.068
11
91.44
21
-160.02
  0
TEXT
  7
KICAD
  8
CYAN
  10
91.44
  11
91.44
  20
-163.322
  21
-163.322
  40
1.016
  41
1
  50
90
  51
0
  71
0
  72
2
  73
2
  1
%%O
  0
TEXT
  7
KICAD
  8
CYAN
  10
90.2462
  11
90.2462
  20
-167.615
  21
-167.615
  40
1.27
  41
1
  50
90
  51
0
  71
0
  72
1
  73
2
  1
C5
  0
TEXT
  7
KICAD
  8
CYAN
  10
90.2462
  11
90.2462
  20
-160.528
  21
-160.528
  40
1.27
  41
1
  50
90
  51
0
  71
0
  72
1
  73
2
  1
27p
0
LINE
8
GREEN
10
78.74
20
-167.64
11
78.74
21
-171.45
0
LINE
8
GREEN
10
91.44
20
-167.64
11
91.44
21
-171.45
0
LINE
8
RED
10
77.47
20
-171.45
11
78.74
21
-172.72
0
LINE
8
RED
10
78.74
20
-172.72
11
80.01
21
-171.45
0
LINE
8
RED
10
80.01
20
-171.45
11
77.47
21
-171.45
0
LINE
8
RED
10
90.17
20
-171.45
11
91.44
21
-172.72
0
LINE
8
RED
10
91.44
20
-172.72
11
92.71
21
-171.45
0
LINE
8
RED
10
92.71
20
-171.45
11
90.17
21
-171.45
0
LINE
8
GREEN
10
152.4
20
-68.58
11
161.29
21
-68.58
0
LINE
8
GREEN
10
152.4
20
-71.12
11
161.29
21
-71.12
  0
TEXT
  7
KICAD
  8
BLACK
  10
156.21
  11
156.21
  20
-68.326
  21
-68.326
  40
1.524
  41
1
  50
0
  51
0
  71
0
  72
0
  73
1
  1
TXD0
  0
TEXT
  7
KICAD
  8
BLACK
  10
156.21
  11
156.21
  20
-70.866
  21
-70.866
  40
1.524
  41
1
  50
0
  51
0
  71
0
  72
0
  73
1
  1
RXD0
0
LINE
8
GREEN
10
152.4
20
-90.17
11
161.29
21
-90.17
0
LINE
8
GREEN
10
152.4
20
-92.71
11
161.29
21
-92.71
  0
TEXT
  7
KICAD
  8
BLACK
  10
156.21
  11
156.21
  20
-89.916
  21
-89.916
  40
1.524
  41
1
  50
0
  51
0
  71
0
  72
0
  73
1
  1
TXD1
  0
TEXT
  7
KICAD
  8
BLACK
  10
156.21
  11
156.21
  20
-92.456
  21
-92.456
  40
1.524
  41
1
  50
0
  51
0
  71
0
  72
0
  73
1
  1
RXD1
0
LINE
8
GREEN
10
152.4
20
-111.76
11
161.29
21
-111.76
0
LINE
8
GREEN
10
152.4
20
-114.3
11
161.29
21
-114.3
  0
TEXT
  7
KICAD
  8
BLACK
  10
156.21
  11
156.21
  20
-111.506
  21
-111.506
  40
1.524
  41
1
  50
0
  51
0
  71
0
  72
0
  73
1
  1
TXD2
  0
TEXT
  7
KICAD
  8
BLACK
  10
156.21
  11
156.21
  20
-114.046
  21
-114.046
  40
1.524
  41
1
  50
0
  51
0
  71
0
  72
0
  73
1
  1
RXD2
0
LINE
8
GREEN
10
152.4
20
-133.35
11
161.29
21
-133.35
0
LINE
8
GREEN
10
152.4
20
-135.89
11
161.29
21
-135.89
  0
TEXT
  7
KICAD
  8
BLACK
  10
156.21
  11
156.21
  20
-133.096
  21
-133.096
  40
1.524
  41
1
  50
0
  51
0
  71
0
  72
0
  73
1
  1
TXD3
  0
TEXT
  7
KICAD
  8
BLACK
  10
156.21
  11
156.21
  20
-135.636
  21
-135.636
  40
1.524
  41
1
  50
0
  51
0
  71
0
  72
0
  73
1
  1
RXD3
0
LINE
8
GREEN
10
96.52
20
-148.59
11
96.52
21
-163.83
0
LINE
8
GREEN
10
96.52
20
-163.83
11
137.16
21
-163.83
0
LINE
8
GREEN
10
137.16
20
-163.83
11
137.16
21
-162.56
0
LINE
8
GREEN
10
115.57
20
-162.56
11
115.57
21
-163.83
0
POLYLINE
8
GREEN
66
1
70
1
40
0.4064
41
0.4064
0
VERTEX
8
GREEN
10
115.367
 20
-163.83
42
1.0
0
VERTEX
8
GREEN
10
115.773
 20
-163.83
42
1.0
0
SEQEND
0
LINE
8
GREEN
10
119.38
20
-162.56
11
119.38
21
-163.83
0
POLYLINE
8
GREEN
66
1
70
1
40
0.4064
41
0.4064
0
VERTEX
8
GREEN
10
119.177
 20
-163.83
42
1.0
0
VERTEX
8
GREEN
10
119.583
 20
-163.83
42
1.0
0
SEQEND
0
LINE
8
GREEN
10
121.92
20
-162.56
11
121.92
21
-163.83
0
POLYLINE
8
GREEN
66
1
70
1
40
0.4064
41
0.4064
0
VERTEX
8
GREEN
10
121.717
 20
-163.83
42
1.0
0
VERTEX
8
GREEN
10
122.123
 20
-163.83
42
1.0
0
SEQEND
0
LINE
8
GREEN
10
124.46
20
-162.56
11
124.46
21
-166.37
0
POLYLINE
8
GREEN
66
1
70
1
40
0.4064
41
0.4064
0
VERTEX
8
GREEN
10
124.257
 20
-163.83
42
1.0
0
VERTEX
8
GREEN
10
124.663
 20
-163.83
42
1.0
0
SEQEND
0
LINE
8
GREEN
10
127
20
-162.56
11
127
21
-163.83
0
POLYLINE
8
GREEN
66
1
70
1
40
0.4064
41
0.4064
0
VERTEX
8
GREEN
10
126.797
 20
-163.83
42
1.0
0
VERTEX
8
GREEN
10
127.203
 20
-163.83
42
1.0
0
SEQEND
0
LINE
8
GREEN
10
129.54
20
-162.56
11
129.54
21
-163.83
0
POLYLINE
8
GREEN
66
1
70
1
40
0.4064
41
0.4064
0
VERTEX
8
GREEN
10
129.337
 20
-163.83
42
1.0
0
VERTEX
8
GREEN
10
129.743
 20
-163.83
42
1.0
0
SEQEND
0
LINE
8
GREEN
10
132.08
20
-162.56
11
132.08
21
-163.83
0
LINE
8
GREEN
10
132.08
20
-163.83
11
133.35
21
-163.83
0
LINE
8
GREEN
10
134.62
20
-162.56
11
134.62
21
-163.83
0
POLYLINE
8
GREEN
66
1
70
1
40
0.4064
41
0.4064
0
VERTEX
8
GREEN
10
134.417
 20
-163.83
42
1.0
0
VERTEX
8
GREEN
10
134.823
 20
-163.83
42
1.0
0
SEQEND
0
POLYLINE
8
GREEN
66
1
70
1
40
0.4064
41
0.4064
0
VERTEX
8
GREEN
10
131.877
 20
-163.83
42
1.0
0
VERTEX
8
GREEN
10
132.283
 20
-163.83
42
1.0
0
SEQEND
0
LINE
8
RED
10
123.19
20
-166.37
11
124.46
21
-167.64
0
LINE
8
RED
10
124.46
20
-167.64
11
125.73
21
-166.37
0
LINE
8
RED
10
125.73
20
-166.37
11
123.19
21
-166.37
0
LINE
8
GREEN
10
204.47
20
-83.82
11
210.82
21
-83.82
0
LINE
8
GREEN
10
204.47
20
-86.36
11
210.82
21
-86.36
0
LINE
8
GREEN
10
204.47
20
-88.9
11
210.82
21
-88.9
0
LINE
8
GREEN
10
204.47
20
-91.44
11
210.82
21
-91.44
0
LINE
8
GREEN
10
210.82
20
-104.14
11
209.55
21
-104.14
0
LINE
8
GREEN
10
209.55
20
-104.14
11
209.55
21
-109.22
0
LINE
8
GREEN
10
210.82
20
-106.68
11
209.55
21
-106.68
0
POLYLINE
8
GREEN
66
1
70
1
40
0.4064
41
0.4064
0
VERTEX
8
GREEN
10
209.347
 20
-106.68
42
1.0
0
VERTEX
8
GREEN
10
209.753
 20
-106.68
42
1.0
0
SEQEND
0
LINE
8
RED
10
208.28
20
-109.22
11
209.55
21
-110.49
0
LINE
8
RED
10
209.55
20
-110.49
11
210.82
21
-109.22
0
LINE
8
RED
10
210.82
20
-109.22
11
208.28
21
-109.22
  0
TEXT
  7
KICAD
  8
BLACK
  10
204.47
  11
204.47
  20
-83.566
  21
-83.566
  40
1.524
  41
1
  50
0
  51
0
  71
0
  72
0
  73
1
  1
TXD0
  0
TEXT
  7
KICAD
  8
BLACK
  10
204.47
  11
204.47
  20
-86.106
  21
-86.106
  40
1.524
  41
1
  50
0
  51
0
  71
0
  72
0
  73
1
  1
TXD1
  0
TEXT
  7
KICAD
  8
BLACK
  10
204.47
  11
204.47
  20
-88.646
  21
-88.646
  40
1.524
  41
1
  50
0
  51
0
  71
0
  72
0
  73
1
  1
TXD2
  0
TEXT
  7
KICAD
  8
BLACK
  10
204.47
  11
204.47
  20
-91.186
  21
-91.186
  40
1.524
  41
1
  50
0
  51
0
  71
0
  72
0
  73
1
  1
TXD3
  0
TEXT
  7
KICAD
  8
BLACK
  10
204.47
  11
204.47
  20
-134.366
  21
-134.366
  40
1.524
  41
1
  50
0
  51
0
  71
0
  72
0
  73
1
  1
RXD0
  0
TEXT
  7
KICAD
  8
BLACK
  10
204.47
  11
204.47
  20
-136.906
  21
-136.906
  40
1.524
  41
1
  50
0
  51
0
  71
0
  72
0
  73
1
  1
RXD1
  0
TEXT
  7
KICAD
  8
BLACK
  10
204.47
  11
204.47
  20
-139.446
  21
-139.446
  40
1.524
  41
1
  50
0
  51
0
  71
0
  72
0
  73
1
  1
RXD2
  0
TEXT
  7
KICAD
  8
BLACK
  10
204.47
  11
204.47
  20
-141.986
  21
-141.986
  40
1.524
  41
1
  50
0
  51
0
  71
0
  72
0
  73
1
  1
RXD3
0
LINE
8
GREEN
10
231.14
20
-86.36
11
243.84
21
-86.36
0
LINE
8
GREEN
10
243.84
20
-88.9
11
231.14
21
-88.9
0
LINE
8
GREEN
10
243.84
20
-91.44
11
231.14
21
-91.44
0
LINE
8
GREEN
10
243.84
20
-93.98
11
231.14
21
-93.98
  0
TEXT
  7
KICAD
  8
BLACK
  10
233.68
  11
233.68
  20
-86.106
  21
-86.106
  40
1.524
  41
1
  50
0
  51
0
  71
0
  72
0
  73
1
  1
TXD0_5V
  0
TEXT
  7
KICAD
  8
BLACK
  10
233.68
  11
233.68
  20
-88.646
  21
-88.646
  40
1.524
  41
1
  50
0
  51
0
  71
0
  72
0
  73
1
  1
TXD1_5V
  0
TEXT
  7
KICAD
  8
BLACK
  10
233.68
  11
233.68
  20
-91.186
  21
-91.186
  40
1.524
  41
1
  50
0
  51
0
  71
0
  72
0
  73
1
  1
TXD2_5V
  0
TEXT
  7
KICAD
  8
BLACK
  10
233.68
  11
233.68
  20
-93.726
  21
-93.726
  40
1.524
  41
1
  50
0
  51
0
  71
0
  72
0
  73
1
  1
TXD3_5V
  0
TEXT
  7
KICAD
  8
BLACK
  10
233.68
  11
233.68
  20
-136.906
  21
-136.906
  40
1.524
  41
1
  50
0
  51
0
  71
0
  72
0
  73
1
  1
RXD0_5V
  0
TEXT
  7
KICAD
  8
BLACK
  10
233.68
  11
233.68
  20
-139.446
  21
-139.446
  40
1.524
  41
1
  50
0
  51
0
  71
0
  72
0
  73
1
  1
RXD1_5V
  0
TEXT
  7
KICAD
  8
BLACK
  10
233.68
  11
233.68
  20
-141.986
  21
-141.986
  40
1.524
  41
1
  50
0
  51
0
  71
0
  72
0
  73
1
  1
RXD2_5V
  0
TEXT
  7
KICAD
  8
BLACK
  10
233.68
  11
233.68
  20
-144.526
  21
-144.526
  40
1.524
  41
1
  50
0
  51
0
  71
0
  72
0
  73
1
  1
RXD3_5V
0
LINE
8
GREEN
10
267.97
20
-68.58
11
266.7
21
-68.58
0
LINE
8
GREEN
10
266.7
20
-68.58
11
266.7
21
-69.85
0
LINE
8
GREEN
10
256.54
20
-66.04
11
267.97
21
-66.04
0
LINE
8
GREEN
10
256.54
20
-60.96
11
267.97
21
-60.96
0
LINE
8
RED
10
265.43
20
-69.85
11
266.7
21
-71.12
0
LINE
8
RED
10
266.7
20
-71.12
11
267.97
21
-69.85
0
LINE
8
RED
10
267.97
20
-69.85
11
265.43
21
-69.85
  0
TEXT
  7
KICAD
  8
BLACK
  10
257.81
  11
257.81
  20
-60.706
  21
-60.706
  40
1.524
  41
1
  50
0
  51
0
  71
0
  72
0
  73
1
  1
TXD0_5V
  0
TEXT
  7
KICAD
  8
BLACK
  10
257.81
  11
257.81
  20
-65.786
  21
-65.786
  40
1.524
  41
1
  50
0
  51
0
  71
0
  72
0
  73
1
  1
RXD0_5V
0
LINE
8
GREEN
10
267.97
20
-99.06
11
266.7
21
-99.06
0
LINE
8
GREEN
10
266.7
20
-99.06
11
266.7
21
-100.33
0
LINE
8
GREEN
10
256.54
20
-96.52
11
267.97
21
-96.52
0
LINE
8
GREEN
10
256.54
20
-91.44
11
267.97
21
-91.44
0
LINE
8
RED
10
265.43
20
-100.33
11
266.7
21
-101.6
0
LINE
8
RED
10
266.7
20
-101.6
11
267.97
21
-100.33
0
LINE
8
RED
10
267.97
20
-100.33
11
265.43
21
-100.33
  0
TEXT
  7
KICAD
  8
BLACK
  10
257.81
  11
257.81
  20
-91.186
  21
-91.186
  40
1.524
  41
1
  50
0
  51
0
  71
0
  72
0
  73
1
  1
TXD1_5V
  0
TEXT
  7
KICAD
  8
BLACK
  10
257.81
  11
257.81
  20
-96.266
  21
-96.266
  40
1.524
  41
1
  50
0
  51
0
  71
0
  72
0
  73
1
  1
RXD1_5V
0
LINE
8
GREEN
10
267.97
20
-158.75
11
266.7
21
-158.75
0
LINE
8
GREEN
10
266.7
20
-158.75
11
266.7
21
-160.02
0
LINE
8
GREEN
10
256.54
20
-156.21
11
267.97
21
-156.21
0
LINE
8
GREEN
10
256.54
20
-151.13
11
267.97
21
-151.13
0
LINE
8
RED
10
265.43
20
-160.02
11
266.7
21
-161.29
0
LINE
8
RED
10
266.7
20
-161.29
11
267.97
21
-160.02
0
LINE
8
RED
10
267.97
20
-160.02
11
265.43
21
-160.02
  0
TEXT
  7
KICAD
  8
BLACK
  10
257.81
  11
257.81
  20
-150.876
  21
-150.876
  40
1.524
  41
1
  50
0
  51
0
  71
0
  72
0
  73
1
  1
TXD3_5V
  0
TEXT
  7
KICAD
  8
BLACK
  10
257.81
  11
257.81
  20
-155.956
  21
-155.956
  40
1.524
  41
1
  50
0
  51
0
  71
0
  72
0
  73
1
  1
RXD3_5V
0
LINE
8
GREEN
10
267.97
20
-128.27
11
266.7
21
-128.27
0
LINE
8
GREEN
10
266.7
20
-128.27
11
266.7
21
-129.54
0
LINE
8
GREEN
10
256.54
20
-125.73
11
267.97
21
-125.73
0
LINE
8
GREEN
10
256.54
20
-120.65
11
267.97
21
-120.65
0
LINE
8
RED
10
265.43
20
-129.54
11
266.7
21
-130.81
0
LINE
8
RED
10
266.7
20
-130.81
11
267.97
21
-129.54
0
LINE
8
RED
10
267.97
20
-129.54
11
265.43
21
-129.54
  0
TEXT
  7
KICAD
  8
BLACK
  10
257.81
  11
257.81
  20
-120.396
  21
-120.396
  40
1.524
  41
1
  50
0
  51
0
  71
0
  72
0
  73
1
  1
TXD2_5V
  0
TEXT
  7
KICAD
  8
BLACK
  10
257.81
  11
257.81
  20
-125.476
  21
-125.476
  40
1.524
  41
1
  50
0
  51
0
  71
0
  72
0
  73
1
  1
RXD2_5V
0
LINE
8
GREEN
10
208.28
20
-73.66
11
208.28
21
-81.28
0
LINE
8
GREEN
10
208.28
20
-78.74
11
210.82
21
-78.74
0
LINE
8
GREEN
10
233.68
20
-73.66
11
233.68
21
-78.74
0
LINE
8
GREEN
10
233.68
20
-78.74
11
231.14
21
-78.74
0
CIRCLE
8
RED
10
208.28
20
-72.136
40
0.508
0
LINE
8
RED
10
208.28
20
-73.66
11
208.28
21
-72.644
  0
TEXT
  7
KICAD
  8
CYAN
  10
208.28
  11
208.28
  20
-70.8152
  21
-70.8152
  40
0.762
  41
1
  50
0
  51
0
  71
0
  72
1
  73
2
  1
+3.3V
0
LINE
8
RED
10
233.68
20
-73.66
11
233.68
21
-72.39
0
LINE
8
RED
10
233.68
20
-71.628
11
234.442
21
-72.39
0
LINE
8
RED
10
234.442
20
-72.39
11
233.172
21
-72.39
0
LINE
8
RED
10
233.172
20
-72.39
11
232.918
21
-72.39
0
LINE
8
RED
10
232.918
20
-72.39
11
233.68
21
-71.628
  0
TEXT
  7
KICAD
  8
CYAN
  10
233.68
  11
233.68
  20
-71.0692
  21
-71.0692
  40
0.762
  41
1
  50
0
  51
0
  71
0
  72
1
  73
2
  1
+5VD
0
LINE
8
GREEN
10
208.28
20
-81.28
11
210.82
21
-81.28
0
POLYLINE
8
GREEN
66
1
70
1
40
0.4064
41
0.4064
0
VERTEX
8
GREEN
10
208.077
 20
-78.74
42
1.0
0
VERTEX
8
GREEN
10
208.483
 20
-78.74
42
1.0
0
SEQEND
  0
TEXT
  7
KICAD
  8
LIGHTBLUE
  10
221.996
  11
221.996
  20
-95.25
  21
-95.25
  40
1.524
  41
1
  50
90
  51
0
  71
0
  72
0
  73
1
  1
A=>B
0
LINE
8
BLUE
10
230.53
20
-80.6704
11
231.75
21
-81.8896
0
LINE
8
BLUE
10
231.75
20
-80.6704
11
230.53
21
-81.8896
0
LINE
8
BLUE
10
230.53
20
-95.9104
11
231.75
21
-97.1296
0
LINE
8
BLUE
10
231.75
20
-95.9104
11
230.53
21
-97.1296
0
LINE
8
BLUE
10
230.53
20
-98.4504
11
231.75
21
-99.6696
0
LINE
8
BLUE
10
231.75
20
-98.4504
11
230.53
21
-99.6696
0
LINE
8
BLUE
10
230.53
20
-100.99
11
231.75
21
-102.21
0
LINE
8
BLUE
10
231.75
20
-100.99
11
230.53
21
-102.21
0
LINE
8
BLUE
10
230.53
20
-103.53
11
231.75
21
-104.75
0
LINE
8
BLUE
10
231.75
20
-103.53
11
230.53
21
-104.75
0
LINE
8
GREEN
10
231.14
20
-106.68
11
232.41
21
-106.68
0
LINE
8
GREEN
10
232.41
20
-106.68
11
232.41
21
-109.22
0
LINE
8
RED
10
231.14
20
-109.22
11
232.41
21
-110.49
0
LINE
8
RED
10
232.41
20
-110.49
11
233.68
21
-109.22
0
LINE
8
RED
10
233.68
20
-109.22
11
231.14
21
-109.22
0
LINE
8
BLUE
10
210.21
20
-93.3704
11
211.43
21
-94.5896
0
LINE
8
BLUE
10
211.43
20
-93.3704
11
210.21
21
-94.5896
0
LINE
8
BLUE
10
210.21
20
-95.9104
11
211.43
21
-97.1296
0
LINE
8
BLUE
10
211.43
20
-95.9104
11
210.21
21
-97.1296
0
LINE
8
BLUE
10
210.21
20
-98.4504
11
211.43
21
-99.6696
0
LINE
8
BLUE
10
211.43
20
-98.4504
11
210.21
21
-99.6696
0
LINE
8
BLUE
10
210.21
20
-100.99
11
211.43
21
-102.21
0
LINE
8
BLUE
10
211.43
20
-100.99
11
210.21
21
-102.21
0
LINE
8
RED
10
50.8
20
-129.54
11
50.8
21
-142.24
0
LINE
8
RED
10
50.8
20
-142.24
11
62.23
21
-142.24
0
LINE
8
RED
10
62.23
20
-142.24
11
62.23
21
-129.54
0
LINE
8
RED
10
62.23
20
-129.54
11
50.8
21
-129.54
0
LINE
8
RED
10
50.8
20
-130.81
11
48.26
21
-130.81
  0
TEXT
  7
KICAD
  8
CYAN
  10
51.816
  11
51.816
  20
-130.81
  21
-130.81
  40
1.27
  41
1
  50
0
  51
0
  71
0
  72
0
  73
2
  1
CS
  0
TEXT
  7
KICAD
  8
RED
  10
49.53
  11
49.53
  20
-130.556
  21
-130.556
  40
1.27
  41
1
  50
0
  51
0
  71
0
  72
1
  73
1
  1
1
0
LINE
8
RED
10
50.8
20
-138.43
11
48.26
21
-138.43
  0
TEXT
  7
KICAD
  8
CYAN
  10
51.816
  11
51.816
  20
-138.43
  21
-138.43
  40
1.27
  41
1
  50
0
  51
0
  71
0
  72
0
  73
2
  1
SCL
  0
TEXT
  7
KICAD
  8
RED
  10
49.53
  11
49.53
  20
-138.176
  21
-138.176
  40
1.27
  41
1
  50
0
  51
0
  71
0
  72
1
  73
1
  1
2
0
LINE
8
RED
10
50.8
20
-135.89
11
48.26
21
-135.89
  0
TEXT
  7
KICAD
  8
CYAN
  10
51.816
  11
51.816
  20
-135.89
  21
-135.89
  40
1.27
  41
1
  50
0
  51
0
  71
0
  72
0
  73
2
  1
D
  0
TEXT
  7
KICAD
  8
RED
  10
49.53
  11
49.53
  20
-135.636
  21
-135.636
  40
1.27
  41
1
  50
0
  51
0
  71
0
  72
1
  73
1
  1
3
0
LINE
8
RED
10
62.23
20
-135.89
11
64.77
21
-135.89
  0
TEXT
  7
KICAD
  8
CYAN
  10
61.214
  11
61.214
  20
-135.89
  21
-135.89
  40
1.27
  41
1
  50
0
  51
0
  71
0
  72
2
  73
2
  1
Q
  0
TEXT
  7
KICAD
  8
RED
  10
63.5
  11
63.5
  20
-135.636
  21
-135.636
  40
1.27
  41
1
  50
0
  51
0
  71
0
  72
1
  73
1
  1
4
0
LINE
8
RED
10
50.8
20
-140.97
11
48.26
21
-140.97
  0
TEXT
  7
KICAD
  8
CYAN
  10
51.816
  11
51.816
  20
-140.97
  21
-140.97
  40
1.27
  41
1
  50
0
  51
0
  71
0
  72
0
  73
2
  1
GND
  0
TEXT
  7
KICAD
  8
RED
  10
49.53
  11
49.53
  20
-140.716
  21
-140.716
  40
1.27
  41
1
  50
0
  51
0
  71
0
  72
1
  73
1
  1
5
0
LINE
8
RED
10
50.8
20
-133.35
11
48.26
21
-133.35
  0
TEXT
  7
KICAD
  8
CYAN
  10
51.816
  11
51.816
  20
-133.35
  21
-133.35
  40
1.27
  41
1
  50
0
  51
0
  71
0
  72
0
  73
2
  1
ORG
  0
TEXT
  7
KICAD
  8
RED
  10
49.53
  11
49.53
  20
-133.096
  21
-133.096
  40
1.27
  41
1
  50
0
  51
0
  71
0
  72
1
  73
1
  1
6
0
LINE
8
RED
10
62.23
20
-140.97
11
64.77
21
-140.97
  0
TEXT
  7
KICAD
  8
CYAN
  10
61.214
  11
61.214
  20
-140.97
  21
-140.97
  40
1.27
  41
1
  50
0
  51
0
  71
0
  72
2
  73
2
  1
DU
  0
TEXT
  7
KICAD
  8
RED
  10
63.5
  11
63.5
  20
-140.716
  21
-140.716
  40
1.27
  41
1
  50
0
  51
0
  71
0
  72
1
  73
1
  1
7
0
LINE
8
RED
10
62.23
20
-130.81
11
64.77
21
-130.81
  0
TEXT
  7
KICAD
  8
CYAN
  10
61.214
  11
61.214
  20
-130.81
  21
-130.81
  40
1.27
  41
1
  50
0
  51
0
  71
0
  72
2
  73
2
  1
VCC
  0
TEXT
  7
KICAD
  8
RED
  10
63.5
  11
63.5
  20
-130.556
  21
-130.556
  40
1.27
  41
1
  50
0
  51
0
  71
0
  72
1
  73
1
  1
8
  0
TEXT
  7
KICAD
  8
CYAN
  10
60.96
  11
60.96
  20
-126.924
  21
-126.924
  40
1.524
  41
1
  50
0
  51
0
  71
0
  72
1
  73
2
  1
U1
  0
TEXT
  7
KICAD
  8
CYAN
  10
53.34
  11
53.34
  20
-126.924
  21
-126.924
  40
1.524
  41
1
  50
0
  51
0
  71
0
  72
1
  73
2
  1
93C46
0
LINE
8
GREEN
10
78.74
20
-132.08
11
96.52
21
-132.08
0
LINE
8
GREEN
10
91.44
20
-144.78
11
96.52
21
-144.78
0
LINE
8
GREEN
10
64.77
20
-123.19
11
64.77
21
-130.81
0
LINE
8
GREEN
10
64.77
20
-124.46
11
46.99
21
-124.46
0
LINE
8
GREEN
10
46.99
20
-124.46
11
46.99
21
-133.35
0
LINE
8
GREEN
10
46.99
20
-133.35
11
48.26
21
-133.35
0
POLYLINE
8
GREEN
66
1
70
1
40
0.4064
41
0.4064
0
VERTEX
8
GREEN
10
64.5668
 20
-124.46
42
1.0
0
VERTEX
8
GREEN
10
64.9732
 20
-124.46
42
1.0
0
SEQEND
0
CIRCLE
8
RED
10
64.77
20
-121.666
40
0.508
0
LINE
8
RED
10
64.77
20
-123.19
11
64.77
21
-122.174
  0
TEXT
  7
KICAD
  8
CYAN
  10
64.77
  11
64.77
  20
-120.345
  21
-120.345
  40
0.762
  41
1
  50
0
  51
0
  71
0
  72
1
  73
2
  1
+3.3V
0
LINE
8
GREEN
10
48.26
20
-140.97
11
46.99
21
-140.97
0
LINE
8
GREEN
10
46.99
20
-140.97
11
46.99
21
-144.78
0
LINE
8
GREEN
10
46.99
20
-144.78
11
64.77
21
-144.78
0
LINE
8
GREEN
10
64.77
20
-140.97
11
64.77
21
-146.05
0
POLYLINE
8
GREEN
66
1
70
1
40
0.4064
41
0.4064
0
VERTEX
8
GREEN
10
64.5668
 20
-144.78
42
1.0
0
VERTEX
8
GREEN
10
64.9732
 20
-144.78
42
1.0
0
SEQEND
0
LINE
8
RED
10
63.5
20
-146.05
11
64.77
21
-147.32
0
LINE
8
RED
10
64.77
20
-147.32
11
66.04
21
-146.05
0
LINE
8
RED
10
66.04
20
-146.05
11
63.5
21
-146.05
0
LINE
8
RED
10
64.77
20
-100.33
11
64.135
21
-100.965
0
LINE
8
RED
10
64.135
20
-100.965
11
65.405
21
-101.6
0
LINE
8
RED
10
65.405
20
-101.6
11
64.135
21
-102.235
0
LINE
8
RED
10
64.135
20
-102.235
11
65.405
21
-102.87
0
LINE
8
RED
10
65.405
20
-102.87
11
64.135
21
-103.505
0
LINE
8
RED
10
64.135
20
-103.505
11
65.405
21
-104.14
0
LINE
8
RED
10
65.405
20
-104.14
11
64.135
21
-104.775
0
LINE
8
RED
10
64.135
20
-104.775
11
64.77
21
-105.41
0
LINE
8
RED
10
64.77
20
-100.33
11
64.77
21
-99.06
  0
TEXT
  7
KICAD
  8
CYAN
  10
64.516
  11
64.516
  20
-99.695
  21
-99.695
  40
1.524
  41
1
  50
90
  51
0
  71
0
  72
1
  73
1
  1
%%O
0
LINE
8
RED
10
64.77
20
-105.41
11
64.77
21
-106.68
  0
TEXT
  7
KICAD
  8
CYAN
  10
64.516
  11
64.516
  20
-106.045
  21
-106.045
  40
1.524
  41
1
  50
90
  51
0
  71
0
  72
1
  73
1
  1
%%O
  0
TEXT
  7
KICAD
  8
CYAN
  10
63.4238
  11
63.4238
  20
-100.33
  21
-100.33
  40
1.27
  41
1
  50
90
  51
0
  71
0
  72
1
  73
2
  1
R2
  0
TEXT
  7
KICAD
  8
CYAN
  10
63.4238
  11
63.4238
  20
-104.14
  21
-104.14
  40
1.27
  41
1
  50
90
  51
0
  71
0
  72
1
  73
2
  1
10k
0
LINE
8
RED
10
60.96
20
-100.33
11
60.325
21
-100.965
0
LINE
8
RED
10
60.325
20
-100.965
11
61.595
21
-101.6
0
LINE
8
RED
10
61.595
20
-101.6
11
60.325
21
-102.235
0
LINE
8
RED
10
60.325
20
-102.235
11
61.595
21
-102.87
0
LINE
8
RED
10
61.595
20
-102.87
11
60.325
21
-103.505
0
LINE
8
RED
10
60.325
20
-103.505
11
61.595
21
-104.14
0
LINE
8
RED
10
61.595
20
-104.14
11
60.325
21
-104.775
0
LINE
8
RED
10
60.325
20
-104.775
11
60.96
21
-105.41
0
LINE
8
RED
10
60.96
20
-100.33
11
60.96
21
-99.06
  0
TEXT
  7
KICAD
  8
CYAN
  10
60.706
  11
60.706
  20
-99.695
  21
-99.695
  40
1.524
  41
1
  50
90
  51
0
  71
0
  72
1
  73
1
  1
%%O
0
LINE
8
RED
10
60.96
20
-105.41
11
60.96
21
-106.68
  0
TEXT
  7
KICAD
  8
CYAN
  10
60.706
  11
60.706
  20
-106.045
  21
-106.045
  40
1.524
  41
1
  50
90
  51
0
  71
0
  72
1
  73
1
  1
%%O
  0
TEXT
  7
KICAD
  8
CYAN
  10
59.6138
  11
59.6138
  20
-100.33
  21
-100.33
  40
1.27
  41
1
  50
90
  51
0
  71
0
  72
1
  73
2
  1
R1
  0
TEXT
  7
KICAD
  8
CYAN
  10
59.6138
  11
59.6138
  20
-104.14
  21
-104.14
  40
1.27
  41
1
  50
90
  51
0
  71
0
  72
1
  73
2
  1
10k
0
LINE
8
RED
10
68.58
20
-100.33
11
67.945
21
-100.965
0
LINE
8
RED
10
67.945
20
-100.965
11
69.215
21
-101.6
0
LINE
8
RED
10
69.215
20
-101.6
11
67.945
21
-102.235
0
LINE
8
RED
10
67.945
20
-102.235
11
69.215
21
-102.87
0
LINE
8
RED
10
69.215
20
-102.87
11
67.945
21
-103.505
0
LINE
8
RED
10
67.945
20
-103.505
11
69.215
21
-104.14
0
LINE
8
RED
10
69.215
20
-104.14
11
67.945
21
-104.775
0
LINE
8
RED
10
67.945
20
-104.775
11
68.58
21
-105.41
0
LINE
8
RED
10
68.58
20
-100.33
11
68.58
21
-99.06
  0
TEXT
  7
KICAD
  8
CYAN
  10
68.326
  11
68.326
  20
-99.695
  21
-99.695
  40
1.524
  41
1
  50
90
  51
0
  71
0
  72
1
  73
1
  1
%%O
0
LINE
8
RED
10
68.58
20
-105.41
11
68.58
21
-106.68
  0
TEXT
  7
KICAD
  8
CYAN
  10
68.326
  11
68.326
  20
-106.045
  21
-106.045
  40
1.524
  41
1
  50
90
  51
0
  71
0
  72
1
  73
1
  1
%%O
  0
TEXT
  7
KICAD
  8
CYAN
  10
67.2338
  11
67.2338
  20
-100.33
  21
-100.33
  40
1.27
  41
1
  50
90
  51
0
  71
0
  72
1
  73
2
  1
R3
  0
TEXT
  7
KICAD
  8
CYAN
  10
67.2338
  11
67.2338
  20
-104.14
  21
-104.14
  40
1.27
  41
1
  50
90
  51
0
  71
0
  72
1
  73
2
  1
10k
0
LINE
8
RED
10
74.93
20
-121.92
11
74.295
21
-122.555
0
LINE
8
RED
10
74.295
20
-122.555
11
75.565
21
-123.19
0
LINE
8
RED
10
75.565
20
-123.19
11
74.295
21
-123.825
0
LINE
8
RED
10
74.295
20
-123.825
11
75.565
21
-124.46
0
LINE
8
RED
10
75.565
20
-124.46
11
74.295
21
-125.095
0
LINE
8
RED
10
74.295
20
-125.095
11
75.565
21
-125.73
0
LINE
8
RED
10
75.565
20
-125.73
11
74.295
21
-126.365
0
LINE
8
RED
10
74.295
20
-126.365
11
74.93
21
-127
0
LINE
8
RED
10
74.93
20
-121.92
11
74.93
21
-120.65
  0
TEXT
  7
KICAD
  8
CYAN
  10
74.676
  11
74.676
  20
-121.285
  21
-121.285
  40
1.524
  41
1
  50
90
  51
0
  71
0
  72
1
  73
1
  1
%%O
0
LINE
8
RED
10
74.93
20
-127
11
74.93
21
-128.27
  0
TEXT
  7
KICAD
  8
CYAN
  10
74.676
  11
74.676
  20
-127.635
  21
-127.635
  40
1.524
  41
1
  50
90
  51
0
  71
0
  72
1
  73
1
  1
%%O
  0
TEXT
  7
KICAD
  8
CYAN
  10
73.5838
  11
73.5838
  20
-121.92
  21
-121.92
  40
1.27
  41
1
  50
90
  51
0
  71
0
  72
1
  73
2
  1
R4
  0
TEXT
  7
KICAD
  8
CYAN
  10
73.5838
  11
73.5838
  20
-127
  21
-127
  40
1.27
  41
1
  50
90
  51
0
  71
0
  72
1
  73
2
  1
2.2k
0
LINE
8
GREEN
10
41.91
20
-114.3
11
96.52
21
-114.3
0
LINE
8
GREEN
10
74.93
20
-114.3
11
74.93
21
-120.65
0
LINE
8
GREEN
10
74.93
20
-135.89
11
74.93
21
-128.27
0
LINE
8
GREEN
10
64.77
20
-135.89
11
74.93
21
-135.89
0
LINE
8
GREEN
10
68.58
20
-106.68
11
68.58
21
-135.89
0
POLYLINE
8
GREEN
66
1
70
1
40
0.4064
41
0.4064
0
VERTEX
8
GREEN
10
68.3768
 20
-135.89
42
1.0
0
VERTEX
8
GREEN
10
68.7832
 20
-135.89
42
1.0
0
SEQEND
0
LINE
8
GREEN
10
60.96
20
-99.06
11
60.96
21
-96.52
0
LINE
8
GREEN
10
60.96
20
-96.52
11
68.58
21
-96.52
0
LINE
8
GREEN
10
68.58
20
-96.52
11
68.58
21
-99.06
0
LINE
8
GREEN
10
64.77
20
-95.25
11
64.77
21
-99.06
0
POLYLINE
8
GREEN
66
1
70
1
40
0.4064
41
0.4064
0
VERTEX
8
GREEN
10
64.5668
 20
-96.52
42
1.0
0
VERTEX
8
GREEN
10
64.9732
 20
-96.52
42
1.0
0
SEQEND
0
CIRCLE
8
RED
10
64.77
20
-93.726
40
0.508
0
LINE
8
RED
10
64.77
20
-95.25
11
64.77
21
-94.234
  0
TEXT
  7
KICAD
  8
CYAN
  10
64.77
  11
64.77
  20
-92.4052
  21
-92.4052
  40
0.762
  41
1
  50
0
  51
0
  71
0
  72
1
  73
2
  1
+3.3V
0
LINE
8
GREEN
10
41.91
20
-114.3
11
41.91
21
-135.89
0
LINE
8
GREEN
10
41.91
20
-135.89
11
48.26
21
-135.89
0
POLYLINE
8
GREEN
66
1
70
1
40
0.4064
41
0.4064
0
VERTEX
8
GREEN
10
74.7268
 20
-114.3
42
1.0
0
VERTEX
8
GREEN
10
75.1332
 20
-114.3
42
1.0
0
SEQEND
0
LINE
8
GREEN
10
44.45
20
-109.22
11
96.52
21
-109.22
0
LINE
8
GREEN
10
44.45
20
-109.22
11
44.45
21
-130.81
0
LINE
8
GREEN
10
44.45
20
-130.81
11
48.26
21
-130.81
0
LINE
8
GREEN
10
39.37
20
-111.76
11
96.52
21
-111.76
0
LINE
8
GREEN
10
39.37
20
-111.76
11
39.37
21
-138.43
0
LINE
8
GREEN
10
39.37
20
-138.43
11
48.26
21
-138.43
0
LINE
8
GREEN
10
64.77
20
-106.68
11
64.77
21
-111.76
0
POLYLINE
8
GREEN
66
1
70
1
40
0.4064
41
0.4064
0
VERTEX
8
GREEN
10
64.5668
 20
-111.76
42
1.0
0
VERTEX
8
GREEN
10
64.9732
 20
-111.76
42
1.0
0
SEQEND
0
LINE
8
GREEN
10
60.96
20
-106.68
11
60.96
21
-109.22
0
POLYLINE
8
GREEN
66
1
70
1
40
0.4064
41
0.4064
0
VERTEX
8
GREEN
10
60.7568
 20
-109.22
42
1.0
0
VERTEX
8
GREEN
10
61.1632
 20
-109.22
42
1.0
0
SEQEND
0
LINE
8
GREEN
10
91.44
20
-71.12
11
96.52
21
-71.12
0
LINE
8
GREEN
10
93.98
20
-71.12
11
93.98
21
-57.15
0
LINE
8
GREEN
10
93.98
20
-57.15
11
123.19
21
-57.15
0
LINE
8
GREEN
10
123.19
20
-54.61
11
123.19
21
-63.5
0
LINE
8
GREEN
10
120.65
20
-57.15
11
120.65
21
-63.5
0
POLYLINE
8
GREEN
66
1
70
1
40
0.4064
41
0.4064
0
VERTEX
8
GREEN
10
120.447
 20
-57.15
42
1.0
0
VERTEX
8
GREEN
10
120.853
 20
-57.15
42
1.0
0
SEQEND
0
LINE
8
GREEN
10
118.11
20
-63.5
11
118.11
21
-57.15
0
POLYLINE
8
GREEN
66
1
70
1
40
0.4064
41
0.4064
0
VERTEX
8
GREEN
10
117.907
 20
-57.15
42
1.0
0
VERTEX
8
GREEN
10
118.313
 20
-57.15
42
1.0
0
SEQEND
0
POLYLINE
8
GREEN
66
1
70
1
40
0.4064
41
0.4064
0
VERTEX
8
GREEN
10
122.987
 20
-57.15
42
1.0
0
VERTEX
8
GREEN
10
123.393
 20
-57.15
42
1.0
0
SEQEND
0
LINE
8
RED
10
123.19
20
-54.61
11
123.19
21
-53.594
0
CIRCLE
8
RED
10
123.19
20
-53.086
40
0.508
  0
TEXT
  7
KICAD
  8
CYAN
  10
123.19
  11
123.19
  20
-51.7652
  21
-51.7652
  40
0.762
  41
1
  50
0
  51
0
  71
0
  72
1
  73
2
  1
+1.8V
0
POLYLINE
8
GREEN
66
1
70
1
40
0.4064
41
0.4064
0
VERTEX
8
GREEN
10
93.7768
 20
-71.12
42
1.0
0
VERTEX
8
GREEN
10
94.1832
 20
-71.12
42
1.0
0
SEQEND
0
LINE
8
GREEN
10
86.36
20
-71.12
11
85.09
21
-71.12
0
LINE
8
RED
10
85.09
20
-69.85
11
83.82
21
-71.12
0
LINE
8
RED
10
83.82
20
-71.12
11
85.09
21
-72.39
0
LINE
8
RED
10
85.09
20
-72.39
11
85.09
21
-69.85
0
LINE
8
RED
10
90.17
20
-68.58
11
87.63
21
-68.58
0
LINE
8
RED
10
87.63
20
-68.58
11
87.63
21
-73.66
0
LINE
8
RED
10
87.63
20
-73.66
11
90.17
21
-73.66
0
LINE
8
RED
10
90.17
20
-69.85
11
88.392
21
-69.85
0
LINE
8
RED
10
88.392
20
-69.85
11
88.392
21
-72.39
0
LINE
8
RED
10
88.392
20
-72.39
11
90.17
21
-72.39
0
LINE
8
RED
10
90.17
20
-72.39
11
90.17
21
-69.85
0
LINE
8
RED
10
90.17
20
-71.12
11
91.44
21
-71.12
0
LINE
8
RED
10
87.63
20
-71.12
11
86.36
21
-71.12
  0
TEXT
  7
KICAD
  8
CYAN
  10
92.6846
  11
92.6846
  20
-73.5838
  21
-73.5838
  40
1.27
  41
1
  50
0
  51
0
  71
0
  72
1
  73
2
  1
C4
  0
TEXT
  7
KICAD
  8
CYAN
  10
87.2998
  11
87.2998
  20
-76.1238
  21
-76.1238
  40
1.27
  41
1
  50
0
  51
0
  71
0
  72
1
  73
2
  1
10uF/10V
0
LINE
8
RED
10
125.73
20
-32.512
11
130.81
21
-32.512
0
LINE
8
RED
10
125.73
20
-30.988
11
130.81
21
-30.988
0
LINE
8
RED
10
128.27
20
-30.988
11
128.27
21
-27.94
  0
TEXT
  7
KICAD
  8
CYAN
  10
128.27
  11
128.27
  20
-31.242
  21
-31.242
  40
1.016
  41
1
  50
90
  51
0
  71
0
  72
2
  73
2
  1
%%O
0
LINE
8
RED
10
128.27
20
-32.512
11
128.27
21
-35.56
  0
TEXT
  7
KICAD
  8
CYAN
  10
128.27
  11
128.27
  20
-32.258
  21
-32.258
  40
1.016
  41
1
  50
90
  51
0
  71
0
  72
0
  73
2
  1
%%O
  0
TEXT
  7
KICAD
  8
CYAN
  10
130.785
  11
130.785
  20
-29.1338
  21
-29.1338
  40
1.27
  41
1
  50
0
  51
0
  71
0
  72
1
  73
2
  1
C6
  0
TEXT
  7
KICAD
  8
CYAN
  10
131.928
  11
131.928
  20
-34.2138
  21
-34.2138
  40
1.27
  41
1
  50
0
  51
0
  71
0
  72
1
  73
2
  1
100n
0
LINE
8
RED
10
140.97
20
-32.512
11
146.05
21
-32.512
0
LINE
8
RED
10
140.97
20
-30.988
11
146.05
21
-30.988
0
LINE
8
RED
10
143.51
20
-30.988
11
143.51
21
-27.94
  0
TEXT
  7
KICAD
  8
CYAN
  10
143.51
  11
143.51
  20
-31.242
  21
-31.242
  40
1.016
  41
1
  50
90
  51
0
  71
0
  72
2
  73
2
  1
%%O
0
LINE
8
RED
10
143.51
20
-32.512
11
143.51
21
-35.56
  0
TEXT
  7
KICAD
  8
CYAN
  10
143.51
  11
143.51
  20
-32.258
  21
-32.258
  40
1.016
  41
1
  50
90
  51
0
  71
0
  72
0
  73
2
  1
%%O
  0
TEXT
  7
KICAD
  8
CYAN
  10
146.025
  11
146.025
  20
-29.1338
  21
-29.1338
  40
1.27
  41
1
  50
0
  51
0
  71
0
  72
1
  73
2
  1
C8
  0
TEXT
  7
KICAD
  8
CYAN
  10
147.168
  11
147.168
  20
-34.2138
  21
-34.2138
  40
1.27
  41
1
  50
0
  51
0
  71
0
  72
1
  73
2
  1
100n
0
LINE
8
RED
10
148.59
20
-32.512
11
153.67
21
-32.512
0
LINE
8
RED
10
148.59
20
-30.988
11
153.67
21
-30.988
0
LINE
8
RED
10
151.13
20
-30.988
11
151.13
21
-27.94
  0
TEXT
  7
KICAD
  8
CYAN
  10
151.13
  11
151.13
  20
-31.242
  21
-31.242
  40
1.016
  41
1
  50
90
  51
0
  71
0
  72
2
  73
2
  1
%%O
0
LINE
8
RED
10
151.13
20
-32.512
11
151.13
21
-35.56
  0
TEXT
  7
KICAD
  8
CYAN
  10
151.13
  11
151.13
  20
-32.258
  21
-32.258
  40
1.016
  41
1
  50
90
  51
0
  71
0
  72
0
  73
2
  1
%%O
  0
TEXT
  7
KICAD
  8
CYAN
  10
153.645
  11
153.645
  20
-29.1338
  21
-29.1338
  40
1.27
  41
1
  50
0
  51
0
  71
0
  72
1
  73
2
  1
C9
  0
TEXT
  7
KICAD
  8
CYAN
  10
154.788
  11
154.788
  20
-34.2138
  21
-34.2138
  40
1.27
  41
1
  50
0
  51
0
  71
0
  72
1
  73
2
  1
100n
0
LINE
8
GREEN
10
128.27
20
-25.4
11
128.27
21
-27.94
0
LINE
8
GREEN
10
128.27
20
-25.4
11
151.13
21
-25.4
0
LINE
8
GREEN
10
151.13
20
-25.4
11
151.13
21
-27.94
0
LINE
8
GREEN
10
128.27
20
-35.56
11
128.27
21
-38.1
0
LINE
8
GREEN
10
128.27
20
-38.1
11
151.13
21
-38.1
0
LINE
8
GREEN
10
151.13
20
-38.1
11
151.13
21
-35.56
0
LINE
8
GREEN
10
143.51
20
-35.56
11
143.51
21
-40.64
0
POLYLINE
8
GREEN
66
1
70
1
40
0.4064
41
0.4064
0
VERTEX
8
GREEN
10
143.307
 20
-38.1
42
1.0
0
VERTEX
8
GREEN
10
143.713
 20
-38.1
42
1.0
0
SEQEND
0
LINE
8
GREEN
10
143.51
20
-22.86
11
143.51
21
-27.94
0
POLYLINE
8
GREEN
66
1
70
1
40
0.4064
41
0.4064
0
VERTEX
8
GREEN
10
143.307
 20
-25.4
42
1.0
0
VERTEX
8
GREEN
10
143.713
 20
-25.4
42
1.0
0
SEQEND
0
LINE
8
RED
10
142.24
20
-40.64
11
143.51
21
-41.91
0
LINE
8
RED
10
143.51
20
-41.91
11
144.78
21
-40.64
0
LINE
8
RED
10
144.78
20
-40.64
11
142.24
21
-40.64
0
LINE
8
RED
10
143.51
20
-22.86
11
143.51
21
-21.844
0
CIRCLE
8
RED
10
143.51
20
-21.336
40
0.508
  0
TEXT
  7
KICAD
  8
CYAN
  10
143.51
  11
143.51
  20
-20.0152
  21
-20.0152
  40
0.762
  41
1
  50
0
  51
0
  71
0
  72
1
  73
2
  1
+1.8V
0
LINE
8
RED
10
172.72
20
-32.512
11
177.8
21
-32.512
0
LINE
8
RED
10
172.72
20
-30.988
11
177.8
21
-30.988
0
LINE
8
RED
10
175.26
20
-30.988
11
175.26
21
-27.94
  0
TEXT
  7
KICAD
  8
CYAN
  10
175.26
  11
175.26
  20
-31.242
  21
-31.242
  40
1.016
  41
1
  50
90
  51
0
  71
0
  72
2
  73
2
  1
%%O
0
LINE
8
RED
10
175.26
20
-32.512
11
175.26
21
-35.56
  0
TEXT
  7
KICAD
  8
CYAN
  10
175.26
  11
175.26
  20
-32.258
  21
-32.258
  40
1.016
  41
1
  50
90
  51
0
  71
0
  72
0
  73
2
  1
%%O
  0
TEXT
  7
KICAD
  8
CYAN
  10
178.384
  11
178.384
  20
-29.1338
  21
-29.1338
  40
1.27
  41
1
  50
0
  51
0
  71
0
  72
1
  73
2
  1
C11
  0
TEXT
  7
KICAD
  8
CYAN
  10
178.918
  11
178.918
  20
-34.2138
  21
-34.2138
  40
1.27
  41
1
  50
0
  51
0
  71
0
  72
1
  73
2
  1
100n
0
LINE
8
RED
10
180.34
20
-32.512
11
185.42
21
-32.512
0
LINE
8
RED
10
180.34
20
-30.988
11
185.42
21
-30.988
0
LINE
8
RED
10
182.88
20
-30.988
11
182.88
21
-27.94
  0
TEXT
  7
KICAD
  8
CYAN
  10
182.88
  11
182.88
  20
-31.242
  21
-31.242
  40
1.016
  41
1
  50
90
  51
0
  71
0
  72
2
  73
2
  1
%%O
0
LINE
8
RED
10
182.88
20
-32.512
11
182.88
21
-35.56
  0
TEXT
  7
KICAD
  8
CYAN
  10
182.88
  11
182.88
  20
-32.258
  21
-32.258
  40
1.016
  41
1
  50
90
  51
0
  71
0
  72
0
  73
2
  1
%%O
  0
TEXT
  7
KICAD
  8
CYAN
  10
186.004
  11
186.004
  20
-29.1338
  21
-29.1338
  40
1.27
  41
1
  50
0
  51
0
  71
0
  72
1
  73
2
  1
C12
  0
TEXT
  7
KICAD
  8
CYAN
  10
186.538
  11
186.538
  20
-34.2138
  21
-34.2138
  40
1.27
  41
1
  50
0
  51
0
  71
0
  72
1
  73
2
  1
100n
0
LINE
8
RED
10
187.96
20
-32.512
11
193.04
21
-32.512
0
LINE
8
RED
10
187.96
20
-30.988
11
193.04
21
-30.988
0
LINE
8
RED
10
190.5
20
-30.988
11
190.5
21
-27.94
  0
TEXT
  7
KICAD
  8
CYAN
  10
190.5
  11
190.5
  20
-31.242
  21
-31.242
  40
1.016
  41
1
  50
90
  51
0
  71
0
  72
2
  73
2
  1
%%O
0
LINE
8
RED
10
190.5
20
-32.512
11
190.5
21
-35.56
  0
TEXT
  7
KICAD
  8
CYAN
  10
190.5
  11
190.5
  20
-32.258
  21
-32.258
  40
1.016
  41
1
  50
90
  51
0
  71
0
  72
0
  73
2
  1
%%O
  0
TEXT
  7
KICAD
  8
CYAN
  10
193.624
  11
193.624
  20
-29.1338
  21
-29.1338
  40
1.27
  41
1
  50
0
  51
0
  71
0
  72
1
  73
2
  1
C13
  0
TEXT
  7
KICAD
  8
CYAN
  10
194.158
  11
194.158
  20
-34.2138
  21
-34.2138
  40
1.27
  41
1
  50
0
  51
0
  71
0
  72
1
  73
2
  1
100n
0
LINE
8
GREEN
10
175.26
20
-25.4
11
175.26
21
-27.94
0
LINE
8
GREEN
10
167.64
20
-25.4
11
198.12
21
-25.4
0
LINE
8
GREEN
10
190.5
20
-25.4
11
190.5
21
-27.94
0
LINE
8
GREEN
10
175.26
20
-35.56
11
175.26
21
-38.1
0
LINE
8
GREEN
10
167.64
20
-38.1
11
198.12
21
-38.1
0
LINE
8
GREEN
10
190.5
20
-38.1
11
190.5
21
-35.56
0
LINE
8
GREEN
10
182.88
20
-35.56
11
182.88
21
-40.64
0
POLYLINE
8
GREEN
66
1
70
1
40
0.4064
41
0.4064
0
VERTEX
8
GREEN
10
182.677
 20
-38.1
42
1.0
0
VERTEX
8
GREEN
10
183.083
 20
-38.1
42
1.0
0
SEQEND
0
LINE
8
GREEN
10
182.88
20
-22.86
11
182.88
21
-27.94
0
POLYLINE
8
GREEN
66
1
70
1
40
0.4064
41
0.4064
0
VERTEX
8
GREEN
10
182.677
 20
-25.4
42
1.0
0
VERTEX
8
GREEN
10
183.083
 20
-25.4
42
1.0
0
SEQEND
0
LINE
8
RED
10
181.61
20
-40.64
11
182.88
21
-41.91
0
LINE
8
RED
10
182.88
20
-41.91
11
184.15
21
-40.64
0
LINE
8
RED
10
184.15
20
-40.64
11
181.61
21
-40.64
0
CIRCLE
8
RED
10
182.88
20
-21.336
40
0.508
0
LINE
8
RED
10
182.88
20
-22.86
11
182.88
21
-21.844
  0
TEXT
  7
KICAD
  8
CYAN
  10
182.88
  11
182.88
  20
-20.0152
  21
-20.0152
  40
0.762
  41
1
  50
0
  51
0
  71
0
  72
1
  73
2
  1
+3.3V
0
LINE
8
RED
10
195.58
20
-32.512
11
200.66
21
-32.512
0
LINE
8
RED
10
195.58
20
-30.988
11
200.66
21
-30.988
0
LINE
8
RED
10
198.12
20
-30.988
11
198.12
21
-27.94
  0
TEXT
  7
KICAD
  8
CYAN
  10
198.12
  11
198.12
  20
-31.242
  21
-31.242
  40
1.016
  41
1
  50
90
  51
0
  71
0
  72
2
  73
2
  1
%%O
0
LINE
8
RED
10
198.12
20
-32.512
11
198.12
21
-35.56
  0
TEXT
  7
KICAD
  8
CYAN
  10
198.12
  11
198.12
  20
-32.258
  21
-32.258
  40
1.016
  41
1
  50
90
  51
0
  71
0
  72
0
  73
2
  1
%%O
  0
TEXT
  7
KICAD
  8
CYAN
  10
201.244
  11
201.244
  20
-29.1338
  21
-29.1338
  40
1.27
  41
1
  50
0
  51
0
  71
0
  72
1
  73
2
  1
C14
  0
TEXT
  7
KICAD
  8
CYAN
  10
201.778
  11
201.778
  20
-34.2138
  21
-34.2138
  40
1.27
  41
1
  50
0
  51
0
  71
0
  72
1
  73
2
  1
100n
0
LINE
8
GREEN
10
198.12
20
-25.4
11
198.12
21
-27.94
0
POLYLINE
8
GREEN
66
1
70
1
40
0.4064
41
0.4064
0
VERTEX
8
GREEN
10
190.297
 20
-25.4
42
1.0
0
VERTEX
8
GREEN
10
190.703
 20
-25.4
42
1.0
0
SEQEND
0
LINE
8
GREEN
10
198.12
20
-38.1
11
198.12
21
-35.56
0
POLYLINE
8
GREEN
66
1
70
1
40
0.4064
41
0.4064
0
VERTEX
8
GREEN
10
190.297
 20
-38.1
42
1.0
0
VERTEX
8
GREEN
10
190.703
 20
-38.1
42
1.0
0
SEQEND
0
LINE
8
RED
10
62.23
20
-35.56
11
62.23
21
-44.45
0
LINE
8
RED
10
62.23
20
-44.45
11
72.39
21
-44.45
0
LINE
8
RED
10
72.39
20
-44.45
11
72.39
21
-35.56
0
LINE
8
RED
10
72.39
20
-35.56
11
62.23
21
-35.56
0
LINE
8
RED
10
67.31
20
-44.45
11
67.31
21
-49.53
  0
TEXT
  7
KICAD
  8
CYAN
  10
67.31
  11
67.31
  20
-43.434
  21
-43.434
  40
1.27
  41
1
  50
90
  51
0
  71
0
  72
0
  73
2
  1
GND
  0
TEXT
  7
KICAD
  8
RED
  10
67.056
  11
67.056
  20
-46.99
  21
-46.99
  40
1.27
  41
1
  50
90
  51
0
  71
0
  72
1
  73
1
  1
1
0
LINE
8
RED
10
62.23
20
-38.1
11
57.15
21
-38.1
  0
TEXT
  7
KICAD
  8
CYAN
  10
63.246
  11
63.246
  20
-38.1
  21
-38.1
  40
1.27
  41
1
  50
0
  51
0
  71
0
  72
0
  73
2
  1
IN
  0
TEXT
  7
KICAD
  8
RED
  10
59.69
  11
59.69
  20
-37.846
  21
-37.846
  40
1.27
  41
1
  50
0
  51
0
  71
0
  72
1
  73
1
  1
2
0
LINE
8
RED
10
72.39
20
-38.1
11
77.47
21
-38.1
  0
TEXT
  7
KICAD
  8
CYAN
  10
71.374
  11
71.374
  20
-38.1
  21
-38.1
  40
1.27
  41
1
  50
0
  51
0
  71
0
  72
2
  73
2
  1
OUT
  0
TEXT
  7
KICAD
  8
RED
  10
74.93
  11
74.93
  20
-37.846
  21
-37.846
  40
1.27
  41
1
  50
0
  51
0
  71
0
  72
1
  73
1
  1
3
  0
TEXT
  7
KICAD
  8
CYAN
  10
63.5
  11
63.5
  20
-30.4038
  21
-30.4038
  40
1.524
  41
1
  50
0
  51
0
  71
0
  72
1
  73
2
  1
U2
  0
TEXT
  7
KICAD
  8
CYAN
  10
66.04
  11
66.04
  20
-32.9438
  21
-32.9438
  40
1.524
  41
1
  50
0
  51
0
  71
0
  72
1
  73
2
  1
LM1117
0
LINE
8
GREEN
10
67.31
20
-49.53
11
67.31
21
-50.8
0
LINE
8
GREEN
10
77.47
20
-38.1
11
95.25
21
-38.1
0
LINE
8
GREEN
10
26.67
20
-38.1
11
57.15
21
-38.1
0
LINE
8
GREEN
10
91.44
20
-68.58
11
96.52
21
-68.58
0
LINE
8
GREEN
10
91.44
20
-38.1
11
91.44
21
-68.58
0
CIRCLE
8
RED
10
81.28
20
-35.306
40
0.508
0
LINE
8
RED
10
81.28
20
-36.83
11
81.28
21
-35.814
  0
TEXT
  7
KICAD
  8
CYAN
  10
81.28
  11
81.28
  20
-33.9852
  21
-33.9852
  40
0.762
  41
1
  50
0
  51
0
  71
0
  72
1
  73
2
  1
+3.3V
0
LINE
8
GREEN
10
81.28
20
-36.83
11
81.28
21
-40.64
0
POLYLINE
8
GREEN
66
1
70
1
40
0.4064
41
0.4064
0
VERTEX
8
GREEN
10
81.0768
 20
-38.1
42
1.0
0
VERTEX
8
GREEN
10
81.4832
 20
-38.1
42
1.0
0
SEQEND
0
LINE
8
RED
10
66.04
20
-50.8
11
67.31
21
-52.07
0
LINE
8
RED
10
67.31
20
-52.07
11
68.58
21
-50.8
0
LINE
8
RED
10
68.58
20
-50.8
11
66.04
21
-50.8
0
LINE
8
RED
10
78.74
20
-45.212
11
83.82
21
-45.212
0
LINE
8
RED
10
78.74
20
-43.688
11
83.82
21
-43.688
0
LINE
8
RED
10
81.28
20
-43.688
11
81.28
21
-40.64
  0
TEXT
  7
KICAD
  8
CYAN
  10
81.28
  11
81.28
  20
-43.942
  21
-43.942
  40
1.016
  41
1
  50
90
  51
0
  71
0
  72
2
  73
2
  1
%%O
0
LINE
8
RED
10
81.28
20
-45.212
11
81.28
21
-48.26
  0
TEXT
  7
KICAD
  8
CYAN
  10
81.28
  11
81.28
  20
-44.958
  21
-44.958
  40
1.016
  41
1
  50
90
  51
0
  71
0
  72
0
  73
2
  1
%%O
  0
TEXT
  7
KICAD
  8
CYAN
  10
83.7946
  11
83.7946
  20
-41.8338
  21
-41.8338
  40
1.27
  41
1
  50
0
  51
0
  71
0
  72
1
  73
2
  1
C3
  0
TEXT
  7
KICAD
  8
CYAN
  10
84.9376
  11
84.9376
  20
-46.9138
  21
-46.9138
  40
1.27
  41
1
  50
0
  51
0
  71
0
  72
1
  73
2
  1
100n
0
LINE
8
GREEN
10
81.28
20
-48.26
11
81.28
21
-49.53
0
LINE
8
RED
10
80.01
20
-49.53
11
81.28
21
-50.8
0
LINE
8
RED
10
81.28
20
-50.8
11
82.55
21
-49.53
0
LINE
8
RED
10
82.55
20
-49.53
11
80.01
21
-49.53
0
LINE
8
RED
10
86.36
20
-92.71
11
86.995
21
-93.345
0
LINE
8
RED
10
86.995
20
-93.345
11
87.63
21
-92.075
0
LINE
8
RED
10
87.63
20
-92.075
11
88.265
21
-93.345
0
LINE
8
RED
10
88.265
20
-93.345
11
88.9
21
-92.075
0
LINE
8
RED
10
88.9
20
-92.075
11
89.535
21
-93.345
0
LINE
8
RED
10
89.535
20
-93.345
11
90.17
21
-92.075
0
LINE
8
RED
10
90.17
20
-92.075
11
90.805
21
-93.345
0
LINE
8
RED
10
90.805
20
-93.345
11
91.44
21
-92.71
0
LINE
8
RED
10
86.36
20
-92.71
11
85.09
21
-92.71
  0
TEXT
  7
KICAD
  8
CYAN
  10
85.725
  11
85.725
  20
-92.456
  21
-92.456
  40
1.524
  41
1
  50
0
  51
0
  71
0
  72
1
  73
1
  1
%%O
0
LINE
8
RED
10
91.44
20
-92.71
11
92.71
21
-92.71
  0
TEXT
  7
KICAD
  8
CYAN
  10
92.075
  11
92.075
  20
-92.456
  21
-92.456
  40
1.524
  41
1
  50
0
  51
0
  71
0
  72
1
  73
1
  1
%%O
  0
TEXT
  7
KICAD
  8
CYAN
  10
91.44
  11
91.44
  20
-91.5162
  21
-91.5162
  40
1.27
  41
1
  50
0
  51
0
  71
0
  72
1
  73
2
  1
R5
  0
TEXT
  7
KICAD
  8
CYAN
  10
86.36
  11
86.36
  20
-91.5162
  21
-91.5162
  40
1.27
  41
1
  50
0
  51
0
  71
0
  72
1
  73
2
  1
12k
0
LINE
8
GREEN
10
96.52
20
-92.71
11
92.71
21
-92.71
0
LINE
8
GREEN
10
81.28
20
-92.71
11
85.09
21
-92.71
0
LINE
8
RED
10
81.28
20
-91.44
11
80.01
21
-92.71
0
LINE
8
RED
10
80.01
20
-92.71
11
81.28
21
-93.98
0
LINE
8
RED
10
81.28
20
-93.98
11
81.28
21
-91.44
0
LINE
8
RED
10
91.44
20
-96.52
11
90.805
21
-95.885
0
LINE
8
RED
10
90.805
20
-95.885
11
90.17
21
-97.155
0
LINE
8
RED
10
90.17
20
-97.155
11
89.535
21
-95.885
0
LINE
8
RED
10
89.535
20
-95.885
11
88.9
21
-97.155
0
LINE
8
RED
10
88.9
20
-97.155
11
88.265
21
-95.885
0
LINE
8
RED
10
88.265
20
-95.885
11
87.63
21
-97.155
0
LINE
8
RED
10
87.63
20
-97.155
11
86.995
21
-95.885
0
LINE
8
RED
10
86.995
20
-95.885
11
86.36
21
-96.52
0
LINE
8
RED
10
91.44
20
-96.52
11
92.71
21
-96.52
  0
TEXT
  7
KICAD
  8
CYAN
  10
92.075
  11
92.075
  20
-96.266
  21
-96.266
  40
1.524
  41
1
  50
0
  51
0
  71
0
  72
1
  73
1
  1
%%O
0
LINE
8
RED
10
86.36
20
-96.52
11
85.09
21
-96.52
  0
TEXT
  7
KICAD
  8
CYAN
  10
85.725
  11
85.725
  20
-96.266
  21
-96.266
  40
1.524
  41
1
  50
0
  51
0
  71
0
  72
1
  73
1
  1
%%O
  0
TEXT
  7
KICAD
  8
CYAN
  10
91.44
  11
91.44
  20
-95.1738
  21
-95.1738
  40
1.27
  41
1
  50
0
  51
0
  71
0
  72
1
  73
2
  1
R6
  0
TEXT
  7
KICAD
  8
CYAN
  10
85.09
  11
85.09
  20
-95.1738
  21
-95.1738
  40
1.27
  41
1
  50
0
  51
0
  71
0
  72
1
  73
2
  1
1k
0
LINE
8
GREEN
10
92.71
20
-96.52
11
96.52
21
-96.52
0
LINE
8
GREEN
10
85.09
20
-96.52
11
81.28
21
-96.52
0
CIRCLE
8
RED
10
79.756
20
-96.52
40
0.508
0
LINE
8
RED
10
81.28
20
-96.52
11
80.264
21
-96.52
  0
TEXT
  7
KICAD
  8
CYAN
  10
78.4352
  11
78.4352
  20
-96.4946
  21
-96.4946
  40
0.762
  41
1
  50
90
  51
0
  71
0
  72
1
  73
2
  1
+3.3V
0
LINE
8
RED
10
20.32
20
-36.83
11
20.32
21
-46.99
0
LINE
8
RED
10
20.32
20
-46.99
11
15.24
21
-46.99
0
LINE
8
RED
10
15.24
20
-46.99
11
15.24
21
-36.83
0
LINE
8
RED
10
15.24
20
-36.83
11
20.32
21
-36.83
0
CIRCLE
8
RED
10
21.209
20
-38.1
40
0.889
0
LINE
8
RED
10
22.098
20
-38.1
11
26.67
21
-38.1
  0
TEXT
  7
KICAD
  8
RED
  10
23.495
  11
23.495
  20
-37.846
  21
-37.846
  40
1.27
  41
1
  50
0
  51
0
  71
0
  72
1
  73
1
  1
1
0
CIRCLE
8
RED
10
21.209
20
-40.64
40
0.889
0
LINE
8
RED
10
22.098
20
-40.64
11
26.67
21
-40.64
  0
TEXT
  7
KICAD
  8
RED
  10
23.495
  11
23.495
  20
-40.386
  21
-40.386
  40
1.27
  41
1
  50
0
  51
0
  71
0
  72
1
  73
1
  1
2
0
CIRCLE
8
RED
10
21.209
20
-43.18
40
0.889
0
LINE
8
RED
10
22.098
20
-43.18
11
26.67
21
-43.18
  0
TEXT
  7
KICAD
  8
RED
  10
23.495
  11
23.495
  20
-42.926
  21
-42.926
  40
1.27
  41
1
  50
0
  51
0
  71
0
  72
1
  73
1
  1
3
0
CIRCLE
8
RED
10
21.209
20
-45.72
40
0.889
0
LINE
8
RED
10
22.098
20
-45.72
11
26.67
21
-45.72
  0
TEXT
  7
KICAD
  8
RED
  10
23.495
  11
23.495
  20
-45.466
  21
-45.466
  40
1.27
  41
1
  50
0
  51
0
  71
0
  72
1
  73
1
  1
4
  0
TEXT
  7
KICAD
  8
CYAN
  10
19.1262
  11
19.1262
  20
-41.91
  21
-41.91
  40
1.27
  41
1
  50
90
  51
0
  71
0
  72
1
  73
2
  1
P1
  0
TEXT
  7
KICAD
  8
CYAN
  10
16.5862
  11
16.5862
  20
-41.91
  21
-41.91
  40
1.27
  41
1
  50
90
  51
0
  71
0
  72
1
  73
2
  1
CONN_4
0
LINE
8
GREEN
10
26.67
20
-40.64
11
39.37
21
-40.64
0
LINE
8
GREEN
10
39.37
20
-40.64
11
39.37
21
-80.01
0
LINE
8
GREEN
10
39.37
20
-80.01
11
96.52
21
-80.01
0
LINE
8
GREEN
10
26.67
20
-43.18
11
36.83
21
-43.18
0
LINE
8
GREEN
10
36.83
20
-43.18
11
36.83
21
-82.55
0
LINE
8
GREEN
10
36.83
20
-82.55
11
96.52
21
-82.55
0
LINE
8
GREEN
10
26.67
20
-45.72
11
26.67
21
-48.26
0
LINE
8
RED
10
25.4
20
-48.26
11
26.67
21
-49.53
0
LINE
8
RED
10
26.67
20
-49.53
11
27.94
21
-48.26
0
LINE
8
RED
10
27.94
20
-48.26
11
25.4
21
-48.26
0
LINE
8
GREEN
10
52.07
20
-35.56
11
52.07
21
-40.64
0
POLYLINE
8
GREEN
66
1
70
1
40
0.4064
41
0.4064
0
VERTEX
8
GREEN
10
51.8668
 20
-38.1
42
1.0
0
VERTEX
8
GREEN
10
52.2732
 20
-38.1
42
1.0
0
SEQEND
0
LINE
8
RED
10
49.53
20
-45.212
11
54.61
21
-45.212
0
LINE
8
RED
10
49.53
20
-43.688
11
54.61
21
-43.688
0
LINE
8
RED
10
52.07
20
-43.688
11
52.07
21
-40.64
  0
TEXT
  7
KICAD
  8
CYAN
  10
52.07
  11
52.07
  20
-43.942
  21
-43.942
  40
1.016
  41
1
  50
90
  51
0
  71
0
  72
2
  73
2
  1
%%O
0
LINE
8
RED
10
52.07
20
-45.212
11
52.07
21
-48.26
  0
TEXT
  7
KICAD
  8
CYAN
  10
52.07
  11
52.07
  20
-44.958
  21
-44.958
  40
1.016
  41
1
  50
90
  51
0
  71
0
  72
0
  73
2
  1
%%O
  0
TEXT
  7
KICAD
  8
CYAN
  10
54.5846
  11
54.5846
  20
-41.8338
  21
-41.8338
  40
1.27
  41
1
  50
0
  51
0
  71
0
  72
1
  73
2
  1
C1
  0
TEXT
  7
KICAD
  8
CYAN
  10
55.7276
  11
55.7276
  20
-46.9138
  21
-46.9138
  40
1.27
  41
1
  50
0
  51
0
  71
0
  72
1
  73
2
  1
100n
0
LINE
8
GREEN
10
52.07
20
-48.26
11
52.07
21
-49.53
0
LINE
8
RED
10
50.8
20
-49.53
11
52.07
21
-50.8
0
LINE
8
RED
10
52.07
20
-50.8
11
53.34
21
-49.53
0
LINE
8
RED
10
53.34
20
-49.53
11
50.8
21
-49.53
0
LINE
8
GREEN
10
130.81
20
-63.5
11
130.81
21
-57.15
0
LINE
8
GREEN
10
130.81
20
-57.15
11
138.43
21
-57.15
0
LINE
8
GREEN
10
138.43
20
-54.61
11
138.43
21
-63.5
0
LINE
8
GREEN
10
135.89
20
-63.5
11
135.89
21
-57.15
0
POLYLINE
8
GREEN
66
1
70
1
40
0.4064
41
0.4064
0
VERTEX
8
GREEN
10
135.687
 20
-57.15
42
1.0
0
VERTEX
8
GREEN
10
136.093
 20
-57.15
42
1.0
0
SEQEND
0
LINE
8
GREEN
10
133.35
20
-57.15
11
133.35
21
-63.5
0
POLYLINE
8
GREEN
66
1
70
1
40
0.4064
41
0.4064
0
VERTEX
8
GREEN
10
133.147
 20
-57.15
42
1.0
0
VERTEX
8
GREEN
10
133.553
 20
-57.15
42
1.0
0
SEQEND
0
POLYLINE
8
GREEN
66
1
70
1
40
0.4064
41
0.4064
0
VERTEX
8
GREEN
10
138.227
 20
-57.15
42
1.0
0
VERTEX
8
GREEN
10
138.633
 20
-57.15
42
1.0
0
SEQEND
0
CIRCLE
8
RED
10
138.43
20
-53.086
40
0.508
0
LINE
8
RED
10
138.43
20
-54.61
11
138.43
21
-53.594
  0
TEXT
  7
KICAD
  8
CYAN
  10
138.43
  11
138.43
  20
-51.7652
  21
-51.7652
  40
0.762
  41
1
  50
0
  51
0
  71
0
  72
1
  73
2
  1
+3.3V
0
LINE
8
RED
10
165.1
20
-32.512
11
170.18
21
-32.512
0
LINE
8
RED
10
165.1
20
-30.988
11
170.18
21
-30.988
0
LINE
8
RED
10
167.64
20
-30.988
11
167.64
21
-27.94
  0
TEXT
  7
KICAD
  8
CYAN
  10
167.64
  11
167.64
  20
-31.242
  21
-31.242
  40
1.016
  41
1
  50
90
  51
0
  71
0
  72
2
  73
2
  1
%%O
0
LINE
8
RED
10
167.64
20
-32.512
11
167.64
21
-35.56
  0
TEXT
  7
KICAD
  8
CYAN
  10
167.64
  11
167.64
  20
-32.258
  21
-32.258
  40
1.016
  41
1
  50
90
  51
0
  71
0
  72
0
  73
2
  1
%%O
  0
TEXT
  7
KICAD
  8
CYAN
  10
170.764
  11
170.764
  20
-29.1338
  21
-29.1338
  40
1.27
  41
1
  50
0
  51
0
  71
0
  72
1
  73
2
  1
C10
  0
TEXT
  7
KICAD
  8
CYAN
  10
171.298
  11
171.298
  20
-34.2138
  21
-34.2138
  40
1.27
  41
1
  50
0
  51
0
  71
0
  72
1
  73
2
  1
100n
0
LINE
8
GREEN
10
167.64
20
-25.4
11
167.64
21
-27.94
0
LINE
8
GREEN
10
175.26
20
-25.4
11
190.5
21
-25.4
0
LINE
8
GREEN
10
167.64
20
-35.56
11
167.64
21
-38.1
0
LINE
8
GREEN
10
175.26
20
-38.1
11
190.5
21
-38.1
0
POLYLINE
8
GREEN
66
1
70
1
40
0.4064
41
0.4064
0
VERTEX
8
GREEN
10
175.057
 20
-25.4
42
1.0
0
VERTEX
8
GREEN
10
175.463
 20
-25.4
42
1.0
0
SEQEND
0
POLYLINE
8
GREEN
66
1
70
1
40
0.4064
41
0.4064
0
VERTEX
8
GREEN
10
175.057
 20
-38.1
42
1.0
0
VERTEX
8
GREEN
10
175.463
 20
-38.1
42
1.0
0
SEQEND
0
LINE
8
RED
10
133.35
20
-32.512
11
138.43
21
-32.512
0
LINE
8
RED
10
133.35
20
-30.988
11
138.43
21
-30.988
0
LINE
8
RED
10
135.89
20
-30.988
11
135.89
21
-27.94
  0
TEXT
  7
KICAD
  8
CYAN
  10
135.89
  11
135.89
  20
-31.242
  21
-31.242
  40
1.016
  41
1
  50
90
  51
0
  71
0
  72
2
  73
2
  1
%%O
0
LINE
8
RED
10
135.89
20
-32.512
11
135.89
21
-35.56
  0
TEXT
  7
KICAD
  8
CYAN
  10
135.89
  11
135.89
  20
-32.258
  21
-32.258
  40
1.016
  41
1
  50
90
  51
0
  71
0
  72
0
  73
2
  1
%%O
  0
TEXT
  7
KICAD
  8
CYAN
  10
138.405
  11
138.405
  20
-29.1338
  21
-29.1338
  40
1.27
  41
1
  50
0
  51
0
  71
0
  72
1
  73
2
  1
C7
  0
TEXT
  7
KICAD
  8
CYAN
  10
139.548
  11
139.548
  20
-34.2138
  21
-34.2138
  40
1.27
  41
1
  50
0
  51
0
  71
0
  72
1
  73
2
  1
100n
0
LINE
8
GREEN
10
135.89
20
-25.4
11
135.89
21
-27.94
0
LINE
8
GREEN
10
135.89
20
-38.1
11
135.89
21
-35.56
0
POLYLINE
8
GREEN
66
1
70
1
40
0.4064
41
0.4064
0
VERTEX
8
GREEN
10
135.687
 20
-25.4
42
1.0
0
VERTEX
8
GREEN
10
136.093
 20
-25.4
42
1.0
0
SEQEND
0
POLYLINE
8
GREEN
66
1
70
1
40
0.4064
41
0.4064
0
VERTEX
8
GREEN
10
135.687
 20
-38.1
42
1.0
0
VERTEX
8
GREEN
10
136.093
 20
-38.1
42
1.0
0
SEQEND
0
LINE
8
RED
10
213.36
20
-127
11
213.36
21
-160.02
0
LINE
8
RED
10
213.36
20
-160.02
11
228.6
21
-160.02
0
LINE
8
RED
10
228.6
20
-160.02
11
228.6
21
-127
0
LINE
8
RED
10
228.6
20
-127
11
213.36
21
-127
0
LINE
8
RED
10
213.36
20
-129.54
11
210.82
21
-129.54
  0
TEXT
  7
KICAD
  8
CYAN
  10
214.376
  11
214.376
  20
-129.54
  21
-129.54
  40
1.27
  41
1
  50
0
  51
0
  71
0
  72
0
  73
2
  1
VCCA
  0
TEXT
  7
KICAD
  8
RED
  10
212.09
  11
212.09
  20
-129.286
  21
-129.286
  40
1.27
  41
1
  50
0
  51
0
  71
0
  72
1
  73
1
  1
1
0
LINE
8
RED
10
213.36
20
-132.08
11
210.82
21
-132.08
  0
TEXT
  7
KICAD
  8
CYAN
  10
214.376
  11
214.376
  20
-132.08
  21
-132.08
  40
1.27
  41
1
  50
0
  51
0
  71
0
  72
0
  73
2
  1
DIR
  0
TEXT
  7
KICAD
  8
RED
  10
212.09
  11
212.09
  20
-131.826
  21
-131.826
  40
1.27
  41
1
  50
0
  51
0
  71
0
  72
1
  73
1
  1
2
0
LINE
8
RED
10
213.36
20
-134.62
11
210.82
21
-134.62
  0
TEXT
  7
KICAD
  8
CYAN
  10
214.376
  11
214.376
  20
-134.62
  21
-134.62
  40
1.27
  41
1
  50
0
  51
0
  71
0
  72
0
  73
2
  1
A1
  0
TEXT
  7
KICAD
  8
RED
  10
212.09
  11
212.09
  20
-134.366
  21
-134.366
  40
1.27
  41
1
  50
0
  51
0
  71
0
  72
1
  73
1
  1
3
0
LINE
8
RED
10
213.36
20
-137.16
11
210.82
21
-137.16
  0
TEXT
  7
KICAD
  8
CYAN
  10
214.376
  11
214.376
  20
-137.16
  21
-137.16
  40
1.27
  41
1
  50
0
  51
0
  71
0
  72
0
  73
2
  1
A2
  0
TEXT
  7
KICAD
  8
RED
  10
212.09
  11
212.09
  20
-136.906
  21
-136.906
  40
1.27
  41
1
  50
0
  51
0
  71
0
  72
1
  73
1
  1
4
0
LINE
8
RED
10
213.36
20
-139.7
11
210.82
21
-139.7
  0
TEXT
  7
KICAD
  8
CYAN
  10
214.376
  11
214.376
  20
-139.7
  21
-139.7
  40
1.27
  41
1
  50
0
  51
0
  71
0
  72
0
  73
2
  1
A3
  0
TEXT
  7
KICAD
  8
RED
  10
212.09
  11
212.09
  20
-139.446
  21
-139.446
  40
1.27
  41
1
  50
0
  51
0
  71
0
  72
1
  73
1
  1
5
0
LINE
8
RED
10
213.36
20
-142.24
11
210.82
21
-142.24
  0
TEXT
  7
KICAD
  8
CYAN
  10
214.376
  11
214.376
  20
-142.24
  21
-142.24
  40
1.27
  41
1
  50
0
  51
0
  71
0
  72
0
  73
2
  1
A4
  0
TEXT
  7
KICAD
  8
RED
  10
212.09
  11
212.09
  20
-141.986
  21
-141.986
  40
1.27
  41
1
  50
0
  51
0
  71
0
  72
1
  73
1
  1
6
0
LINE
8
RED
10
213.36
20
-144.78
11
210.82
21
-144.78
  0
TEXT
  7
KICAD
  8
CYAN
  10
214.376
  11
214.376
  20
-144.78
  21
-144.78
  40
1.27
  41
1
  50
0
  51
0
  71
0
  72
0
  73
2
  1
A5
  0
TEXT
  7
KICAD
  8
RED
  10
212.09
  11
212.09
  20
-144.526
  21
-144.526
  40
1.27
  41
1
  50
0
  51
0
  71
0
  72
1
  73
1
  1
7
0
LINE
8
RED
10
213.36
20
-147.32
11
210.82
21
-147.32
  0
TEXT
  7
KICAD
  8
CYAN
  10
214.376
  11
214.376
  20
-147.32
  21
-147.32
  40
1.27
  41
1
  50
0
  51
0
  71
0
  72
0
  73
2
  1
A6
  0
TEXT
  7
KICAD
  8
RED
  10
212.09
  11
212.09
  20
-147.066
  21
-147.066
  40
1.27
  41
1
  50
0
  51
0
  71
0
  72
1
  73
1
  1
8
0
LINE
8
RED
10
213.36
20
-149.86
11
210.82
21
-149.86
  0
TEXT
  7
KICAD
  8
CYAN
  10
214.376
  11
214.376
  20
-149.86
  21
-149.86
  40
1.27
  41
1
  50
0
  51
0
  71
0
  72
0
  73
2
  1
A7
  0
TEXT
  7
KICAD
  8
RED
  10
212.09
  11
212.09
  20
-149.606
  21
-149.606
  40
1.27
  41
1
  50
0
  51
0
  71
0
  72
1
  73
1
  1
9
0
LINE
8
RED
10
213.36
20
-152.4
11
210.82
21
-152.4
  0
TEXT
  7
KICAD
  8
CYAN
  10
214.376
  11
214.376
  20
-152.4
  21
-152.4
  40
1.27
  41
1
  50
0
  51
0
  71
0
  72
0
  73
2
  1
A8
  0
TEXT
  7
KICAD
  8
RED
  10
212.09
  11
212.09
  20
-152.146
  21
-152.146
  40
1.27
  41
1
  50
0
  51
0
  71
0
  72
1
  73
1
  1
10
0
LINE
8
RED
10
228.6
20
-139.7
11
231.14
21
-139.7
  0
TEXT
  7
KICAD
  8
CYAN
  10
227.584
  11
227.584
  20
-139.7
  21
-139.7
  40
1.27
  41
1
  50
0
  51
0
  71
0
  72
2
  73
2
  1
B2
  0
TEXT
  7
KICAD
  8
RED
  10
229.87
  11
229.87
  20
-139.446
  21
-139.446
  40
1.27
  41
1
  50
0
  51
0
  71
0
  72
1
  73
1
  1
20
0
LINE
8
RED
10
213.36
20
-154.94
11
210.82
21
-154.94
  0
TEXT
  7
KICAD
  8
CYAN
  10
214.376
  11
214.376
  20
-154.94
  21
-154.94
  40
1.27
  41
1
  50
0
  51
0
  71
0
  72
0
  73
2
  1
GND
  0
TEXT
  7
KICAD
  8
RED
  10
212.09
  11
212.09
  20
-154.686
  21
-154.686
  40
1.27
  41
1
  50
0
  51
0
  71
0
  72
1
  73
1
  1
11
0
LINE
8
RED
10
228.6
20
-137.16
11
231.14
21
-137.16
  0
TEXT
  7
KICAD
  8
CYAN
  10
227.584
  11
227.584
  20
-137.16
  21
-137.16
  40
1.27
  41
1
  50
0
  51
0
  71
0
  72
2
  73
2
  1
B1
  0
TEXT
  7
KICAD
  8
RED
  10
229.87
  11
229.87
  20
-136.906
  21
-136.906
  40
1.27
  41
1
  50
0
  51
0
  71
0
  72
1
  73
1
  1
21
0
LINE
8
RED
10
213.36
20
-157.48
11
210.82
21
-157.48
  0
TEXT
  7
KICAD
  8
CYAN
  10
214.376
  11
214.376
  20
-157.48
  21
-157.48
  40
1.27
  41
1
  50
0
  51
0
  71
0
  72
0
  73
2
  1
GND
  0
TEXT
  7
KICAD
  8
RED
  10
212.09
  11
212.09
  20
-157.226
  21
-157.226
  40
1.27
  41
1
  50
0
  51
0
  71
0
  72
1
  73
1
  1
12
0
LINE
8
RED
10
228.6
20
-134.62
11
231.14
21
-134.62
  0
TEXT
  7
KICAD
  8
CYAN
  10
227.584
  11
227.584
  20
-134.62
  21
-134.62
  40
1.27
  41
1
  50
0
  51
0
  71
0
  72
2
  73
2
  1
OE
  0
TEXT
  7
KICAD
  8
RED
  10
229.87
  11
229.87
  20
-134.366
  21
-134.366
  40
1.27
  41
1
  50
0
  51
0
  71
0
  72
1
  73
1
  1
22
0
LINE
8
RED
10
228.6
20
-157.48
11
231.14
21
-157.48
  0
TEXT
  7
KICAD
  8
CYAN
  10
227.584
  11
227.584
  20
-157.48
  21
-157.48
  40
1.27
  41
1
  50
0
  51
0
  71
0
  72
2
  73
2
  1
GND
  0
TEXT
  7
KICAD
  8
RED
  10
229.87
  11
229.87
  20
-157.226
  21
-157.226
  40
1.27
  41
1
  50
0
  51
0
  71
0
  72
1
  73
1
  1
13
0
LINE
8
RED
10
228.6
20
-132.08
11
231.14
21
-132.08
  0
TEXT
  7
KICAD
  8
CYAN
  10
227.584
  11
227.584
  20
-132.08
  21
-132.08
  40
1.27
  41
1
  50
0
  51
0
  71
0
  72
2
  73
2
  1
NC
  0
TEXT
  7
KICAD
  8
RED
  10
229.87
  11
229.87
  20
-131.826
  21
-131.826
  40
1.27
  41
1
  50
0
  51
0
  71
0
  72
1
  73
1
  1
23
0
LINE
8
RED
10
228.6
20
-154.94
11
231.14
21
-154.94
  0
TEXT
  7
KICAD
  8
CYAN
  10
227.584
  11
227.584
  20
-154.94
  21
-154.94
  40
1.27
  41
1
  50
0
  51
0
  71
0
  72
2
  73
2
  1
B8
  0
TEXT
  7
KICAD
  8
RED
  10
229.87
  11
229.87
  20
-154.686
  21
-154.686
  40
1.27
  41
1
  50
0
  51
0
  71
0
  72
1
  73
1
  1
14
0
LINE
8
RED
10
228.6
20
-129.54
11
231.14
21
-129.54
  0
TEXT
  7
KICAD
  8
CYAN
  10
227.584
  11
227.584
  20
-129.54
  21
-129.54
  40
1.27
  41
1
  50
0
  51
0
  71
0
  72
2
  73
2
  1
VCCB
  0
TEXT
  7
KICAD
  8
RED
  10
229.87
  11
229.87
  20
-129.286
  21
-129.286
  40
1.27
  41
1
  50
0
  51
0
  71
0
  72
1
  73
1
  1
24
0
LINE
8
RED
10
228.6
20
-152.4
11
231.14
21
-152.4
  0
TEXT
  7
KICAD
  8
CYAN
  10
227.584
  11
227.584
  20
-152.4
  21
-152.4
  40
1.27
  41
1
  50
0
  51
0
  71
0
  72
2
  73
2
  1
B7
  0
TEXT
  7
KICAD
  8
RED
  10
229.87
  11
229.87
  20
-152.146
  21
-152.146
  40
1.27
  41
1
  50
0
  51
0
  71
0
  72
1
  73
1
  1
15
0
LINE
8
RED
10
228.6
20
-149.86
11
231.14
21
-149.86
  0
TEXT
  7
KICAD
  8
CYAN
  10
227.584
  11
227.584
  20
-149.86
  21
-149.86
  40
1.27
  41
1
  50
0
  51
0
  71
0
  72
2
  73
2
  1
B6
  0
TEXT
  7
KICAD
  8
RED
  10
229.87
  11
229.87
  20
-149.606
  21
-149.606
  40
1.27
  41
1
  50
0
  51
0
  71
0
  72
1
  73
1
  1
16
0
LINE
8
RED
10
228.6
20
-147.32
11
231.14
21
-147.32
  0
TEXT
  7
KICAD
  8
CYAN
  10
227.584
  11
227.584
  20
-147.32
  21
-147.32
  40
1.27
  41
1
  50
0
  51
0
  71
0
  72
2
  73
2
  1
B5
  0
TEXT
  7
KICAD
  8
RED
  10
229.87
  11
229.87
  20
-147.066
  21
-147.066
  40
1.27
  41
1
  50
0
  51
0
  71
0
  72
1
  73
1
  1
17
0
LINE
8
RED
10
228.6
20
-144.78
11
231.14
21
-144.78
  0
TEXT
  7
KICAD
  8
CYAN
  10
227.584
  11
227.584
  20
-144.78
  21
-144.78
  40
1.27
  41
1
  50
0
  51
0
  71
0
  72
2
  73
2
  1
B4
  0
TEXT
  7
KICAD
  8
RED
  10
229.87
  11
229.87
  20
-144.526
  21
-144.526
  40
1.27
  41
1
  50
0
  51
0
  71
0
  72
1
  73
1
  1
18
0
LINE
8
RED
10
228.6
20
-142.24
11
231.14
21
-142.24
  0
TEXT
  7
KICAD
  8
CYAN
  10
227.584
  11
227.584
  20
-142.24
  21
-142.24
  40
1.27
  41
1
  50
0
  51
0
  71
0
  72
2
  73
2
  1
B3
  0
TEXT
  7
KICAD
  8
RED
  10
229.87
  11
229.87
  20
-141.986
  21
-141.986
  40
1.27
  41
1
  50
0
  51
0
  71
0
  72
1
  73
1
  1
19
  0
TEXT
  7
KICAD
  8
CYAN
  10
214.63
  11
214.63
  20
-124.384
  21
-124.384
  40
1.524
  41
1
  50
0
  51
0
  71
0
  72
1
  73
2
  1
U6
  0
TEXT
  7
KICAD
  8
CYAN
  10
220.98
  11
220.98
  20
-121.844
  21
-121.844
  40
1.524
  41
1
  50
0
  51
0
  71
0
  72
1
  73
2
  1
74LVCC3245
0
LINE
8
GREEN
10
204.47
20
-134.62
11
210.82
21
-134.62
0
LINE
8
GREEN
10
204.47
20
-137.16
11
210.82
21
-137.16
0
LINE
8
GREEN
10
204.47
20
-139.7
11
210.82
21
-139.7
0
LINE
8
GREEN
10
204.47
20
-142.24
11
210.82
21
-142.24
0
LINE
8
GREEN
10
210.82
20
-154.94
11
209.55
21
-154.94
0
LINE
8
GREEN
10
209.55
20
-154.94
11
209.55
21
-160.02
0
LINE
8
GREEN
10
210.82
20
-157.48
11
209.55
21
-157.48
0
POLYLINE
8
GREEN
66
1
70
1
40
0.4064
41
0.4064
0
VERTEX
8
GREEN
10
209.347
 20
-157.48
42
1.0
0
VERTEX
8
GREEN
10
209.753
 20
-157.48
42
1.0
0
SEQEND
0
LINE
8
RED
10
208.28
20
-160.02
11
209.55
21
-161.29
0
LINE
8
RED
10
209.55
20
-161.29
11
210.82
21
-160.02
0
LINE
8
RED
10
210.82
20
-160.02
11
208.28
21
-160.02
0
LINE
8
GREEN
10
231.14
20
-137.16
11
243.84
21
-137.16
0
LINE
8
GREEN
10
243.84
20
-139.7
11
231.14
21
-139.7
0
LINE
8
GREEN
10
243.84
20
-142.24
11
231.14
21
-142.24
0
LINE
8
GREEN
10
243.84
20
-144.78
11
231.14
21
-144.78
0
LINE
8
GREEN
10
208.28
20
-129.54
11
210.82
21
-129.54
0
LINE
8
GREEN
10
233.68
20
-124.46
11
233.68
21
-129.54
0
LINE
8
GREEN
10
233.68
20
-129.54
11
231.14
21
-129.54
0
CIRCLE
8
RED
10
208.28
20
-122.936
40
0.508
0
LINE
8
RED
10
208.28
20
-124.46
11
208.28
21
-123.444
  0
TEXT
  7
KICAD
  8
CYAN
  10
208.28
  11
208.28
  20
-121.615
  21
-121.615
  40
0.762
  41
1
  50
0
  51
0
  71
0
  72
1
  73
2
  1
+3.3V
0
LINE
8
RED
10
233.68
20
-124.46
11
233.68
21
-123.19
0
LINE
8
RED
10
233.68
20
-122.428
11
234.442
21
-123.19
0
LINE
8
RED
10
234.442
20
-123.19
11
233.172
21
-123.19
0
LINE
8
RED
10
233.172
20
-123.19
11
232.918
21
-123.19
0
LINE
8
RED
10
232.918
20
-123.19
11
233.68
21
-122.428
  0
TEXT
  7
KICAD
  8
CYAN
  10
233.68
  11
233.68
  20
-121.869
  21
-121.869
  40
0.762
  41
1
  50
0
  51
0
  71
0
  72
1
  73
2
  1
+5VD
0
LINE
8
GREEN
10
204.47
20
-132.08
11
210.82
21
-132.08
  0
TEXT
  7
KICAD
  8
LIGHTBLUE
  10
221.996
  11
221.996
  20
-146.05
  21
-146.05
  40
1.524
  41
1
  50
90
  51
0
  71
0
  72
0
  73
1
  1
A=>B
0
LINE
8
BLUE
10
230.53
20
-131.47
11
231.75
21
-132.69
0
LINE
8
BLUE
10
231.75
20
-131.47
11
230.53
21
-132.69
0
LINE
8
BLUE
10
230.53
20
-146.71
11
231.75
21
-147.93
0
LINE
8
BLUE
10
231.75
20
-146.71
11
230.53
21
-147.93
0
LINE
8
BLUE
10
230.53
20
-149.25
11
231.75
21
-150.47
0
LINE
8
BLUE
10
231.75
20
-149.25
11
230.53
21
-150.47
0
LINE
8
BLUE
10
230.53
20
-151.79
11
231.75
21
-153.01
0
LINE
8
BLUE
10
231.75
20
-151.79
11
230.53
21
-153.01
0
LINE
8
BLUE
10
230.53
20
-154.33
11
231.75
21
-155.55
0
LINE
8
BLUE
10
231.75
20
-154.33
11
230.53
21
-155.55
0
LINE
8
GREEN
10
231.14
20
-157.48
11
232.41
21
-157.48
0
LINE
8
GREEN
10
232.41
20
-157.48
11
232.41
21
-160.02
0
LINE
8
RED
10
231.14
20
-160.02
11
232.41
21
-161.29
0
LINE
8
RED
10
232.41
20
-161.29
11
233.68
21
-160.02
0
LINE
8
RED
10
233.68
20
-160.02
11
231.14
21
-160.02
0
LINE
8
BLUE
10
210.21
20
-144.17
11
211.43
21
-145.39
0
LINE
8
BLUE
10
211.43
20
-144.17
11
210.21
21
-145.39
0
LINE
8
BLUE
10
210.21
20
-146.71
11
211.43
21
-147.93
0
LINE
8
BLUE
10
211.43
20
-146.71
11
210.21
21
-147.93
0
LINE
8
BLUE
10
210.21
20
-149.25
11
211.43
21
-150.47
0
LINE
8
BLUE
10
211.43
20
-149.25
11
210.21
21
-150.47
0
LINE
8
BLUE
10
210.21
20
-151.79
11
211.43
21
-153.01
0
LINE
8
BLUE
10
211.43
20
-151.79
11
210.21
21
-153.01
0
LINE
8
GREEN
10
172.72
20
-154.94
11
152.4
21
-154.94
0
LINE
8
GREEN
10
231.14
20
-134.62
11
248.92
21
-134.62
  0
TEXT
  7
KICAD
  8
BLACK
  10
156.21
  11
156.21
  20
-154.686
  21
-154.686
  40
1.524
  41
1
  50
0
  51
0
  71
0
  72
0
  73
1
  1
PWREN
0
LINE
8
GREEN
10
152.4
20
-157.48
11
172.72
21
-157.48
0
LINE
8
GREEN
10
231.14
20
-83.82
11
243.84
21
-83.82
  0
TEXT
  7
KICAD
  8
BLACK
  10
233.68
  11
233.68
  20
-83.566
  21
-83.566
  40
1.524
  41
1
  50
0
  51
0
  71
0
  72
0
  73
1
  1
SUSPEND
  0
TEXT
  7
KICAD
  8
BLACK
  10
156.21
  11
156.21
  20
-157.226
  21
-157.226
  40
1.524
  41
1
  50
0
  51
0
  71
0
  72
0
  73
1
  1
SUSPEND
0
ARC
8
RED
10
200.66
20
-167.64
40
2.54
50
-270
51
-90.1
0
LINE
8
RED
10
200.66
20
-165.1
11
195.58
21
-165.1
0
LINE
8
RED
10
195.58
20
-165.1
11
195.58
21
-170.18
0
LINE
8
RED
10
195.58
20
-170.18
11
200.66
21
-170.18
0
CIRCLE
8
RED
10
204.089
20
-167.64
40
0.889
0
LINE
8
RED
10
204.978
20
-167.64
11
205.74
21
-167.64
  0
TEXT
  7
KICAD
  8
CYAN
  10
202.184
  11
202.184
  20
-167.64
  21
-167.64
  40
1.524
  41
1
  50
0
  51
0
  71
0
  72
2
  73
2
  1
%%O
  0
TEXT
  7
KICAD
  8
RED
  10
204.47
  11
204.47
  20
-167.386
  21
-167.386
  40
1.524
  41
1
  50
0
  51
0
  71
0
  72
1
  73
1
  1
1
0
LINE
8
RED
10
195.58
20
-166.37
11
193.04
21
-166.37
  0
TEXT
  7
KICAD
  8
CYAN
  10
196.596
  11
196.596
  20
-166.37
  21
-166.37
  40
1.524
  41
1
  50
0
  51
0
  71
0
  72
0
  73
2
  1
%%O
  0
TEXT
  7
KICAD
  8
RED
  10
194.31
  11
194.31
  20
-166.116
  21
-166.116
  40
1.524
  41
1
  50
0
  51
0
  71
0
  72
1
  73
1
  1
2
0
LINE
8
RED
10
195.58
20
-168.91
11
193.04
21
-168.91
  0
TEXT
  7
KICAD
  8
CYAN
  10
196.596
  11
196.596
  20
-168.91
  21
-168.91
  40
1.524
  41
1
  50
0
  51
0
  71
0
  72
0
  73
2
  1
%%O
  0
TEXT
  7
KICAD
  8
RED
  10
194.31
  11
194.31
  20
-168.656
  21
-168.656
  40
1.524
  41
1
  50
0
  51
0
  71
0
  72
1
  73
1
  1
3
0
LINE
8
RED
10
198.12
20
-170.18
11
198.12
21
-172.72
  0
TEXT
  7
KICAD
  8
CYAN
  10
198.12
  11
198.12
  20
-169.164
  21
-169.164
  40
1.524
  41
1
  50
90
  51
0
  71
0
  72
0
  73
2
  1
%%O
  0
TEXT
  7
KICAD
  8
RED
  10
197.866
  11
197.866
  20
-171.45
  21
-171.45
  40
1.524
  41
1
  50
90
  51
0
  71
0
  72
1
  73
1
  1
7
0
LINE
8
RED
10
198.12
20
-165.1
11
198.12
21
-162.56
  0
TEXT
  7
KICAD
  8
CYAN
  10
198.12
  11
198.12
  20
-166.116
  21
-166.116
  40
1.524
  41
1
  50
90
  51
0
  71
0
  72
2
  73
2
  1
%%O
  0
TEXT
  7
KICAD
  8
RED
  10
197.866
  11
197.866
  20
-163.83
  21
-163.83
  40
1.524
  41
1
  50
90
  51
0
  71
0
  72
1
  73
1
  1
14
  0
TEXT
  7
KICAD
  8
CYAN
  10
201.93
  11
201.93
  20
-159.944
  21
-159.944
  40
1.524
  41
1
  50
0
  51
0
  71
0
  72
1
  73
2
  1
U4A
  0
TEXT
  7
KICAD
  8
CYAN
  10
204.47
  11
204.47
  20
-162.484
  21
-162.484
  40
1.524
  41
1
  50
0
  51
0
  71
0
  72
1
  73
2
  1
74HC02
0
LINE
8
GREEN
10
248.92
20
-134.62
11
248.92
21
-167.64
0
LINE
8
GREEN
10
198.12
20
-162.56
11
198.12
21
-160.02
0
LINE
8
GREEN
10
198.12
20
-172.72
11
198.12
21
-175.26
0
LINE
8
RED
10
196.85
20
-175.26
11
198.12
21
-176.53
0
LINE
8
RED
10
198.12
20
-176.53
11
199.39
21
-175.26
0
LINE
8
RED
10
199.39
20
-175.26
11
196.85
21
-175.26
0
CIRCLE
8
RED
10
198.12
20
-158.496
40
0.508
0
LINE
8
RED
10
198.12
20
-160.02
11
198.12
21
-159.004
  0
TEXT
  7
KICAD
  8
CYAN
  10
198.12
  11
198.12
  20
-157.175
  21
-157.175
  40
0.762
  41
1
  50
0
  51
0
  71
0
  72
1
  73
2
  1
+3.3V
0
ARC
8
RED
10
181.61
20
-152.4
40
2.54
50
-270
51
-90.1
0
LINE
8
RED
10
181.61
20
-149.86
11
176.53
21
-149.86
0
LINE
8
RED
10
176.53
20
-149.86
11
176.53
21
-154.94
0
LINE
8
RED
10
176.53
20
-154.94
11
181.61
21
-154.94
0
CIRCLE
8
RED
10
185.039
20
-152.4
40
0.889
0
LINE
8
RED
10
185.928
20
-152.4
11
186.69
21
-152.4
  0
TEXT
  7
KICAD
  8
CYAN
  10
183.134
  11
183.134
  20
-152.4
  21
-152.4
  40
1.524
  41
1
  50
0
  51
0
  71
0
  72
2
  73
2
  1
%%O
  0
TEXT
  7
KICAD
  8
RED
  10
185.42
  11
185.42
  20
-152.146
  21
-152.146
  40
1.524
  41
1
  50
0
  51
0
  71
0
  72
1
  73
1
  1
4
0
LINE
8
RED
10
176.53
20
-151.13
11
173.99
21
-151.13
  0
TEXT
  7
KICAD
  8
CYAN
  10
177.546
  11
177.546
  20
-151.13
  21
-151.13
  40
1.524
  41
1
  50
0
  51
0
  71
0
  72
0
  73
2
  1
%%O
  0
TEXT
  7
KICAD
  8
RED
  10
175.26
  11
175.26
  20
-150.876
  21
-150.876
  40
1.524
  41
1
  50
0
  51
0
  71
0
  72
1
  73
1
  1
5
0
LINE
8
RED
10
176.53
20
-153.67
11
173.99
21
-153.67
  0
TEXT
  7
KICAD
  8
CYAN
  10
177.546
  11
177.546
  20
-153.67
  21
-153.67
  40
1.524
  41
1
  50
0
  51
0
  71
0
  72
0
  73
2
  1
%%O
  0
TEXT
  7
KICAD
  8
RED
  10
175.26
  11
175.26
  20
-153.416
  21
-153.416
  40
1.524
  41
1
  50
0
  51
0
  71
0
  72
1
  73
1
  1
6
  0
TEXT
  7
KICAD
  8
CYAN
  10
182.88
  11
182.88
  20
-144.704
  21
-144.704
  40
1.524
  41
1
  50
0
  51
0
  71
0
  72
1
  73
2
  1
U4B
  0
TEXT
  7
KICAD
  8
CYAN
  10
185.42
  11
185.42
  20
-147.244
  21
-147.244
  40
1.524
  41
1
  50
0
  51
0
  71
0
  72
1
  73
2
  1
74HC02
0
ARC
8
RED
10
181.61
20
-170.18
40
2.54
50
-270
51
-90.1
0
LINE
8
RED
10
181.61
20
-167.64
11
176.53
21
-167.64
0
LINE
8
RED
10
176.53
20
-167.64
11
176.53
21
-172.72
0
LINE
8
RED
10
176.53
20
-172.72
11
181.61
21
-172.72
0
LINE
8
RED
10
176.53
20
-168.91
11
173.99
21
-168.91
  0
TEXT
  7
KICAD
  8
CYAN
  10
177.546
  11
177.546
  20
-168.91
  21
-168.91
  40
1.524
  41
1
  50
0
  51
0
  71
0
  72
0
  73
2
  1
%%O
  0
TEXT
  7
KICAD
  8
RED
  10
175.26
  11
175.26
  20
-168.656
  21
-168.656
  40
1.524
  41
1
  50
0
  51
0
  71
0
  72
1
  73
1
  1
8
0
LINE
8
RED
10
176.53
20
-171.45
11
173.99
21
-171.45
  0
TEXT
  7
KICAD
  8
CYAN
  10
177.546
  11
177.546
  20
-171.45
  21
-171.45
  40
1.524
  41
1
  50
0
  51
0
  71
0
  72
0
  73
2
  1
%%O
  0
TEXT
  7
KICAD
  8
RED
  10
175.26
  11
175.26
  20
-171.196
  21
-171.196
  40
1.524
  41
1
  50
0
  51
0
  71
0
  72
1
  73
1
  1
9
0
CIRCLE
8
RED
10
185.039
20
-170.18
40
0.889
0
LINE
8
RED
10
185.928
20
-170.18
11
186.69
21
-170.18
  0
TEXT
  7
KICAD
  8
CYAN
  10
183.134
  11
183.134
  20
-170.18
  21
-170.18
  40
1.524
  41
1
  50
0
  51
0
  71
0
  72
2
  73
2
  1
%%O
  0
TEXT
  7
KICAD
  8
RED
  10
185.42
  11
185.42
  20
-169.926
  21
-169.926
  40
1.524
  41
1
  50
0
  51
0
  71
0
  72
1
  73
1
  1
10
  0
TEXT
  7
KICAD
  8
CYAN
  10
182.88
  11
182.88
  20
-162.484
  21
-162.484
  40
1.524
  41
1
  50
0
  51
0
  71
0
  72
1
  73
2
  1
U4C
  0
TEXT
  7
KICAD
  8
CYAN
  10
185.42
  11
185.42
  20
-165.024
  21
-165.024
  40
1.524
  41
1
  50
0
  51
0
  71
0
  72
1
  73
2
  1
74HC02
0
LINE
8
GREEN
10
173.99
20
-151.13
11
172.72
21
-151.13
0
LINE
8
GREEN
10
172.72
20
-151.13
11
172.72
21
-154.94
0
LINE
8
GREEN
10
172.72
20
-153.67
11
173.99
21
-153.67
0
POLYLINE
8
GREEN
66
1
70
1
40
0.4064
41
0.4064
0
VERTEX
8
GREEN
10
172.517
 20
-153.67
42
1.0
0
VERTEX
8
GREEN
10
172.923
 20
-153.67
42
1.0
0
SEQEND
0
LINE
8
GREEN
10
172.72
20
-157.48
11
172.72
21
-171.45
0
LINE
8
GREEN
10
172.72
20
-171.45
11
173.99
21
-171.45
0
LINE
8
GREEN
10
172.72
20
-168.91
11
173.99
21
-168.91
0
POLYLINE
8
GREEN
66
1
70
1
40
0.4064
41
0.4064
0
VERTEX
8
GREEN
10
172.517
 20
-168.91
42
1.0
0
VERTEX
8
GREEN
10
172.923
 20
-168.91
42
1.0
0
SEQEND
0
LINE
8
GREEN
10
186.69
20
-152.4
11
191.77
21
-152.4
0
LINE
8
GREEN
10
191.77
20
-152.4
11
191.77
21
-166.37
0
LINE
8
GREEN
10
191.77
20
-166.37
11
193.04
21
-166.37
0
LINE
8
GREEN
10
186.69
20
-170.18
11
191.77
21
-170.18
0
LINE
8
GREEN
10
191.77
20
-170.18
11
191.77
21
-168.91
0
LINE
8
GREEN
10
191.77
20
-168.91
11
193.04
21
-168.91
0
LINE
8
GREEN
10
248.92
20
-167.64
11
205.74
21
-167.64
0
LINE
8
RED
10
104.14
20
-46.99
11
104.14
21
-49.53
0
LINE
8
RED
10
104.14
20
-49.53
11
109.22
21
-49.53
0
LINE
8
RED
10
109.22
20
-49.53
11
109.22
21
-46.99
0
LINE
8
RED
10
105.41
20
-46.99
11
105.41
21
-48.768
0
LINE
8
RED
10
105.41
20
-48.768
11
107.95
21
-48.768
0
LINE
8
RED
10
107.95
20
-48.768
11
107.95
21
-46.99
0
LINE
8
RED
10
107.95
20
-46.99
11
105.41
21
-46.99
0
LINE
8
RED
10
106.68
20
-46.99
11
106.68
21
-45.72
0
LINE
8
RED
10
106.68
20
-49.53
11
106.68
21
-50.8
  0
TEXT
  7
KICAD
  8
CYAN
  10
109.804
  11
109.804
  20
-45.6438
  21
-45.6438
  40
1.27
  41
1
  50
0
  51
0
  71
0
  72
1
  73
2
  1
C17
  0
TEXT
  7
KICAD
  8
CYAN
  10
98.7298
  11
98.7298
  20
-48.1838
  21
-48.1838
  40
1.27
  41
1
  50
0
  51
0
  71
0
  72
1
  73
2
  1
10uF/10V
0
LINE
8
RED
10
114.3
20
-46.99
11
114.3
21
-49.53
0
LINE
8
RED
10
114.3
20
-49.53
11
119.38
21
-49.53
0
LINE
8
RED
10
119.38
20
-49.53
11
119.38
21
-46.99
0
LINE
8
RED
10
115.57
20
-46.99
11
115.57
21
-48.768
0
LINE
8
RED
10
115.57
20
-48.768
11
118.11
21
-48.768
0
LINE
8
RED
10
118.11
20
-48.768
11
118.11
21
-46.99
0
LINE
8
RED
10
118.11
20
-46.99
11
115.57
21
-46.99
0
LINE
8
RED
10
116.84
20
-46.99
11
116.84
21
-45.72
0
LINE
8
RED
10
116.84
20
-49.53
11
116.84
21
-50.8
  0
TEXT
  7
KICAD
  8
CYAN
  10
119.964
  11
119.964
  20
-45.6438
  21
-45.6438
  40
1.27
  41
1
  50
0
  51
0
  71
0
  72
1
  73
2
  1
C18
  0
TEXT
  7
KICAD
  8
CYAN
  10
125.4
  11
125.4
  20
-48.1838
  21
-48.1838
  40
1.27
  41
1
  50
0
  51
0
  71
0
  72
1
  73
2
  1
10uF/10V
0
ARC
8
RED
10
100.965
20
-43.18
40
0.635
50
-360
51
-180.2
0
ARC
8
RED
10
99.695
20
-43.18
40
0.635
50
-360
51
-180.2
0
ARC
8
RED
10
98.425
20
-43.18
40
0.635
50
-360
51
-180.2
0
ARC
8
RED
10
97.155
20
-43.18
40
0.635
50
-360
51
-180.2
0
LINE
8
RED
10
96.52
20
-43.18
11
95.25
21
-43.18
0
LINE
8
RED
10
101.6
20
-43.18
11
102.87
21
-43.18
  0
TEXT
  7
KICAD
  8
CYAN
  10
102.362
  11
102.362
  20
-44.5262
  21
-44.5262
  40
1.016
  41
1
  50
0
  51
0
  71
0
  72
1
  73
2
  1
L2
  0
TEXT
  7
KICAD
  8
CYAN
  10
99.695
  11
99.695
  20
-41.3512
  21
-41.3512
  40
1.016
  41
1
  50
0
  51
0
  71
0
  72
1
  73
2
  1
39uH
0
ARC
8
RED
10
100.965
20
-38.1
40
0.635
50
-360
51
-180.2
0
ARC
8
RED
10
99.695
20
-38.1
40
0.635
50
-360
51
-180.2
0
ARC
8
RED
10
98.425
20
-38.1
40
0.635
50
-360
51
-180.2
0
ARC
8
RED
10
97.155
20
-38.1
40
0.635
50
-360
51
-180.2
0
LINE
8
RED
10
96.52
20
-38.1
11
95.25
21
-38.1
0
LINE
8
RED
10
101.6
20
-38.1
11
102.87
21
-38.1
  0
TEXT
  7
KICAD
  8
CYAN
  10
102.362
  11
102.362
  20
-39.4462
  21
-39.4462
  40
1.016
  41
1
  50
0
  51
0
  71
0
  72
1
  73
2
  1
L1
  0
TEXT
  7
KICAD
  8
CYAN
  10
99.695
  11
99.695
  20
-36.2712
  21
-36.2712
  40
1.016
  41
1
  50
0
  51
0
  71
0
  72
1
  73
2
  1
39uH
0
LINE
8
GREEN
10
110.49
20
-43.18
11
110.49
21
-63.5
0
LINE
8
GREEN
10
102.87
20
-43.18
11
110.49
21
-43.18
0
LINE
8
GREEN
10
113.03
20
-38.1
11
113.03
21
-63.5
0
LINE
8
GREEN
10
113.03
20
-38.1
11
102.87
21
-38.1
0
POLYLINE
8
GREEN
66
1
70
1
40
0.4064
41
0.4064
0
VERTEX
8
GREEN
10
91.2368
 20
-38.1
42
1.0
0
VERTEX
8
GREEN
10
91.6432
 20
-38.1
42
1.0
0
SEQEND
0
LINE
8
GREEN
10
95.25
20
-43.18
11
91.44
21
-43.18
0
POLYLINE
8
GREEN
66
1
70
1
40
0.4064
41
0.4064
0
VERTEX
8
GREEN
10
91.2368
 20
-43.18
42
1.0
0
VERTEX
8
GREEN
10
91.6432
 20
-43.18
42
1.0
0
SEQEND
0
LINE
8
GREEN
10
106.68
20
-45.72
11
106.68
21
-43.18
0
POLYLINE
8
GREEN
66
1
70
1
40
0.4064
41
0.4064
0
VERTEX
8
GREEN
10
106.477
 20
-43.18
42
1.0
0
VERTEX
8
GREEN
10
106.883
 20
-43.18
42
1.0
0
SEQEND
0
LINE
8
GREEN
10
116.84
20
-45.72
11
116.84
21
-43.18
0
LINE
8
GREEN
10
116.84
20
-43.18
11
113.03
21
-43.18
0
POLYLINE
8
GREEN
66
1
70
1
40
0.4064
41
0.4064
0
VERTEX
8
GREEN
10
112.827
 20
-43.18
42
1.0
0
VERTEX
8
GREEN
10
113.233
 20
-43.18
42
1.0
0
SEQEND
0
LINE
8
GREEN
10
116.84
20
-50.8
11
116.84
21
-52.07
0
LINE
8
GREEN
10
106.68
20
-50.8
11
106.68
21
-52.07
0
LINE
8
RED
10
105.41
20
-52.07
11
106.68
21
-53.34
0
LINE
8
RED
10
106.68
20
-53.34
11
107.95
21
-52.07
0
LINE
8
RED
10
107.95
20
-52.07
11
105.41
21
-52.07
0
LINE
8
RED
10
115.57
20
-52.07
11
116.84
21
-53.34
0
LINE
8
RED
10
116.84
20
-53.34
11
118.11
21
-52.07
0
LINE
8
RED
10
118.11
20
-52.07
11
115.57
21
-52.07
0
LINE
8
RED
10
240.03
20
-40.64
11
239.395
21
-41.275
0
LINE
8
RED
10
239.395
20
-41.275
11
240.665
21
-41.91
0
LINE
8
RED
10
240.665
20
-41.91
11
239.395
21
-42.545
0
LINE
8
RED
10
239.395
20
-42.545
11
240.665
21
-43.18
0
LINE
8
RED
10
240.665
20
-43.18
11
239.395
21
-43.815
0
LINE
8
RED
10
239.395
20
-43.815
11
240.665
21
-44.45
0
LINE
8
RED
10
240.665
20
-44.45
11
239.395
21
-45.085
0
LINE
8
RED
10
239.395
20
-45.085
11
240.03
21
-45.72
0
LINE
8
RED
10
240.03
20
-40.64
11
240.03
21
-39.37
  0
TEXT
  7
KICAD
  8
CYAN
  10
239.776
  11
239.776
  20
-40.005
  21
-40.005
  40
1.524
  41
1
  50
90
  51
0
  71
0
  72
1
  73
1
  1
%%O
0
LINE
8
RED
10
240.03
20
-45.72
11
240.03
21
-46.99
  0
TEXT
  7
KICAD
  8
CYAN
  10
239.776
  11
239.776
  20
-46.355
  21
-46.355
  40
1.524
  41
1
  50
90
  51
0
  71
0
  72
1
  73
1
  1
%%O
  0
TEXT
  7
KICAD
  8
CYAN
  10
238.684
  11
238.684
  20
-44.45
  21
-44.45
  40
1.27
  41
1
  50
90
  51
0
  71
0
  72
1
  73
2
  1
R7
  0
TEXT
  7
KICAD
  8
CYAN
  10
238.684
  11
238.684
  20
-39.37
  21
-39.37
  40
1.27
  41
1
  50
90
  51
0
  71
0
  72
1
  73
2
  1
470
0
LINE
8
RED
10
261.62
20
-40.64
11
260.985
21
-41.275
0
LINE
8
RED
10
260.985
20
-41.275
11
262.255
21
-41.91
0
LINE
8
RED
10
262.255
20
-41.91
11
260.985
21
-42.545
0
LINE
8
RED
10
260.985
20
-42.545
11
262.255
21
-43.18
0
LINE
8
RED
10
262.255
20
-43.18
11
260.985
21
-43.815
0
LINE
8
RED
10
260.985
20
-43.815
11
262.255
21
-44.45
0
LINE
8
RED
10
262.255
20
-44.45
11
260.985
21
-45.085
0
LINE
8
RED
10
260.985
20
-45.085
11
261.62
21
-45.72
0
LINE
8
RED
10
261.62
20
-40.64
11
261.62
21
-39.37
  0
TEXT
  7
KICAD
  8
CYAN
  10
261.366
  11
261.366
  20
-40.005
  21
-40.005
  40
1.524
  41
1
  50
90
  51
0
  71
0
  72
1
  73
1
  1
%%O
0
LINE
8
RED
10
261.62
20
-45.72
11
261.62
21
-46.99
  0
TEXT
  7
KICAD
  8
CYAN
  10
261.366
  11
261.366
  20
-46.355
  21
-46.355
  40
1.524
  41
1
  50
90
  51
0
  71
0
  72
1
  73
1
  1
%%O
  0
TEXT
  7
KICAD
  8
CYAN
  10
260.274
  11
260.274
  20
-44.45
  21
-44.45
  40
1.27
  41
1
  50
90
  51
0
  71
0
  72
1
  73
2
  1
R8
  0
TEXT
  7
KICAD
  8
CYAN
  10
260.274
  11
260.274
  20
-40.64
  21
-40.64
  40
1.27
  41
1
  50
90
  51
0
  71
0
  72
1
  73
2
  1
1k
0
LINE
8
RED
10
241.3
20
-34.29
11
238.76
21
-34.29
0
LINE
8
RED
10
241.3
20
-31.75
11
240.03
21
-34.29
0
LINE
8
RED
10
240.03
20
-34.29
11
238.76
21
-31.75
0
LINE
8
RED
10
238.76
20
-31.75
11
241.3
21
-31.75
0
LINE
8
RED
10
239.014
20
-34.671
11
237.998
21
-35.814
0
LINE
8
RED
10
237.998
20
-35.814
11
238.633
21
-35.687
0
LINE
8
RED
10
239.395
20
-35.052
11
238.379
21
-36.195
0
LINE
8
RED
10
238.379
20
-36.195
11
239.014
21
-36.068
0
LINE
8
RED
10
240.03
20
-31.75
11
240.03
21
-29.21
  0
TEXT
  7
KICAD
  8
RED
  10
239.776
  11
239.776
  20
-30.48
  21
-30.48
  40
1.016
  41
1
  50
90
  51
0
  71
0
  72
1
  73
1
  1
1
0
LINE
8
RED
10
240.03
20
-34.29
11
240.03
21
-36.83
  0
TEXT
  7
KICAD
  8
RED
  10
239.776
  11
239.776
  20
-35.56
  21
-35.56
  40
1.016
  41
1
  50
90
  51
0
  71
0
  72
1
  73
1
  1
2
  0
TEXT
  7
KICAD
  8
CYAN
  10
242.646
  11
242.646
  20
-33.02
  21
-33.02
  40
1.27
  41
1
  50
90
  51
0
  71
0
  72
1
  73
2
  1
D1
  0
TEXT
  7
KICAD
  8
CYAN
  10
237.566
  11
237.566
  20
-33.02
  21
-33.02
  40
1.27
  41
1
  50
90
  51
0
  71
0
  72
1
  73
2
  1
LED
0
LINE
8
RED
10
262.89
20
-34.29
11
260.35
21
-34.29
0
LINE
8
RED
10
262.89
20
-31.75
11
261.62
21
-34.29
0
LINE
8
RED
10
261.62
20
-34.29
11
260.35
21
-31.75
0
LINE
8
RED
10
260.35
20
-31.75
11
262.89
21
-31.75
0
LINE
8
RED
10
260.604
20
-34.671
11
259.588
21
-35.814
0
LINE
8
RED
10
259.588
20
-35.814
11
260.223
21
-35.687
0
LINE
8
RED
10
260.985
20
-35.052
11
259.969
21
-36.195
0
LINE
8
RED
10
259.969
20
-36.195
11
260.604
21
-36.068
0
LINE
8
RED
10
261.62
20
-31.75
11
261.62
21
-29.21
  0
TEXT
  7
KICAD
  8
RED
  10
261.366
  11
261.366
  20
-30.48
  21
-30.48
  40
1.016
  41
1
  50
90
  51
0
  71
0
  72
1
  73
1
  1
1
0
LINE
8
RED
10
261.62
20
-34.29
11
261.62
21
-36.83
  0
TEXT
  7
KICAD
  8
RED
  10
261.366
  11
261.366
  20
-35.56
  21
-35.56
  40
1.016
  41
1
  50
90
  51
0
  71
0
  72
1
  73
1
  1
2
  0
TEXT
  7
KICAD
  8
CYAN
  10
259.156
  11
259.156
  20
-35.56
  21
-35.56
  40
1.27
  41
1
  50
90
  51
0
  71
0
  72
1
  73
2
  1
D2
  0
TEXT
  7
KICAD
  8
CYAN
  10
259.156
  11
259.156
  20
-30.48
  21
-30.48
  40
1.27
  41
1
  50
90
  51
0
  71
0
  72
1
  73
2
  1
VERT
0
LINE
8
GREEN
10
240.03
20
-36.83
11
240.03
21
-39.37
0
LINE
8
GREEN
10
240.03
20
-46.99
11
240.03
21
-48.26
0
LINE
8
GREEN
10
240.03
20
-27.94
11
240.03
21
-29.21
0
LINE
8
RED
10
238.76
20
-48.26
11
240.03
21
-49.53
0
LINE
8
RED
10
240.03
20
-49.53
11
241.3
21
-48.26
0
LINE
8
RED
10
241.3
20
-48.26
11
238.76
21
-48.26
0
CIRCLE
8
RED
10
240.03
20
-26.416
40
0.508
0
LINE
8
RED
10
240.03
20
-27.94
11
240.03
21
-26.924
  0
TEXT
  7
KICAD
  8
CYAN
  10
240.03
  11
240.03
  20
-25.0952
  21
-25.0952
  40
0.762
  41
1
  50
0
  51
0
  71
0
  72
1
  73
2
  1
+3.3V
0
LINE
8
GREEN
10
267.97
20
-63.5
11
256.54
21
-63.5
0
LINE
8
GREEN
10
267.97
20
-93.98
11
256.54
21
-93.98
0
LINE
8
GREEN
10
267.97
20
-123.19
11
256.54
21
-123.19
0
LINE
8
GREEN
10
267.97
20
-153.67
11
256.54
21
-153.67
0
LINE
8
RED
10
266.7
20
-40.64
11
266.065
21
-41.275
0
LINE
8
RED
10
266.065
20
-41.275
11
267.335
21
-41.91
0
LINE
8
RED
10
267.335
20
-41.91
11
266.065
21
-42.545
0
LINE
8
RED
10
266.065
20
-42.545
11
267.335
21
-43.18
0
LINE
8
RED
10
267.335
20
-43.18
11
266.065
21
-43.815
0
LINE
8
RED
10
266.065
20
-43.815
11
267.335
21
-44.45
0
LINE
8
RED
10
267.335
20
-44.45
11
266.065
21
-45.085
0
LINE
8
RED
10
266.065
20
-45.085
11
266.7
21
-45.72
0
LINE
8
RED
10
266.7
20
-40.64
11
266.7
21
-39.37
  0
TEXT
  7
KICAD
  8
CYAN
  10
266.446
  11
266.446
  20
-40.005
  21
-40.005
  40
1.524
  41
1
  50
90
  51
0
  71
0
  72
1
  73
1
  1
%%O
0
LINE
8
RED
10
266.7
20
-45.72
11
266.7
21
-46.99
  0
TEXT
  7
KICAD
  8
CYAN
  10
266.446
  11
266.446
  20
-46.355
  21
-46.355
  40
1.524
  41
1
  50
90
  51
0
  71
0
  72
1
  73
1
  1
%%O
  0
TEXT
  7
KICAD
  8
CYAN
  10
265.354
  11
265.354
  20
-44.45
  21
-44.45
  40
1.27
  41
1
  50
90
  51
0
  71
0
  72
1
  73
2
  1
R9
  0
TEXT
  7
KICAD
  8
CYAN
  10
265.354
  11
265.354
  20
-40.64
  21
-40.64
  40
1.27
  41
1
  50
90
  51
0
  71
0
  72
1
  73
2
  1
1k
0
LINE
8
RED
10
267.97
20
-34.29
11
265.43
21
-34.29
0
LINE
8
RED
10
267.97
20
-31.75
11
266.7
21
-34.29
0
LINE
8
RED
10
266.7
20
-34.29
11
265.43
21
-31.75
0
LINE
8
RED
10
265.43
20
-31.75
11
267.97
21
-31.75
0
LINE
8
RED
10
265.684
20
-34.671
11
264.668
21
-35.814
0
LINE
8
RED
10
264.668
20
-35.814
11
265.303
21
-35.687
0
LINE
8
RED
10
266.065
20
-35.052
11
265.049
21
-36.195
0
LINE
8
RED
10
265.049
20
-36.195
11
265.684
21
-36.068
0
LINE
8
RED
10
266.7
20
-31.75
11
266.7
21
-29.21
  0
TEXT
  7
KICAD
  8
RED
  10
266.446
  11
266.446
  20
-30.48
  21
-30.48
  40
1.016
  41
1
  50
90
  51
0
  71
0
  72
1
  73
1
  1
1
0
LINE
8
RED
10
266.7
20
-34.29
11
266.7
21
-36.83
  0
TEXT
  7
KICAD
  8
RED
  10
266.446
  11
266.446
  20
-35.56
  21
-35.56
  40
1.016
  41
1
  50
90
  51
0
  71
0
  72
1
  73
1
  1
2
  0
TEXT
  7
KICAD
  8
CYAN
  10
264.236
  11
264.236
  20
-35.56
  21
-35.56
  40
1.27
  41
1
  50
90
  51
0
  71
0
  72
1
  73
2
  1
D3
  0
TEXT
  7
KICAD
  8
CYAN
  10
264.236
  11
264.236
  20
-30.48
  21
-30.48
  40
1.27
  41
1
  50
90
  51
0
  71
0
  72
1
  73
2
  1
VERT
0
LINE
8
RED
10
271.78
20
-40.64
11
271.145
21
-41.275
0
LINE
8
RED
10
271.145
20
-41.275
11
272.415
21
-41.91
0
LINE
8
RED
10
272.415
20
-41.91
11
271.145
21
-42.545
0
LINE
8
RED
10
271.145
20
-42.545
11
272.415
21
-43.18
0
LINE
8
RED
10
272.415
20
-43.18
11
271.145
21
-43.815
0
LINE
8
RED
10
271.145
20
-43.815
11
272.415
21
-44.45
0
LINE
8
RED
10
272.415
20
-44.45
11
271.145
21
-45.085
0
LINE
8
RED
10
271.145
20
-45.085
11
271.78
21
-45.72
0
LINE
8
RED
10
271.78
20
-40.64
11
271.78
21
-39.37
  0
TEXT
  7
KICAD
  8
CYAN
  10
271.526
  11
271.526
  20
-40.005
  21
-40.005
  40
1.524
  41
1
  50
90
  51
0
  71
0
  72
1
  73
1
  1
%%O
0
LINE
8
RED
10
271.78
20
-45.72
11
271.78
21
-46.99
  0
TEXT
  7
KICAD
  8
CYAN
  10
271.526
  11
271.526
  20
-46.355
  21
-46.355
  40
1.524
  41
1
  50
90
  51
0
  71
0
  72
1
  73
1
  1
%%O
  0
TEXT
  7
KICAD
  8
CYAN
  10
270.434
  11
270.434
  20
-44.45
  21
-44.45
  40
1.27
  41
1
  50
90
  51
0
  71
0
  72
1
  73
2
  1
R10
  0
TEXT
  7
KICAD
  8
CYAN
  10
270.434
  11
270.434
  20
-40.64
  21
-40.64
  40
1.27
  41
1
  50
90
  51
0
  71
0
  72
1
  73
2
  1
1k
0
LINE
8
RED
10
273.05
20
-34.29
11
270.51
21
-34.29
0
LINE
8
RED
10
273.05
20
-31.75
11
271.78
21
-34.29
0
LINE
8
RED
10
271.78
20
-34.29
11
270.51
21
-31.75
0
LINE
8
RED
10
270.51
20
-31.75
11
273.05
21
-31.75
0
LINE
8
RED
10
270.764
20
-34.671
11
269.748
21
-35.814
0
LINE
8
RED
10
269.748
20
-35.814
11
270.383
21
-35.687
0
LINE
8
RED
10
271.145
20
-35.052
11
270.129
21
-36.195
0
LINE
8
RED
10
270.129
20
-36.195
11
270.764
21
-36.068
0
LINE
8
RED
10
271.78
20
-31.75
11
271.78
21
-29.21
  0
TEXT
  7
KICAD
  8
RED
  10
271.526
  11
271.526
  20
-30.48
  21
-30.48
  40
1.016
  41
1
  50
90
  51
0
  71
0
  72
1
  73
1
  1
1
0
LINE
8
RED
10
271.78
20
-34.29
11
271.78
21
-36.83
  0
TEXT
  7
KICAD
  8
RED
  10
271.526
  11
271.526
  20
-35.56
  21
-35.56
  40
1.016
  41
1
  50
90
  51
0
  71
0
  72
1
  73
1
  1
2
  0
TEXT
  7
KICAD
  8
CYAN
  10
269.316
  11
269.316
  20
-35.56
  21
-35.56
  40
1.27
  41
1
  50
90
  51
0
  71
0
  72
1
  73
2
  1
D4
  0
TEXT
  7
KICAD
  8
CYAN
  10
269.316
  11
269.316
  20
-30.48
  21
-30.48
  40
1.27
  41
1
  50
90
  51
0
  71
0
  72
1
  73
2
  1
VERT
0
LINE
8
RED
10
276.86
20
-40.64
11
276.225
21
-41.275
0
LINE
8
RED
10
276.225
20
-41.275
11
277.495
21
-41.91
0
LINE
8
RED
10
277.495
20
-41.91
11
276.225
21
-42.545
0
LINE
8
RED
10
276.225
20
-42.545
11
277.495
21
-43.18
0
LINE
8
RED
10
277.495
20
-43.18
11
276.225
21
-43.815
0
LINE
8
RED
10
276.225
20
-43.815
11
277.495
21
-44.45
0
LINE
8
RED
10
277.495
20
-44.45
11
276.225
21
-45.085
0
LINE
8
RED
10
276.225
20
-45.085
11
276.86
21
-45.72
0
LINE
8
RED
10
276.86
20
-40.64
11
276.86
21
-39.37
  0
TEXT
  7
KICAD
  8
CYAN
  10
276.606
  11
276.606
  20
-40.005
  21
-40.005
  40
1.524
  41
1
  50
90
  51
0
  71
0
  72
1
  73
1
  1
%%O
0
LINE
8
RED
10
276.86
20
-45.72
11
276.86
21
-46.99
  0
TEXT
  7
KICAD
  8
CYAN
  10
276.606
  11
276.606
  20
-46.355
  21
-46.355
  40
1.524
  41
1
  50
90
  51
0
  71
0
  72
1
  73
1
  1
%%O
  0
TEXT
  7
KICAD
  8
CYAN
  10
275.514
  11
275.514
  20
-44.45
  21
-44.45
  40
1.27
  41
1
  50
90
  51
0
  71
0
  72
1
  73
2
  1
R11
  0
TEXT
  7
KICAD
  8
CYAN
  10
275.514
  11
275.514
  20
-40.64
  21
-40.64
  40
1.27
  41
1
  50
90
  51
0
  71
0
  72
1
  73
2
  1
1k
0
LINE
8
RED
10
278.13
20
-34.29
11
275.59
21
-34.29
0
LINE
8
RED
10
278.13
20
-31.75
11
276.86
21
-34.29
0
LINE
8
RED
10
276.86
20
-34.29
11
275.59
21
-31.75
0
LINE
8
RED
10
275.59
20
-31.75
11
278.13
21
-31.75
0
LINE
8
RED
10
275.844
20
-34.671
11
274.828
21
-35.814
0
LINE
8
RED
10
274.828
20
-35.814
11
275.463
21
-35.687
0
LINE
8
RED
10
276.225
20
-35.052
11
275.209
21
-36.195
0
LINE
8
RED
10
275.209
20
-36.195
11
275.844
21
-36.068
0
LINE
8
RED
10
276.86
20
-31.75
11
276.86
21
-29.21
  0
TEXT
  7
KICAD
  8
RED
  10
276.606
  11
276.606
  20
-30.48
  21
-30.48
  40
1.016
  41
1
  50
90
  51
0
  71
0
  72
1
  73
1
  1
1
0
LINE
8
RED
10
276.86
20
-34.29
11
276.86
21
-36.83
  0
TEXT
  7
KICAD
  8
RED
  10
276.606
  11
276.606
  20
-35.56
  21
-35.56
  40
1.016
  41
1
  50
90
  51
0
  71
0
  72
1
  73
1
  1
2
  0
TEXT
  7
KICAD
  8
CYAN
  10
274.396
  11
274.396
  20
-35.56
  21
-35.56
  40
1.27
  41
1
  50
90
  51
0
  71
0
  72
1
  73
2
  1
D5
  0
TEXT
  7
KICAD
  8
CYAN
  10
274.396
  11
274.396
  20
-30.48
  21
-30.48
  40
1.27
  41
1
  50
90
  51
0
  71
0
  72
1
  73
2
  1
VERT
0
LINE
8
GREEN
10
261.62
20
-36.83
11
261.62
21
-39.37
0
LINE
8
GREEN
10
266.7
20
-36.83
11
266.7
21
-39.37
0
LINE
8
GREEN
10
271.78
20
-36.83
11
271.78
21
-39.37
0
LINE
8
GREEN
10
276.86
20
-36.83
11
276.86
21
-39.37
0
LINE
8
GREEN
10
276.86
20
-49.53
11
276.86
21
-46.99
0
LINE
8
GREEN
10
271.78
20
-49.53
11
271.78
21
-46.99
0
LINE
8
GREEN
10
266.7
20
-46.99
11
266.7
21
-49.53
0
LINE
8
GREEN
10
261.62
20
-46.99
11
261.62
21
-50.8
0
LINE
8
GREEN
10
261.62
20
-29.21
11
261.62
21
-27.94
0
LINE
8
GREEN
10
266.7
20
-25.4
11
266.7
21
-29.21
0
LINE
8
GREEN
10
271.78
20
-22.86
11
271.78
21
-29.21
0
LINE
8
GREEN
10
276.86
20
-20.32
11
276.86
21
-29.21
0
LINE
8
GREEN
10
261.62
20
-49.53
11
276.86
21
-49.53
0
POLYLINE
8
GREEN
66
1
70
1
40
0.4064
41
0.4064
0
VERTEX
8
GREEN
10
266.497
 20
-49.53
42
1.0
0
VERTEX
8
GREEN
10
266.903
 20
-49.53
42
1.0
0
SEQEND
0
POLYLINE
8
GREEN
66
1
70
1
40
0.4064
41
0.4064
0
VERTEX
8
GREEN
10
271.577
 20
-49.53
42
1.0
0
VERTEX
8
GREEN
10
271.983
 20
-49.53
42
1.0
0
SEQEND
0
POLYLINE
8
GREEN
66
1
70
1
40
0.4064
41
0.4064
0
VERTEX
8
GREEN
10
261.417
 20
-49.53
42
1.0
0
VERTEX
8
GREEN
10
261.823
 20
-49.53
42
1.0
0
SEQEND
0
LINE
8
RED
10
260.35
20
-50.8
11
261.62
21
-52.07
0
LINE
8
RED
10
261.62
20
-52.07
11
262.89
21
-50.8
0
LINE
8
RED
10
262.89
20
-50.8
11
260.35
21
-50.8
0
LINE
8
GREEN
10
261.62
20
-27.94
11
255.27
21
-27.94
0
LINE
8
GREEN
10
255.27
20
-25.4
11
266.7
21
-25.4
0
LINE
8
GREEN
10
255.27
20
-22.86
11
271.78
21
-22.86
0
LINE
8
GREEN
10
255.27
20
-20.32
11
276.86
21
-20.32
  0
TEXT
  7
KICAD
  8
BLACK
  10
255.27
  11
255.27
  20
-27.686
  21
-27.686
  40
1.524
  41
1
  50
0
  51
0
  71
0
  72
0
  73
1
  1
UART0
  0
TEXT
  7
KICAD
  8
BLACK
  10
255.27
  11
255.27
  20
-25.146
  21
-25.146
  40
1.524
  41
1
  50
0
  51
0
  71
0
  72
0
  73
1
  1
UART1
  0
TEXT
  7
KICAD
  8
BLACK
  10
255.27
  11
255.27
  20
-22.606
  21
-22.606
  40
1.524
  41
1
  50
0
  51
0
  71
0
  72
0
  73
1
  1
UART2
  0
TEXT
  7
KICAD
  8
BLACK
  10
255.27
  11
255.27
  20
-20.066
  21
-20.066
  40
1.524
  41
1
  50
0
  51
0
  71
0
  72
0
  73
1
  1
UART3
  0
TEXT
  7
KICAD
  8
BLACK
  10
257.81
  11
257.81
  20
-63.246
  21
-63.246
  40
1.524
  41
1
  50
0
  51
0
  71
0
  72
0
  73
1
  1
UART0
  0
TEXT
  7
KICAD
  8
BLACK
  10
257.81
  11
257.81
  20
-93.726
  21
-93.726
  40
1.524
  41
1
  50
0
  51
0
  71
0
  72
0
  73
1
  1
UART1
  0
TEXT
  7
KICAD
  8
BLACK
  10
257.81
  11
257.81
  20
-153.416
  21
-153.416
  40
1.524
  41
1
  50
0
  51
0
  71
0
  72
0
  73
1
  1
UART3
  0
TEXT
  7
KICAD
  8
BLACK
  10
257.81
  11
257.81
  20
-122.936
  21
-122.936
  40
1.524
  41
1
  50
0
  51
0
  71
0
  72
0
  73
1
  1
UART2
0
LINE
8
RED
10
52.07
20
-35.56
11
52.07
21
-34.29
0
LINE
8
RED
10
52.07
20
-33.528
11
52.832
21
-34.29
0
LINE
8
RED
10
52.832
20
-34.29
11
51.562
21
-34.29
0
LINE
8
RED
10
51.562
20
-34.29
11
51.308
21
-34.29
0
LINE
8
RED
10
51.308
20
-34.29
11
52.07
21
-33.528
  0
TEXT
  7
KICAD
  8
CYAN
  10
52.07
  11
52.07
  20
-32.9692
  21
-32.9692
  40
0.762
  41
1
  50
0
  51
0
  71
0
  72
1
  73
2
  1
+5VD
0
LINE
8
GREEN
10
208.28
20
-124.46
11
208.28
21
-129.54
0
LINE
8
GREEN
10
204.47
20
-132.08
11
204.47
21
-129.54
0
LINE
8
RED
10
205.74
20
-129.54
11
204.47
21
-128.27
0
LINE
8
RED
10
204.47
20
-128.27
11
203.2
21
-129.54
0
LINE
8
RED
10
203.2
20
-129.54
11
205.74
21
-129.54
0
LINE
8
RED
10
212.09
20
-32.512
11
217.17
21
-32.512
0
LINE
8
RED
10
212.09
20
-30.988
11
217.17
21
-30.988
0
LINE
8
RED
10
214.63
20
-30.988
11
214.63
21
-27.94
  0
TEXT
  7
KICAD
  8
CYAN
  10
214.63
  11
214.63
  20
-31.242
  21
-31.242
  40
1.016
  41
1
  50
90
  51
0
  71
0
  72
2
  73
2
  1
%%O
0
LINE
8
RED
10
214.63
20
-32.512
11
214.63
21
-35.56
  0
TEXT
  7
KICAD
  8
CYAN
  10
214.63
  11
214.63
  20
-32.258
  21
-32.258
  40
1.016
  41
1
  50
90
  51
0
  71
0
  72
0
  73
2
  1
%%O
  0
TEXT
  7
KICAD
  8
CYAN
  10
217.754
  11
217.754
  20
-29.1338
  21
-29.1338
  40
1.27
  41
1
  50
0
  51
0
  71
0
  72
1
  73
2
  1
C15
  0
TEXT
  7
KICAD
  8
CYAN
  10
218.288
  11
218.288
  20
-34.2138
  21
-34.2138
  40
1.27
  41
1
  50
0
  51
0
  71
0
  72
1
  73
2
  1
100n
0
LINE
8
RED
10
219.71
20
-32.512
11
224.79
21
-32.512
0
LINE
8
RED
10
219.71
20
-30.988
11
224.79
21
-30.988
0
LINE
8
RED
10
222.25
20
-30.988
11
222.25
21
-27.94
  0
TEXT
  7
KICAD
  8
CYAN
  10
222.25
  11
222.25
  20
-31.242
  21
-31.242
  40
1.016
  41
1
  50
90
  51
0
  71
0
  72
2
  73
2
  1
%%O
0
LINE
8
RED
10
222.25
20
-32.512
11
222.25
21
-35.56
  0
TEXT
  7
KICAD
  8
CYAN
  10
222.25
  11
222.25
  20
-32.258
  21
-32.258
  40
1.016
  41
1
  50
90
  51
0
  71
0
  72
0
  73
2
  1
%%O
  0
TEXT
  7
KICAD
  8
CYAN
  10
225.374
  11
225.374
  20
-29.1338
  21
-29.1338
  40
1.27
  41
1
  50
0
  51
0
  71
0
  72
1
  73
2
  1
C16
  0
TEXT
  7
KICAD
  8
CYAN
  10
225.908
  11
225.908
  20
-34.2138
  21
-34.2138
  40
1.27
  41
1
  50
0
  51
0
  71
0
  72
1
  73
2
  1
100n
0
LINE
8
GREEN
10
222.25
20
-25.4
11
222.25
21
-27.94
0
LINE
8
GREEN
10
222.25
20
-38.1
11
222.25
21
-35.56
0
LINE
8
GREEN
10
214.63
20
-35.56
11
214.63
21
-40.64
0
POLYLINE
8
GREEN
66
1
70
1
40
0.4064
41
0.4064
0
VERTEX
8
GREEN
10
214.427
 20
-38.1
42
1.0
0
VERTEX
8
GREEN
10
214.833
 20
-38.1
42
1.0
0
SEQEND
0
LINE
8
GREEN
10
214.63
20
-22.86
11
214.63
21
-27.94
0
POLYLINE
8
GREEN
66
1
70
1
40
0.4064
41
0.4064
0
VERTEX
8
GREEN
10
214.427
 20
-25.4
42
1.0
0
VERTEX
8
GREEN
10
214.833
 20
-25.4
42
1.0
0
SEQEND
0
LINE
8
RED
10
213.36
20
-40.64
11
214.63
21
-41.91
0
LINE
8
RED
10
214.63
20
-41.91
11
215.9
21
-40.64
0
LINE
8
RED
10
215.9
20
-40.64
11
213.36
21
-40.64
0
LINE
8
GREEN
10
214.63
20
-25.4
11
222.25
21
-25.4
0
LINE
8
GREEN
10
214.63
20
-38.1
11
222.25
21
-38.1
0
LINE
8
RED
10
214.63
20
-22.86
11
214.63
21
-21.59
0
LINE
8
RED
10
214.63
20
-20.828
11
215.392
21
-21.59
0
LINE
8
RED
10
215.392
20
-21.59
11
214.122
21
-21.59
0
LINE
8
RED
10
214.122
20
-21.59
11
213.868
21
-21.59
0
LINE
8
RED
10
213.868
20
-21.59
11
214.63
21
-20.828
  0
TEXT
  7
KICAD
  8
CYAN
  10
214.63
  11
214.63
  20
-20.2692
  21
-20.2692
  40
0.762
  41
1
  50
0
  51
0
  71
0
  72
1
  73
2
  1
+5VD
0
LINE
8
RED
10
256.54
20
-67.31
11
255.905
21
-67.945
0
LINE
8
RED
10
255.905
20
-67.945
11
257.175
21
-68.58
0
LINE
8
RED
10
257.175
20
-68.58
11
255.905
21
-69.215
0
LINE
8
RED
10
255.905
20
-69.215
11
257.175
21
-69.85
0
LINE
8
RED
10
257.175
20
-69.85
11
255.905
21
-70.485
0
LINE
8
RED
10
255.905
20
-70.485
11
257.175
21
-71.12
0
LINE
8
RED
10
257.175
20
-71.12
11
255.905
21
-71.755
0
LINE
8
RED
10
255.905
20
-71.755
11
256.54
21
-72.39
0
LINE
8
RED
10
256.54
20
-67.31
11
256.54
21
-66.04
  0
TEXT
  7
KICAD
  8
CYAN
  10
256.286
  11
256.286
  20
-66.675
  21
-66.675
  40
1.524
  41
1
  50
90
  51
0
  71
0
  72
1
  73
1
  1
%%O
0
LINE
8
RED
10
256.54
20
-72.39
11
256.54
21
-73.66
  0
TEXT
  7
KICAD
  8
CYAN
  10
256.286
  11
256.286
  20
-73.025
  21
-73.025
  40
1.524
  41
1
  50
90
  51
0
  71
0
  72
1
  73
1
  1
%%O
  0
TEXT
  7
KICAD
  8
CYAN
  10
255.194
  11
255.194
  20
-72.39
  21
-72.39
  40
1.27
  41
1
  50
90
  51
0
  71
0
  72
1
  73
2
  1
R12
  0
TEXT
  7
KICAD
  8
CYAN
  10
255.194
  11
255.194
  20
-66.04
  21
-66.04
  40
1.27
  41
1
  50
90
  51
0
  71
0
  72
1
  73
2
  1
47k
0
LINE
8
RED
10
256.54
20
-97.79
11
255.905
21
-98.425
0
LINE
8
RED
10
255.905
20
-98.425
11
257.175
21
-99.06
0
LINE
8
RED
10
257.175
20
-99.06
11
255.905
21
-99.695
0
LINE
8
RED
10
255.905
20
-99.695
11
257.175
21
-100.33
0
LINE
8
RED
10
257.175
20
-100.33
11
255.905
21
-100.965
0
LINE
8
RED
10
255.905
20
-100.965
11
257.175
21
-101.6
0
LINE
8
RED
10
257.175
20
-101.6
11
255.905
21
-102.235
0
LINE
8
RED
10
255.905
20
-102.235
11
256.54
21
-102.87
0
LINE
8
RED
10
256.54
20
-97.79
11
256.54
21
-96.52
  0
TEXT
  7
KICAD
  8
CYAN
  10
256.286
  11
256.286
  20
-97.155
  21
-97.155
  40
1.524
  41
1
  50
90
  51
0
  71
0
  72
1
  73
1
  1
%%O
0
LINE
8
RED
10
256.54
20
-102.87
11
256.54
21
-104.14
  0
TEXT
  7
KICAD
  8
CYAN
  10
256.286
  11
256.286
  20
-103.505
  21
-103.505
  40
1.524
  41
1
  50
90
  51
0
  71
0
  72
1
  73
1
  1
%%O
  0
TEXT
  7
KICAD
  8
CYAN
  10
255.194
  11
255.194
  20
-102.87
  21
-102.87
  40
1.27
  41
1
  50
90
  51
0
  71
0
  72
1
  73
2
  1
R13
  0
TEXT
  7
KICAD
  8
CYAN
  10
255.194
  11
255.194
  20
-97.79
  21
-97.79
  40
1.27
  41
1
  50
90
  51
0
  71
0
  72
1
  73
2
  1
47k
0
LINE
8
RED
10
256.54
20
-127
11
255.905
21
-127.635
0
LINE
8
RED
10
255.905
20
-127.635
11
257.175
21
-128.27
0
LINE
8
RED
10
257.175
20
-128.27
11
255.905
21
-128.905
0
LINE
8
RED
10
255.905
20
-128.905
11
257.175
21
-129.54
0
LINE
8
RED
10
257.175
20
-129.54
11
255.905
21
-130.175
0
LINE
8
RED
10
255.905
20
-130.175
11
257.175
21
-130.81
0
LINE
8
RED
10
257.175
20
-130.81
11
255.905
21
-131.445
0
LINE
8
RED
10
255.905
20
-131.445
11
256.54
21
-132.08
0
LINE
8
RED
10
256.54
20
-127
11
256.54
21
-125.73
  0
TEXT
  7
KICAD
  8
CYAN
  10
256.286
  11
256.286
  20
-126.365
  21
-126.365
  40
1.524
  41
1
  50
90
  51
0
  71
0
  72
1
  73
1
  1
%%O
0
LINE
8
RED
10
256.54
20
-132.08
11
256.54
21
-133.35
  0
TEXT
  7
KICAD
  8
CYAN
  10
256.286
  11
256.286
  20
-132.715
  21
-132.715
  40
1.524
  41
1
  50
90
  51
0
  71
0
  72
1
  73
1
  1
%%O
  0
TEXT
  7
KICAD
  8
CYAN
  10
255.194
  11
255.194
  20
-132.08
  21
-132.08
  40
1.27
  41
1
  50
90
  51
0
  71
0
  72
1
  73
2
  1
R14
  0
TEXT
  7
KICAD
  8
CYAN
  10
255.194
  11
255.194
  20
-127
  21
-127
  40
1.27
  41
1
  50
90
  51
0
  71
0
  72
1
  73
2
  1
47k
0
LINE
8
RED
10
256.54
20
-157.48
11
255.905
21
-158.115
0
LINE
8
RED
10
255.905
20
-158.115
11
257.175
21
-158.75
0
LINE
8
RED
10
257.175
20
-158.75
11
255.905
21
-159.385
0
LINE
8
RED
10
255.905
20
-159.385
11
257.175
21
-160.02
0
LINE
8
RED
10
257.175
20
-160.02
11
255.905
21
-160.655
0
LINE
8
RED
10
255.905
20
-160.655
11
257.175
21
-161.29
0
LINE
8
RED
10
257.175
20
-161.29
11
255.905
21
-161.925
0
LINE
8
RED
10
255.905
20
-161.925
11
256.54
21
-162.56
0
LINE
8
RED
10
256.54
20
-157.48
11
256.54
21
-156.21
  0
TEXT
  7
KICAD
  8
CYAN
  10
256.286
  11
256.286
  20
-156.845
  21
-156.845
  40
1.524
  41
1
  50
90
  51
0
  71
0
  72
1
  73
1
  1
%%O
0
LINE
8
RED
10
256.54
20
-162.56
11
256.54
21
-163.83
  0
TEXT
  7
KICAD
  8
CYAN
  10
256.286
  11
256.286
  20
-163.195
  21
-163.195
  40
1.524
  41
1
  50
90
  51
0
  71
0
  72
1
  73
1
  1
%%O
  0
TEXT
  7
KICAD
  8
CYAN
  10
255.194
  11
255.194
  20
-162.56
  21
-162.56
  40
1.27
  41
1
  50
90
  51
0
  71
0
  72
1
  73
2
  1
R15
  0
TEXT
  7
KICAD
  8
CYAN
  10
255.194
  11
255.194
  20
-157.48
  21
-157.48
  40
1.27
  41
1
  50
90
  51
0
  71
0
  72
1
  73
2
  1
47k
0
LINE
8
GREEN
10
256.54
20
-73.66
11
256.54
21
-74.93
0
LINE
8
GREEN
10
256.54
20
-104.14
11
256.54
21
-105.41
0
LINE
8
GREEN
10
256.54
20
-133.35
11
256.54
21
-134.62
0
LINE
8
RED
10
256.54
20
-134.62
11
256.54
21
-135.89
0
LINE
8
RED
10
256.54
20
-136.652
11
255.778
21
-135.89
0
LINE
8
RED
10
255.778
20
-135.89
11
257.048
21
-135.89
0
LINE
8
RED
10
257.048
20
-135.89
11
257.302
21
-135.89
0
LINE
8
RED
10
257.302
20
-135.89
11
256.54
21
-136.652
  0
TEXT
  7
KICAD
  8
CYAN
  10
256.54
  11
256.54
  20
-137.211
  21
-137.211
  40
0.762
  41
1
  50
0
  51
0
  71
0
  72
1
  73
2
  1
+5VD
0
LINE
8
RED
10
256.54
20
-165.1
11
256.54
21
-166.37
0
LINE
8
RED
10
256.54
20
-167.132
11
255.778
21
-166.37
0
LINE
8
RED
10
255.778
20
-166.37
11
257.048
21
-166.37
0
LINE
8
RED
10
257.048
20
-166.37
11
257.302
21
-166.37
0
LINE
8
RED
10
257.302
20
-166.37
11
256.54
21
-167.132
  0
TEXT
  7
KICAD
  8
CYAN
  10
256.54
  11
256.54
  20
-167.691
  21
-167.691
  40
0.762
  41
1
  50
0
  51
0
  71
0
  72
1
  73
2
  1
+5VD
0
LINE
8
RED
10
256.54
20
-105.41
11
256.54
21
-106.68
0
LINE
8
RED
10
256.54
20
-107.442
11
255.778
21
-106.68
0
LINE
8
RED
10
255.778
20
-106.68
11
257.048
21
-106.68
0
LINE
8
RED
10
257.048
20
-106.68
11
257.302
21
-106.68
0
LINE
8
RED
10
257.302
20
-106.68
11
256.54
21
-107.442
  0
TEXT
  7
KICAD
  8
CYAN
  10
256.54
  11
256.54
  20
-108.001
  21
-108.001
  40
0.762
  41
1
  50
0
  51
0
  71
0
  72
1
  73
2
  1
+5VD
0
LINE
8
RED
10
256.54
20
-74.93
11
256.54
21
-76.2
0
LINE
8
RED
10
256.54
20
-76.962
11
255.778
21
-76.2
0
LINE
8
RED
10
255.778
20
-76.2
11
257.048
21
-76.2
0
LINE
8
RED
10
257.048
20
-76.2
11
257.302
21
-76.2
0
LINE
8
RED
10
257.302
20
-76.2
11
256.54
21
-76.962
  0
TEXT
  7
KICAD
  8
CYAN
  10
256.54
  11
256.54
  20
-77.5208
  21
-77.5208
  40
0.762
  41
1
  50
0
  51
0
  71
0
  72
1
  73
2
  1
+5VD
0
LINE
8
GREEN
10
256.54
20
-163.83
11
256.54
21
-165.1
  0
ENDSEC
  0
EOF
