<?xml version="1.0" standalone="no"?>
 <!DOCTYPE svg PUBLIC "-//W3C//DTD SVG 1.1//EN" 
 "http://www.w3.org/Graphics/SVG/1.1/DTD/svg11.dtd"> 
<svg xmlns="http://www.w3.org/2000/svg" version="1.1" 
    width="29.7002cm" height="21.0007cm" viewBox="0 0 116930 82680 ">
<title>SVG Picture created as USB_TO_4UART_BOARD-B_SilkS.svg date 2015/07/11 22:46:22 </title>
  <desc>Picture generated by PCBNEW </desc>
<g style="fill:#000000; fill-opacity:1;stroke:#000000; stroke-opacity:1;
stroke-linecap:round; stroke-linejoin:round; "
 transform="translate(0 0) scale(1 1)">
</g>
<g style="fill:#000000; fill-opacity:0.0; 
stroke:#000000; stroke-width:98.4252; stroke-opacity:1; 
stroke-linecap:round; stroke-linejoin:round;">
<path d="M90856 40171
L90781 40171
L90743 40190
L90725 40209
L90687 40265
L90668 40340
L90668 40490
L90687 40528
L90706 40546
L90743 40565
L90818 40565
L90856 40546
L90875 40528
L90893 40490
L90893 40396
L90875 40359
L90856 40340
L90818 40321
L90743 40321
L90706 40340
L90687 40359
L90668 40396
" />
<path d="M91250 40171
L91062 40171
L91043 40359
L91062 40340
L91100 40321
L91193 40321
L91231 40340
L91250 40359
L91268 40396
L91268 40490
L91250 40528
L91231 40546
L91193 40565
L91100 40565
L91062 40546
L91043 40528
" />
<path d="M91456 40546
L91456 40565
L91437 40603
L91418 40621
" />
<path d="M91700 40171
L91737 40171
L91775 40190
L91793 40209
L91812 40246
L91831 40321
L91831 40415
L91812 40490
L91793 40528
L91775 40546
L91737 40565
L91700 40565
L91662 40546
L91643 40528
L91625 40490
L91606 40415
L91606 40321
L91625 40246
L91643 40209
L91662 40190
L91700 40171
" />
<path d="M91981 40209
L92000 40190
L92037 40171
L92131 40171
L92168 40190
L92187 40209
L92206 40246
L92206 40284
L92187 40340
L91962 40565
L92206 40565
" />
<path d="M92543 40303
L92543 40565
" />
<path d="M92449 40153
L92356 40434
L92599 40434
" />
<path d="M93049 40565
L93049 40303
" />
<path d="M93049 40340
L93068 40321
L93106 40303
L93162 40303
L93199 40321
L93218 40359
L93218 40565
" />
<path d="M93218 40359
L93237 40321
L93274 40303
L93331 40303
L93368 40321
L93387 40359
L93387 40565
" />
<path d="M93574 40565
L93574 40303
" />
<path d="M93574 40340
L93593 40321
L93631 40303
L93687 40303
L93724 40321
L93743 40359
L93743 40565
" />
<path d="M93743 40359
L93762 40321
L93799 40303
L93856 40303
L93893 40321
L93912 40359
L93912 40565
" />
<path d="M105099 40800
L79499 40800
" />
<path d="M105100 67200
L105099 40012
" />
<path d="M79500 67200
L79499 40012
" />
<path d="M79499 40800
L79943 41030
" />
<path d="M79499 40800
L79943 40569
" />
<path d="M105099 40800
L104656 41030
" />
<path d="M105099 40800
L104656 40569
" />
<path d="M73453 58043
L73715 58043
" />
<path d="M73303 58137
L73584 58231
L73584 57987
" />
<path d="M73321 57668
L73321 57743
L73340 57781
L73359 57799
L73415 57837
L73490 57856
L73640 57856
L73678 57837
L73696 57818
L73715 57781
L73715 57706
L73696 57668
L73678 57649
L73640 57631
L73546 57631
L73509 57649
L73490 57668
L73471 57706
L73471 57781
L73490 57818
L73509 57837
L73546 57856
" />
<path d="M73696 57443
L73715 57443
L73753 57462
L73771 57481
" />
<path d="M73453 57106
L73715 57106
" />
<path d="M73303 57199
L73584 57293
L73584 57049
" />
<path d="M73490 56843
L73471 56881
L73453 56899
L73415 56918
L73396 56918
L73359 56899
L73340 56881
L73321 56843
L73321 56768
L73340 56731
L73359 56712
L73396 56693
L73415 56693
L73453 56712
L73471 56731
L73490 56768
L73490 56843
L73509 56881
L73528 56899
L73565 56918
L73640 56918
L73678 56899
L73696 56881
L73715 56843
L73715 56768
L73696 56731
L73678 56712
L73640 56693
L73565 56693
L73528 56712
L73509 56731
L73490 56768
" />
<path d="M73359 56543
L73340 56525
L73321 56487
L73321 56393
L73340 56356
L73359 56337
L73396 56318
L73434 56318
L73490 56337
L73715 56562
L73715 56318
" />
<path d="M73715 55850
L73453 55850
" />
<path d="M73490 55850
L73471 55831
L73453 55793
L73453 55737
L73471 55700
L73509 55681
L73715 55681
" />
<path d="M73509 55681
L73471 55662
L73453 55625
L73453 55568
L73471 55531
L73509 55512
L73715 55512
" />
<path d="M73715 55325
L73453 55325
" />
<path d="M73490 55325
L73471 55306
L73453 55268
L73453 55212
L73471 55175
L73509 55156
L73715 55156
" />
<path d="M73509 55156
L73471 55137
L73453 55100
L73453 55043
L73471 55006
L73509 54987
L73715 54987
" />
<path d="M73950 65750
L73950 47450
" />
<path d="M105550 65750
L73162 65750
" />
<path d="M105550 47450
L73162 47450
" />
<path d="M73950 47450
L73719 47893
" />
<path d="M73950 47450
L74180 47893
" />
<path d="M73950 65750
L73719 65306
" />
<path d="M73950 65750
L74180 65306
" />
<path d="M73453 22343
L73715 22343
" />
<path d="M73303 22437
L73584 22531
L73584 22287
" />
<path d="M73321 21968
L73321 22043
L73340 22081
L73359 22099
L73415 22137
L73490 22156
L73640 22156
L73678 22137
L73696 22118
L73715 22081
L73715 22006
L73696 21968
L73678 21949
L73640 21931
L73546 21931
L73509 21949
L73490 21968
L73471 22006
L73471 22081
L73490 22118
L73509 22137
L73546 22156
" />
<path d="M73696 21743
L73715 21743
L73753 21762
L73771 21781
" />
<path d="M73453 21406
L73715 21406
" />
<path d="M73303 21499
L73584 21593
L73584 21349
" />
<path d="M73490 21143
L73471 21181
L73453 21199
L73415 21218
L73396 21218
L73359 21199
L73340 21181
L73321 21143
L73321 21068
L73340 21031
L73359 21012
L73396 20993
L73415 20993
L73453 21012
L73471 21031
L73490 21068
L73490 21143
L73509 21181
L73528 21199
L73565 21218
L73640 21218
L73678 21199
L73696 21181
L73715 21143
L73715 21068
L73696 21031
L73678 21012
L73640 20993
L73565 20993
L73528 21012
L73509 21031
L73490 21068
" />
<path d="M73359 20843
L73340 20825
L73321 20787
L73321 20693
L73340 20656
L73359 20637
L73396 20618
L73434 20618
L73490 20637
L73715 20862
L73715 20618
" />
<path d="M73715 20150
L73453 20150
" />
<path d="M73490 20150
L73471 20131
L73453 20093
L73453 20037
L73471 20000
L73509 19981
L73715 19981
" />
<path d="M73509 19981
L73471 19962
L73453 19925
L73453 19868
L73471 19831
L73509 19812
L73715 19812
" />
<path d="M73715 19625
L73453 19625
" />
<path d="M73490 19625
L73471 19606
L73453 19568
L73453 19512
L73471 19475
L73509 19456
L73715 19456
" />
<path d="M73509 19456
L73471 19437
L73453 19400
L73453 19343
L73471 19306
L73509 19287
L73715 19287
" />
<path d="M73950 11749
L73950 30049
" />
<path d="M105550 11750
L73162 11749
" />
<path d="M105550 30050
L73162 30049
" />
<path d="M73950 30049
L73719 29606
" />
<path d="M73950 30049
L74180 29606
" />
<path d="M73950 11749
L73719 12193
" />
<path d="M73950 11749
L74180 12193
" />
<path d="M90856 36859
L90781 36859
L90743 36878
L90725 36896
L90687 36953
L90668 37028
L90668 37178
L90687 37215
L90706 37234
L90743 37253
L90818 37253
L90856 37234
L90875 37215
L90893 37178
L90893 37084
L90875 37046
L90856 37028
L90818 37009
L90743 37009
L90706 37028
L90687 37046
L90668 37084
" />
<path d="M91250 36859
L91062 36859
L91043 37046
L91062 37028
L91100 37009
L91193 37009
L91231 37028
L91250 37046
L91268 37084
L91268 37178
L91250 37215
L91231 37234
L91193 37253
L91100 37253
L91062 37234
L91043 37215
" />
<path d="M91456 37234
L91456 37253
L91437 37290
L91418 37309
" />
<path d="M91700 36859
L91737 36859
L91775 36878
L91793 36896
L91812 36934
L91831 37009
L91831 37103
L91812 37178
L91793 37215
L91775 37234
L91737 37253
L91700 37253
L91662 37234
L91643 37215
L91625 37178
L91606 37103
L91606 37009
L91625 36934
L91643 36896
L91662 36878
L91700 36859
" />
<path d="M91981 36896
L92000 36878
L92037 36859
L92131 36859
L92168 36878
L92187 36896
L92206 36934
L92206 36971
L92187 37028
L91962 37253
L92206 37253
" />
<path d="M92543 36990
L92543 37253
" />
<path d="M92449 36840
L92356 37121
L92599 37121
" />
<path d="M93049 37253
L93049 36990
" />
<path d="M93049 37028
L93068 37009
L93106 36990
L93162 36990
L93199 37009
L93218 37046
L93218 37253
" />
<path d="M93218 37046
L93237 37009
L93274 36990
L93331 36990
L93368 37009
L93387 37046
L93387 37253
" />
<path d="M93574 37253
L93574 36990
" />
<path d="M93574 37028
L93593 37009
L93631 36990
L93687 36990
L93724 37009
L93743 37046
L93743 37253
" />
<path d="M93743 37046
L93762 37009
L93799 36990
L93856 36990
L93893 37009
L93912 37046
L93912 37253
" />
<path d="M105099 36699
L79499 36699
" />
<path d="M105100 10300
L105099 37487
" />
<path d="M79500 10300
L79499 37487
" />
<path d="M79499 36699
L79943 36469
" />
<path d="M79499 36699
L79943 36930
" />
<path d="M105099 36699
L104656 36469
" />
<path d="M105099 36699
L104656 36930
" />
</g>
<g style="fill:#000000; fill-opacity:0.0; 
stroke:#000000; stroke-width:47; stroke-opacity:1; 
stroke-linecap:round; stroke-linejoin:round;">
<path d="M92742 62850
L92752 62860
L92780 62869
L92799 62869
L92827 62860
L92846 62841
L92855 62822
L92864 62785
L92864 62757
L92855 62719
L92846 62700
L92827 62682
L92799 62672
L92780 62672
L92752 62682
L92742 62691
" />
<path d="M92573 62738
L92573 62869
" />
<path d="M92620 62663
L92667 62804
L92545 62804
" />
</g>
<g style="fill:#000000; fill-opacity:0.0; 
stroke:#000000; stroke-width:120; stroke-opacity:1; 
stroke-linecap:round; stroke-linejoin:round;">
<path d="M83742 62364
L84342 62764
" />
<path d="M83742 62764
L84342 62364
" />
<path d="M84342 63307
L84342 62964
" />
<path d="M84342 63135
L83742 63135
L83828 63078
L83885 63021
L83914 62964
" />
<path d="M87342 61878
L87342 61535
" />
<path d="M87342 61707
L86742 61707
L86828 61650
L86885 61592
L86914 61535
" />
<path d="M86800 62107
L86771 62135
L86742 62192
L86742 62335
L86771 62392
L86800 62421
L86857 62450
L86914 62450
L87000 62421
L87342 62078
L87342 62450
" />
<path d="M87342 62707
L86742 62707
L87171 62907
L86742 63107
L87342 63107
" />
<path d="M87342 63392
L86742 63392
" />
<path d="M87342 63650
L87028 63650
L86971 63621
L86942 63564
L86942 63478
L86971 63421
L87000 63392
" />
<path d="M86942 63878
L86942 64192
L87342 63878
L87342 64192
" />
<path d="M81192 51700
L81621 51700
L81707 51671
L81764 51614
L81792 51528
L81792 51471
" />
<path d="M81192 51928
L81192 52300
L81421 52100
L81421 52185
L81450 52242
L81478 52271
L81535 52300
L81678 52300
L81735 52271
L81764 52242
L81792 52185
L81792 52014
L81764 51957
L81735 51928
" />
<path d="M84514 51057
L84542 51142
L84542 51285
L84514 51342
L84485 51371
L84428 51400
L84371 51400
L84314 51371
L84285 51342
L84257 51285
L84228 51171
L84200 51114
L84171 51085
L84114 51057
L84057 51057
L84000 51085
L83971 51114
L83942 51171
L83942 51314
L83971 51400
" />
<path d="M84542 51657
L83942 51657
" />
<path d="M84542 52228
L84542 51942
L83942 51942
" />
<path d="M84542 52742
L84542 52400
" />
<path d="M84542 52571
L83942 52571
L84028 52514
L84085 52457
L84114 52400
" />
<path d="M81192 61450
L81621 61450
L81707 61421
L81764 61364
L81792 61278
L81792 61221
" />
<path d="M81192 61678
L81192 62050
L81421 61850
L81421 61935
L81450 61992
L81478 62021
L81535 62050
L81678 62050
L81735 62021
L81764 61992
L81792 61935
L81792 61764
L81764 61707
L81735 61678
" />
<path d="M84514 60807
L84542 60892
L84542 61035
L84514 61092
L84485 61121
L84428 61150
L84371 61150
L84314 61121
L84285 61092
L84257 61035
L84228 60921
L84200 60864
L84171 60835
L84114 60807
L84057 60807
L84000 60835
L83971 60864
L83942 60921
L83942 61064
L83971 61150
" />
<path d="M84542 61407
L83942 61407
" />
<path d="M84542 61978
L84542 61692
L83942 61692
" />
<path d="M84542 62492
L84542 62150
" />
<path d="M84542 62321
L83942 62321
L84028 62264
L84085 62207
L84114 62150
" />
<path d="M98142 63650
L98571 63650
L98657 63621
L98714 63564
L98742 63478
L98742 63421
" />
<path d="M98142 63878
L98142 64250
L98371 64050
L98371 64135
L98400 64192
L98428 64221
L98485 64250
L98628 64250
L98685 64221
L98714 64192
L98742 64135
L98742 63964
L98714 63907
L98685 63878
" />
<path d="M101464 63007
L101492 63092
L101492 63235
L101464 63292
L101435 63321
L101378 63350
L101321 63350
L101264 63321
L101235 63292
L101207 63235
L101178 63121
L101150 63064
L101121 63035
L101064 63007
L101007 63007
L100950 63035
L100921 63064
L100892 63121
L100892 63264
L100921 63350
" />
<path d="M101492 63607
L100892 63607
" />
<path d="M101492 64178
L101492 63892
L100892 63892
" />
<path d="M101492 64692
L101492 64350
" />
<path d="M101492 64521
L100892 64521
L100978 64464
L101035 64407
L101064 64350
" />
<path d="M98192 49150
L98621 49150
L98707 49121
L98764 49064
L98792 48978
L98792 48921
" />
<path d="M98192 49378
L98192 49750
L98421 49550
L98421 49635
L98450 49692
L98478 49721
L98535 49750
L98678 49750
L98735 49721
L98764 49692
L98792 49635
L98792 49464
L98764 49407
L98735 49378
" />
<path d="M101514 48507
L101542 48592
L101542 48735
L101514 48792
L101485 48821
L101428 48850
L101371 48850
L101314 48821
L101285 48792
L101257 48735
L101228 48621
L101200 48564
L101171 48535
L101114 48507
L101057 48507
L101000 48535
L100971 48564
L100942 48621
L100942 48764
L100971 48850
" />
<path d="M101542 49107
L100942 49107
" />
<path d="M101542 49678
L101542 49392
L100942 49392
" />
<path d="M101542 50192
L101542 49850
" />
<path d="M101542 50021
L100942 50021
L101028 49964
L101085 49907
L101114 49850
" />
</g>
<g style="fill:#000000; fill-opacity:0.0; 
stroke:#000000; stroke-width:107; stroke-opacity:1; 
stroke-linecap:round; stroke-linejoin:round;">
<path d="M104726 51284
L104043 51284
L104043 51447
L104075 51487
L104108 51508
L104173 51528
L104271 51528
L104336 51508
L104368 51487
L104401 51447
L104401 51284
" />
<path d="M104043 51915
L104043 51712
L104368 51691
L104336 51712
L104303 51752
L104303 51854
L104336 51895
L104368 51915
L104433 51936
L104596 51936
L104661 51915
L104693 51895
L104726 51854
L104726 51752
L104693 51712
L104661 51691
" />
<path d="M104726 55884
L104043 55884
L104043 56047
L104075 56087
L104108 56108
L104173 56128
L104271 56128
L104336 56108
L104368 56087
L104401 56047
L104401 55884
" />
<path d="M104271 56495
L104726 56495
" />
<path d="M104010 56393
L104498 56291
L104498 56556
" />
<path d="M104726 60534
L104043 60534
L104043 60697
L104075 60737
L104108 60758
L104173 60778
L104271 60778
L104336 60758
L104368 60737
L104401 60697
L104401 60534
" />
<path d="M104043 60921
L104043 61186
L104303 61043
L104303 61104
L104336 61145
L104368 61165
L104433 61186
L104596 61186
L104661 61165
L104693 61145
L104726 61104
L104726 60982
L104693 60941
L104661 60921
" />
<path d="M104726 65134
L104043 65134
L104043 65297
L104075 65337
L104108 65358
L104173 65378
L104271 65378
L104336 65358
L104368 65337
L104401 65297
L104401 65134
" />
<path d="M104108 65541
L104075 65562
L104043 65602
L104043 65704
L104075 65745
L104108 65765
L104173 65786
L104238 65786
L104336 65765
L104726 65521
L104726 65786
" />
</g>
<g style="fill:#000000; fill-opacity:0.0; 
stroke:#000000; stroke-width:50; stroke-opacity:1; 
stroke-linecap:round; stroke-linejoin:round;">
<path d="M97371 55571
L97614 55571
L97642 55585
L97657 55600
L97671 55628
L97671 55685
L97657 55714
L97642 55728
L97614 55742
L97371 55742
" />
<path d="M97371 56014
L97371 55957
L97385 55928
L97400 55914
L97442 55885
L97500 55871
L97614 55871
L97642 55885
L97657 55900
L97671 55928
L97671 55985
L97657 56014
L97642 56028
L97614 56042
L97542 56042
L97514 56028
L97500 56014
L97485 55985
L97485 55928
L97500 55900
L97514 55885
L97542 55871
" />
<path d="M96771 54435
L96771 54635
L97071 54507
" />
<path d="M96871 54878
L97071 54878
" />
<path d="M96757 54807
L96971 54735
L96971 54921
" />
<path d="M97071 55178
L97071 55035
L96771 55035
" />
<path d="M96771 55235
L97071 55335
L96771 55435
" />
<path d="M97042 55707
L97057 55692
L97071 55650
L97071 55621
L97057 55578
L97028 55550
L97000 55535
L96942 55521
L96900 55521
L96842 55535
L96814 55550
L96785 55578
L96771 55621
L96771 55650
L96785 55692
L96800 55707
" />
<path d="M97042 56007
L97057 55992
L97071 55950
L97071 55921
L97057 55878
L97028 55850
L97000 55835
L96942 55821
L96900 55821
L96842 55835
L96814 55850
L96785 55878
L96771 55921
L96771 55950
L96785 55992
L96800 56007
" />
<path d="M96771 56107
L96771 56292
L96885 56192
L96885 56235
L96900 56264
L96914 56278
L96942 56292
L97014 56292
L97042 56278
L97057 56264
L97071 56235
L97071 56150
L97057 56121
L97042 56107
" />
<path d="M96800 56407
L96785 56421
L96771 56450
L96771 56521
L96785 56550
L96800 56564
L96828 56578
L96857 56578
L96900 56564
L97071 56392
L97071 56578
" />
<path d="M96871 56835
L97071 56835
" />
<path d="M96757 56764
L96971 56692
L96971 56878
" />
<path d="M96771 57135
L96771 56992
L96914 56978
L96900 56992
L96885 57021
L96885 57092
L96900 57121
L96914 57135
L96942 57149
L97014 57149
L97042 57135
L97057 57121
L97071 57092
L97071 57021
L97057 56992
L97042 56978
" />
<path d="M91128 49771
L91128 50014
L91114 50042
L91100 50057
L91071 50071
L91014 50071
L90985 50057
L90971 50042
L90957 50014
L90957 49771
" />
<path d="M90671 49771
L90814 49771
L90828 49914
L90814 49900
L90785 49885
L90714 49885
L90685 49900
L90671 49914
L90657 49942
L90657 50014
L90671 50042
L90685 50057
L90714 50071
L90785 50071
L90814 50057
L90828 50042
" />
<path d="M92264 50371
L92064 50371
L92192 50671
" />
<path d="M91821 50471
L91821 50671
" />
<path d="M91892 50357
L91964 50571
L91778 50571
" />
<path d="M91521 50671
L91664 50671
L91664 50371
" />
<path d="M91464 50371
L91364 50671
L91264 50371
" />
<path d="M90992 50642
L91007 50657
L91050 50671
L91078 50671
L91121 50657
L91150 50628
L91164 50600
L91178 50542
L91178 50500
L91164 50442
L91150 50414
L91121 50385
L91078 50371
L91050 50371
L91007 50385
L90992 50400
" />
<path d="M90692 50642
L90707 50657
L90750 50671
L90778 50671
L90821 50657
L90850 50628
L90864 50600
L90878 50542
L90878 50500
L90864 50442
L90850 50414
L90821 50385
L90778 50371
L90750 50371
L90707 50385
L90692 50400
" />
<path d="M90592 50371
L90407 50371
L90507 50485
L90464 50485
L90435 50500
L90421 50514
L90407 50542
L90407 50614
L90421 50642
L90435 50657
L90464 50671
L90550 50671
L90578 50657
L90592 50642
" />
<path d="M90292 50400
L90278 50385
L90250 50371
L90178 50371
L90150 50385
L90135 50400
L90121 50428
L90121 50457
L90135 50500
L90307 50671
L90121 50671
" />
<path d="M89864 50471
L89864 50671
" />
<path d="M89935 50357
L90007 50571
L89821 50571
" />
<path d="M89564 50371
L89707 50371
L89721 50514
L89707 50500
L89678 50485
L89607 50485
L89578 50500
L89564 50514
L89550 50542
L89550 50614
L89564 50642
L89578 50657
L89607 50671
L89678 50671
L89707 50657
L89721 50642
" />
</g>
<g style="fill:#000000; fill-opacity:0.0; 
stroke:#000000; stroke-width:120; stroke-opacity:1; 
stroke-linecap:round; stroke-linejoin:round;">
<path d="M86307 51692
L86307 52178
L86278 52235
L86250 52264
L86192 52292
L86078 52292
L86021 52264
L85992 52235
L85964 52178
L85964 51692
" />
<path d="M85707 51750
L85678 51721
L85621 51692
L85478 51692
L85421 51721
L85392 51750
L85364 51807
L85364 51864
L85392 51950
L85735 52292
L85364 52292
" />
<path d="M87150 52292
L87435 52292
L87435 51692
" />
<path d="M86950 52292
L86950 51692
L86750 52121
L86550 51692
L86550 52292
" />
<path d="M85950 52292
L86292 52292
" />
<path d="M86121 52292
L86121 51692
L86178 51778
L86235 51835
L86292 51864
" />
<path d="M85378 52292
L85721 52292
" />
<path d="M85550 52292
L85550 51692
L85607 51778
L85664 51835
L85721 51864
" />
<path d="M84807 52292
L85150 52292
" />
<path d="M84978 52292
L84978 51692
L85035 51778
L85092 51835
L85150 51864
" />
<path d="M84607 51692
L84207 51692
L84464 52292
" />
</g>
<g style="fill:#000000; fill-opacity:0.0; 
stroke:#000000; stroke-width:45; stroke-opacity:1; 
stroke-linecap:round; stroke-linejoin:round;">
<path d="M92111 63170
L92121 63161
L92130 63135
L92130 63118
L92121 63092
L92102 63075
L92083 63067
L92045 63058
L92016 63058
L91978 63067
L91959 63075
L91940 63092
L91930 63118
L91930 63135
L91940 63161
L91950 63170
" />
<path d="M91930 63324
L91930 63290
L91940 63272
L91950 63264
L91978 63247
L92016 63238
L92092 63238
L92111 63247
L92121 63255
L92130 63272
L92130 63307
L92121 63324
L92111 63332
L92092 63341
L92045 63341
L92026 63332
L92016 63324
L92007 63307
L92007 63272
L92016 63255
L92026 63247
L92045 63238
" />
<path d="M92780 62998
L92780 62895
" />
<path d="M92780 62947
L92580 62947
L92609 62929
L92628 62912
L92638 62895
" />
<path d="M92580 63110
L92580 63127
L92590 63144
L92600 63152
L92619 63161
L92657 63170
L92704 63170
L92742 63161
L92761 63152
L92771 63144
L92780 63127
L92780 63110
L92771 63092
L92761 63084
L92742 63075
L92704 63067
L92657 63067
L92619 63075
L92600 63084
L92590 63092
L92580 63110
" />
<path d="M92580 63281
L92580 63298
L92590 63315
L92600 63324
L92619 63332
L92657 63341
L92704 63341
L92742 63332
L92761 63324
L92771 63315
L92780 63298
L92780 63281
L92771 63264
L92761 63255
L92742 63247
L92704 63238
L92657 63238
L92619 63247
L92600 63255
L92590 63264
L92580 63281
" />
<path d="M92647 63418
L92780 63418
" />
<path d="M92666 63418
L92657 63427
L92647 63444
L92647 63470
L92657 63487
L92676 63495
L92780 63495
" />
<path d="M85280 54311
L85288 54321
L85314 54330
L85331 54330
L85357 54321
L85374 54302
L85382 54283
L85391 54245
L85391 54216
L85382 54178
L85374 54159
L85357 54140
L85331 54130
L85314 54130
L85288 54140
L85280 54150
" />
<path d="M85194 54330
L85160 54330
L85142 54321
L85134 54311
L85117 54283
L85108 54245
L85108 54169
L85117 54150
L85125 54140
L85142 54130
L85177 54130
L85194 54140
L85202 54150
L85211 54169
L85211 54216
L85202 54235
L85194 54245
L85177 54254
L85142 54254
L85125 54245
L85117 54235
L85108 54216
" />
<path d="M85451 54980
L85554 54980
" />
<path d="M85502 54980
L85502 54780
L85520 54809
L85537 54828
L85554 54838
" />
<path d="M85340 54780
L85322 54780
L85305 54790
L85297 54800
L85288 54819
L85280 54857
L85280 54904
L85288 54942
L85297 54961
L85305 54971
L85322 54980
L85340 54980
L85357 54971
L85365 54961
L85374 54942
L85382 54904
L85382 54857
L85374 54819
L85365 54800
L85357 54790
L85340 54780
" />
<path d="M85168 54780
L85151 54780
L85134 54790
L85125 54800
L85117 54819
L85108 54857
L85108 54904
L85117 54942
L85125 54961
L85134 54971
L85151 54980
L85168 54980
L85185 54971
L85194 54961
L85202 54942
L85211 54904
L85211 54857
L85202 54819
L85194 54800
L85185 54790
L85168 54780
" />
<path d="M85031 54847
L85031 54980
" />
<path d="M85031 54866
L85022 54857
L85005 54847
L84979 54847
L84962 54857
L84954 54876
L84954 54980
" />
<path d="M89311 53234
L89321 53225
L89330 53200
L89330 53182
L89321 53157
L89302 53140
L89283 53131
L89245 53122
L89216 53122
L89178 53131
L89159 53140
L89140 53157
L89130 53182
L89130 53200
L89140 53225
L89150 53234
" />
<path d="M89330 53405
L89330 53302
" />
<path d="M89330 53354
L89130 53354
L89159 53337
L89178 53320
L89188 53302
" />
<path d="M89330 53577
L89330 53474
" />
<path d="M89330 53525
L89130 53525
L89159 53508
L89178 53491
L89188 53474
" />
<path d="M88680 53148
L88680 53045
" />
<path d="M88680 53097
L88480 53097
L88509 53079
L88528 53062
L88538 53045
" />
<path d="M88480 53260
L88480 53277
L88490 53294
L88500 53302
L88519 53311
L88557 53320
L88604 53320
L88642 53311
L88661 53302
L88671 53294
L88680 53277
L88680 53260
L88671 53242
L88661 53234
L88642 53225
L88604 53217
L88557 53217
L88519 53225
L88500 53234
L88490 53242
L88480 53260
" />
<path d="M88480 53431
L88480 53448
L88490 53465
L88500 53474
L88519 53482
L88557 53491
L88604 53491
L88642 53482
L88661 53474
L88671 53465
L88680 53448
L88680 53431
L88671 53414
L88661 53405
L88642 53397
L88604 53388
L88557 53388
L88519 53397
L88500 53405
L88490 53414
L88480 53431
" />
<path d="M88547 53568
L88680 53568
" />
<path d="M88566 53568
L88557 53577
L88547 53594
L88547 53620
L88557 53637
L88576 53645
L88680 53645
" />
<path d="M93765 50811
L93774 50821
L93800 50830
L93817 50830
L93842 50821
L93860 50802
L93868 50783
L93877 50745
L93877 50716
L93868 50678
L93860 50659
L93842 50640
L93817 50630
L93800 50630
L93774 50640
L93765 50650
" />
<path d="M93594 50830
L93697 50830
" />
<path d="M93645 50830
L93645 50630
L93662 50659
L93680 50678
L93697 50688
" />
<path d="M93525 50650
L93517 50640
L93500 50630
L93457 50630
L93440 50640
L93431 50650
L93422 50669
L93422 50688
L93431 50716
L93534 50830
L93422 50830
" />
<path d="M93851 51480
L93954 51480
" />
<path d="M93902 51480
L93902 51280
L93920 51309
L93937 51328
L93954 51338
" />
<path d="M93740 51280
L93722 51280
L93705 51290
L93697 51300
L93688 51319
L93680 51357
L93680 51404
L93688 51442
L93697 51461
L93705 51471
L93722 51480
L93740 51480
L93757 51471
L93765 51461
L93774 51442
L93782 51404
L93782 51357
L93774 51319
L93765 51300
L93757 51290
L93740 51280
" />
<path d="M93568 51280
L93551 51280
L93534 51290
L93525 51300
L93517 51319
L93508 51357
L93508 51404
L93517 51442
L93525 51461
L93534 51471
L93551 51480
L93568 51480
L93585 51471
L93594 51461
L93602 51442
L93611 51404
L93611 51357
L93602 51319
L93594 51300
L93585 51290
L93568 51280
" />
<path d="M93431 51347
L93431 51480
" />
<path d="M93431 51366
L93422 51357
L93405 51347
L93379 51347
L93362 51357
L93354 51376
L93354 51480
" />
<path d="M96311 58134
L96321 58125
L96330 58100
L96330 58082
L96321 58057
L96302 58040
L96283 58031
L96245 58022
L96216 58022
L96178 58031
L96159 58040
L96140 58057
L96130 58082
L96130 58100
L96140 58125
L96150 58134
" />
<path d="M96330 58305
L96330 58202
" />
<path d="M96330 58254
L96130 58254
L96159 58237
L96178 58220
L96188 58202
" />
<path d="M96130 58365
L96130 58477
L96207 58417
L96207 58442
L96216 58460
L96226 58468
L96245 58477
L96292 58477
L96311 58468
L96321 58460
L96330 58442
L96330 58391
L96321 58374
L96311 58365
" />
<path d="M95680 58048
L95680 57945
" />
<path d="M95680 57997
L95480 57997
L95509 57979
L95528 57962
L95538 57945
" />
<path d="M95480 58160
L95480 58177
L95490 58194
L95500 58202
L95519 58211
L95557 58220
L95604 58220
L95642 58211
L95661 58202
L95671 58194
L95680 58177
L95680 58160
L95671 58142
L95661 58134
L95642 58125
L95604 58117
L95557 58117
L95519 58125
L95500 58134
L95490 58142
L95480 58160
" />
<path d="M95480 58331
L95480 58348
L95490 58365
L95500 58374
L95519 58382
L95557 58391
L95604 58391
L95642 58382
L95661 58374
L95671 58365
L95680 58348
L95680 58331
L95671 58314
L95661 58305
L95642 58297
L95604 58288
L95557 58288
L95519 58297
L95500 58305
L95490 58314
L95480 58331
" />
<path d="M95547 58468
L95680 58468
" />
<path d="M95566 58468
L95557 58477
L95547 58494
L95547 58520
L95557 58537
L95576 58545
L95680 58545
" />
<path d="M92161 60284
L92171 60275
L92180 60250
L92180 60232
L92171 60207
L92152 60190
L92133 60181
L92095 60172
L92066 60172
L92028 60181
L92009 60190
L91990 60207
L91980 60232
L91980 60250
L91990 60275
L92000 60284
" />
<path d="M92180 60455
L92180 60352
" />
<path d="M92180 60404
L91980 60404
L92009 60387
L92028 60370
L92038 60352
" />
<path d="M92047 60610
L92180 60610
" />
<path d="M91971 60567
L92114 60524
L92114 60635
" />
<path d="M92830 60198
L92830 60095
" />
<path d="M92830 60147
L92630 60147
L92659 60129
L92678 60112
L92688 60095
" />
<path d="M92630 60310
L92630 60327
L92640 60344
L92650 60352
L92669 60361
L92707 60370
L92754 60370
L92792 60361
L92811 60352
L92821 60344
L92830 60327
L92830 60310
L92821 60292
L92811 60284
L92792 60275
L92754 60267
L92707 60267
L92669 60275
L92650 60284
L92640 60292
L92630 60310
" />
<path d="M92630 60481
L92630 60498
L92640 60515
L92650 60524
L92669 60532
L92707 60541
L92754 60541
L92792 60532
L92811 60524
L92821 60515
L92830 60498
L92830 60481
L92821 60464
L92811 60455
L92792 60447
L92754 60438
L92707 60438
L92669 60447
L92650 60455
L92640 60464
L92630 60481
" />
<path d="M92697 60618
L92830 60618
" />
<path d="M92716 60618
L92707 60627
L92697 60644
L92697 60670
L92707 60687
L92726 60695
L92830 60695
" />
<path d="M96111 62720
L96121 62711
L96130 62685
L96130 62668
L96121 62642
L96102 62625
L96083 62617
L96045 62608
L96016 62608
L95978 62617
L95959 62625
L95940 62642
L95930 62668
L95930 62685
L95940 62711
L95950 62720
" />
<path d="M95930 62780
L95930 62891
L96007 62831
L96007 62857
L96016 62874
L96026 62882
L96045 62891
L96092 62891
L96111 62882
L96121 62874
L96130 62857
L96130 62805
L96121 62788
L96111 62780
" />
<path d="M96780 62548
L96780 62445
" />
<path d="M96780 62497
L96580 62497
L96609 62479
L96628 62462
L96638 62445
" />
<path d="M96580 62660
L96580 62677
L96590 62694
L96600 62702
L96619 62711
L96657 62720
L96704 62720
L96742 62711
L96761 62702
L96771 62694
L96780 62677
L96780 62660
L96771 62642
L96761 62634
L96742 62625
L96704 62617
L96657 62617
L96619 62625
L96600 62634
L96590 62642
L96580 62660
" />
<path d="M96580 62831
L96580 62848
L96590 62865
L96600 62874
L96619 62882
L96657 62891
L96704 62891
L96742 62882
L96761 62874
L96771 62865
L96780 62848
L96780 62831
L96771 62814
L96761 62805
L96742 62797
L96704 62788
L96657 62788
L96619 62797
L96600 62805
L96590 62814
L96580 62831
" />
<path d="M96647 62968
L96780 62968
" />
<path d="M96666 62968
L96657 62977
L96647 62994
L96647 63020
L96657 63037
L96676 63045
L96780 63045
" />
<path d="M94380 55111
L94388 55121
L94414 55130
L94431 55130
L94457 55121
L94474 55102
L94482 55083
L94491 55045
L94491 55016
L94482 54978
L94474 54959
L94457 54940
L94431 54930
L94414 54930
L94388 54940
L94380 54950
" />
<path d="M94277 55016
L94294 55007
L94302 54997
L94311 54978
L94311 54969
L94302 54950
L94294 54940
L94277 54930
L94242 54930
L94225 54940
L94217 54950
L94208 54969
L94208 54978
L94217 54997
L94225 55007
L94242 55016
L94277 55016
L94294 55026
L94302 55035
L94311 55054
L94311 55092
L94302 55111
L94294 55121
L94277 55130
L94242 55130
L94225 55121
L94217 55111
L94208 55092
L94208 55054
L94217 55035
L94225 55026
L94242 55016
" />
<path d="M94551 55780
L94654 55780
" />
<path d="M94602 55780
L94602 55580
L94620 55609
L94637 55628
L94654 55638
" />
<path d="M94440 55580
L94422 55580
L94405 55590
L94397 55600
L94388 55619
L94380 55657
L94380 55704
L94388 55742
L94397 55761
L94405 55771
L94422 55780
L94440 55780
L94457 55771
L94465 55761
L94474 55742
L94482 55704
L94482 55657
L94474 55619
L94465 55600
L94457 55590
L94440 55580
" />
<path d="M94268 55580
L94251 55580
L94234 55590
L94225 55600
L94217 55619
L94208 55657
L94208 55704
L94217 55742
L94225 55761
L94234 55771
L94251 55780
L94268 55780
L94285 55771
L94294 55761
L94302 55742
L94311 55704
L94311 55657
L94302 55619
L94294 55600
L94285 55590
L94268 55580
" />
<path d="M94131 55647
L94131 55780
" />
<path d="M94131 55666
L94122 55657
L94105 55647
L94079 55647
L94062 55657
L94054 55676
L94054 55780
" />
<path d="M87180 59261
L87188 59271
L87214 59280
L87231 59280
L87257 59271
L87274 59252
L87282 59233
L87291 59195
L87291 59166
L87282 59128
L87274 59109
L87257 59090
L87231 59080
L87214 59080
L87188 59090
L87180 59100
" />
<path d="M87120 59080
L87000 59080
L87077 59280
" />
<path d="M87351 59930
L87454 59930
" />
<path d="M87402 59930
L87402 59730
L87420 59759
L87437 59778
L87454 59788
" />
<path d="M87240 59730
L87222 59730
L87205 59740
L87197 59750
L87188 59769
L87180 59807
L87180 59854
L87188 59892
L87197 59911
L87205 59921
L87222 59930
L87240 59930
L87257 59921
L87265 59911
L87274 59892
L87282 59854
L87282 59807
L87274 59769
L87265 59750
L87257 59740
L87240 59730
" />
<path d="M87068 59730
L87051 59730
L87034 59740
L87025 59750
L87017 59769
L87008 59807
L87008 59854
L87017 59892
L87025 59911
L87034 59921
L87051 59930
L87068 59930
L87085 59921
L87094 59911
L87102 59892
L87111 59854
L87111 59807
L87102 59769
L87094 59750
L87085 59740
L87068 59730
" />
<path d="M86931 59797
L86931 59930
" />
<path d="M86931 59816
L86922 59807
L86905 59797
L86879 59797
L86862 59807
L86854 59826
L86854 59930
" />
<path d="M85461 53270
L85471 53261
L85480 53235
L85480 53218
L85471 53192
L85452 53175
L85433 53167
L85395 53158
L85366 53158
L85328 53167
L85309 53175
L85290 53192
L85280 53218
L85280 53235
L85290 53261
L85300 53270
" />
<path d="M85480 53441
L85480 53338
" />
<path d="M85480 53390
L85280 53390
L85309 53372
L85328 53355
L85338 53338
" />
<path d="M84830 53098
L84830 52995
" />
<path d="M84830 53047
L84630 53047
L84659 53029
L84678 53012
L84688 52995
" />
<path d="M84630 53210
L84630 53227
L84640 53244
L84650 53252
L84669 53261
L84707 53270
L84754 53270
L84792 53261
L84811 53252
L84821 53244
L84830 53227
L84830 53210
L84821 53192
L84811 53184
L84792 53175
L84754 53167
L84707 53167
L84669 53175
L84650 53184
L84640 53192
L84630 53210
" />
<path d="M84630 53381
L84630 53398
L84640 53415
L84650 53424
L84669 53432
L84707 53441
L84754 53441
L84792 53432
L84811 53424
L84821 53415
L84830 53398
L84830 53381
L84821 53364
L84811 53355
L84792 53347
L84754 53338
L84707 53338
L84669 53347
L84650 53355
L84640 53364
L84630 53381
" />
<path d="M84697 53518
L84830 53518
" />
<path d="M84716 53518
L84707 53527
L84697 53544
L84697 53570
L84707 53587
L84726 53595
L84830 53595
" />
<path d="M89611 64384
L89621 64375
L89630 64350
L89630 64332
L89621 64307
L89602 64290
L89583 64281
L89545 64272
L89516 64272
L89478 64281
L89459 64290
L89440 64307
L89430 64332
L89430 64350
L89440 64375
L89450 64384
" />
<path d="M89630 64555
L89630 64452
" />
<path d="M89630 64504
L89430 64504
L89459 64487
L89478 64470
L89488 64452
" />
<path d="M89430 64667
L89430 64684
L89440 64701
L89450 64710
L89469 64718
L89507 64727
L89554 64727
L89592 64718
L89611 64710
L89621 64701
L89630 64684
L89630 64667
L89621 64650
L89611 64641
L89592 64632
L89554 64624
L89507 64624
L89469 64632
L89450 64641
L89440 64650
L89430 64667
" />
<path d="M88980 64298
L88980 64195
" />
<path d="M88980 64247
L88780 64247
L88809 64229
L88828 64212
L88838 64195
" />
<path d="M88780 64410
L88780 64427
L88790 64444
L88800 64452
L88819 64461
L88857 64470
L88904 64470
L88942 64461
L88961 64452
L88971 64444
L88980 64427
L88980 64410
L88971 64392
L88961 64384
L88942 64375
L88904 64367
L88857 64367
L88819 64375
L88800 64384
L88790 64392
L88780 64410
" />
<path d="M88780 64581
L88780 64598
L88790 64615
L88800 64624
L88819 64632
L88857 64641
L88904 64641
L88942 64632
L88961 64624
L88971 64615
L88980 64598
L88980 64581
L88971 64564
L88961 64555
L88942 64547
L88904 64538
L88857 64538
L88819 64547
L88800 64555
L88790 64564
L88780 64581
" />
<path d="M88847 64718
L88980 64718
" />
<path d="M88866 64718
L88857 64727
L88847 64744
L88847 64770
L88857 64787
L88876 64795
L88980 64795
" />
<path d="M85255 58504
L85315 58410
" />
<path d="M85357 58504
L85357 58307
L85289 58307
L85272 58317
L85263 58326
L85255 58345
L85255 58373
L85263 58392
L85272 58401
L85289 58410
L85357 58410
" />
<path d="M85092 58307
L85177 58307
L85186 58401
L85177 58392
L85160 58382
L85117 58382
L85100 58392
L85092 58401
L85083 58420
L85083 58467
L85092 58485
L85100 58495
L85117 58504
L85160 58504
L85177 58495
L85186 58485
" />
<path d="M85307 59199
L85410 59199
" />
<path d="M85358 59199
L85358 58999
L85375 59028
L85392 59047
L85410 59057
" />
<path d="M85238 59019
L85230 59009
L85212 58999
L85170 58999
L85152 59009
L85144 59019
L85135 59038
L85135 59057
L85144 59085
L85247 59199
L85135 59199
" />
<path d="M85058 59199
L85058 58999
" />
<path d="M85041 59123
L84989 59199
" />
<path d="M84989 59066
L85058 59142
" />
<path d="M87155 53354
L87215 53260
" />
<path d="M87257 53354
L87257 53157
L87189 53157
L87172 53167
L87163 53176
L87155 53195
L87155 53223
L87163 53242
L87172 53251
L87189 53260
L87257 53260
" />
<path d="M87000 53157
L87035 53157
L87052 53167
L87060 53176
L87077 53204
L87086 53242
L87086 53317
L87077 53335
L87069 53345
L87052 53354
L87017 53354
L87000 53345
L86992 53335
L86983 53317
L86983 53270
L86992 53251
L87000 53242
L87017 53232
L87052 53232
L87069 53242
L87077 53251
L87086 53270
" />
<path d="M87121 54049
L87224 54049
" />
<path d="M87172 54049
L87172 53849
L87190 53878
L87207 53897
L87224 53907
" />
<path d="M87044 54049
L87044 53849
" />
<path d="M87027 53973
L86975 54049
" />
<path d="M86975 53916
L87044 53992
" />
<path d="M90405 62504
L90465 62410
" />
<path d="M90507 62504
L90507 62307
L90439 62307
L90422 62317
L90413 62326
L90405 62345
L90405 62373
L90413 62392
L90422 62401
L90439 62410
L90507 62410
" />
<path d="M90250 62373
L90250 62504
" />
<path d="M90293 62298
L90336 62439
L90225 62439
" />
<path d="M90602 63019
L90594 63009
L90577 62999
L90534 62999
L90517 63009
L90508 63019
L90500 63038
L90500 63057
L90508 63085
L90611 63199
L90500 63199
" />
<path d="M90422 63180
L90414 63190
L90422 63199
L90431 63190
L90422 63180
L90422 63199
" />
<path d="M90345 63019
L90337 63009
L90320 62999
L90277 62999
L90260 63009
L90251 63019
L90242 63038
L90242 63057
L90251 63085
L90354 63199
L90242 63199
" />
<path d="M90165 63199
L90165 62999
" />
<path d="M90148 63123
L90097 63199
" />
<path d="M90097 63066
L90165 63142
" />
<path d="M90804 61045
L90710 60985
" />
<path d="M90804 60942
L90607 60942
L90607 61010
L90617 61027
L90626 61036
L90645 61045
L90673 61045
L90692 61036
L90701 61027
L90710 61010
L90710 60942
" />
<path d="M90607 61105
L90607 61216
L90682 61156
L90682 61182
L90692 61199
L90701 61207
L90720 61216
L90767 61216
L90785 61207
L90795 61199
L90804 61182
L90804 61130
L90795 61113
L90785 61105
" />
<path d="M91499 60992
L91499 60890
" />
<path d="M91499 60941
L91299 60941
L91328 60924
L91347 60907
L91357 60890
" />
<path d="M91299 61104
L91299 61121
L91309 61138
L91319 61147
L91338 61155
L91376 61164
L91423 61164
L91461 61155
L91480 61147
L91490 61138
L91499 61121
L91499 61104
L91490 61087
L91480 61078
L91461 61070
L91423 61061
L91376 61061
L91338 61070
L91319 61078
L91309 61087
L91299 61104
" />
<path d="M91499 61241
L91299 61241
" />
<path d="M91423 61258
L91499 61310
" />
<path d="M91366 61310
L91442 61241
" />
<path d="M88054 60245
L87960 60185
" />
<path d="M88054 60142
L87857 60142
L87857 60210
L87867 60227
L87876 60236
L87895 60245
L87923 60245
L87942 60236
L87951 60227
L87960 60210
L87960 60142
" />
<path d="M88054 60416
L88054 60313
" />
<path d="M88054 60365
L87857 60365
L87885 60347
L87904 60330
L87914 60313
" />
<path d="M87361 60142
L87361 60040
" />
<path d="M87361 60091
L87161 60091
L87190 60074
L87209 60057
L87219 60040
" />
<path d="M87161 60254
L87161 60271
L87171 60288
L87181 60297
L87200 60305
L87238 60314
L87285 60314
L87323 60305
L87342 60297
L87352 60288
L87361 60271
L87361 60254
L87352 60237
L87342 60228
L87323 60220
L87285 60211
L87238 60211
L87200 60220
L87181 60228
L87171 60237
L87161 60254
" />
<path d="M87361 60391
L87161 60391
" />
<path d="M87285 60408
L87361 60460
" />
<path d="M87228 60460
L87304 60391
" />
<path d="M87655 62504
L87715 62410
" />
<path d="M87757 62504
L87757 62307
L87689 62307
L87672 62317
L87663 62326
L87655 62345
L87655 62373
L87663 62392
L87672 62401
L87689 62410
L87757 62410
" />
<path d="M87586 62326
L87577 62317
L87560 62307
L87517 62307
L87500 62317
L87492 62326
L87483 62345
L87483 62364
L87492 62392
L87595 62504
L87483 62504
" />
<path d="M87707 63199
L87810 63199
" />
<path d="M87758 63199
L87758 62999
L87775 63028
L87792 63047
L87810 63057
" />
<path d="M87595 62999
L87578 62999
L87561 63009
L87552 63019
L87544 63038
L87535 63076
L87535 63123
L87544 63161
L87552 63180
L87561 63190
L87578 63199
L87595 63199
L87612 63190
L87621 63180
L87630 63161
L87638 63123
L87638 63076
L87630 63038
L87621 63019
L87612 63009
L87595 62999
" />
<path d="M87458 63199
L87458 62999
" />
<path d="M87441 63123
L87389 63199
" />
<path d="M87389 63066
L87458 63142
" />
</g>
<g style="fill:#000000; fill-opacity:0.0; 
stroke:#000000; stroke-width:59; stroke-opacity:1; 
stroke-linecap:round; stroke-linejoin:round;">
<path d="M96374 60225
L96613 60225
L96641 60239
L96655 60253
L96669 60281
L96669 60337
L96655 60365
L96641 60379
L96613 60393
L96374 60393
" />
<path d="M96472 60660
L96669 60660
" />
<path d="M96360 60590
L96571 60520
L96571 60702
" />
<path d="M95574 59628
L95574 59824
L95869 59698
" />
<path d="M95672 60063
L95869 60063
" />
<path d="M95560 59993
L95771 59923
L95771 60105
" />
<path d="M95869 60218
L95574 60218
" />
<path d="M95714 60218
L95714 60386
" />
<path d="M95869 60386
L95574 60386
" />
<path d="M95841 60695
L95855 60681
L95869 60639
L95869 60611
L95855 60569
L95827 60541
L95799 60527
L95742 60513
L95700 60513
L95644 60527
L95616 60541
L95588 60569
L95574 60611
L95574 60639
L95588 60681
L95602 60695
" />
<path d="M95574 60878
L95574 60906
L95588 60934
L95602 60948
L95630 60962
L95686 60976
L95757 60976
L95813 60962
L95841 60948
L95855 60934
L95869 60906
L95869 60878
L95855 60850
L95841 60836
L95813 60822
L95757 60808
L95686 60808
L95630 60822
L95602 60836
L95588 60850
L95574 60878
" />
<path d="M95602 61089
L95588 61103
L95574 61131
L95574 61201
L95588 61229
L95602 61243
L95630 61257
L95658 61257
L95700 61243
L95869 61075
L95869 61257
" />
<path d="M89224 62674
L89224 62913
L89210 62941
L89196 62955
L89168 62969
L89112 62969
L89084 62955
L89070 62941
L89056 62913
L89056 62674
" />
<path d="M88761 62969
L88929 62969
" />
<path d="M88845 62969
L88845 62674
L88873 62716
L88901 62744
L88929 62758
" />
<path d="M89625 62169
L89568 62169
L89540 62155
L89526 62141
L89498 62099
L89484 62042
L89484 61930
L89498 61902
L89512 61888
L89540 61874
L89597 61874
L89625 61888
L89639 61902
L89653 61930
L89653 62000
L89639 62028
L89625 62042
L89597 62057
L89540 62057
L89512 62042
L89498 62028
L89484 62000
" />
<path d="M89386 61874
L89203 61874
L89302 61986
L89259 61986
L89231 62000
L89217 62014
L89203 62042
L89203 62113
L89217 62141
L89231 62155
L89259 62169
L89344 62169
L89372 62155
L89386 62141
" />
<path d="M88908 62141
L88922 62155
L88964 62169
L88992 62169
L89035 62155
L89063 62127
L89077 62099
L89091 62042
L89091 62000
L89077 61944
L89063 61916
L89035 61888
L88992 61874
L88964 61874
L88922 61888
L88908 61902
" />
<path d="M88655 61972
L88655 62169
" />
<path d="M88726 61860
L88796 62071
L88613 62071
" />
<path d="M88374 61874
L88431 61874
L88459 61888
L88473 61902
L88501 61944
L88515 62000
L88515 62113
L88501 62141
L88487 62155
L88459 62169
L88402 62169
L88374 62155
L88360 62141
L88346 62113
L88346 62042
L88360 62014
L88374 62000
L88402 61986
L88459 61986
L88487 62000
L88501 62014
L88515 62042
" />
</g>
<g style="fill:#000000; fill-opacity:0.0; 
stroke:#000000; stroke-width:50; stroke-opacity:1; 
stroke-linecap:round; stroke-linejoin:round;">
<path d="M90142 56420
L90492 56420
L90534 56440
L90554 56461
L90575 56502
L90575 56585
L90554 56626
L90534 56646
L90492 56667
L90142 56667
" />
<path d="M90142 56832
L90142 57100
L90307 56956
L90307 57018
L90327 57059
L90348 57079
L90389 57100
L90492 57100
L90534 57079
L90554 57059
L90575 57018
L90575 56894
L90554 56853
L90534 56832
" />
</g>
<g style="fill:#000000; fill-opacity:0.0; 
stroke:#000000; stroke-width:60; stroke-opacity:1; 
stroke-linecap:round; stroke-linejoin:round;">
<path d="M89103 55345
L89103 55214
" />
<path d="M89309 55214
L88915 55214
L88915 55402
" />
<path d="M88915 55496
L88915 55721
" />
<path d="M89309 55608
L88915 55608
" />
<path d="M89046 56021
L89309 56021
" />
<path d="M88896 55927
L89178 55833
L89178 56077
" />
<path d="M88953 56209
L88934 56227
L88915 56265
L88915 56359
L88934 56396
L88953 56415
L88990 56434
L89028 56434
L89084 56415
L89309 56190
L89309 56434
" />
<path d="M88915 56565
L88915 56809
L89065 56678
L89065 56734
L89084 56771
L89103 56790
L89140 56809
L89234 56809
L89271 56790
L89290 56771
L89309 56734
L89309 56621
L89290 56584
L89271 56565
" />
<path d="M88953 56959
L88934 56978
L88915 57015
L88915 57109
L88934 57147
L88953 57165
L88990 57184
L89028 57184
L89084 57165
L89309 56940
L89309 57184
" />
<path d="M89159 57353
L89159 57653
" />
<path d="M89309 57841
L88915 57841
" />
<path d="M89103 57841
L89103 58066
" />
<path d="M89309 58066
L88915 58066
" />
<path d="M89309 58441
L89309 58254
L88915 58254
" />
</g>
<g style="fill:#000000; fill-opacity:0.0; 
stroke:#000000; stroke-width:120; stroke-opacity:1; 
stroke-linecap:round; stroke-linejoin:round;">
<path d="M79792 56307
L79192 56307
L79192 56535
L79221 56592
L79250 56621
L79307 56650
L79392 56650
L79450 56621
L79478 56592
L79507 56535
L79507 56307
" />
<path d="M79792 57221
L79792 56878
" />
<path d="M79792 57050
L79192 57050
L79278 56992
L79335 56935
L79364 56878
" />
<path d="M82235 55478
L82264 55450
L82292 55364
L82292 55307
L82264 55221
L82207 55164
L82150 55135
L82035 55107
L81950 55107
L81835 55135
L81778 55164
L81721 55221
L81692 55307
L81692 55364
L81721 55450
L81750 55478
" />
<path d="M81692 55850
L81692 55964
L81721 56021
L81778 56078
L81892 56107
L82092 56107
L82207 56078
L82264 56021
L82292 55964
L82292 55850
L82264 55792
L82207 55735
L82092 55707
L81892 55707
L81778 55735
L81721 55792
L81692 55850
" />
<path d="M82292 56364
L81692 56364
L82292 56707
L81692 56707
" />
<path d="M82292 56992
L81692 56992
L82292 57335
L81692 57335
" />
<path d="M82350 57478
L82350 57935
" />
<path d="M81892 58335
L82292 58335
" />
<path d="M81664 58192
L82092 58050
L82092 58421
" />
</g>
<g style="fill:#000000; fill-opacity:0.0; 
stroke:#000000; stroke-width:47; stroke-opacity:1; 
stroke-linecap:round; stroke-linejoin:round;">
<path d="M90029 19967
L90029 19873
L89832 19873
" />
<path d="M89851 20023
L89842 20032
L89832 20051
L89832 20098
L89842 20117
L89851 20126
L89870 20136
L89889 20136
L89917 20126
L90029 20014
L90029 20136
" />
</g>
<g style="fill:#000000; fill-opacity:0.0; 
stroke:#000000; stroke-width:45; stroke-opacity:1; 
stroke-linecap:round; stroke-linejoin:round;">
<path d="M85361 17420
L85371 17411
L85380 17385
L85380 17368
L85371 17342
L85352 17325
L85333 17317
L85295 17308
L85266 17308
L85228 17317
L85209 17325
L85190 17342
L85180 17368
L85180 17385
L85190 17411
L85200 17420
" />
<path d="M85180 17582
L85180 17497
L85276 17488
L85266 17497
L85257 17514
L85257 17557
L85266 17574
L85276 17582
L85295 17591
L85342 17591
L85361 17582
L85371 17574
L85380 17557
L85380 17514
L85371 17497
L85361 17488
" />
<path d="M84550 17231
L84540 17240
L84530 17257
L84530 17300
L84540 17317
L84550 17325
L84569 17334
L84588 17334
L84616 17325
L84730 17222
L84730 17334
" />
<path d="M84530 17394
L84530 17514
L84730 17437
" />
<path d="M84597 17582
L84797 17582
" />
<path d="M84607 17582
L84597 17600
L84597 17634
L84607 17651
L84616 17660
L84635 17668
L84692 17668
L84711 17660
L84721 17651
L84730 17634
L84730 17600
L84721 17582
" />
<path d="M87511 12620
L87521 12611
L87530 12585
L87530 12568
L87521 12542
L87502 12525
L87483 12517
L87445 12508
L87416 12508
L87378 12517
L87359 12525
L87340 12542
L87330 12568
L87330 12585
L87340 12611
L87350 12620
" />
<path d="M87350 12688
L87340 12697
L87330 12714
L87330 12757
L87340 12774
L87350 12782
L87369 12791
L87388 12791
L87416 12782
L87530 12680
L87530 12791
" />
<path d="M88000 12431
L87990 12440
L87980 12457
L87980 12500
L87990 12517
L88000 12525
L88019 12534
L88038 12534
L88066 12525
L88180 12422
L88180 12534
" />
<path d="M87980 12594
L87980 12714
L88180 12637
" />
<path d="M88047 12782
L88247 12782
" />
<path d="M88057 12782
L88047 12800
L88047 12834
L88057 12851
L88066 12860
L88085 12868
L88142 12868
L88161 12860
L88171 12851
L88180 12834
L88180 12800
L88171 12782
" />
</g>
<g style="fill:#000000; fill-opacity:0.0; 
stroke:#000000; stroke-width:47; stroke-opacity:1; 
stroke-linecap:round; stroke-linejoin:round;">
<path d="M90620 20283
L90630 20273
L90639 20245
L90639 20227
L90630 20198
L90611 20180
L90592 20170
L90555 20161
L90527 20161
L90489 20170
L90470 20180
L90452 20198
L90442 20227
L90442 20245
L90452 20273
L90461 20283
" />
<path d="M90639 20470
L90639 20358
" />
<path d="M90639 20414
L90442 20414
L90470 20395
L90489 20377
L90499 20358
" />
<path d="M90442 20536
L90442 20667
L90639 20583
" />
<path d="M91950 22563
L91960 22553
L91969 22525
L91969 22507
L91960 22478
L91941 22460
L91922 22450
L91885 22441
L91857 22441
L91819 22450
L91800 22460
L91782 22478
L91772 22507
L91772 22525
L91782 22553
L91791 22563
" />
<path d="M91969 22750
L91969 22638
" />
<path d="M91969 22694
L91772 22694
L91800 22675
L91819 22657
L91829 22638
" />
<path d="M91857 22863
L91847 22844
L91838 22835
L91819 22826
L91810 22826
L91791 22835
L91782 22844
L91772 22863
L91772 22901
L91782 22919
L91791 22929
L91810 22938
L91819 22938
L91838 22929
L91847 22919
L91857 22901
L91857 22863
L91866 22844
L91875 22835
L91894 22826
L91932 22826
L91950 22835
L91960 22844
L91969 22863
L91969 22901
L91960 22919
L91950 22929
L91932 22938
L91894 22938
L91875 22929
L91866 22919
L91857 22901
" />
</g>
<g style="fill:#000000; fill-opacity:0.0; 
stroke:#000000; stroke-width:45; stroke-opacity:1; 
stroke-linecap:round; stroke-linejoin:round;">
<path d="M90130 14013
L90190 13880
" />
<path d="M90232 14013
L90232 13733
L90164 13733
L90147 13746
L90138 13760
L90130 13786
L90130 13826
L90138 13853
L90147 13866
L90164 13880
L90232 13880
" />
<path d="M90070 13733
L89950 13733
L90027 14013
" />
<path d="M100763 15070
L100630 15010
" />
<path d="M100763 14967
L100483 14967
L100483 15035
L100496 15052
L100510 15061
L100536 15070
L100576 15070
L100603 15061
L100616 15052
L100630 15035
L100630 14967
" />
<path d="M100603 15172
L100590 15155
L100576 15147
L100550 15138
L100536 15138
L100510 15147
L100496 15155
L100483 15172
L100483 15207
L100496 15224
L100510 15232
L100536 15241
L100550 15241
L100576 15232
L100590 15224
L100603 15207
L100603 15172
L100616 15155
L100630 15147
L100656 15138
L100710 15138
L100736 15147
L100750 15155
L100763 15172
L100763 15207
L100750 15224
L100736 15232
L100710 15241
L100656 15241
L100630 15232
L100616 15224
L100603 15207
" />
<path d="M100763 19820
L100630 19760
" />
<path d="M100763 19717
L100483 19717
L100483 19785
L100496 19802
L100510 19811
L100536 19820
L100576 19820
L100603 19811
L100616 19802
L100630 19785
L100630 19717
" />
<path d="M100763 19905
L100763 19940
L100750 19957
L100736 19965
L100696 19982
L100643 19991
L100536 19991
L100510 19982
L100496 19974
L100483 19957
L100483 19922
L100496 19905
L100510 19897
L100536 19888
L100603 19888
L100630 19897
L100643 19905
L100656 19922
L100656 19957
L100643 19974
L100630 19982
L100603 19991
" />
<path d="M100663 24434
L100530 24374
" />
<path d="M100663 24331
L100383 24331
L100383 24400
L100396 24417
L100410 24425
L100436 24434
L100476 24434
L100503 24425
L100516 24417
L100530 24400
L100530 24331
" />
<path d="M100663 24605
L100663 24502
" />
<path d="M100663 24554
L100383 24554
L100423 24537
L100450 24520
L100463 24502
" />
<path d="M100383 24717
L100383 24734
L100396 24751
L100410 24760
L100436 24768
L100490 24777
L100556 24777
L100610 24768
L100636 24760
L100650 24751
L100663 24734
L100663 24717
L100650 24700
L100636 24691
L100610 24682
L100556 24674
L100490 24674
L100436 24682
L100410 24691
L100396 24700
L100383 24717
" />
<path d="M100763 29234
L100630 29174
" />
<path d="M100763 29131
L100483 29131
L100483 29200
L100496 29217
L100510 29225
L100536 29234
L100576 29234
L100603 29225
L100616 29217
L100630 29200
L100630 29131
" />
<path d="M100763 29405
L100763 29302
" />
<path d="M100763 29354
L100483 29354
L100523 29337
L100550 29320
L100563 29302
" />
<path d="M100763 29577
L100763 29474
" />
<path d="M100763 29525
L100483 29525
L100523 29508
L100550 29491
L100563 29474
" />
<path d="M98315 20361
L98324 20371
L98350 20380
L98367 20380
L98392 20371
L98410 20352
L98418 20333
L98427 20295
L98427 20266
L98418 20228
L98410 20209
L98392 20190
L98367 20180
L98350 20180
L98324 20190
L98315 20200
" />
<path d="M98144 20380
L98247 20380
" />
<path d="M98195 20380
L98195 20180
L98212 20209
L98230 20228
L98247 20238
" />
<path d="M97981 20180
L98067 20180
L98075 20276
L98067 20266
L98050 20257
L98007 20257
L97990 20266
L97981 20276
L97972 20295
L97972 20342
L97981 20361
L97990 20371
L98007 20380
L98050 20380
L98067 20371
L98075 20361
" />
<path d="M89865 28911
L89874 28921
L89900 28930
L89917 28930
L89942 28921
L89960 28902
L89968 28883
L89977 28845
L89977 28816
L89968 28778
L89960 28759
L89942 28740
L89917 28730
L89900 28730
L89874 28740
L89865 28750
" />
<path d="M89694 28930
L89797 28930
" />
<path d="M89745 28930
L89745 28730
L89762 28759
L89780 28778
L89797 28788
" />
<path d="M89540 28730
L89574 28730
L89591 28740
L89600 28750
L89617 28778
L89625 28816
L89625 28892
L89617 28911
L89608 28921
L89591 28930
L89557 28930
L89540 28921
L89531 28911
L89522 28892
L89522 28845
L89531 28826
L89540 28816
L89557 28807
L89591 28807
L89608 28816
L89617 28826
L89625 28845
" />
</g>
<g style="fill:#000000; fill-opacity:0.0; 
stroke:#000000; stroke-width:50; stroke-opacity:1; 
stroke-linecap:round; stroke-linejoin:round;">
<path d="M88897 14380
L88897 14180
L88850 14180
L88821 14190
L88802 14209
L88792 14228
L88783 14266
L88783 14295
L88792 14333
L88802 14352
L88821 14371
L88850 14380
L88897 14380
" />
<path d="M88592 14380
L88707 14380
" />
<path d="M88650 14380
L88650 14180
L88669 14209
L88688 14228
L88707 14238
" />
<path d="M88878 13580
L88973 13580
L88973 13380
" />
<path d="M88811 13476
L88745 13476
" />
<path d="M88716 13580
L88811 13580
L88811 13380
L88716 13380
" />
<path d="M88630 13580
L88630 13380
L88583 13380
L88554 13390
L88535 13409
L88526 13428
L88516 13466
L88516 13495
L88526 13533
L88535 13552
L88554 13571
L88583 13580
L88630 13580
" />
<path d="M100330 12752
L100130 12752
L100130 12800
L100140 12828
L100159 12847
L100178 12857
L100216 12866
L100245 12866
L100283 12857
L100302 12847
L100321 12828
L100330 12800
L100330 12752
" />
<path d="M100150 12942
L100140 12952
L100130 12971
L100130 13019
L100140 13038
L100150 13047
L100169 13057
L100188 13057
L100216 13047
L100330 12933
L100330 13057
" />
<path d="M100930 12566
L101130 12633
L100930 12700
" />
<path d="M101026 12766
L101026 12833
" />
<path d="M101130 12861
L101130 12766
L100930 12766
L100930 12861
" />
<path d="M101130 13061
L101035 12995
" />
<path d="M101130 12947
L100930 12947
L100930 13023
L100940 13042
L100950 13052
L100969 13061
L100997 13061
L101016 13052
L101026 13042
L101035 13023
L101035 12947
" />
<path d="M100930 13119
L100930 13233
" />
<path d="M101130 13176
L100930 13176
" />
<path d="M100330 17652
L100130 17652
L100130 17700
L100140 17728
L100159 17747
L100178 17757
L100216 17766
L100245 17766
L100283 17757
L100302 17747
L100321 17728
L100330 17700
L100330 17652
" />
<path d="M100130 17833
L100130 17957
L100207 17890
L100207 17919
L100216 17938
L100226 17947
L100245 17957
L100292 17957
L100311 17947
L100321 17938
L100330 17919
L100330 17861
L100321 17842
L100311 17833
" />
<path d="M100930 17466
L101130 17533
L100930 17600
" />
<path d="M101026 17666
L101026 17733
" />
<path d="M101130 17761
L101130 17666
L100930 17666
L100930 17761
" />
<path d="M101130 17961
L101035 17895
" />
<path d="M101130 17847
L100930 17847
L100930 17923
L100940 17942
L100950 17952
L100969 17961
L100997 17961
L101016 17952
L101026 17942
L101035 17923
L101035 17847
" />
<path d="M100930 18019
L100930 18133
" />
<path d="M101130 18076
L100930 18076
" />
<path d="M100330 22302
L100130 22302
L100130 22350
L100140 22378
L100159 22397
L100178 22407
L100216 22416
L100245 22416
L100283 22407
L100302 22397
L100321 22378
L100330 22350
L100330 22302
" />
<path d="M100197 22588
L100330 22588
" />
<path d="M100121 22540
L100264 22492
L100264 22616
" />
<path d="M100930 22116
L101130 22183
L100930 22250
" />
<path d="M101026 22316
L101026 22383
" />
<path d="M101130 22411
L101130 22316
L100930 22316
L100930 22411
" />
<path d="M101130 22611
L101035 22545
" />
<path d="M101130 22497
L100930 22497
L100930 22573
L100940 22592
L100950 22602
L100969 22611
L100997 22611
L101016 22602
L101026 22592
L101035 22573
L101035 22497
" />
<path d="M100930 22669
L100930 22783
" />
<path d="M101130 22726
L100930 22726
" />
<path d="M100330 26902
L100130 26902
L100130 26950
L100140 26978
L100159 26997
L100178 27007
L100216 27016
L100245 27016
L100283 27007
L100302 26997
L100321 26978
L100330 26950
L100330 26902
" />
<path d="M100130 27197
L100130 27102
L100226 27092
L100216 27102
L100207 27121
L100207 27169
L100216 27188
L100226 27197
L100245 27207
L100292 27207
L100311 27197
L100321 27188
L100330 27169
L100330 27121
L100321 27102
L100311 27092
" />
<path d="M100930 26716
L101130 26783
L100930 26850
" />
<path d="M101026 26916
L101026 26983
" />
<path d="M101130 27011
L101130 26916
L100930 26916
L100930 27011
" />
<path d="M101130 27211
L101035 27145
" />
<path d="M101130 27097
L100930 27097
L100930 27173
L100940 27192
L100950 27202
L100969 27211
L100997 27211
L101016 27202
L101026 27192
L101035 27173
L101035 27097
" />
<path d="M100930 27269
L100930 27383
" />
<path d="M101130 27326
L100930 27326
" />
</g>
<g style="fill:#000000; fill-opacity:0.0; 
stroke:#000000; stroke-width:47; stroke-opacity:1; 
stroke-linecap:round; stroke-linejoin:round;">
<path d="M87479 23017
L87479 22923
L87282 22923
" />
<path d="M87479 23186
L87479 23073
" />
<path d="M87479 23129
L87282 23129
L87310 23110
L87329 23092
L87339 23073
" />
</g>
<g style="fill:#000000; fill-opacity:0.0; 
stroke:#000000; stroke-width:50; stroke-opacity:1; 
stroke-linecap:round; stroke-linejoin:round;">
<path d="M92050 62500
L92050 61700
" />
<path d="M93350 62500
L93350 61700
" />
<path d="M91800 62500
L91800 61700
" />
<path d="M91800 61700
L93600 61700
" />
<path d="M93600 61700
L93600 62500
" />
<path d="M93600 62500
L91800 62500
" />
</g>
<g style="fill:#000000; fill-opacity:0.0; 
stroke:#000000; stroke-width:125; stroke-opacity:1; 
stroke-linecap:round; stroke-linejoin:round;">
<path d="M86600 61600
L86600 64100
" />
<path d="M84600 61600
L84600 64100
" />
<path d="M84600 64100 A1000 1000 0.0 0 0 85600 65100 " />
<path d="M85600 65100 A1000 1000 0.0 0 0 86600 64100 " />
<path d="M85600 60600 A1000 1000 0.0 0 0 84600 61600 " />
<path d="M86600 61600 A1000 1000 0.0 0 0 85600 60600 " />
</g>
<g style="fill:#000000; fill-opacity:0.0; 
stroke:#000000; stroke-width:200; stroke-opacity:1; 
stroke-linecap:round; stroke-linejoin:round;">
<path d="M101850 51100
L106650 51100
" />
<path d="M106050 50100
L106650 50100
" />
<path d="M106450 48100
L106650 48100
" />
<path d="M101850 48100
L106450 48100
" />
<path d="M101850 49100
L106650 49100
" />
<path d="M101850 50100
L106050 50100
" />
</g>
<g style="fill:#000000; fill-opacity:0.0; 
stroke:#000000; stroke-width:150; stroke-opacity:1; 
stroke-linecap:round; stroke-linejoin:round;">
<path d="M102450 51100
L106050 51100
" />
<path d="M101850 51100
L102250 51100
" />
<path d="M102250 47500
L102250 47900
" />
<path d="M103450 47500
L103450 47900
" />
<path d="M102250 47500
L107050 47500
" />
<path d="M102250 51700
L107050 51700
" />
<path d="M107050 51700
L107050 47700
" />
<path d="M107050 47700
L107050 47500
" />
<path d="M103450 51600
L103450 47650
" />
<path d="M102250 47650
L102250 51600
" />
</g>
<g style="fill:#000000; fill-opacity:0.0; 
stroke:#000000; stroke-width:200; stroke-opacity:1; 
stroke-linecap:round; stroke-linejoin:round;">
<path d="M101850 55700
L106650 55700
" />
<path d="M106050 54700
L106650 54700
" />
<path d="M106450 52700
L106650 52700
" />
<path d="M101850 52700
L106450 52700
" />
<path d="M101850 53700
L106650 53700
" />
<path d="M101850 54700
L106050 54700
" />
</g>
<g style="fill:#000000; fill-opacity:0.0; 
stroke:#000000; stroke-width:150; stroke-opacity:1; 
stroke-linecap:round; stroke-linejoin:round;">
<path d="M102450 55700
L106050 55700
" />
<path d="M101850 55700
L102250 55700
" />
<path d="M102250 52100
L102250 52500
" />
<path d="M103450 52100
L103450 52500
" />
<path d="M102250 52100
L107050 52100
" />
<path d="M102250 56300
L107050 56300
" />
<path d="M107050 56300
L107050 52300
" />
<path d="M107050 52300
L107050 52100
" />
<path d="M103450 56200
L103450 52250
" />
<path d="M102250 52250
L102250 56200
" />
</g>
<g style="fill:#000000; fill-opacity:0.0; 
stroke:#000000; stroke-width:200; stroke-opacity:1; 
stroke-linecap:round; stroke-linejoin:round;">
<path d="M101850 60350
L106650 60350
" />
<path d="M106050 59350
L106650 59350
" />
<path d="M106450 57350
L106650 57350
" />
<path d="M101850 57350
L106450 57350
" />
<path d="M101850 58350
L106650 58350
" />
<path d="M101850 59350
L106050 59350
" />
</g>
<g style="fill:#000000; fill-opacity:0.0; 
stroke:#000000; stroke-width:150; stroke-opacity:1; 
stroke-linecap:round; stroke-linejoin:round;">
<path d="M102450 60350
L106050 60350
" />
<path d="M101850 60350
L102250 60350
" />
<path d="M102250 56750
L102250 57150
" />
<path d="M103450 56750
L103450 57150
" />
<path d="M102250 56750
L107050 56750
" />
<path d="M102250 60950
L107050 60950
" />
<path d="M107050 60950
L107050 56950
" />
<path d="M107050 56950
L107050 56750
" />
<path d="M103450 60850
L103450 56900
" />
<path d="M102250 56900
L102250 60850
" />
</g>
<g style="fill:#000000; fill-opacity:0.0; 
stroke:#000000; stroke-width:200; stroke-opacity:1; 
stroke-linecap:round; stroke-linejoin:round;">
<path d="M101850 64950
L106650 64950
" />
<path d="M106050 63950
L106650 63950
" />
<path d="M106450 61950
L106650 61950
" />
<path d="M101850 61950
L106450 61950
" />
<path d="M101850 62950
L106650 62950
" />
<path d="M101850 63950
L106050 63950
" />
</g>
<g style="fill:#000000; fill-opacity:0.0; 
stroke:#000000; stroke-width:150; stroke-opacity:1; 
stroke-linecap:round; stroke-linejoin:round;">
<path d="M102450 64950
L106050 64950
" />
<path d="M101850 64950
L102250 64950
" />
<path d="M102250 61350
L102250 61750
" />
<path d="M103450 61350
L103450 61750
" />
<path d="M102250 61350
L107050 61350
" />
<path d="M102250 65550
L107050 65550
" />
<path d="M107050 65550
L107050 61550
" />
<path d="M107050 61550
L107050 61350
" />
<path d="M103450 65450
L103450 61500
" />
<path d="M102250 61500
L102250 65450
" />
</g>
<g style="fill:#000000; fill-opacity:0.0; 
stroke:#000000; stroke-width:60; stroke-opacity:1; 
stroke-linecap:round; stroke-linejoin:round;">
<path d="M98350 57550
L98350 54050
" />
<path d="M98350 54050
L96950 54050
" />
<path d="M96950 54050
L96950 57550
" />
<path d="M96950 57550
L98350 57550
" />
</g>
<g style="fill:#000000; fill-opacity:0.0; 
stroke:#000000; stroke-width:50; stroke-opacity:1; 
stroke-linecap:round; stroke-linejoin:round;">
<circle cx="97150" cy="57350" r="141.421" /> 
<path d="M97900 57550
L97900 57250
" />
<path d="M97900 57250
L97400 57250
" />
<path d="M97400 57250
L97400 57550
" />
</g>
<g style="fill:#000000; fill-opacity:0.0; 
stroke:#000000; stroke-width:60; stroke-opacity:1; 
stroke-linecap:round; stroke-linejoin:round;">
<path d="M92650 49150
L89150 49150
" />
<path d="M89150 49150
L89150 50550
" />
<path d="M89150 50550
L92650 50550
" />
<path d="M92650 50550
L92650 49150
" />
</g>
<g style="fill:#000000; fill-opacity:0.0; 
stroke:#000000; stroke-width:50; stroke-opacity:1; 
stroke-linecap:round; stroke-linejoin:round;">
<circle cx="92450" cy="50350" r="141.421" /> 
<path d="M92650 49600
L92350 49600
" />
<path d="M92350 49600
L92350 50100
" />
<path d="M92350 50100
L92650 50100
" />
</g>
<g style="fill:#000000; fill-opacity:0.0; 
stroke:#000000; stroke-width:150; stroke-opacity:1; 
stroke-linecap:round; stroke-linejoin:round;">
<path d="M86350 48550
L86350 51050
" />
<path d="M86350 51050
L83850 51050
" />
<path d="M83850 51050
L83850 48550
" />
<path d="M86350 48550
L83850 48550
" />
</g>
<g style="fill:#000000; fill-opacity:0.0; 
stroke:#000000; stroke-width:47; stroke-opacity:1; 
stroke-linecap:round; stroke-linejoin:round;">
<path d="M91853 63456
L91578 63456
" />
<path d="M92247 63456
L92522 63456
" />
<path d="M91853 62944
L91578 62944
" />
<path d="M92522 62944
L92247 62944
" />
<path d="M91578 62950
L91578 63450
" />
<path d="M92522 63450
L92522 62950
" />
<path d="M84994 54053
L84994 53778
" />
<path d="M84994 54447
L84994 54722
" />
<path d="M85506 54053
L85506 53778
" />
<path d="M85506 54722
L85506 54447
" />
<path d="M85500 53778
L85000 53778
" />
<path d="M85000 54722
L85500 54722
" />
<path d="M89447 53094
L89722 53094
" />
<path d="M89053 53094
L88778 53094
" />
<path d="M89447 53606
L89722 53606
" />
<path d="M88778 53606
L89053 53606
" />
<path d="M89722 53600
L89722 53100
" />
<path d="M88778 53100
L88778 53600
" />
<path d="M93394 50553
L93394 50278
" />
<path d="M93394 50947
L93394 51222
" />
<path d="M93906 50553
L93906 50278
" />
<path d="M93906 51222
L93906 50947
" />
<path d="M93900 50278
L93400 50278
" />
<path d="M93400 51222
L93900 51222
" />
<path d="M96447 57994
L96722 57994
" />
<path d="M96053 57994
L95778 57994
" />
<path d="M96447 58506
L96722 58506
" />
<path d="M95778 58506
L96053 58506
" />
<path d="M96722 58500
L96722 58000
" />
<path d="M95778 58000
L95778 58500
" />
<path d="M91903 60656
L91628 60656
" />
<path d="M92297 60656
L92572 60656
" />
<path d="M91903 60144
L91628 60144
" />
<path d="M92572 60144
L92297 60144
" />
<path d="M91628 60150
L91628 60650
" />
<path d="M92572 60650
L92572 60150
" />
<path d="M95853 63006
L95578 63006
" />
<path d="M96247 63006
L96522 63006
" />
<path d="M95853 62494
L95578 62494
" />
<path d="M96522 62494
L96247 62494
" />
<path d="M95578 62500
L95578 63000
" />
<path d="M96522 63000
L96522 62500
" />
<path d="M94094 54853
L94094 54578
" />
<path d="M94094 55247
L94094 55522
" />
<path d="M94606 54853
L94606 54578
" />
<path d="M94606 55522
L94606 55247
" />
<path d="M94600 54578
L94100 54578
" />
<path d="M94100 55522
L94600 55522
" />
<path d="M86894 59003
L86894 58728
" />
<path d="M86894 59397
L86894 59672
" />
<path d="M87406 59003
L87406 58728
" />
<path d="M87406 59672
L87406 59397
" />
<path d="M87400 58728
L86900 58728
" />
<path d="M86900 59672
L87400 59672
" />
<path d="M85597 53044
L85872 53044
" />
<path d="M85203 53044
L84928 53044
" />
<path d="M85597 53556
L85872 53556
" />
<path d="M84928 53556
L85203 53556
" />
<path d="M85872 53550
L85872 53050
" />
<path d="M84928 53050
L84928 53550
" />
<path d="M89747 64244
L90022 64244
" />
<path d="M89353 64244
L89078 64244
" />
<path d="M89747 64756
L90022 64756
" />
<path d="M89078 64756
L89353 64756
" />
<path d="M90022 64750
L90022 64250
" />
<path d="M89078 64250
L89078 64750
" />
</g>
<g style="fill:#000000; fill-opacity:0.0; 
stroke:#000000; stroke-width:50; stroke-opacity:1; 
stroke-linecap:round; stroke-linejoin:round;">
<path d="M85475 58647
L85475 58925
" />
<path d="M85475 58925
L84925 58925
" />
<path d="M84925 58925
L84925 58647
" />
<path d="M85475 57975
L85475 58253
" />
<path d="M85475 57975
L84925 57975
" />
<path d="M84925 57975
L84925 58253
" />
<path d="M87375 53497
L87375 53775
" />
<path d="M87375 53775
L86825 53775
" />
<path d="M86825 53775
L86825 53497
" />
<path d="M87375 52825
L87375 53103
" />
<path d="M87375 52825
L86825 52825
" />
<path d="M86825 52825
L86825 53103
" />
<path d="M90625 62647
L90625 62925
" />
<path d="M90625 62925
L90075 62925
" />
<path d="M90075 62925
L90075 62647
" />
<path d="M90625 61975
L90625 62253
" />
<path d="M90625 61975
L90075 61975
" />
<path d="M90075 61975
L90075 62253
" />
<path d="M90947 60825
L91225 60825
" />
<path d="M91225 60825
L91225 61375
" />
<path d="M91225 61375
L90947 61375
" />
<path d="M90275 60825
L90553 60825
" />
<path d="M90275 60825
L90275 61375
" />
<path d="M90275 61375
L90553 61375
" />
<path d="M87753 60525
L87475 60525
" />
<path d="M87475 60525
L87475 59975
" />
<path d="M87475 59975
L87753 59975
" />
<path d="M88425 60525
L88147 60525
" />
<path d="M88425 60525
L88425 59975
" />
<path d="M88425 59975
L88147 59975
" />
<path d="M87875 62647
L87875 62925
" />
<path d="M87875 62925
L87325 62925
" />
<path d="M87325 62925
L87325 62647
" />
<path d="M87875 61975
L87875 62253
" />
<path d="M87875 61975
L87325 61975
" />
<path d="M87325 61975
L87325 62253
" />
<path d="M96930 62150
L95370 62150
" />
<path d="M95370 62150
L95370 58750
" />
<path d="M95370 58750
L96930 58750
" />
<path d="M96930 58750
L96930 62150
" />
<path d="M96930 61450
L97360 61450
" />
<path d="M96930 60950
L97360 60950
" />
<path d="M96930 60450
L97360 60450
" />
<path d="M96930 61950
L97360 61950
" />
<path d="M97360 59950
L96930 59950
" />
<path d="M97360 59450
L96930 59450
" />
<path d="M97360 58950
L96930 58950
" />
<path d="M95370 58950
L94940 58950
" />
<path d="M95370 59450
L94940 59450
" />
<path d="M95370 61950
L94940 61950
" />
<path d="M94940 61450
L95370 61450
" />
<path d="M94940 59950
L95370 59950
" />
<path d="M94940 60450
L95370 60450
" />
<path d="M94940 60950
L95370 60950
" />
<circle cx="95660" cy="61860" r="186.011" /> 
<path d="M88050 63230
L88050 61670
" />
<path d="M88050 61670
L89950 61670
" />
<path d="M89950 61670
L89950 63230
" />
<path d="M89950 63230
L88050 63230
" />
<path d="M88250 63230
L88250 63660
" />
<path d="M88750 63230
L88750 63660
" />
<path d="M89250 63230
L89250 63660
" />
<path d="M89750 63660
L89750 63230
" />
<path d="M89750 61670
L89750 61240
" />
<path d="M89250 61240
L89250 61670
" />
<path d="M88750 61240
L88750 61670
" />
<path d="M88250 61240
L88250 61670
" />
<circle cx="88340" cy="61960" r="186.011" /> 
</g>
<g style="fill:#000000; fill-opacity:0.0; 
stroke:#000000; stroke-width:80; stroke-opacity:1; 
stroke-linecap:round; stroke-linejoin:round;">
<circle cx="88232" cy="58368" r="150" /> 
<path d="M91832 54768
L91832 58768
" />
<path d="M91832 58768
L88082 58768
" />
<path d="M88082 58768
L87832 58518
" />
<path d="M87832 58518
L87832 54768
" />
<path d="M87832 54768
L91832 54768
" />
</g>
<g style="fill:#000000; fill-opacity:0.0; 
stroke:#000000; stroke-width:50; stroke-opacity:1; 
stroke-linecap:round; stroke-linejoin:round;">
<path d="M78000 59150
L78000 54350
" />
<path d="M78000 54350
L84700 54350
" />
<path d="M84700 54350
L84700 59150
" />
<path d="M84700 59150
L78000 59150
" />
<path d="M89650 19150
L87650 19150
" />
<path d="M89650 20850
L87650 20850
" />
<path d="M89650 21100
L89650 18900
" />
<path d="M89650 18900
L87650 18900
" />
<path d="M87650 18900
L87650 21100
" />
<path d="M87650 21100
L89650 21100
" />
</g>
<g style="fill:#000000; fill-opacity:0.0; 
stroke:#000000; stroke-width:47; stroke-opacity:1; 
stroke-linecap:round; stroke-linejoin:round;">
<path d="M85497 17194
L85772 17194
" />
<path d="M85103 17194
L84828 17194
" />
<path d="M85497 17706
L85772 17706
" />
<path d="M84828 17706
L85103 17706
" />
<path d="M85772 17700
L85772 17200
" />
<path d="M84828 17200
L84828 17700
" />
<path d="M87253 12906
L86978 12906
" />
<path d="M87647 12906
L87922 12906
" />
<path d="M87253 12394
L86978 12394
" />
<path d="M87922 12394
L87647 12394
" />
<path d="M86978 12400
L86978 12900
" />
<path d="M87922 12900
L87922 12400
" />
</g>
<g style="fill:#000000; fill-opacity:0.0; 
stroke:#000000; stroke-width:50; stroke-opacity:1; 
stroke-linecap:round; stroke-linejoin:round;">
<path d="M90760 19770
L91740 19770
" />
<path d="M91740 21030
L90760 21030
" />
<path d="M90760 20850
L91740 20850
" />
<path d="M91740 19950
L90760 19950
" />
<path d="M91740 19770
L91740 21030
" />
<path d="M90760 21030
L90760 19770
" />
<path d="M91690 23330
L90710 23330
" />
<path d="M90710 22070
L91690 22070
" />
<path d="M91690 22250
L90710 22250
" />
<path d="M90710 23150
L91690 23150
" />
<path d="M90710 23330
L90710 22070
" />
<path d="M91690 22070
L91690 23330
" />
<path d="M89650 14150
L90550 14150
" />
<path d="M90550 14150
L90550 13650
" />
<path d="M90550 13650
L89650 13650
" />
<path d="M89650 13650
L89650 14150
" />
<path d="M100400 14650
L100400 15550
" />
<path d="M100400 15550
L100900 15550
" />
<path d="M100900 15550
L100900 14650
" />
<path d="M100900 14650
L100400 14650
" />
<path d="M100400 19400
L100400 20300
" />
<path d="M100400 20300
L100900 20300
" />
<path d="M100900 20300
L100900 19400
" />
<path d="M100900 19400
L100400 19400
" />
<path d="M100300 24100
L100300 25000
" />
<path d="M100300 25000
L100800 25000
" />
<path d="M100800 25000
L100800 24100
" />
<path d="M100800 24100
L100300 24100
" />
<path d="M100400 28900
L100400 29800
" />
<path d="M100400 29800
L100900 29800
" />
<path d="M100900 29800
L100900 28900
" />
<path d="M100900 28900
L100400 28900
" />
<path d="M98650 20050
L97750 20050
" />
<path d="M97750 20050
L97750 20550
" />
<path d="M97750 20550
L98650 20550
" />
<path d="M98650 20550
L98650 20050
" />
<path d="M90200 28600
L89300 28600
" />
<path d="M89300 28600
L89300 29100
" />
<path d="M89300 29100
L90200 29100
" />
<path d="M90200 29100
L90200 28600
" />
</g>
<g style="fill:#000000; fill-opacity:0.0; 
stroke:#000000; stroke-width:26; stroke-opacity:1; 
stroke-linecap:round; stroke-linejoin:round;">
<path d="M88927 14077
L88927 13723
" />
<path d="M88927 13723
L89084 13723
" />
<path d="M89084 14077
L89084 13723
" />
<path d="M88927 14077
L89084 14077
" />
<path d="M88416 14077
L88416 13723
" />
<path d="M88416 13723
L88573 13723
" />
<path d="M88573 14077
L88573 13723
" />
<path d="M88416 14077
L88573 14077
" />
<path d="M88750 14077
L88750 14018
" />
<path d="M88750 14018
L88868 14018
" />
<path d="M88868 14077
L88868 14018
" />
<path d="M88750 14077
L88868 14077
" />
<path d="M88750 13782
L88750 13723
" />
<path d="M88750 13723
L88868 13723
" />
<path d="M88868 13782
L88868 13723
" />
<path d="M88750 13782
L88868 13782
" />
<path d="M88750 13959
L88750 13841
" />
<path d="M88750 13841
L88868 13841
" />
<path d="M88868 13959
L88868 13841
" />
<path d="M88750 13959
L88868 13959
" />
</g>
<g style="fill:#000000; fill-opacity:0.0; 
stroke:#000000; stroke-width:40; stroke-opacity:1; 
stroke-linecap:round; stroke-linejoin:round;">
<path d="M88927 14057
L88573 14057
" />
<path d="M88927 13743
L88573 13743
" />
</g>
<g style="fill:#000000; fill-opacity:0.0; 
stroke:#000000; stroke-width:26; stroke-opacity:1; 
stroke-linecap:round; stroke-linejoin:round;">
<path d="M100473 13077
L100827 13077
" />
<path d="M100827 13077
L100827 13234
" />
<path d="M100473 13234
L100827 13234
" />
<path d="M100473 13077
L100473 13234
" />
<path d="M100473 12566
L100827 12566
" />
<path d="M100827 12566
L100827 12723
" />
<path d="M100473 12723
L100827 12723
" />
<path d="M100473 12566
L100473 12723
" />
<path d="M100473 12900
L100532 12900
" />
<path d="M100532 12900
L100532 13018
" />
<path d="M100473 13018
L100532 13018
" />
<path d="M100473 12900
L100473 13018
" />
<path d="M100768 12900
L100827 12900
" />
<path d="M100827 12900
L100827 13018
" />
<path d="M100768 13018
L100827 13018
" />
<path d="M100768 12900
L100768 13018
" />
<path d="M100591 12900
L100709 12900
" />
<path d="M100709 12900
L100709 13018
" />
<path d="M100591 13018
L100709 13018
" />
<path d="M100591 12900
L100591 13018
" />
</g>
<g style="fill:#000000; fill-opacity:0.0; 
stroke:#000000; stroke-width:40; stroke-opacity:1; 
stroke-linecap:round; stroke-linejoin:round;">
<path d="M100493 13077
L100493 12723
" />
<path d="M100807 13077
L100807 12723
" />
</g>
<g style="fill:#000000; fill-opacity:0.0; 
stroke:#000000; stroke-width:26; stroke-opacity:1; 
stroke-linecap:round; stroke-linejoin:round;">
<path d="M100473 17977
L100827 17977
" />
<path d="M100827 17977
L100827 18134
" />
<path d="M100473 18134
L100827 18134
" />
<path d="M100473 17977
L100473 18134
" />
<path d="M100473 17466
L100827 17466
" />
<path d="M100827 17466
L100827 17623
" />
<path d="M100473 17623
L100827 17623
" />
<path d="M100473 17466
L100473 17623
" />
<path d="M100473 17800
L100532 17800
" />
<path d="M100532 17800
L100532 17918
" />
<path d="M100473 17918
L100532 17918
" />
<path d="M100473 17800
L100473 17918
" />
<path d="M100768 17800
L100827 17800
" />
<path d="M100827 17800
L100827 17918
" />
<path d="M100768 17918
L100827 17918
" />
<path d="M100768 17800
L100768 17918
" />
<path d="M100591 17800
L100709 17800
" />
<path d="M100709 17800
L100709 17918
" />
<path d="M100591 17918
L100709 17918
" />
<path d="M100591 17800
L100591 17918
" />
</g>
<g style="fill:#000000; fill-opacity:0.0; 
stroke:#000000; stroke-width:40; stroke-opacity:1; 
stroke-linecap:round; stroke-linejoin:round;">
<path d="M100493 17977
L100493 17623
" />
<path d="M100807 17977
L100807 17623
" />
</g>
<g style="fill:#000000; fill-opacity:0.0; 
stroke:#000000; stroke-width:26; stroke-opacity:1; 
stroke-linecap:round; stroke-linejoin:round;">
<path d="M100473 22627
L100827 22627
" />
<path d="M100827 22627
L100827 22784
" />
<path d="M100473 22784
L100827 22784
" />
<path d="M100473 22627
L100473 22784
" />
<path d="M100473 22116
L100827 22116
" />
<path d="M100827 22116
L100827 22273
" />
<path d="M100473 22273
L100827 22273
" />
<path d="M100473 22116
L100473 22273
" />
<path d="M100473 22450
L100532 22450
" />
<path d="M100532 22450
L100532 22568
" />
<path d="M100473 22568
L100532 22568
" />
<path d="M100473 22450
L100473 22568
" />
<path d="M100768 22450
L100827 22450
" />
<path d="M100827 22450
L100827 22568
" />
<path d="M100768 22568
L100827 22568
" />
<path d="M100768 22450
L100768 22568
" />
<path d="M100591 22450
L100709 22450
" />
<path d="M100709 22450
L100709 22568
" />
<path d="M100591 22568
L100709 22568
" />
<path d="M100591 22450
L100591 22568
" />
</g>
<g style="fill:#000000; fill-opacity:0.0; 
stroke:#000000; stroke-width:40; stroke-opacity:1; 
stroke-linecap:round; stroke-linejoin:round;">
<path d="M100493 22627
L100493 22273
" />
<path d="M100807 22627
L100807 22273
" />
</g>
<g style="fill:#000000; fill-opacity:0.0; 
stroke:#000000; stroke-width:26; stroke-opacity:1; 
stroke-linecap:round; stroke-linejoin:round;">
<path d="M100473 27227
L100827 27227
" />
<path d="M100827 27227
L100827 27384
" />
<path d="M100473 27384
L100827 27384
" />
<path d="M100473 27227
L100473 27384
" />
<path d="M100473 26716
L100827 26716
" />
<path d="M100827 26716
L100827 26873
" />
<path d="M100473 26873
L100827 26873
" />
<path d="M100473 26716
L100473 26873
" />
<path d="M100473 27050
L100532 27050
" />
<path d="M100532 27050
L100532 27168
" />
<path d="M100473 27168
L100532 27168
" />
<path d="M100473 27050
L100473 27168
" />
<path d="M100768 27050
L100827 27050
" />
<path d="M100827 27050
L100827 27168
" />
<path d="M100768 27168
L100827 27168
" />
<path d="M100768 27050
L100768 27168
" />
<path d="M100591 27050
L100709 27050
" />
<path d="M100709 27050
L100709 27168
" />
<path d="M100591 27168
L100709 27168
" />
<path d="M100591 27050
L100591 27168
" />
</g>
<g style="fill:#000000; fill-opacity:0.0; 
stroke:#000000; stroke-width:40; stroke-opacity:1; 
stroke-linecap:round; stroke-linejoin:round;">
<path d="M100493 27227
L100493 26873
" />
<path d="M100807 27227
L100807 26873
" />
</g>
<g style="fill:#000000; fill-opacity:0.0; 
stroke:#000000; stroke-width:50; stroke-opacity:1; 
stroke-linecap:round; stroke-linejoin:round;">
<path d="M87700 23900
L89700 23900
" />
<path d="M87700 22200
L89700 22200
" />
<path d="M87700 21950
L87700 24150
" />
<path d="M87700 24150
L89700 24150
" />
<path d="M89700 24150
L89700 21950
" />
<path d="M89700 21950
L87700 21950
" />
</g>
<g style="fill:#000000; fill-opacity:0.0; 
stroke:#000000; stroke-width:39.3701; stroke-opacity:1; 
stroke-linecap:round; stroke-linejoin:round;">
</g>
<g style="fill:#000000; fill-opacity:1.0; 
stroke:#000000; stroke-width:39.3701; stroke-opacity:1; 
stroke-linecap:round; stroke-linejoin:round;">
<circle cx="85600" cy="61850" r="260.315" /> 
<circle cx="85600" cy="63850" r="260.315" /> 
<circle cx="81550" cy="51900" r="374.016" /> 
<circle cx="81550" cy="61650" r="374.016" /> 
<circle cx="98500" cy="63850" r="374.016" /> 
<circle cx="98550" cy="49350" r="374.016" /> 
<polyline style="fill-rule:evenodd;"
points="101823,48434
101076,48434
101076,47765
101823,47765
101823,48434
" /> 
<circle cx="101450" cy="49100" r="373.815" /> 
<circle cx="101450" cy="50100" r="373.815" /> 
<circle cx="101450" cy="51100" r="373.815" /> 
<polyline style="fill-rule:evenodd;"
points="101823,53034
101076,53034
101076,52365
101823,52365
101823,53034
" /> 
<circle cx="101450" cy="53700" r="373.815" /> 
<circle cx="101450" cy="54700" r="373.815" /> 
<circle cx="101450" cy="55700" r="373.815" /> 
<polyline style="fill-rule:evenodd;"
points="101823,57684
101076,57684
101076,57015
101823,57015
101823,57684
" /> 
<circle cx="101450" cy="58350" r="373.815" /> 
<circle cx="101450" cy="59350" r="373.815" /> 
<circle cx="101450" cy="60350" r="373.815" /> 
<polyline style="fill-rule:evenodd;"
points="101823,62284
101076,62284
101076,61615
101823,61615
101823,62284
" /> 
<circle cx="101450" cy="62950" r="373.815" /> 
<circle cx="101450" cy="63950" r="373.815" /> 
<circle cx="101450" cy="64950" r="373.815" /> 
<circle cx="83900" cy="56250" r="314.961" /> 
<circle cx="83900" cy="57250" r="314.961" /> 
<circle cx="83113" cy="57250" r="314.961" /> 
<circle cx="83113" cy="56250" r="314.961" /> 
<circle cx="82050" cy="54388" r="511.815" /> 
<circle cx="82050" cy="59112" r="511.815" /> 
</g> 
</svg>
